%TF.GenerationSoftware,KiCad,Pcbnew,10.0.0*%
%TF.CreationDate,2026-03-31T12:14:29+11:00*%
%TF.ProjectId,CAN-Interface-Board,43414e2d-496e-4746-9572-666163652d42,rev?*%
%TF.SameCoordinates,Original*%
%TF.FileFunction,Copper,L2,Inr*%
%TF.FilePolarity,Positive*%
%FSLAX46Y46*%
G04 Gerber Fmt 4.6, Leading zero omitted, Abs format (unit mm)*
G04 Created by KiCad (PCBNEW 10.0.0) date 2026-03-31 12:14:29*
%MOMM*%
%LPD*%
G01*
G04 APERTURE LIST*
G04 Aperture macros list*
%AMRoundRect*
0 Rectangle with rounded corners*
0 $1 Rounding radius*
0 $2 $3 $4 $5 $6 $7 $8 $9 X,Y pos of 4 corners*
0 Add a 4 corners polygon primitive as box body*
4,1,4,$2,$3,$4,$5,$6,$7,$8,$9,$2,$3,0*
0 Add four circle primitives for the rounded corners*
1,1,$1+$1,$2,$3*
1,1,$1+$1,$4,$5*
1,1,$1+$1,$6,$7*
1,1,$1+$1,$8,$9*
0 Add four rect primitives between the rounded corners*
20,1,$1+$1,$2,$3,$4,$5,0*
20,1,$1+$1,$4,$5,$6,$7,0*
20,1,$1+$1,$6,$7,$8,$9,0*
20,1,$1+$1,$8,$9,$2,$3,0*%
G04 Aperture macros list end*
%TA.AperFunction,ComponentPad*%
%ADD10R,2.300000X2.300000*%
%TD*%
%TA.AperFunction,ComponentPad*%
%ADD11C,2.300000*%
%TD*%
%TA.AperFunction,HeatsinkPad*%
%ADD12O,2.100000X1.000000*%
%TD*%
%TA.AperFunction,HeatsinkPad*%
%ADD13O,1.600000X1.000000*%
%TD*%
%TA.AperFunction,ComponentPad*%
%ADD14C,0.800000*%
%TD*%
%TA.AperFunction,ComponentPad*%
%ADD15C,6.400000*%
%TD*%
%TA.AperFunction,ComponentPad*%
%ADD16RoundRect,0.250000X0.750000X-0.600000X0.750000X0.600000X-0.750000X0.600000X-0.750000X-0.600000X0*%
%TD*%
%TA.AperFunction,ComponentPad*%
%ADD17O,2.000000X1.700000*%
%TD*%
%TA.AperFunction,ComponentPad*%
%ADD18RoundRect,0.250000X0.350000X0.625000X-0.350000X0.625000X-0.350000X-0.625000X0.350000X-0.625000X0*%
%TD*%
%TA.AperFunction,ComponentPad*%
%ADD19O,1.200000X1.750000*%
%TD*%
%TA.AperFunction,ComponentPad*%
%ADD20RoundRect,0.250000X0.600000X0.725000X-0.600000X0.725000X-0.600000X-0.725000X0.600000X-0.725000X0*%
%TD*%
%TA.AperFunction,ComponentPad*%
%ADD21O,1.700000X1.950000*%
%TD*%
%TA.AperFunction,ComponentPad*%
%ADD22R,1.000000X1.000000*%
%TD*%
%TA.AperFunction,ComponentPad*%
%ADD23C,1.000000*%
%TD*%
%TA.AperFunction,ViaPad*%
%ADD24C,0.600000*%
%TD*%
G04 APERTURE END LIST*
D10*
%TO.N,/CAN Transciever/CANH*%
%TO.C,CAN_IN1*%
X145100000Y-44100000D03*
D11*
%TO.N,/CAN Transciever/CANL*%
X145100000Y-49600000D03*
%TD*%
D10*
%TO.N,+BATT*%
%TO.C,PowerIn1*%
X121600000Y-115570000D03*
D11*
%TO.N,GND*%
X121600000Y-110070000D03*
%TD*%
D12*
%TO.N,unconnected-(J2-SHIELD-PadS1)*%
%TO.C,J2*%
X117670000Y-84480000D03*
D13*
%TO.N,unconnected-(J2-SHIELD-PadS1)_1*%
X113490000Y-84480000D03*
D12*
%TO.N,unconnected-(J2-SHIELD-PadS1)_2*%
X117670000Y-93120000D03*
D13*
%TO.N,unconnected-(J2-SHIELD-PadS1)_3*%
X113490000Y-93120000D03*
%TD*%
D14*
%TO.N,N/C*%
%TO.C,REF\u002A\u002A*%
X153600000Y-34000000D03*
X154302944Y-32302944D03*
X154302944Y-35697056D03*
X156000000Y-31600000D03*
D15*
X156000000Y-34000000D03*
D14*
X156000000Y-36400000D03*
X157697056Y-32302944D03*
X157697056Y-35697056D03*
X158400000Y-34000000D03*
%TD*%
D16*
%TO.N,GND*%
%TO.C,J5*%
X157100000Y-94700000D03*
D17*
%TO.N,/MCU/PWMServo_CAS*%
X157100000Y-92200000D03*
%TD*%
D10*
%TO.N,/CAN Transciever/CANH*%
%TO.C,CAN_OUT1*%
X136600000Y-44100000D03*
D11*
%TO.N,/CAN Transciever/CANL*%
X136600000Y-49600000D03*
%TD*%
D18*
%TO.N,/MCU/Encoder-B*%
%TO.C,J7*%
X140800000Y-117650000D03*
D19*
%TO.N,/MCU/Encoder-A*%
X138800000Y-117650000D03*
%TO.N,+3.3V*%
X136800000Y-117650000D03*
%TO.N,GND*%
X134800000Y-117650000D03*
%TD*%
D14*
%TO.N,N/C*%
%TO.C,REF\u002A\u002A*%
X111600000Y-34000000D03*
X112302944Y-32302944D03*
X112302944Y-35697056D03*
X114000000Y-31600000D03*
D15*
X114000000Y-34000000D03*
D14*
X114000000Y-36400000D03*
X115697056Y-32302944D03*
X115697056Y-35697056D03*
X116400000Y-34000000D03*
%TD*%
D16*
%TO.N,/MCU/LimitSwitchRoll*%
%TO.C,CN2*%
X157100000Y-103400000D03*
D17*
%TO.N,+3.3V*%
X157100000Y-100900000D03*
%TD*%
D14*
%TO.N,N/C*%
%TO.C,REF\u002A\u002A*%
X153600000Y-126000000D03*
X154302944Y-124302944D03*
X154302944Y-127697056D03*
X156000000Y-123600000D03*
D15*
X156000000Y-126000000D03*
D14*
X156000000Y-128400000D03*
X157697056Y-124302944D03*
X157697056Y-127697056D03*
X158400000Y-126000000D03*
%TD*%
D20*
%TO.N,+3.3V*%
%TO.C,J6*%
X142900000Y-126650000D03*
D21*
%TO.N,GND*%
X140400000Y-126650000D03*
%TO.N,/GPS1_TX*%
X137900000Y-126650000D03*
%TO.N,/GPS1_RX*%
X135400000Y-126650000D03*
%TO.N,/RESET1*%
X132900000Y-126650000D03*
%TD*%
D14*
%TO.N,N/C*%
%TO.C,REF\u002A\u002A*%
X111600000Y-126000000D03*
X112302944Y-124302944D03*
X112302944Y-127697056D03*
X114000000Y-123600000D03*
D15*
X114000000Y-126000000D03*
D14*
X114000000Y-128400000D03*
X115697056Y-124302944D03*
X115697056Y-127697056D03*
X116400000Y-126000000D03*
%TD*%
D16*
%TO.N,/MCU/LimitSwitchCAS*%
%TO.C,CN1*%
X157000000Y-115750000D03*
D17*
%TO.N,+3.3V*%
X157000000Y-113250000D03*
%TD*%
D22*
%TO.N,/MCU/SWCLK*%
%TO.C,J1*%
X126895000Y-31990000D03*
D23*
%TO.N,GND*%
X128165000Y-31990000D03*
%TO.N,unconnected-(J1-TDO-Pad3)*%
X126895000Y-33260000D03*
%TO.N,unconnected-(J1-PGM{slash}NC-Pad4)*%
X128165000Y-33260000D03*
%TO.N,/MCU/SWDIO*%
X126895000Y-34530000D03*
%TO.N,+3.3V*%
X128165000Y-34530000D03*
%TO.N,unconnected-(J1-VPUMP-Pad7)*%
X126895000Y-35800000D03*
%TO.N,/MCU/NRST*%
X128165000Y-35800000D03*
%TO.N,unconnected-(J1-TDI-Pad9)*%
X126895000Y-37070000D03*
%TO.N,GND*%
X128165000Y-37070000D03*
%TD*%
D16*
%TO.N,GND*%
%TO.C,J4*%
X157100000Y-86100000D03*
D17*
%TO.N,/MCU/PWMServo_Roll*%
X157100000Y-83600000D03*
%TD*%
D24*
%TO.N,GND*%
X126950000Y-78200000D03*
X148250000Y-60150000D03*
%TO.N,+3.3V*%
X135050000Y-77050000D03*
X117062500Y-39300000D03*
X157100000Y-74000000D03*
X155100000Y-48950000D03*
X131137500Y-95262500D03*
X122600000Y-56950000D03*
X138150000Y-73450000D03*
X159100000Y-64100000D03*
X131000000Y-104350000D03*
X124985001Y-105864999D03*
X121500000Y-73500000D03*
X128200000Y-67800000D03*
X126550000Y-65050000D03*
X131200000Y-69600000D03*
X130950000Y-35725000D03*
X139600000Y-73700000D03*
X158000000Y-59900000D03*
X112200000Y-56150000D03*
X111950000Y-43000000D03*
X132500000Y-58300000D03*
X138600000Y-64950000D03*
X140000000Y-65000000D03*
X134500000Y-62300000D03*
%TO.N,/Barometer/Baraometer-SCK*%
X145716876Y-66685467D03*
X131700000Y-66700000D03*
X136600000Y-72950000D03*
%TO.N,GND*%
X117600000Y-75000000D03*
X130950000Y-31075000D03*
X120500000Y-93550000D03*
X155877500Y-60081252D03*
X137000000Y-62700000D03*
X151200000Y-37400000D03*
X129000000Y-95100000D03*
X114800000Y-62900000D03*
X142500000Y-76300000D03*
X146927498Y-52281250D03*
X132950000Y-77150000D03*
X153777500Y-60081250D03*
X127100000Y-105800000D03*
X149577500Y-58181250D03*
X151500000Y-78087500D03*
X122900000Y-82300000D03*
X149577500Y-59981250D03*
X141300000Y-56400000D03*
X139600000Y-72100000D03*
X111662500Y-39800000D03*
X142000000Y-61300000D03*
X146877500Y-56581250D03*
X155877500Y-52281250D03*
X155500000Y-77250000D03*
X122300000Y-98100000D03*
X148877500Y-52281250D03*
X159200000Y-63300000D03*
X155877500Y-56581250D03*
X122600000Y-101400000D03*
X153211307Y-120000000D03*
X150877500Y-52281250D03*
X151050000Y-49050000D03*
X129700000Y-105800000D03*
X114300000Y-55700000D03*
X159162499Y-66137501D03*
X132400000Y-62300000D03*
X131750000Y-105750000D03*
X117900000Y-101600000D03*
X134200000Y-56200000D03*
X137200000Y-78050000D03*
X116400000Y-99350000D03*
X119750000Y-101700000D03*
X153877500Y-52281250D03*
X119600000Y-82600000D03*
X146877500Y-54581250D03*
X123800000Y-96300000D03*
X116900000Y-49600000D03*
X155877500Y-58581250D03*
X136432449Y-71449971D03*
X155877500Y-54581250D03*
X146877500Y-58081250D03*
X154200000Y-107700000D03*
X122900000Y-91000000D03*
%TO.N,/Barometer/Baraometer-MOSI*%
X139350002Y-67551846D03*
X131600000Y-67600000D03*
%TO.N,/Barometer/Baraometer-ChipSelect*%
X132900000Y-73000000D03*
X141100000Y-69000000D03*
%TO.N,Net-(J2-CC1)*%
X120800000Y-85100000D03*
X120800000Y-87500000D03*
%TO.N,/FlashSD/SDMISO*%
X124362185Y-72574731D03*
X147150000Y-65645789D03*
%TO.N,/FlashSD/SDMOSI*%
X123250000Y-76145000D03*
X145810510Y-64980183D03*
%TO.N,/MCU/PWMServo_CAS*%
X152000000Y-71900000D03*
%TO.N,/MCU/BOOT0*%
X154228156Y-65618696D03*
X119850000Y-62950000D03*
%TO.N,/MCU/NRST*%
X150539880Y-64897794D03*
X128950000Y-53600000D03*
%TO.N,/MCU/RGB_DATA*%
X119050000Y-44850000D03*
X143550000Y-61400000D03*
%TO.N,/IMU/IMU_CS*%
X131350000Y-65150000D03*
X145832952Y-65829889D03*
%TO.N,/MCU/PWMServo_Roll*%
X152336414Y-71232826D03*
%TO.N,/FlashSD/SDCLK*%
X145557549Y-70160896D03*
X131350000Y-74750000D03*
%TO.N,/CAN Transciever/CAN_TX_2*%
X147050000Y-70772295D03*
X150500000Y-47100000D03*
%TO.N,/CAN Transciever/CAN_RX_2*%
X147804635Y-71163487D03*
X155600000Y-47100000D03*
%TO.N,/RESET1*%
X143557661Y-77170914D03*
%TO.N,/MCU/SWDIO*%
X151406146Y-63675570D03*
X130400000Y-40250000D03*
%TO.N,/MCU/SWCLK*%
X130100000Y-42000000D03*
X152100000Y-64200000D03*
%TO.N,/GPS1_RX*%
X153100000Y-68550000D03*
%TO.N,/GPS1_TX*%
X154250000Y-68850000D03*
%TO.N,/MCU/Encoder-A*%
X148900000Y-75450000D03*
%TO.N,/MCU/Encoder-B*%
X148200000Y-75950000D03*
%TD*%
%TA.AperFunction,Conductor*%
%TO.N,GND*%
G36*
X154269031Y-30520185D02*
G01*
X154314786Y-30572989D01*
X154324730Y-30642147D01*
X154295705Y-30705703D01*
X154260445Y-30733858D01*
X154095279Y-30822140D01*
X154095261Y-30822151D01*
X153792964Y-31024140D01*
X153792950Y-31024150D01*
X153511893Y-31254807D01*
X153254807Y-31511893D01*
X153024150Y-31792950D01*
X153024140Y-31792964D01*
X152822151Y-32095261D01*
X152822140Y-32095279D01*
X152650756Y-32415916D01*
X152650754Y-32415921D01*
X152511614Y-32751834D01*
X152406067Y-33099776D01*
X152406064Y-33099787D01*
X152335137Y-33456369D01*
X152299500Y-33818209D01*
X152299500Y-34181790D01*
X152335137Y-34543630D01*
X152406064Y-34900212D01*
X152406067Y-34900223D01*
X152511614Y-35248165D01*
X152650754Y-35584078D01*
X152650756Y-35584083D01*
X152822140Y-35904720D01*
X152822151Y-35904738D01*
X153024140Y-36207035D01*
X153024150Y-36207049D01*
X153254807Y-36488106D01*
X153511893Y-36745192D01*
X153511898Y-36745196D01*
X153511899Y-36745197D01*
X153792956Y-36975854D01*
X154095268Y-37177853D01*
X154095277Y-37177858D01*
X154095279Y-37177859D01*
X154415916Y-37349243D01*
X154415918Y-37349243D01*
X154415924Y-37349247D01*
X154751836Y-37488386D01*
X155099767Y-37593930D01*
X155099773Y-37593931D01*
X155099776Y-37593932D01*
X155099787Y-37593935D01*
X155456369Y-37664862D01*
X155818206Y-37700500D01*
X155818209Y-37700500D01*
X156181791Y-37700500D01*
X156181794Y-37700500D01*
X156543631Y-37664862D01*
X156613045Y-37651054D01*
X156900212Y-37593935D01*
X156900223Y-37593932D01*
X156900223Y-37593931D01*
X156900233Y-37593930D01*
X157248164Y-37488386D01*
X157584076Y-37349247D01*
X157904732Y-37177853D01*
X158207044Y-36975854D01*
X158488101Y-36745197D01*
X158745197Y-36488101D01*
X158975854Y-36207044D01*
X159177853Y-35904732D01*
X159266142Y-35739555D01*
X159315104Y-35689711D01*
X159383242Y-35674250D01*
X159448921Y-35698082D01*
X159491290Y-35753639D01*
X159499500Y-35798008D01*
X159499500Y-63213444D01*
X159479815Y-63280483D01*
X159427011Y-63326238D01*
X159357853Y-63336182D01*
X159339575Y-63331202D01*
X159339324Y-63332031D01*
X159333500Y-63330264D01*
X159333497Y-63330263D01*
X159333492Y-63330262D01*
X159333489Y-63330261D01*
X159178845Y-63299500D01*
X159178842Y-63299500D01*
X159021158Y-63299500D01*
X159021155Y-63299500D01*
X158866510Y-63330261D01*
X158866498Y-63330264D01*
X158720827Y-63390602D01*
X158720814Y-63390609D01*
X158589711Y-63478210D01*
X158589707Y-63478213D01*
X158478213Y-63589707D01*
X158478210Y-63589711D01*
X158390609Y-63720814D01*
X158390602Y-63720827D01*
X158330264Y-63866498D01*
X158330261Y-63866510D01*
X158299500Y-64021153D01*
X158299500Y-64178846D01*
X158330261Y-64333489D01*
X158330264Y-64333501D01*
X158390602Y-64479172D01*
X158390609Y-64479185D01*
X158478210Y-64610288D01*
X158478213Y-64610292D01*
X158589707Y-64721786D01*
X158589711Y-64721789D01*
X158720814Y-64809390D01*
X158720827Y-64809397D01*
X158866498Y-64869735D01*
X158866503Y-64869737D01*
X158996982Y-64895691D01*
X159021153Y-64900499D01*
X159021156Y-64900500D01*
X159021158Y-64900500D01*
X159178844Y-64900500D01*
X159178845Y-64900499D01*
X159333497Y-64869737D01*
X159333509Y-64869731D01*
X159339324Y-64867969D01*
X159340158Y-64870720D01*
X159397359Y-64864497D01*
X159459878Y-64895691D01*
X159495608Y-64955734D01*
X159499500Y-64986555D01*
X159499500Y-124201991D01*
X159479815Y-124269030D01*
X159427011Y-124314785D01*
X159357853Y-124324729D01*
X159294297Y-124295704D01*
X159266142Y-124260444D01*
X159177859Y-124095279D01*
X159177858Y-124095277D01*
X159177853Y-124095268D01*
X158975854Y-123792956D01*
X158745197Y-123511899D01*
X158745196Y-123511898D01*
X158745192Y-123511893D01*
X158488106Y-123254807D01*
X158207049Y-123024150D01*
X158207048Y-123024149D01*
X158207044Y-123024146D01*
X157904732Y-122822147D01*
X157904727Y-122822144D01*
X157904720Y-122822140D01*
X157584083Y-122650756D01*
X157584078Y-122650754D01*
X157248165Y-122511614D01*
X156900223Y-122406067D01*
X156900212Y-122406064D01*
X156543630Y-122335137D01*
X156271111Y-122308296D01*
X156181794Y-122299500D01*
X155818206Y-122299500D01*
X155735679Y-122307628D01*
X155456369Y-122335137D01*
X155099787Y-122406064D01*
X155099776Y-122406067D01*
X154751834Y-122511614D01*
X154415921Y-122650754D01*
X154415916Y-122650756D01*
X154095279Y-122822140D01*
X154095261Y-122822151D01*
X153792964Y-123024140D01*
X153792950Y-123024150D01*
X153511893Y-123254807D01*
X153254807Y-123511893D01*
X153024150Y-123792950D01*
X153024140Y-123792964D01*
X152822151Y-124095261D01*
X152822140Y-124095279D01*
X152650756Y-124415916D01*
X152650754Y-124415921D01*
X152511614Y-124751834D01*
X152406067Y-125099776D01*
X152406064Y-125099787D01*
X152335137Y-125456369D01*
X152299500Y-125818209D01*
X152299500Y-126181790D01*
X152335137Y-126543630D01*
X152406064Y-126900212D01*
X152406067Y-126900223D01*
X152511614Y-127248165D01*
X152650754Y-127584078D01*
X152650756Y-127584083D01*
X152822140Y-127904720D01*
X152822144Y-127904727D01*
X152822147Y-127904732D01*
X152993764Y-128161575D01*
X153024140Y-128207035D01*
X153024150Y-128207049D01*
X153254807Y-128488106D01*
X153511893Y-128745192D01*
X153511898Y-128745196D01*
X153511899Y-128745197D01*
X153792956Y-128975854D01*
X154095268Y-129177853D01*
X154095277Y-129177858D01*
X154095279Y-129177859D01*
X154260445Y-129266142D01*
X154310289Y-129315104D01*
X154325750Y-129383242D01*
X154301918Y-129448921D01*
X154246361Y-129491290D01*
X154201992Y-129499500D01*
X115798008Y-129499500D01*
X115730969Y-129479815D01*
X115685214Y-129427011D01*
X115675270Y-129357853D01*
X115704295Y-129294297D01*
X115739555Y-129266142D01*
X115838608Y-129213197D01*
X115904732Y-129177853D01*
X116207044Y-128975854D01*
X116488101Y-128745197D01*
X116745197Y-128488101D01*
X116975854Y-128207044D01*
X117177853Y-127904732D01*
X117349247Y-127584076D01*
X117488386Y-127248164D01*
X117593930Y-126900233D01*
X117593932Y-126900223D01*
X117593935Y-126900212D01*
X117664862Y-126543630D01*
X117677165Y-126418713D01*
X131549500Y-126418713D01*
X131549500Y-126881287D01*
X131582754Y-127091243D01*
X131633741Y-127248165D01*
X131648444Y-127293414D01*
X131744951Y-127482820D01*
X131869890Y-127654786D01*
X132020213Y-127805109D01*
X132192179Y-127930048D01*
X132192181Y-127930049D01*
X132192184Y-127930051D01*
X132381588Y-128026557D01*
X132583757Y-128092246D01*
X132793713Y-128125500D01*
X132793714Y-128125500D01*
X133006286Y-128125500D01*
X133006287Y-128125500D01*
X133216243Y-128092246D01*
X133418412Y-128026557D01*
X133607816Y-127930051D01*
X133642681Y-127904720D01*
X133779786Y-127805109D01*
X133779788Y-127805106D01*
X133779792Y-127805104D01*
X133930104Y-127654792D01*
X134049683Y-127490204D01*
X134105011Y-127447540D01*
X134174624Y-127441561D01*
X134236420Y-127474166D01*
X134250313Y-127490199D01*
X134353606Y-127632371D01*
X134369896Y-127654792D01*
X134520213Y-127805109D01*
X134692179Y-127930048D01*
X134692181Y-127930049D01*
X134692184Y-127930051D01*
X134881588Y-128026557D01*
X135083757Y-128092246D01*
X135293713Y-128125500D01*
X135293714Y-128125500D01*
X135506286Y-128125500D01*
X135506287Y-128125500D01*
X135716243Y-128092246D01*
X135918412Y-128026557D01*
X136107816Y-127930051D01*
X136142681Y-127904720D01*
X136279786Y-127805109D01*
X136279788Y-127805106D01*
X136279792Y-127805104D01*
X136430104Y-127654792D01*
X136549683Y-127490204D01*
X136605011Y-127447540D01*
X136674624Y-127441561D01*
X136736420Y-127474166D01*
X136750313Y-127490199D01*
X136853606Y-127632371D01*
X136869896Y-127654792D01*
X137020213Y-127805109D01*
X137192179Y-127930048D01*
X137192181Y-127930049D01*
X137192184Y-127930051D01*
X137381588Y-128026557D01*
X137583757Y-128092246D01*
X137793713Y-128125500D01*
X137793714Y-128125500D01*
X138006286Y-128125500D01*
X138006287Y-128125500D01*
X138216243Y-128092246D01*
X138418412Y-128026557D01*
X138607816Y-127930051D01*
X138642681Y-127904720D01*
X138779786Y-127805109D01*
X138779788Y-127805106D01*
X138779792Y-127805104D01*
X138930104Y-127654792D01*
X139049991Y-127489779D01*
X139105320Y-127447115D01*
X139174933Y-127441136D01*
X139236729Y-127473741D01*
X139250627Y-127489781D01*
X139370272Y-127654459D01*
X139370276Y-127654464D01*
X139520535Y-127804723D01*
X139520540Y-127804727D01*
X139692442Y-127929620D01*
X139881782Y-128026095D01*
X140083871Y-128091757D01*
X140150000Y-128102231D01*
X140150000Y-127054145D01*
X140216657Y-127092630D01*
X140337465Y-127125000D01*
X140462535Y-127125000D01*
X140583343Y-127092630D01*
X140650000Y-127054145D01*
X140650000Y-128102230D01*
X140716126Y-128091757D01*
X140716129Y-128091757D01*
X140918217Y-128026095D01*
X141107557Y-127929620D01*
X141279458Y-127804728D01*
X141418330Y-127665856D01*
X141479653Y-127632371D01*
X141549345Y-127637355D01*
X141605279Y-127679226D01*
X141611551Y-127688440D01*
X141615185Y-127694331D01*
X141615186Y-127694334D01*
X141707288Y-127843656D01*
X141831344Y-127967712D01*
X141980666Y-128059814D01*
X142147203Y-128114999D01*
X142249991Y-128125500D01*
X143550008Y-128125499D01*
X143652797Y-128114999D01*
X143819334Y-128059814D01*
X143968656Y-127967712D01*
X144092712Y-127843656D01*
X144184814Y-127694334D01*
X144239999Y-127527797D01*
X144250500Y-127425009D01*
X144250499Y-125874992D01*
X144248851Y-125858863D01*
X144239999Y-125772203D01*
X144239998Y-125772200D01*
X144184814Y-125605666D01*
X144092712Y-125456344D01*
X143968656Y-125332288D01*
X143819334Y-125240186D01*
X143652797Y-125185001D01*
X143652795Y-125185000D01*
X143550010Y-125174500D01*
X142249998Y-125174500D01*
X142249981Y-125174501D01*
X142147203Y-125185000D01*
X142147200Y-125185001D01*
X141980668Y-125240185D01*
X141980663Y-125240187D01*
X141831342Y-125332289D01*
X141707289Y-125456342D01*
X141611551Y-125611559D01*
X141559603Y-125658283D01*
X141490640Y-125669506D01*
X141426558Y-125641662D01*
X141418331Y-125634143D01*
X141279464Y-125495276D01*
X141279459Y-125495272D01*
X141107557Y-125370379D01*
X140918215Y-125273903D01*
X140716124Y-125208241D01*
X140650000Y-125197768D01*
X140650000Y-126245854D01*
X140583343Y-126207370D01*
X140462535Y-126175000D01*
X140337465Y-126175000D01*
X140216657Y-126207370D01*
X140150000Y-126245854D01*
X140150000Y-125197768D01*
X140149999Y-125197768D01*
X140083875Y-125208241D01*
X139881784Y-125273903D01*
X139692442Y-125370379D01*
X139520540Y-125495272D01*
X139520535Y-125495276D01*
X139370276Y-125645535D01*
X139370272Y-125645540D01*
X139250627Y-125810218D01*
X139195297Y-125852884D01*
X139125684Y-125858863D01*
X139063889Y-125826257D01*
X139049991Y-125810218D01*
X138930109Y-125645214D01*
X138930105Y-125645209D01*
X138779786Y-125494890D01*
X138607820Y-125369951D01*
X138418414Y-125273444D01*
X138418413Y-125273443D01*
X138418412Y-125273443D01*
X138216243Y-125207754D01*
X138216241Y-125207753D01*
X138216240Y-125207753D01*
X138054957Y-125182208D01*
X138006287Y-125174500D01*
X137793713Y-125174500D01*
X137745042Y-125182208D01*
X137583760Y-125207753D01*
X137381585Y-125273444D01*
X137192179Y-125369951D01*
X137020213Y-125494890D01*
X136869894Y-125645209D01*
X136869890Y-125645214D01*
X136750318Y-125809793D01*
X136694989Y-125852459D01*
X136625375Y-125858438D01*
X136563580Y-125825833D01*
X136549682Y-125809793D01*
X136430109Y-125645214D01*
X136430105Y-125645209D01*
X136279786Y-125494890D01*
X136107820Y-125369951D01*
X135918414Y-125273444D01*
X135918413Y-125273443D01*
X135918412Y-125273443D01*
X135716243Y-125207754D01*
X135716241Y-125207753D01*
X135716240Y-125207753D01*
X135554957Y-125182208D01*
X135506287Y-125174500D01*
X135293713Y-125174500D01*
X135245042Y-125182208D01*
X135083760Y-125207753D01*
X134881585Y-125273444D01*
X134692179Y-125369951D01*
X134520213Y-125494890D01*
X134369894Y-125645209D01*
X134369890Y-125645214D01*
X134250318Y-125809793D01*
X134194989Y-125852459D01*
X134125375Y-125858438D01*
X134063580Y-125825833D01*
X134049682Y-125809793D01*
X133930109Y-125645214D01*
X133930105Y-125645209D01*
X133779786Y-125494890D01*
X133607820Y-125369951D01*
X133418414Y-125273444D01*
X133418413Y-125273443D01*
X133418412Y-125273443D01*
X133216243Y-125207754D01*
X133216241Y-125207753D01*
X133216240Y-125207753D01*
X133054957Y-125182208D01*
X133006287Y-125174500D01*
X132793713Y-125174500D01*
X132745042Y-125182208D01*
X132583760Y-125207753D01*
X132381585Y-125273444D01*
X132192179Y-125369951D01*
X132020213Y-125494890D01*
X131869890Y-125645213D01*
X131744951Y-125817179D01*
X131648444Y-126006585D01*
X131582753Y-126208760D01*
X131573069Y-126269905D01*
X131549500Y-126418713D01*
X117677165Y-126418713D01*
X117678842Y-126401687D01*
X117683111Y-126358343D01*
X117700500Y-126181794D01*
X117700500Y-125818206D01*
X117664862Y-125456369D01*
X117628568Y-125273903D01*
X117593935Y-125099787D01*
X117593932Y-125099776D01*
X117593931Y-125099773D01*
X117593930Y-125099767D01*
X117488386Y-124751836D01*
X117349247Y-124415924D01*
X117302577Y-124328611D01*
X117177859Y-124095279D01*
X117177858Y-124095277D01*
X117177853Y-124095268D01*
X116975854Y-123792956D01*
X116745197Y-123511899D01*
X116745196Y-123511898D01*
X116745192Y-123511893D01*
X116488106Y-123254807D01*
X116207049Y-123024150D01*
X116207048Y-123024149D01*
X116207044Y-123024146D01*
X116148060Y-122984734D01*
X115952866Y-122854309D01*
X115952864Y-122854307D01*
X115904748Y-122822157D01*
X115904720Y-122822140D01*
X115779593Y-122755258D01*
X119849500Y-122755258D01*
X119849500Y-122984741D01*
X119854689Y-123024150D01*
X119879452Y-123212238D01*
X119938842Y-123433887D01*
X120026650Y-123645876D01*
X120026656Y-123645888D01*
X120111565Y-123792956D01*
X120141392Y-123844617D01*
X120281081Y-124026661D01*
X120281089Y-124026670D01*
X120443330Y-124188911D01*
X120443338Y-124188918D01*
X120625382Y-124328607D01*
X120625385Y-124328608D01*
X120625388Y-124328611D01*
X120824112Y-124443344D01*
X120824117Y-124443346D01*
X120824123Y-124443349D01*
X120915480Y-124481190D01*
X121036113Y-124531158D01*
X121257762Y-124590548D01*
X121485266Y-124620500D01*
X121485273Y-124620500D01*
X121714727Y-124620500D01*
X121714734Y-124620500D01*
X121942238Y-124590548D01*
X122163887Y-124531158D01*
X122375888Y-124443344D01*
X122574612Y-124328611D01*
X122756661Y-124188919D01*
X122756665Y-124188914D01*
X122756670Y-124188911D01*
X122918911Y-124026670D01*
X122918914Y-124026665D01*
X122918919Y-124026661D01*
X123058611Y-123844612D01*
X123173344Y-123645888D01*
X123261158Y-123433887D01*
X123320548Y-123212238D01*
X123350500Y-122984734D01*
X123350500Y-122755266D01*
X123320548Y-122527762D01*
X123261158Y-122306113D01*
X123173344Y-122094112D01*
X123058611Y-121895388D01*
X123058608Y-121895385D01*
X123058607Y-121895382D01*
X122918918Y-121713338D01*
X122918911Y-121713330D01*
X122756670Y-121551089D01*
X122756661Y-121551081D01*
X122574617Y-121411392D01*
X122375890Y-121296657D01*
X122375876Y-121296650D01*
X122163887Y-121208842D01*
X121942238Y-121149452D01*
X121904215Y-121144446D01*
X121714741Y-121119500D01*
X121714734Y-121119500D01*
X121485266Y-121119500D01*
X121485258Y-121119500D01*
X121268715Y-121148009D01*
X121257762Y-121149452D01*
X121164076Y-121174554D01*
X121036112Y-121208842D01*
X120824123Y-121296650D01*
X120824109Y-121296657D01*
X120625382Y-121411392D01*
X120443338Y-121551081D01*
X120281081Y-121713338D01*
X120141392Y-121895382D01*
X120026657Y-122094109D01*
X120026650Y-122094123D01*
X119938842Y-122306112D01*
X119879453Y-122527759D01*
X119879451Y-122527770D01*
X119849500Y-122755258D01*
X115779593Y-122755258D01*
X115584083Y-122650756D01*
X115584078Y-122650754D01*
X115248165Y-122511614D01*
X114900223Y-122406067D01*
X114900212Y-122406064D01*
X114543630Y-122335137D01*
X114271111Y-122308296D01*
X114181794Y-122299500D01*
X113818206Y-122299500D01*
X113735679Y-122307628D01*
X113456369Y-122335137D01*
X113099787Y-122406064D01*
X113099776Y-122406067D01*
X112751834Y-122511614D01*
X112415921Y-122650754D01*
X112415916Y-122650756D01*
X112095279Y-122822140D01*
X112095261Y-122822151D01*
X111792964Y-123024140D01*
X111792950Y-123024150D01*
X111511893Y-123254807D01*
X111254807Y-123511893D01*
X111024150Y-123792950D01*
X111024140Y-123792964D01*
X110822151Y-124095261D01*
X110822140Y-124095279D01*
X110733858Y-124260444D01*
X110684896Y-124310289D01*
X110616758Y-124325749D01*
X110551078Y-124301917D01*
X110508710Y-124246360D01*
X110500500Y-124201991D01*
X110500500Y-117288428D01*
X133700000Y-117288428D01*
X133700000Y-117400000D01*
X134519670Y-117400000D01*
X134499925Y-117419745D01*
X134450556Y-117505255D01*
X134425000Y-117600630D01*
X134425000Y-117699370D01*
X134450556Y-117794745D01*
X134499925Y-117880255D01*
X134519670Y-117900000D01*
X133700000Y-117900000D01*
X133700000Y-118011571D01*
X133727085Y-118182584D01*
X133780591Y-118347257D01*
X133859195Y-118501524D01*
X133960967Y-118641602D01*
X134083397Y-118764032D01*
X134223475Y-118865804D01*
X134377744Y-118944408D01*
X134542415Y-118997914D01*
X134542414Y-118997914D01*
X134549999Y-118999115D01*
X134550000Y-118999114D01*
X134550000Y-117930330D01*
X134569745Y-117950075D01*
X134655255Y-117999444D01*
X134750630Y-118025000D01*
X134849370Y-118025000D01*
X134944745Y-117999444D01*
X135030255Y-117950075D01*
X135050000Y-117930330D01*
X135050000Y-118999115D01*
X135057584Y-118997914D01*
X135222255Y-118944408D01*
X135376524Y-118865804D01*
X135516602Y-118764032D01*
X135639036Y-118641598D01*
X135699371Y-118558552D01*
X135754700Y-118515886D01*
X135824313Y-118509905D01*
X135886109Y-118542510D01*
X135900008Y-118558550D01*
X135900318Y-118558976D01*
X135960586Y-118641928D01*
X136083072Y-118764414D01*
X136223212Y-118866232D01*
X136377555Y-118944873D01*
X136542299Y-118998402D01*
X136713389Y-119025500D01*
X136713390Y-119025500D01*
X136886610Y-119025500D01*
X136886611Y-119025500D01*
X137057701Y-118998402D01*
X137222445Y-118944873D01*
X137376788Y-118866232D01*
X137516928Y-118764414D01*
X137639414Y-118641928D01*
X137699682Y-118558975D01*
X137755012Y-118516311D01*
X137824626Y-118510332D01*
X137886421Y-118542938D01*
X137900315Y-118558973D01*
X137960586Y-118641928D01*
X138083072Y-118764414D01*
X138223212Y-118866232D01*
X138377555Y-118944873D01*
X138542299Y-118998402D01*
X138713389Y-119025500D01*
X138713390Y-119025500D01*
X138886610Y-119025500D01*
X138886611Y-119025500D01*
X139057701Y-118998402D01*
X139222445Y-118944873D01*
X139376788Y-118866232D01*
X139516928Y-118764414D01*
X139624472Y-118656869D01*
X139685791Y-118623387D01*
X139755483Y-118628371D01*
X139811417Y-118670242D01*
X139817688Y-118679456D01*
X139857285Y-118743652D01*
X139857288Y-118743656D01*
X139981344Y-118867712D01*
X140130666Y-118959814D01*
X140297203Y-119014999D01*
X140399991Y-119025500D01*
X141200008Y-119025499D01*
X141200016Y-119025498D01*
X141200019Y-119025498D01*
X141256302Y-119019748D01*
X141302797Y-119014999D01*
X141469334Y-118959814D01*
X141618656Y-118867712D01*
X141742712Y-118743656D01*
X141834814Y-118594334D01*
X141889999Y-118427797D01*
X141900500Y-118325009D01*
X141900499Y-116974992D01*
X141889999Y-116872203D01*
X141834814Y-116705666D01*
X141742712Y-116556344D01*
X141618656Y-116432288D01*
X141493559Y-116355128D01*
X141469336Y-116340187D01*
X141469331Y-116340185D01*
X141467862Y-116339698D01*
X141302797Y-116285001D01*
X141302795Y-116285000D01*
X141200010Y-116274500D01*
X140399998Y-116274500D01*
X140399980Y-116274501D01*
X140297203Y-116285000D01*
X140297200Y-116285001D01*
X140130668Y-116340185D01*
X140130663Y-116340187D01*
X139981342Y-116432289D01*
X139857287Y-116556344D01*
X139817688Y-116620544D01*
X139765739Y-116667268D01*
X139696777Y-116678489D01*
X139632695Y-116650645D01*
X139624469Y-116643127D01*
X139516930Y-116535588D01*
X139516928Y-116535586D01*
X139376788Y-116433768D01*
X139222445Y-116355127D01*
X139057701Y-116301598D01*
X139057699Y-116301597D01*
X139057698Y-116301597D01*
X138926271Y-116280781D01*
X138886611Y-116274500D01*
X138713389Y-116274500D01*
X138673728Y-116280781D01*
X138542302Y-116301597D01*
X138377552Y-116355128D01*
X138223211Y-116433768D01*
X138143256Y-116491859D01*
X138083072Y-116535586D01*
X138083070Y-116535588D01*
X138083069Y-116535588D01*
X137960588Y-116658069D01*
X137960581Y-116658078D01*
X137900317Y-116741023D01*
X137844987Y-116783689D01*
X137775374Y-116789667D01*
X137713579Y-116757061D01*
X137699683Y-116741023D01*
X137639418Y-116658078D01*
X137639414Y-116658072D01*
X137516928Y-116535586D01*
X137376788Y-116433768D01*
X137222445Y-116355127D01*
X137057701Y-116301598D01*
X137057699Y-116301597D01*
X137057698Y-116301597D01*
X136926271Y-116280781D01*
X136886611Y-116274500D01*
X136713389Y-116274500D01*
X136673728Y-116280781D01*
X136542302Y-116301597D01*
X136377552Y-116355128D01*
X136223211Y-116433768D01*
X136143256Y-116491859D01*
X136083072Y-116535586D01*
X136083070Y-116535588D01*
X136083069Y-116535588D01*
X135960585Y-116658072D01*
X135900007Y-116741450D01*
X135844677Y-116784115D01*
X135775063Y-116790093D01*
X135713269Y-116757486D01*
X135699371Y-116741447D01*
X135639036Y-116658401D01*
X135516602Y-116535967D01*
X135376524Y-116434195D01*
X135222257Y-116355591D01*
X135057589Y-116302087D01*
X135057581Y-116302085D01*
X135050000Y-116300884D01*
X135050000Y-117369670D01*
X135030255Y-117349925D01*
X134944745Y-117300556D01*
X134849370Y-117275000D01*
X134750630Y-117275000D01*
X134655255Y-117300556D01*
X134569745Y-117349925D01*
X134550000Y-117369670D01*
X134550000Y-116300884D01*
X134549999Y-116300884D01*
X134542418Y-116302085D01*
X134542410Y-116302087D01*
X134377742Y-116355591D01*
X134223475Y-116434195D01*
X134083397Y-116535967D01*
X133960967Y-116658397D01*
X133859195Y-116798475D01*
X133780591Y-116952742D01*
X133727085Y-117117415D01*
X133700000Y-117288428D01*
X110500500Y-117288428D01*
X110500500Y-114372135D01*
X119949500Y-114372135D01*
X119949500Y-116767870D01*
X119949501Y-116767876D01*
X119955908Y-116827483D01*
X120006202Y-116962328D01*
X120006206Y-116962335D01*
X120092452Y-117077544D01*
X120092455Y-117077547D01*
X120207664Y-117163793D01*
X120207671Y-117163797D01*
X120342517Y-117214091D01*
X120342516Y-117214091D01*
X120349444Y-117214835D01*
X120402127Y-117220500D01*
X122797872Y-117220499D01*
X122857483Y-117214091D01*
X122982739Y-117167374D01*
X122992328Y-117163797D01*
X122992327Y-117163797D01*
X122992331Y-117163796D01*
X123107546Y-117077546D01*
X123193796Y-116962331D01*
X123244091Y-116827483D01*
X123250500Y-116767873D01*
X123250499Y-114372128D01*
X123244091Y-114312517D01*
X123227711Y-114268601D01*
X123193797Y-114177671D01*
X123193793Y-114177664D01*
X123107547Y-114062455D01*
X123107544Y-114062452D01*
X122992335Y-113976206D01*
X122992328Y-113976202D01*
X122857482Y-113925908D01*
X122857483Y-113925908D01*
X122797883Y-113919501D01*
X122797881Y-113919500D01*
X122797873Y-113919500D01*
X122797864Y-113919500D01*
X120402129Y-113919500D01*
X120402123Y-113919501D01*
X120342516Y-113925908D01*
X120207671Y-113976202D01*
X120207664Y-113976206D01*
X120092455Y-114062452D01*
X120092452Y-114062455D01*
X120006206Y-114177664D01*
X120006202Y-114177671D01*
X119955908Y-114312517D01*
X119954037Y-114329924D01*
X119949501Y-114372123D01*
X119949500Y-114372135D01*
X110500500Y-114372135D01*
X110500500Y-113143713D01*
X155499500Y-113143713D01*
X155499500Y-113356286D01*
X155532753Y-113566239D01*
X155598444Y-113768414D01*
X155694951Y-113957820D01*
X155819890Y-114129786D01*
X155958705Y-114268601D01*
X155992190Y-114329924D01*
X155987206Y-114399616D01*
X155945334Y-114455549D01*
X155936121Y-114461821D01*
X155781342Y-114557289D01*
X155657289Y-114681342D01*
X155565187Y-114830663D01*
X155565186Y-114830666D01*
X155510001Y-114997203D01*
X155510001Y-114997204D01*
X155510000Y-114997204D01*
X155499500Y-115099983D01*
X155499500Y-116400001D01*
X155499501Y-116400018D01*
X155510000Y-116502796D01*
X155510001Y-116502799D01*
X155556502Y-116643127D01*
X155565186Y-116669334D01*
X155657288Y-116818656D01*
X155781344Y-116942712D01*
X155930666Y-117034814D01*
X156097203Y-117089999D01*
X156199991Y-117100500D01*
X157800008Y-117100499D01*
X157902797Y-117089999D01*
X158069334Y-117034814D01*
X158218656Y-116942712D01*
X158342712Y-116818656D01*
X158434814Y-116669334D01*
X158489999Y-116502797D01*
X158500500Y-116400009D01*
X158500499Y-115099992D01*
X158489999Y-114997203D01*
X158434814Y-114830666D01*
X158342712Y-114681344D01*
X158218656Y-114557288D01*
X158069334Y-114465186D01*
X158069333Y-114465185D01*
X158063878Y-114461821D01*
X158017154Y-114409873D01*
X158005931Y-114340910D01*
X158033775Y-114276828D01*
X158041272Y-114268623D01*
X158180104Y-114129792D01*
X158305051Y-113957816D01*
X158401557Y-113768412D01*
X158467246Y-113566243D01*
X158500500Y-113356287D01*
X158500500Y-113143713D01*
X158467246Y-112933757D01*
X158401557Y-112731588D01*
X158305051Y-112542184D01*
X158305049Y-112542181D01*
X158305048Y-112542179D01*
X158180109Y-112370213D01*
X158029786Y-112219890D01*
X157857820Y-112094951D01*
X157668414Y-111998444D01*
X157668413Y-111998443D01*
X157668412Y-111998443D01*
X157466243Y-111932754D01*
X157466241Y-111932753D01*
X157466240Y-111932753D01*
X157304957Y-111907208D01*
X157256287Y-111899500D01*
X156743713Y-111899500D01*
X156695042Y-111907208D01*
X156533760Y-111932753D01*
X156331585Y-111998444D01*
X156142179Y-112094951D01*
X155970213Y-112219890D01*
X155819890Y-112370213D01*
X155694951Y-112542179D01*
X155598444Y-112731585D01*
X155532753Y-112933760D01*
X155499500Y-113143713D01*
X110500500Y-113143713D01*
X110500500Y-109940142D01*
X119950000Y-109940142D01*
X119950000Y-110199857D01*
X119990629Y-110456377D01*
X120070883Y-110703377D01*
X120188796Y-110934791D01*
X120269951Y-111046492D01*
X120269952Y-111046493D01*
X120809521Y-110506923D01*
X120900924Y-110643717D01*
X121026283Y-110769076D01*
X121163075Y-110860477D01*
X120623505Y-111400046D01*
X120623506Y-111400048D01*
X120735208Y-111481203D01*
X120966622Y-111599116D01*
X121213622Y-111679370D01*
X121470143Y-111720000D01*
X121729857Y-111720000D01*
X121986377Y-111679370D01*
X122233377Y-111599116D01*
X122464788Y-111481205D01*
X122576492Y-111400046D01*
X122576493Y-111400046D01*
X122036924Y-110860477D01*
X122173717Y-110769076D01*
X122299076Y-110643717D01*
X122390477Y-110506924D01*
X122930046Y-111046493D01*
X122930046Y-111046492D01*
X123011205Y-110934788D01*
X123129116Y-110703377D01*
X123209370Y-110456377D01*
X123250000Y-110199857D01*
X123250000Y-109940142D01*
X123209370Y-109683622D01*
X123129116Y-109436622D01*
X123011203Y-109205208D01*
X122930048Y-109093506D01*
X122930046Y-109093505D01*
X122390477Y-109633074D01*
X122299076Y-109496283D01*
X122173717Y-109370924D01*
X122036924Y-109279522D01*
X122576493Y-108739952D01*
X122576492Y-108739951D01*
X122464791Y-108658796D01*
X122233377Y-108540883D01*
X121986377Y-108460629D01*
X121729857Y-108420000D01*
X121470143Y-108420000D01*
X121213622Y-108460629D01*
X120966622Y-108540883D01*
X120735215Y-108658792D01*
X120623506Y-108739952D01*
X121163076Y-109279522D01*
X121026283Y-109370924D01*
X120900924Y-109496283D01*
X120809522Y-109633076D01*
X120269952Y-109093506D01*
X120188792Y-109205215D01*
X120070883Y-109436622D01*
X119990629Y-109683622D01*
X119950000Y-109940142D01*
X110500500Y-109940142D01*
X110500500Y-105786152D01*
X124184501Y-105786152D01*
X124184501Y-105943845D01*
X124215262Y-106098488D01*
X124215265Y-106098500D01*
X124275603Y-106244171D01*
X124275610Y-106244184D01*
X124363211Y-106375287D01*
X124363214Y-106375291D01*
X124474708Y-106486785D01*
X124474712Y-106486788D01*
X124605815Y-106574389D01*
X124605828Y-106574396D01*
X124751499Y-106634734D01*
X124751504Y-106634736D01*
X124906154Y-106665498D01*
X124906157Y-106665499D01*
X124906159Y-106665499D01*
X125063845Y-106665499D01*
X125063846Y-106665498D01*
X125218498Y-106634736D01*
X125364180Y-106574393D01*
X125495290Y-106486788D01*
X125606790Y-106375288D01*
X125694395Y-106244178D01*
X125754738Y-106098496D01*
X125785501Y-105943841D01*
X125785501Y-105786157D01*
X125785501Y-105786154D01*
X125785500Y-105786152D01*
X125754739Y-105631509D01*
X125754738Y-105631502D01*
X125754736Y-105631497D01*
X125694398Y-105485826D01*
X125694391Y-105485813D01*
X125606790Y-105354710D01*
X125606787Y-105354706D01*
X125495293Y-105243212D01*
X125495289Y-105243209D01*
X125364186Y-105155608D01*
X125364173Y-105155601D01*
X125218502Y-105095263D01*
X125218490Y-105095260D01*
X125063846Y-105064499D01*
X125063843Y-105064499D01*
X124906159Y-105064499D01*
X124906156Y-105064499D01*
X124751511Y-105095260D01*
X124751499Y-105095263D01*
X124605828Y-105155601D01*
X124605815Y-105155608D01*
X124474712Y-105243209D01*
X124474708Y-105243212D01*
X124363214Y-105354706D01*
X124363211Y-105354710D01*
X124275610Y-105485813D01*
X124275603Y-105485826D01*
X124215265Y-105631497D01*
X124215262Y-105631509D01*
X124184501Y-105786152D01*
X110500500Y-105786152D01*
X110500500Y-104271153D01*
X130199500Y-104271153D01*
X130199500Y-104428846D01*
X130230261Y-104583489D01*
X130230264Y-104583501D01*
X130290602Y-104729172D01*
X130290609Y-104729185D01*
X130378210Y-104860288D01*
X130378213Y-104860292D01*
X130489707Y-104971786D01*
X130489711Y-104971789D01*
X130620814Y-105059390D01*
X130620827Y-105059397D01*
X130766498Y-105119735D01*
X130766503Y-105119737D01*
X130921153Y-105150499D01*
X130921156Y-105150500D01*
X130921158Y-105150500D01*
X131078844Y-105150500D01*
X131078845Y-105150499D01*
X131233497Y-105119737D01*
X131379179Y-105059394D01*
X131510289Y-104971789D01*
X131621789Y-104860289D01*
X131709394Y-104729179D01*
X131769737Y-104583497D01*
X131800500Y-104428842D01*
X131800500Y-104271158D01*
X131800500Y-104271155D01*
X131800499Y-104271153D01*
X131769737Y-104116503D01*
X131742198Y-104050018D01*
X131709397Y-103970827D01*
X131709390Y-103970814D01*
X131621789Y-103839711D01*
X131621786Y-103839707D01*
X131510292Y-103728213D01*
X131510288Y-103728210D01*
X131379185Y-103640609D01*
X131379172Y-103640602D01*
X131233501Y-103580264D01*
X131233489Y-103580261D01*
X131078845Y-103549500D01*
X131078842Y-103549500D01*
X130921158Y-103549500D01*
X130921155Y-103549500D01*
X130766510Y-103580261D01*
X130766498Y-103580264D01*
X130620827Y-103640602D01*
X130620814Y-103640609D01*
X130489711Y-103728210D01*
X130489707Y-103728213D01*
X130378213Y-103839707D01*
X130378210Y-103839711D01*
X130290609Y-103970814D01*
X130290602Y-103970827D01*
X130230264Y-104116498D01*
X130230261Y-104116510D01*
X130199500Y-104271153D01*
X110500500Y-104271153D01*
X110500500Y-100793713D01*
X155599500Y-100793713D01*
X155599500Y-101006286D01*
X155632753Y-101216239D01*
X155698444Y-101418414D01*
X155794951Y-101607820D01*
X155919890Y-101779786D01*
X156058705Y-101918601D01*
X156092190Y-101979924D01*
X156087206Y-102049616D01*
X156045334Y-102105549D01*
X156036121Y-102111821D01*
X155881342Y-102207289D01*
X155757289Y-102331342D01*
X155665187Y-102480663D01*
X155665186Y-102480666D01*
X155610001Y-102647203D01*
X155610001Y-102647204D01*
X155610000Y-102647204D01*
X155599500Y-102749983D01*
X155599500Y-104050001D01*
X155599501Y-104050018D01*
X155610000Y-104152796D01*
X155610001Y-104152799D01*
X155649220Y-104271153D01*
X155665186Y-104319334D01*
X155757288Y-104468656D01*
X155881344Y-104592712D01*
X156030666Y-104684814D01*
X156197203Y-104739999D01*
X156299991Y-104750500D01*
X157900008Y-104750499D01*
X158002797Y-104739999D01*
X158169334Y-104684814D01*
X158318656Y-104592712D01*
X158442712Y-104468656D01*
X158534814Y-104319334D01*
X158589999Y-104152797D01*
X158600500Y-104050009D01*
X158600499Y-102749992D01*
X158589999Y-102647203D01*
X158534814Y-102480666D01*
X158442712Y-102331344D01*
X158318656Y-102207288D01*
X158169334Y-102115186D01*
X158169333Y-102115185D01*
X158163878Y-102111821D01*
X158117154Y-102059873D01*
X158105931Y-101990910D01*
X158133775Y-101926828D01*
X158141272Y-101918623D01*
X158280104Y-101779792D01*
X158405051Y-101607816D01*
X158501557Y-101418412D01*
X158567246Y-101216243D01*
X158600500Y-101006287D01*
X158600500Y-100793713D01*
X158567246Y-100583757D01*
X158501557Y-100381588D01*
X158405051Y-100192184D01*
X158405049Y-100192181D01*
X158405048Y-100192179D01*
X158280109Y-100020213D01*
X158129786Y-99869890D01*
X157957820Y-99744951D01*
X157768414Y-99648444D01*
X157768413Y-99648443D01*
X157768412Y-99648443D01*
X157566243Y-99582754D01*
X157566241Y-99582753D01*
X157566240Y-99582753D01*
X157404957Y-99557208D01*
X157356287Y-99549500D01*
X156843713Y-99549500D01*
X156795042Y-99557208D01*
X156633760Y-99582753D01*
X156431585Y-99648444D01*
X156242179Y-99744951D01*
X156070213Y-99869890D01*
X155919890Y-100020213D01*
X155794951Y-100192179D01*
X155698444Y-100381585D01*
X155632753Y-100583760D01*
X155599500Y-100793713D01*
X110500500Y-100793713D01*
X110500500Y-95183653D01*
X130337000Y-95183653D01*
X130337000Y-95341346D01*
X130367761Y-95495989D01*
X130367764Y-95496001D01*
X130428102Y-95641672D01*
X130428109Y-95641685D01*
X130515710Y-95772788D01*
X130515713Y-95772792D01*
X130627207Y-95884286D01*
X130627211Y-95884289D01*
X130758314Y-95971890D01*
X130758327Y-95971897D01*
X130903998Y-96032235D01*
X130904003Y-96032237D01*
X131058653Y-96062999D01*
X131058656Y-96063000D01*
X131058658Y-96063000D01*
X131216344Y-96063000D01*
X131216345Y-96062999D01*
X131370997Y-96032237D01*
X131516679Y-95971894D01*
X131647789Y-95884289D01*
X131759289Y-95772789D01*
X131846894Y-95641679D01*
X131907237Y-95495997D01*
X131938000Y-95341342D01*
X131938000Y-95183658D01*
X131938000Y-95183655D01*
X131937999Y-95183653D01*
X131907238Y-95029010D01*
X131907237Y-95029003D01*
X131898126Y-95007007D01*
X131872894Y-94946090D01*
X131846897Y-94883327D01*
X131846890Y-94883314D01*
X131759289Y-94752211D01*
X131759286Y-94752207D01*
X131647792Y-94640713D01*
X131647788Y-94640710D01*
X131516685Y-94553109D01*
X131516672Y-94553102D01*
X131371001Y-94492764D01*
X131370989Y-94492761D01*
X131216345Y-94462000D01*
X131216342Y-94462000D01*
X131058658Y-94462000D01*
X131058655Y-94462000D01*
X130904010Y-94492761D01*
X130903998Y-94492764D01*
X130758327Y-94553102D01*
X130758314Y-94553109D01*
X130627211Y-94640710D01*
X130627207Y-94640713D01*
X130515713Y-94752207D01*
X130515710Y-94752211D01*
X130428109Y-94883314D01*
X130428102Y-94883327D01*
X130367764Y-95028998D01*
X130367761Y-95029010D01*
X130337000Y-95183653D01*
X110500500Y-95183653D01*
X110500500Y-93218543D01*
X112189499Y-93218543D01*
X112227947Y-93411829D01*
X112227950Y-93411839D01*
X112303364Y-93593907D01*
X112303371Y-93593920D01*
X112412860Y-93757781D01*
X112412863Y-93757785D01*
X112552214Y-93897136D01*
X112552218Y-93897139D01*
X112716079Y-94006628D01*
X112716092Y-94006635D01*
X112898160Y-94082049D01*
X112898165Y-94082051D01*
X112898169Y-94082051D01*
X112898170Y-94082052D01*
X113091456Y-94120500D01*
X113091459Y-94120500D01*
X113888543Y-94120500D01*
X114018582Y-94094632D01*
X114081835Y-94082051D01*
X114263914Y-94006632D01*
X114427782Y-93897139D01*
X114567139Y-93757782D01*
X114676632Y-93593914D01*
X114752051Y-93411835D01*
X114788200Y-93230104D01*
X114790500Y-93218543D01*
X116119499Y-93218543D01*
X116157947Y-93411829D01*
X116157950Y-93411839D01*
X116233364Y-93593907D01*
X116233371Y-93593920D01*
X116342860Y-93757781D01*
X116342863Y-93757785D01*
X116482214Y-93897136D01*
X116482218Y-93897139D01*
X116646079Y-94006628D01*
X116646092Y-94006635D01*
X116828160Y-94082049D01*
X116828165Y-94082051D01*
X116828169Y-94082051D01*
X116828170Y-94082052D01*
X117021456Y-94120500D01*
X117021459Y-94120500D01*
X118318543Y-94120500D01*
X118448582Y-94094632D01*
X118511835Y-94082051D01*
X118693914Y-94006632D01*
X118857782Y-93897139D01*
X118997139Y-93757782D01*
X119106632Y-93593914D01*
X119182051Y-93411835D01*
X119218200Y-93230104D01*
X119220500Y-93218543D01*
X119220500Y-93021456D01*
X119182052Y-92828170D01*
X119182051Y-92828169D01*
X119182051Y-92828165D01*
X119136591Y-92718414D01*
X119106635Y-92646092D01*
X119106628Y-92646079D01*
X118997139Y-92482218D01*
X118997136Y-92482214D01*
X118857785Y-92342863D01*
X118857781Y-92342860D01*
X118693920Y-92233371D01*
X118693907Y-92233364D01*
X118621570Y-92203402D01*
X118511839Y-92157950D01*
X118511829Y-92157947D01*
X118318543Y-92119500D01*
X118318541Y-92119500D01*
X117771333Y-92119500D01*
X117704294Y-92099815D01*
X117699007Y-92093713D01*
X155599500Y-92093713D01*
X155599500Y-92306287D01*
X155632754Y-92516243D01*
X155674940Y-92646079D01*
X155698444Y-92718414D01*
X155794951Y-92907820D01*
X155919890Y-93079786D01*
X156059068Y-93218964D01*
X156092553Y-93280287D01*
X156087569Y-93349979D01*
X156045697Y-93405912D01*
X156036484Y-93412183D01*
X155881659Y-93507680D01*
X155881655Y-93507683D01*
X155757684Y-93631654D01*
X155665643Y-93780875D01*
X155665641Y-93780880D01*
X155610494Y-93947302D01*
X155610493Y-93947309D01*
X155600000Y-94050013D01*
X155600000Y-94450000D01*
X156666988Y-94450000D01*
X156634075Y-94507007D01*
X156600000Y-94634174D01*
X156600000Y-94765826D01*
X156634075Y-94892993D01*
X156666988Y-94950000D01*
X155600001Y-94950000D01*
X155600001Y-95349986D01*
X155610494Y-95452697D01*
X155665641Y-95619119D01*
X155665643Y-95619124D01*
X155757684Y-95768345D01*
X155881654Y-95892315D01*
X156030875Y-95984356D01*
X156030880Y-95984358D01*
X156197302Y-96039505D01*
X156197309Y-96039506D01*
X156300019Y-96049999D01*
X156849999Y-96049999D01*
X156850000Y-96049998D01*
X156850000Y-95133012D01*
X156907007Y-95165925D01*
X157034174Y-95200000D01*
X157165826Y-95200000D01*
X157292993Y-95165925D01*
X157350000Y-95133012D01*
X157350000Y-96049999D01*
X157899972Y-96049999D01*
X157899986Y-96049998D01*
X158002697Y-96039505D01*
X158169119Y-95984358D01*
X158169124Y-95984356D01*
X158318345Y-95892315D01*
X158442315Y-95768345D01*
X158534356Y-95619124D01*
X158534358Y-95619119D01*
X158589505Y-95452697D01*
X158589506Y-95452690D01*
X158599999Y-95349986D01*
X158600000Y-95349973D01*
X158600000Y-94950000D01*
X157533012Y-94950000D01*
X157565925Y-94892993D01*
X157600000Y-94765826D01*
X157600000Y-94634174D01*
X157565925Y-94507007D01*
X157533012Y-94450000D01*
X158599999Y-94450000D01*
X158599999Y-94050028D01*
X158599998Y-94050013D01*
X158589505Y-93947302D01*
X158534358Y-93780880D01*
X158534356Y-93780875D01*
X158442315Y-93631654D01*
X158318345Y-93507684D01*
X158163515Y-93412184D01*
X158116791Y-93360236D01*
X158105568Y-93291273D01*
X158133412Y-93227191D01*
X158140909Y-93218986D01*
X158280104Y-93079792D01*
X158405051Y-92907816D01*
X158501557Y-92718412D01*
X158567246Y-92516243D01*
X158600500Y-92306287D01*
X158600500Y-92093713D01*
X158567246Y-91883757D01*
X158501557Y-91681588D01*
X158405051Y-91492184D01*
X158405049Y-91492181D01*
X158405048Y-91492179D01*
X158280109Y-91320213D01*
X158129786Y-91169890D01*
X157957820Y-91044951D01*
X157768414Y-90948444D01*
X157768413Y-90948443D01*
X157768412Y-90948443D01*
X157566243Y-90882754D01*
X157566241Y-90882753D01*
X157566240Y-90882753D01*
X157404957Y-90857208D01*
X157356287Y-90849500D01*
X156843713Y-90849500D01*
X156795042Y-90857208D01*
X156633760Y-90882753D01*
X156431585Y-90948444D01*
X156242179Y-91044951D01*
X156070213Y-91169890D01*
X155919890Y-91320213D01*
X155794951Y-91492179D01*
X155698444Y-91681585D01*
X155632753Y-91883760D01*
X155607474Y-92043365D01*
X155599500Y-92093713D01*
X117699007Y-92093713D01*
X117658539Y-92047011D01*
X117648595Y-91977853D01*
X117663947Y-91933499D01*
X117676278Y-91912140D01*
X117676277Y-91912140D01*
X117676281Y-91912135D01*
X117715500Y-91765766D01*
X117715500Y-91614234D01*
X117676281Y-91467865D01*
X117600515Y-91336635D01*
X117493365Y-91229485D01*
X117427750Y-91191602D01*
X117362136Y-91153719D01*
X117288950Y-91134109D01*
X117215766Y-91114500D01*
X117064234Y-91114500D01*
X116917863Y-91153719D01*
X116786635Y-91229485D01*
X116786632Y-91229487D01*
X116679487Y-91336632D01*
X116679485Y-91336635D01*
X116603719Y-91467863D01*
X116564500Y-91614234D01*
X116564500Y-91765765D01*
X116603719Y-91912136D01*
X116641602Y-91977750D01*
X116679485Y-92043365D01*
X116679488Y-92043368D01*
X116684188Y-92049493D01*
X116709383Y-92114662D01*
X116695346Y-92183107D01*
X116650510Y-92229023D01*
X116651151Y-92229983D01*
X116646612Y-92233015D01*
X116646533Y-92233097D01*
X116646296Y-92233226D01*
X116482218Y-92342860D01*
X116482214Y-92342863D01*
X116342863Y-92482214D01*
X116342860Y-92482218D01*
X116233371Y-92646079D01*
X116233364Y-92646092D01*
X116157950Y-92828160D01*
X116157947Y-92828170D01*
X116119500Y-93021456D01*
X116119500Y-93021459D01*
X116119500Y-93218541D01*
X116119500Y-93218543D01*
X116119499Y-93218543D01*
X114790500Y-93218543D01*
X114790500Y-93021456D01*
X114752052Y-92828170D01*
X114752051Y-92828169D01*
X114752051Y-92828165D01*
X114706591Y-92718414D01*
X114676635Y-92646092D01*
X114676628Y-92646079D01*
X114567139Y-92482218D01*
X114567136Y-92482214D01*
X114427785Y-92342863D01*
X114427781Y-92342860D01*
X114263920Y-92233371D01*
X114263907Y-92233364D01*
X114081839Y-92157950D01*
X114081829Y-92157947D01*
X113888543Y-92119500D01*
X113888541Y-92119500D01*
X113091459Y-92119500D01*
X113091457Y-92119500D01*
X112898170Y-92157947D01*
X112898160Y-92157950D01*
X112716092Y-92233364D01*
X112716079Y-92233371D01*
X112552218Y-92342860D01*
X112552214Y-92342863D01*
X112412863Y-92482214D01*
X112412860Y-92482218D01*
X112303371Y-92646079D01*
X112303364Y-92646092D01*
X112227950Y-92828160D01*
X112227947Y-92828170D01*
X112189500Y-93021456D01*
X112189500Y-93021459D01*
X112189500Y-93218541D01*
X112189500Y-93218543D01*
X112189499Y-93218543D01*
X110500500Y-93218543D01*
X110500500Y-87421153D01*
X119999500Y-87421153D01*
X119999500Y-87578846D01*
X120030261Y-87733489D01*
X120030264Y-87733501D01*
X120090602Y-87879172D01*
X120090609Y-87879185D01*
X120178210Y-88010288D01*
X120178213Y-88010292D01*
X120289707Y-88121786D01*
X120289711Y-88121789D01*
X120420814Y-88209390D01*
X120420827Y-88209397D01*
X120566498Y-88269735D01*
X120566503Y-88269737D01*
X120721153Y-88300499D01*
X120721156Y-88300500D01*
X120721158Y-88300500D01*
X120878844Y-88300500D01*
X120878845Y-88300499D01*
X121033497Y-88269737D01*
X121179179Y-88209394D01*
X121310289Y-88121789D01*
X121421789Y-88010289D01*
X121509394Y-87879179D01*
X121569737Y-87733497D01*
X121600500Y-87578842D01*
X121600500Y-87421158D01*
X121600500Y-87421155D01*
X121600499Y-87421153D01*
X121593180Y-87384358D01*
X121569737Y-87266503D01*
X121529079Y-87168345D01*
X121509397Y-87120827D01*
X121509390Y-87120814D01*
X121421789Y-86989711D01*
X121421786Y-86989707D01*
X121310292Y-86878213D01*
X121310288Y-86878210D01*
X121179185Y-86790609D01*
X121179172Y-86790602D01*
X121033501Y-86730264D01*
X121033489Y-86730261D01*
X120878845Y-86699500D01*
X120878842Y-86699500D01*
X120721158Y-86699500D01*
X120721155Y-86699500D01*
X120566510Y-86730261D01*
X120566498Y-86730264D01*
X120420827Y-86790602D01*
X120420814Y-86790609D01*
X120289711Y-86878210D01*
X120289707Y-86878213D01*
X120178213Y-86989707D01*
X120178210Y-86989711D01*
X120090609Y-87120814D01*
X120090602Y-87120827D01*
X120030264Y-87266498D01*
X120030261Y-87266510D01*
X119999500Y-87421153D01*
X110500500Y-87421153D01*
X110500500Y-84578543D01*
X112189499Y-84578543D01*
X112227947Y-84771829D01*
X112227950Y-84771839D01*
X112303364Y-84953907D01*
X112303371Y-84953920D01*
X112412860Y-85117781D01*
X112412863Y-85117785D01*
X112552214Y-85257136D01*
X112552218Y-85257139D01*
X112716079Y-85366628D01*
X112716092Y-85366635D01*
X112881480Y-85435140D01*
X112898165Y-85442051D01*
X112898169Y-85442051D01*
X112898170Y-85442052D01*
X113091456Y-85480500D01*
X113091459Y-85480500D01*
X113888543Y-85480500D01*
X114041732Y-85450028D01*
X114081835Y-85442051D01*
X114263914Y-85366632D01*
X114427782Y-85257139D01*
X114567139Y-85117782D01*
X114676632Y-84953914D01*
X114752051Y-84771835D01*
X114770261Y-84680287D01*
X114790500Y-84578543D01*
X116119499Y-84578543D01*
X116157947Y-84771829D01*
X116157950Y-84771839D01*
X116233364Y-84953907D01*
X116233371Y-84953920D01*
X116342860Y-85117781D01*
X116342863Y-85117785D01*
X116482214Y-85257136D01*
X116482218Y-85257139D01*
X116651151Y-85370017D01*
X116650180Y-85371470D01*
X116694109Y-85414619D01*
X116709571Y-85482757D01*
X116685741Y-85548437D01*
X116684190Y-85550502D01*
X116679489Y-85556627D01*
X116603719Y-85687863D01*
X116564500Y-85834234D01*
X116564500Y-85985765D01*
X116603719Y-86132136D01*
X116641602Y-86197750D01*
X116679485Y-86263365D01*
X116786635Y-86370515D01*
X116917865Y-86446281D01*
X117064234Y-86485500D01*
X117064236Y-86485500D01*
X117215764Y-86485500D01*
X117215766Y-86485500D01*
X117362135Y-86446281D01*
X117493365Y-86370515D01*
X117600515Y-86263365D01*
X117676281Y-86132135D01*
X117715500Y-85985766D01*
X117715500Y-85834234D01*
X117676281Y-85687865D01*
X117676278Y-85687859D01*
X117663947Y-85666501D01*
X117647473Y-85598602D01*
X117670325Y-85532574D01*
X117725245Y-85489383D01*
X117771333Y-85480500D01*
X118318543Y-85480500D01*
X118471732Y-85450028D01*
X118511835Y-85442051D01*
X118693914Y-85366632D01*
X118857782Y-85257139D01*
X118997139Y-85117782D01*
X119061704Y-85021153D01*
X119999500Y-85021153D01*
X119999500Y-85178846D01*
X120030261Y-85333489D01*
X120030264Y-85333501D01*
X120090602Y-85479172D01*
X120090609Y-85479185D01*
X120178210Y-85610288D01*
X120178213Y-85610292D01*
X120289707Y-85721786D01*
X120289711Y-85721789D01*
X120420814Y-85809390D01*
X120420827Y-85809397D01*
X120480795Y-85834236D01*
X120566503Y-85869737D01*
X120721153Y-85900499D01*
X120721156Y-85900500D01*
X120721158Y-85900500D01*
X120878844Y-85900500D01*
X120878845Y-85900499D01*
X121033497Y-85869737D01*
X121179179Y-85809394D01*
X121310289Y-85721789D01*
X121421789Y-85610289D01*
X121509394Y-85479179D01*
X121569737Y-85333497D01*
X121600500Y-85178842D01*
X121600500Y-85021158D01*
X121600500Y-85021155D01*
X121600499Y-85021153D01*
X121577928Y-84907683D01*
X121569737Y-84866503D01*
X121544640Y-84805912D01*
X121509397Y-84720827D01*
X121509390Y-84720814D01*
X121421789Y-84589711D01*
X121421786Y-84589707D01*
X121310292Y-84478213D01*
X121310288Y-84478210D01*
X121179185Y-84390609D01*
X121179172Y-84390602D01*
X121033501Y-84330264D01*
X121033489Y-84330261D01*
X120878845Y-84299500D01*
X120878842Y-84299500D01*
X120721158Y-84299500D01*
X120721155Y-84299500D01*
X120566510Y-84330261D01*
X120566498Y-84330264D01*
X120420827Y-84390602D01*
X120420814Y-84390609D01*
X120289711Y-84478210D01*
X120289707Y-84478213D01*
X120178213Y-84589707D01*
X120178210Y-84589711D01*
X120090609Y-84720814D01*
X120090602Y-84720827D01*
X120030264Y-84866498D01*
X120030261Y-84866510D01*
X119999500Y-85021153D01*
X119061704Y-85021153D01*
X119106632Y-84953914D01*
X119182051Y-84771835D01*
X119200261Y-84680287D01*
X119220500Y-84578543D01*
X119220500Y-84381456D01*
X119182052Y-84188170D01*
X119182051Y-84188169D01*
X119182051Y-84188165D01*
X119182049Y-84188160D01*
X119106635Y-84006092D01*
X119106628Y-84006079D01*
X118997139Y-83842218D01*
X118997136Y-83842214D01*
X118857785Y-83702863D01*
X118857781Y-83702860D01*
X118693918Y-83593370D01*
X118693907Y-83593364D01*
X118511839Y-83517950D01*
X118511829Y-83517947D01*
X118389997Y-83493713D01*
X155599500Y-83493713D01*
X155599500Y-83706286D01*
X155632753Y-83916239D01*
X155698444Y-84118414D01*
X155794951Y-84307820D01*
X155919890Y-84479786D01*
X156059068Y-84618964D01*
X156092553Y-84680287D01*
X156087569Y-84749979D01*
X156045697Y-84805912D01*
X156036484Y-84812183D01*
X155881659Y-84907680D01*
X155881655Y-84907683D01*
X155757684Y-85031654D01*
X155665643Y-85180875D01*
X155665641Y-85180880D01*
X155610494Y-85347302D01*
X155610493Y-85347309D01*
X155600000Y-85450013D01*
X155600000Y-85850000D01*
X156666988Y-85850000D01*
X156634075Y-85907007D01*
X156600000Y-86034174D01*
X156600000Y-86165826D01*
X156634075Y-86292993D01*
X156666988Y-86350000D01*
X155600001Y-86350000D01*
X155600001Y-86749986D01*
X155610494Y-86852697D01*
X155665641Y-87019119D01*
X155665643Y-87019124D01*
X155757684Y-87168345D01*
X155881654Y-87292315D01*
X156030875Y-87384356D01*
X156030880Y-87384358D01*
X156197302Y-87439505D01*
X156197309Y-87439506D01*
X156300019Y-87449999D01*
X156849999Y-87449999D01*
X156850000Y-87449998D01*
X156850000Y-86533012D01*
X156907007Y-86565925D01*
X157034174Y-86600000D01*
X157165826Y-86600000D01*
X157292993Y-86565925D01*
X157350000Y-86533012D01*
X157350000Y-87449999D01*
X157899972Y-87449999D01*
X157899986Y-87449998D01*
X158002697Y-87439505D01*
X158169119Y-87384358D01*
X158169124Y-87384356D01*
X158318345Y-87292315D01*
X158442315Y-87168345D01*
X158534356Y-87019124D01*
X158534358Y-87019119D01*
X158589505Y-86852697D01*
X158589506Y-86852690D01*
X158599999Y-86749986D01*
X158600000Y-86749973D01*
X158600000Y-86350000D01*
X157533012Y-86350000D01*
X157565925Y-86292993D01*
X157600000Y-86165826D01*
X157600000Y-86034174D01*
X157565925Y-85907007D01*
X157533012Y-85850000D01*
X158599999Y-85850000D01*
X158599999Y-85450028D01*
X158599998Y-85450013D01*
X158589505Y-85347302D01*
X158534358Y-85180880D01*
X158534356Y-85180875D01*
X158442315Y-85031654D01*
X158318345Y-84907684D01*
X158163515Y-84812184D01*
X158116791Y-84760236D01*
X158105568Y-84691273D01*
X158133412Y-84627191D01*
X158140909Y-84618986D01*
X158280104Y-84479792D01*
X158281254Y-84478210D01*
X158405048Y-84307820D01*
X158405047Y-84307820D01*
X158405051Y-84307816D01*
X158501557Y-84118412D01*
X158567246Y-83916243D01*
X158600500Y-83706287D01*
X158600500Y-83493713D01*
X158567246Y-83283757D01*
X158501557Y-83081588D01*
X158405051Y-82892184D01*
X158405049Y-82892181D01*
X158405048Y-82892179D01*
X158280109Y-82720213D01*
X158129786Y-82569890D01*
X157957820Y-82444951D01*
X157768414Y-82348444D01*
X157768413Y-82348443D01*
X157768412Y-82348443D01*
X157566243Y-82282754D01*
X157566241Y-82282753D01*
X157566240Y-82282753D01*
X157404957Y-82257208D01*
X157356287Y-82249500D01*
X156843713Y-82249500D01*
X156795042Y-82257208D01*
X156633760Y-82282753D01*
X156431585Y-82348444D01*
X156242179Y-82444951D01*
X156070213Y-82569890D01*
X155919890Y-82720213D01*
X155794951Y-82892179D01*
X155698444Y-83081585D01*
X155632753Y-83283760D01*
X155599500Y-83493713D01*
X118389997Y-83493713D01*
X118318543Y-83479500D01*
X118318541Y-83479500D01*
X117021459Y-83479500D01*
X117021457Y-83479500D01*
X116828170Y-83517947D01*
X116828160Y-83517950D01*
X116646092Y-83593364D01*
X116646079Y-83593371D01*
X116482218Y-83702860D01*
X116482214Y-83702863D01*
X116342863Y-83842214D01*
X116342860Y-83842218D01*
X116233371Y-84006079D01*
X116233364Y-84006092D01*
X116157950Y-84188160D01*
X116157947Y-84188170D01*
X116119500Y-84381456D01*
X116119500Y-84381459D01*
X116119500Y-84578541D01*
X116119500Y-84578543D01*
X116119499Y-84578543D01*
X114790500Y-84578543D01*
X114790500Y-84381456D01*
X114752052Y-84188170D01*
X114752051Y-84188169D01*
X114752051Y-84188165D01*
X114752049Y-84188160D01*
X114676635Y-84006092D01*
X114676628Y-84006079D01*
X114567139Y-83842218D01*
X114567136Y-83842214D01*
X114427785Y-83702863D01*
X114427781Y-83702860D01*
X114263920Y-83593371D01*
X114263907Y-83593364D01*
X114081839Y-83517950D01*
X114081829Y-83517947D01*
X113888543Y-83479500D01*
X113888541Y-83479500D01*
X113091459Y-83479500D01*
X113091457Y-83479500D01*
X112898170Y-83517947D01*
X112898160Y-83517950D01*
X112716092Y-83593364D01*
X112716079Y-83593371D01*
X112552218Y-83702860D01*
X112552214Y-83702863D01*
X112412863Y-83842214D01*
X112412860Y-83842218D01*
X112303371Y-84006079D01*
X112303364Y-84006092D01*
X112227950Y-84188160D01*
X112227947Y-84188170D01*
X112189500Y-84381456D01*
X112189500Y-84381459D01*
X112189500Y-84578541D01*
X112189500Y-84578543D01*
X112189499Y-84578543D01*
X110500500Y-84578543D01*
X110500500Y-76971153D01*
X134249500Y-76971153D01*
X134249500Y-77128846D01*
X134280261Y-77283489D01*
X134280264Y-77283501D01*
X134340602Y-77429172D01*
X134340609Y-77429185D01*
X134428210Y-77560288D01*
X134428213Y-77560292D01*
X134539707Y-77671786D01*
X134539711Y-77671789D01*
X134670814Y-77759390D01*
X134670827Y-77759397D01*
X134816498Y-77819735D01*
X134816503Y-77819737D01*
X134971153Y-77850499D01*
X134971156Y-77850500D01*
X134971158Y-77850500D01*
X135128844Y-77850500D01*
X135128845Y-77850499D01*
X135283497Y-77819737D01*
X135429179Y-77759394D01*
X135560289Y-77671789D01*
X135671789Y-77560289D01*
X135759394Y-77429179D01*
X135769657Y-77404403D01*
X135819735Y-77283501D01*
X135819737Y-77283497D01*
X135850500Y-77128842D01*
X135850500Y-77092067D01*
X142757161Y-77092067D01*
X142757161Y-77249760D01*
X142787922Y-77404403D01*
X142787925Y-77404415D01*
X142848263Y-77550086D01*
X142848270Y-77550099D01*
X142935871Y-77681202D01*
X142935874Y-77681206D01*
X143047368Y-77792700D01*
X143047372Y-77792703D01*
X143178475Y-77880304D01*
X143178488Y-77880311D01*
X143324159Y-77940649D01*
X143324164Y-77940651D01*
X143478814Y-77971413D01*
X143478817Y-77971414D01*
X143478819Y-77971414D01*
X143636505Y-77971414D01*
X143636506Y-77971413D01*
X143791158Y-77940651D01*
X143936840Y-77880308D01*
X144067950Y-77792703D01*
X144179450Y-77681203D01*
X144267055Y-77550093D01*
X144327398Y-77404411D01*
X144358161Y-77249756D01*
X144358161Y-77092072D01*
X144358161Y-77092069D01*
X144358160Y-77092067D01*
X144327398Y-76937417D01*
X144318003Y-76914735D01*
X144267058Y-76791741D01*
X144267051Y-76791728D01*
X144179450Y-76660625D01*
X144179447Y-76660621D01*
X144067953Y-76549127D01*
X144067949Y-76549124D01*
X143936846Y-76461523D01*
X143936833Y-76461516D01*
X143791162Y-76401178D01*
X143791150Y-76401175D01*
X143636506Y-76370414D01*
X143636503Y-76370414D01*
X143478819Y-76370414D01*
X143478816Y-76370414D01*
X143324171Y-76401175D01*
X143324159Y-76401178D01*
X143178488Y-76461516D01*
X143178475Y-76461523D01*
X143047372Y-76549124D01*
X143047368Y-76549127D01*
X142935874Y-76660621D01*
X142935871Y-76660625D01*
X142848270Y-76791728D01*
X142848263Y-76791741D01*
X142787925Y-76937412D01*
X142787922Y-76937424D01*
X142757161Y-77092067D01*
X135850500Y-77092067D01*
X135850500Y-76971158D01*
X135850500Y-76971155D01*
X135850499Y-76971153D01*
X135839277Y-76914735D01*
X135819737Y-76816503D01*
X135792398Y-76750500D01*
X135759397Y-76670827D01*
X135759390Y-76670814D01*
X135671789Y-76539711D01*
X135671786Y-76539707D01*
X135560292Y-76428213D01*
X135560288Y-76428210D01*
X135429185Y-76340609D01*
X135429172Y-76340602D01*
X135283501Y-76280264D01*
X135283489Y-76280261D01*
X135128845Y-76249500D01*
X135128842Y-76249500D01*
X134971158Y-76249500D01*
X134971155Y-76249500D01*
X134816510Y-76280261D01*
X134816498Y-76280264D01*
X134670827Y-76340602D01*
X134670814Y-76340609D01*
X134539711Y-76428210D01*
X134539707Y-76428213D01*
X134428213Y-76539707D01*
X134428210Y-76539711D01*
X134340609Y-76670814D01*
X134340602Y-76670827D01*
X134280264Y-76816498D01*
X134280261Y-76816510D01*
X134249500Y-76971153D01*
X110500500Y-76971153D01*
X110500500Y-76066153D01*
X122449500Y-76066153D01*
X122449500Y-76223846D01*
X122480261Y-76378489D01*
X122480264Y-76378501D01*
X122540602Y-76524172D01*
X122540609Y-76524185D01*
X122628210Y-76655288D01*
X122628213Y-76655292D01*
X122739707Y-76766786D01*
X122739711Y-76766789D01*
X122870814Y-76854390D01*
X122870827Y-76854397D01*
X123016498Y-76914735D01*
X123016503Y-76914737D01*
X123171153Y-76945499D01*
X123171156Y-76945500D01*
X123171158Y-76945500D01*
X123328844Y-76945500D01*
X123328845Y-76945499D01*
X123483497Y-76914737D01*
X123629179Y-76854394D01*
X123760289Y-76766789D01*
X123871789Y-76655289D01*
X123959394Y-76524179D01*
X124019737Y-76378497D01*
X124050500Y-76223842D01*
X124050500Y-76066158D01*
X124050500Y-76066155D01*
X124050499Y-76066153D01*
X124019738Y-75911510D01*
X124019737Y-75911503D01*
X124003024Y-75871153D01*
X147399500Y-75871153D01*
X147399500Y-76028846D01*
X147430261Y-76183489D01*
X147430264Y-76183501D01*
X147490602Y-76329172D01*
X147490609Y-76329185D01*
X147578210Y-76460288D01*
X147578213Y-76460292D01*
X147689707Y-76571786D01*
X147689711Y-76571789D01*
X147820814Y-76659390D01*
X147820827Y-76659397D01*
X147966498Y-76719735D01*
X147966503Y-76719737D01*
X148121153Y-76750499D01*
X148121156Y-76750500D01*
X148121158Y-76750500D01*
X148278844Y-76750500D01*
X148278845Y-76750499D01*
X148433497Y-76719737D01*
X148551592Y-76670821D01*
X148579172Y-76659397D01*
X148579172Y-76659396D01*
X148579179Y-76659394D01*
X148710289Y-76571789D01*
X148821789Y-76460289D01*
X148909394Y-76329179D01*
X148913308Y-76319727D01*
X148957145Y-76265324D01*
X149003678Y-76245559D01*
X149133497Y-76219737D01*
X149279179Y-76159394D01*
X149410289Y-76071789D01*
X149521789Y-75960289D01*
X149609394Y-75829179D01*
X149669737Y-75683497D01*
X149700500Y-75528842D01*
X149700500Y-75371158D01*
X149700500Y-75371155D01*
X149700499Y-75371153D01*
X149678447Y-75260292D01*
X149669737Y-75216503D01*
X149669735Y-75216498D01*
X149609397Y-75070827D01*
X149609390Y-75070814D01*
X149521789Y-74939711D01*
X149521786Y-74939707D01*
X149410292Y-74828213D01*
X149410288Y-74828210D01*
X149279185Y-74740609D01*
X149279172Y-74740602D01*
X149133501Y-74680264D01*
X149133489Y-74680261D01*
X148978845Y-74649500D01*
X148978842Y-74649500D01*
X148821158Y-74649500D01*
X148821155Y-74649500D01*
X148666510Y-74680261D01*
X148666498Y-74680264D01*
X148520827Y-74740602D01*
X148520814Y-74740609D01*
X148389711Y-74828210D01*
X148389707Y-74828213D01*
X148278213Y-74939707D01*
X148278210Y-74939711D01*
X148190609Y-75070814D01*
X148190603Y-75070826D01*
X148186688Y-75080278D01*
X148142846Y-75134681D01*
X148096320Y-75154440D01*
X147966508Y-75180261D01*
X147966498Y-75180264D01*
X147820827Y-75240602D01*
X147820814Y-75240609D01*
X147689711Y-75328210D01*
X147689707Y-75328213D01*
X147578213Y-75439707D01*
X147578210Y-75439711D01*
X147490609Y-75570814D01*
X147490602Y-75570827D01*
X147430264Y-75716498D01*
X147430261Y-75716510D01*
X147399500Y-75871153D01*
X124003024Y-75871153D01*
X123985635Y-75829172D01*
X123959397Y-75765827D01*
X123959390Y-75765814D01*
X123871789Y-75634711D01*
X123871786Y-75634707D01*
X123760292Y-75523213D01*
X123760288Y-75523210D01*
X123629185Y-75435609D01*
X123629172Y-75435602D01*
X123483501Y-75375264D01*
X123483489Y-75375261D01*
X123328845Y-75344500D01*
X123328842Y-75344500D01*
X123171158Y-75344500D01*
X123171155Y-75344500D01*
X123016510Y-75375261D01*
X123016498Y-75375264D01*
X122870827Y-75435602D01*
X122870814Y-75435609D01*
X122739711Y-75523210D01*
X122739707Y-75523213D01*
X122628213Y-75634707D01*
X122628210Y-75634711D01*
X122540609Y-75765814D01*
X122540602Y-75765827D01*
X122480264Y-75911498D01*
X122480261Y-75911510D01*
X122449500Y-76066153D01*
X110500500Y-76066153D01*
X110500500Y-74671153D01*
X130549500Y-74671153D01*
X130549500Y-74828846D01*
X130580261Y-74983489D01*
X130580264Y-74983501D01*
X130640602Y-75129172D01*
X130640609Y-75129185D01*
X130728210Y-75260288D01*
X130728213Y-75260292D01*
X130839707Y-75371786D01*
X130839711Y-75371789D01*
X130970814Y-75459390D01*
X130970827Y-75459397D01*
X131116498Y-75519735D01*
X131116503Y-75519737D01*
X131271153Y-75550499D01*
X131271156Y-75550500D01*
X131271158Y-75550500D01*
X131428844Y-75550500D01*
X131428845Y-75550499D01*
X131583497Y-75519737D01*
X131729179Y-75459394D01*
X131860289Y-75371789D01*
X131971789Y-75260289D01*
X132059394Y-75129179D01*
X132119737Y-74983497D01*
X132150500Y-74828842D01*
X132150500Y-74671158D01*
X132150500Y-74671155D01*
X132150499Y-74671153D01*
X132119738Y-74516510D01*
X132119737Y-74516503D01*
X132117163Y-74510288D01*
X132059397Y-74370827D01*
X132059390Y-74370814D01*
X131971789Y-74239711D01*
X131971786Y-74239707D01*
X131860292Y-74128213D01*
X131860288Y-74128210D01*
X131729185Y-74040609D01*
X131729172Y-74040602D01*
X131583501Y-73980264D01*
X131583489Y-73980261D01*
X131428845Y-73949500D01*
X131428842Y-73949500D01*
X131271158Y-73949500D01*
X131271155Y-73949500D01*
X131116510Y-73980261D01*
X131116498Y-73980264D01*
X130970827Y-74040602D01*
X130970814Y-74040609D01*
X130839711Y-74128210D01*
X130839707Y-74128213D01*
X130728213Y-74239707D01*
X130728210Y-74239711D01*
X130640609Y-74370814D01*
X130640602Y-74370827D01*
X130580264Y-74516498D01*
X130580261Y-74516510D01*
X130549500Y-74671153D01*
X110500500Y-74671153D01*
X110500500Y-73421153D01*
X120699500Y-73421153D01*
X120699500Y-73578846D01*
X120730261Y-73733489D01*
X120730264Y-73733501D01*
X120790602Y-73879172D01*
X120790609Y-73879185D01*
X120878210Y-74010288D01*
X120878213Y-74010292D01*
X120989707Y-74121786D01*
X120989711Y-74121789D01*
X121120814Y-74209390D01*
X121120827Y-74209397D01*
X121220060Y-74250500D01*
X121266503Y-74269737D01*
X121421153Y-74300499D01*
X121421156Y-74300500D01*
X121421158Y-74300500D01*
X121578844Y-74300500D01*
X121578845Y-74300499D01*
X121733497Y-74269737D01*
X121879179Y-74209394D01*
X122010289Y-74121789D01*
X122121789Y-74010289D01*
X122209394Y-73879179D01*
X122269737Y-73733497D01*
X122300500Y-73578842D01*
X122300500Y-73421158D01*
X122300500Y-73421155D01*
X122300499Y-73421153D01*
X122290554Y-73371158D01*
X122269737Y-73266503D01*
X122256062Y-73233489D01*
X122209397Y-73120827D01*
X122209390Y-73120814D01*
X122121789Y-72989711D01*
X122121786Y-72989707D01*
X122010292Y-72878213D01*
X122010288Y-72878210D01*
X121879185Y-72790609D01*
X121879172Y-72790602D01*
X121733501Y-72730264D01*
X121733489Y-72730261D01*
X121578845Y-72699500D01*
X121578842Y-72699500D01*
X121421158Y-72699500D01*
X121421155Y-72699500D01*
X121266510Y-72730261D01*
X121266498Y-72730264D01*
X121120827Y-72790602D01*
X121120814Y-72790609D01*
X120989711Y-72878210D01*
X120989707Y-72878213D01*
X120878213Y-72989707D01*
X120878210Y-72989711D01*
X120790609Y-73120814D01*
X120790602Y-73120827D01*
X120730264Y-73266498D01*
X120730261Y-73266510D01*
X120699500Y-73421153D01*
X110500500Y-73421153D01*
X110500500Y-72495884D01*
X123561685Y-72495884D01*
X123561685Y-72653577D01*
X123592446Y-72808220D01*
X123592449Y-72808232D01*
X123652787Y-72953903D01*
X123652794Y-72953916D01*
X123740395Y-73085019D01*
X123740398Y-73085023D01*
X123851892Y-73196517D01*
X123851896Y-73196520D01*
X123982999Y-73284121D01*
X123983012Y-73284128D01*
X124091791Y-73329185D01*
X124128688Y-73344468D01*
X124262867Y-73371158D01*
X124283338Y-73375230D01*
X124283341Y-73375231D01*
X124283343Y-73375231D01*
X124441029Y-73375231D01*
X124441030Y-73375230D01*
X124595682Y-73344468D01*
X124741364Y-73284125D01*
X124872474Y-73196520D01*
X124983974Y-73085020D01*
X125071579Y-72953910D01*
X125071582Y-72953903D01*
X125085147Y-72921153D01*
X132099500Y-72921153D01*
X132099500Y-73078846D01*
X132130261Y-73233489D01*
X132130264Y-73233501D01*
X132190602Y-73379172D01*
X132190609Y-73379185D01*
X132278210Y-73510288D01*
X132278213Y-73510292D01*
X132389707Y-73621786D01*
X132389711Y-73621789D01*
X132520814Y-73709390D01*
X132520827Y-73709397D01*
X132620060Y-73750500D01*
X132666503Y-73769737D01*
X132821153Y-73800499D01*
X132821156Y-73800500D01*
X132821158Y-73800500D01*
X132978844Y-73800500D01*
X132978845Y-73800499D01*
X133133497Y-73769737D01*
X133279179Y-73709394D01*
X133410289Y-73621789D01*
X133521789Y-73510289D01*
X133609394Y-73379179D01*
X133669737Y-73233497D01*
X133700500Y-73078842D01*
X133700500Y-72921158D01*
X133700500Y-72921155D01*
X133694155Y-72889258D01*
X133694155Y-72889257D01*
X133690554Y-72871153D01*
X135799500Y-72871153D01*
X135799500Y-73028846D01*
X135830261Y-73183489D01*
X135830264Y-73183501D01*
X135890602Y-73329172D01*
X135890609Y-73329185D01*
X135978210Y-73460288D01*
X135978213Y-73460292D01*
X136089707Y-73571786D01*
X136089711Y-73571789D01*
X136220814Y-73659390D01*
X136220827Y-73659397D01*
X136366498Y-73719735D01*
X136366503Y-73719737D01*
X136521153Y-73750499D01*
X136521156Y-73750500D01*
X136521158Y-73750500D01*
X136678844Y-73750500D01*
X136678845Y-73750499D01*
X136833497Y-73719737D01*
X136979179Y-73659394D01*
X137110289Y-73571789D01*
X137152896Y-73529182D01*
X137214219Y-73495696D01*
X137283910Y-73500680D01*
X137339844Y-73542551D01*
X137362195Y-73592669D01*
X137380262Y-73683492D01*
X137380264Y-73683501D01*
X137440602Y-73829172D01*
X137440609Y-73829185D01*
X137528210Y-73960288D01*
X137528213Y-73960292D01*
X137639707Y-74071786D01*
X137639711Y-74071789D01*
X137770814Y-74159390D01*
X137770827Y-74159397D01*
X137916498Y-74219735D01*
X137916503Y-74219737D01*
X138071153Y-74250499D01*
X138071156Y-74250500D01*
X138071158Y-74250500D01*
X138228844Y-74250500D01*
X138228845Y-74250499D01*
X138383497Y-74219737D01*
X138529179Y-74159394D01*
X138660289Y-74071789D01*
X138689759Y-74042318D01*
X138751080Y-74008834D01*
X138820772Y-74013818D01*
X138876706Y-74055688D01*
X138887190Y-74074100D01*
X138887736Y-74073809D01*
X138890609Y-74079185D01*
X138978210Y-74210288D01*
X138978213Y-74210292D01*
X139089707Y-74321786D01*
X139089711Y-74321789D01*
X139220814Y-74409390D01*
X139220827Y-74409397D01*
X139366498Y-74469735D01*
X139366503Y-74469737D01*
X139521153Y-74500499D01*
X139521156Y-74500500D01*
X139521158Y-74500500D01*
X139678844Y-74500500D01*
X139678845Y-74500499D01*
X139833497Y-74469737D01*
X139979179Y-74409394D01*
X140110289Y-74321789D01*
X140221789Y-74210289D01*
X140309394Y-74079179D01*
X140369737Y-73933497D01*
X140372192Y-73921153D01*
X156299500Y-73921153D01*
X156299500Y-74078846D01*
X156330261Y-74233489D01*
X156330264Y-74233501D01*
X156390602Y-74379172D01*
X156390609Y-74379185D01*
X156478210Y-74510288D01*
X156478213Y-74510292D01*
X156589707Y-74621786D01*
X156589711Y-74621789D01*
X156720814Y-74709390D01*
X156720827Y-74709397D01*
X156796181Y-74740609D01*
X156866503Y-74769737D01*
X157021153Y-74800499D01*
X157021156Y-74800500D01*
X157021158Y-74800500D01*
X157178844Y-74800500D01*
X157178845Y-74800499D01*
X157333497Y-74769737D01*
X157479179Y-74709394D01*
X157610289Y-74621789D01*
X157721789Y-74510289D01*
X157809394Y-74379179D01*
X157812854Y-74370827D01*
X157823067Y-74346166D01*
X157869737Y-74233497D01*
X157900500Y-74078842D01*
X157900500Y-73921158D01*
X157900500Y-73921155D01*
X157900499Y-73921153D01*
X157882204Y-73829179D01*
X157869737Y-73766503D01*
X157869735Y-73766498D01*
X157809397Y-73620827D01*
X157809390Y-73620814D01*
X157721789Y-73489711D01*
X157721786Y-73489707D01*
X157610292Y-73378213D01*
X157610288Y-73378210D01*
X157479185Y-73290609D01*
X157479172Y-73290602D01*
X157333501Y-73230264D01*
X157333489Y-73230261D01*
X157178845Y-73199500D01*
X157178842Y-73199500D01*
X157021158Y-73199500D01*
X157021155Y-73199500D01*
X156866510Y-73230261D01*
X156866498Y-73230264D01*
X156720827Y-73290602D01*
X156720814Y-73290609D01*
X156589711Y-73378210D01*
X156589707Y-73378213D01*
X156478213Y-73489707D01*
X156478210Y-73489711D01*
X156390609Y-73620814D01*
X156390602Y-73620827D01*
X156330264Y-73766498D01*
X156330261Y-73766510D01*
X156299500Y-73921153D01*
X140372192Y-73921153D01*
X140378216Y-73890874D01*
X140378216Y-73890873D01*
X140400499Y-73778846D01*
X140400500Y-73778844D01*
X140400500Y-73621155D01*
X140400499Y-73621153D01*
X140394833Y-73592669D01*
X140369737Y-73466503D01*
X140350955Y-73421158D01*
X140309397Y-73320827D01*
X140309390Y-73320814D01*
X140221789Y-73189711D01*
X140221786Y-73189707D01*
X140110292Y-73078213D01*
X140110288Y-73078210D01*
X139979185Y-72990609D01*
X139979172Y-72990602D01*
X139833501Y-72930264D01*
X139833489Y-72930261D01*
X139678845Y-72899500D01*
X139678842Y-72899500D01*
X139521158Y-72899500D01*
X139521155Y-72899500D01*
X139366510Y-72930261D01*
X139366498Y-72930264D01*
X139220827Y-72990602D01*
X139220814Y-72990609D01*
X139089711Y-73078210D01*
X139060239Y-73107682D01*
X138998915Y-73141166D01*
X138929224Y-73136180D01*
X138873291Y-73094308D01*
X138862811Y-73075898D01*
X138862264Y-73076191D01*
X138859390Y-73070814D01*
X138771789Y-72939711D01*
X138771786Y-72939707D01*
X138660292Y-72828213D01*
X138660288Y-72828210D01*
X138529185Y-72740609D01*
X138529172Y-72740602D01*
X138383501Y-72680264D01*
X138383489Y-72680261D01*
X138228845Y-72649500D01*
X138228842Y-72649500D01*
X138071158Y-72649500D01*
X138071155Y-72649500D01*
X137916510Y-72680261D01*
X137916498Y-72680264D01*
X137770827Y-72740602D01*
X137770814Y-72740609D01*
X137639711Y-72828210D01*
X137639706Y-72828214D01*
X137597101Y-72870819D01*
X137535778Y-72904303D01*
X137466086Y-72899318D01*
X137410153Y-72857446D01*
X137387804Y-72807329D01*
X137369738Y-72716508D01*
X137369737Y-72716507D01*
X137369737Y-72716503D01*
X137369735Y-72716498D01*
X137309397Y-72570827D01*
X137309390Y-72570814D01*
X137221789Y-72439711D01*
X137221786Y-72439707D01*
X137110292Y-72328213D01*
X137110288Y-72328210D01*
X136979185Y-72240609D01*
X136979172Y-72240602D01*
X136833501Y-72180264D01*
X136833489Y-72180261D01*
X136678845Y-72149500D01*
X136678842Y-72149500D01*
X136521158Y-72149500D01*
X136521155Y-72149500D01*
X136366510Y-72180261D01*
X136366498Y-72180264D01*
X136220827Y-72240602D01*
X136220814Y-72240609D01*
X136089711Y-72328210D01*
X136089707Y-72328213D01*
X135978213Y-72439707D01*
X135978210Y-72439711D01*
X135890609Y-72570814D01*
X135890602Y-72570827D01*
X135830264Y-72716498D01*
X135830261Y-72716510D01*
X135799500Y-72871153D01*
X133690554Y-72871153D01*
X133674531Y-72790606D01*
X133669737Y-72766503D01*
X133669735Y-72766498D01*
X133609397Y-72620827D01*
X133609390Y-72620814D01*
X133521789Y-72489711D01*
X133521786Y-72489707D01*
X133410292Y-72378213D01*
X133410288Y-72378210D01*
X133279185Y-72290609D01*
X133279172Y-72290602D01*
X133133501Y-72230264D01*
X133133489Y-72230261D01*
X132978845Y-72199500D01*
X132978842Y-72199500D01*
X132821158Y-72199500D01*
X132821155Y-72199500D01*
X132666510Y-72230261D01*
X132666498Y-72230264D01*
X132520827Y-72290602D01*
X132520814Y-72290609D01*
X132389711Y-72378210D01*
X132389707Y-72378213D01*
X132278213Y-72489707D01*
X132278210Y-72489711D01*
X132190609Y-72620814D01*
X132190602Y-72620827D01*
X132130264Y-72766498D01*
X132130261Y-72766510D01*
X132099500Y-72921153D01*
X125085147Y-72921153D01*
X125107324Y-72867614D01*
X125118776Y-72839963D01*
X125131922Y-72808228D01*
X125162685Y-72653573D01*
X125162685Y-72495889D01*
X125162685Y-72495886D01*
X125162684Y-72495884D01*
X125151510Y-72439711D01*
X125131922Y-72341234D01*
X125110953Y-72290609D01*
X125071582Y-72195558D01*
X125071575Y-72195545D01*
X124983974Y-72064442D01*
X124983971Y-72064438D01*
X124872477Y-71952944D01*
X124872473Y-71952941D01*
X124741370Y-71865340D01*
X124741357Y-71865333D01*
X124595686Y-71804995D01*
X124595674Y-71804992D01*
X124441030Y-71774231D01*
X124441027Y-71774231D01*
X124283343Y-71774231D01*
X124283340Y-71774231D01*
X124128695Y-71804992D01*
X124128683Y-71804995D01*
X123983012Y-71865333D01*
X123982999Y-71865340D01*
X123851896Y-71952941D01*
X123851892Y-71952944D01*
X123740398Y-72064438D01*
X123740395Y-72064442D01*
X123652794Y-72195545D01*
X123652787Y-72195558D01*
X123592449Y-72341229D01*
X123592446Y-72341241D01*
X123561685Y-72495884D01*
X110500500Y-72495884D01*
X110500500Y-69521153D01*
X130399500Y-69521153D01*
X130399500Y-69678846D01*
X130430261Y-69833489D01*
X130430264Y-69833501D01*
X130490602Y-69979172D01*
X130490609Y-69979185D01*
X130578210Y-70110288D01*
X130578213Y-70110292D01*
X130689707Y-70221786D01*
X130689711Y-70221789D01*
X130820814Y-70309390D01*
X130820827Y-70309397D01*
X130950207Y-70362987D01*
X130966503Y-70369737D01*
X131121153Y-70400499D01*
X131121156Y-70400500D01*
X131121158Y-70400500D01*
X131278844Y-70400500D01*
X131278845Y-70400499D01*
X131433497Y-70369737D01*
X131579179Y-70309394D01*
X131710289Y-70221789D01*
X131821789Y-70110289D01*
X131840658Y-70082049D01*
X144757049Y-70082049D01*
X144757049Y-70239742D01*
X144787810Y-70394385D01*
X144787813Y-70394397D01*
X144848151Y-70540068D01*
X144848158Y-70540081D01*
X144935759Y-70671184D01*
X144935762Y-70671188D01*
X145047256Y-70782682D01*
X145047260Y-70782685D01*
X145178363Y-70870286D01*
X145178376Y-70870293D01*
X145324047Y-70930631D01*
X145324052Y-70930633D01*
X145478702Y-70961395D01*
X145478705Y-70961396D01*
X145478707Y-70961396D01*
X145636393Y-70961396D01*
X145636394Y-70961395D01*
X145791046Y-70930633D01*
X145936728Y-70870290D01*
X146061868Y-70786673D01*
X146128542Y-70765797D01*
X146195922Y-70784281D01*
X146242612Y-70836259D01*
X146252373Y-70865585D01*
X146280261Y-71005786D01*
X146280264Y-71005796D01*
X146340602Y-71151467D01*
X146340609Y-71151480D01*
X146428210Y-71282583D01*
X146428213Y-71282587D01*
X146539707Y-71394081D01*
X146539711Y-71394084D01*
X146670814Y-71481685D01*
X146670827Y-71481692D01*
X146765309Y-71520827D01*
X146816503Y-71542032D01*
X146971153Y-71572794D01*
X146971156Y-71572795D01*
X146971158Y-71572795D01*
X147049094Y-71572795D01*
X147116133Y-71592480D01*
X147152197Y-71627906D01*
X147182844Y-71673774D01*
X147182848Y-71673779D01*
X147294342Y-71785273D01*
X147294346Y-71785276D01*
X147425449Y-71872877D01*
X147425462Y-71872884D01*
X147571133Y-71933222D01*
X147571138Y-71933224D01*
X147725788Y-71963986D01*
X147725791Y-71963987D01*
X147725793Y-71963987D01*
X147883479Y-71963987D01*
X147883480Y-71963986D01*
X148038132Y-71933224D01*
X148183814Y-71872881D01*
X148261230Y-71821153D01*
X151199500Y-71821153D01*
X151199500Y-71978846D01*
X151230261Y-72133489D01*
X151230264Y-72133501D01*
X151290602Y-72279172D01*
X151290609Y-72279185D01*
X151378210Y-72410288D01*
X151378213Y-72410292D01*
X151489707Y-72521786D01*
X151489711Y-72521789D01*
X151620814Y-72609390D01*
X151620827Y-72609397D01*
X151717646Y-72649500D01*
X151766503Y-72669737D01*
X151916131Y-72699500D01*
X151921153Y-72700499D01*
X151921156Y-72700500D01*
X151921158Y-72700500D01*
X152078844Y-72700500D01*
X152078845Y-72700499D01*
X152233497Y-72669737D01*
X152351592Y-72620821D01*
X152379172Y-72609397D01*
X152379172Y-72609396D01*
X152379179Y-72609394D01*
X152510289Y-72521789D01*
X152621789Y-72410289D01*
X152709394Y-72279179D01*
X152769737Y-72133497D01*
X152800500Y-71978842D01*
X152800500Y-71951180D01*
X152820185Y-71884141D01*
X152842521Y-71859048D01*
X152842395Y-71858922D01*
X152844579Y-71856737D01*
X152845836Y-71855326D01*
X152846693Y-71854621D01*
X152846703Y-71854615D01*
X152958203Y-71743115D01*
X153045808Y-71612005D01*
X153106151Y-71466323D01*
X153136914Y-71311668D01*
X153136914Y-71153984D01*
X153136914Y-71153981D01*
X153136913Y-71153979D01*
X153136413Y-71151467D01*
X153106151Y-70999329D01*
X153090439Y-70961396D01*
X153045811Y-70853653D01*
X153045804Y-70853640D01*
X152958203Y-70722537D01*
X152958200Y-70722533D01*
X152846706Y-70611039D01*
X152846702Y-70611036D01*
X152715599Y-70523435D01*
X152715586Y-70523428D01*
X152569915Y-70463090D01*
X152569903Y-70463087D01*
X152415259Y-70432326D01*
X152415256Y-70432326D01*
X152257572Y-70432326D01*
X152257569Y-70432326D01*
X152102924Y-70463087D01*
X152102912Y-70463090D01*
X151957241Y-70523428D01*
X151957228Y-70523435D01*
X151826125Y-70611036D01*
X151826121Y-70611039D01*
X151714627Y-70722533D01*
X151714624Y-70722537D01*
X151627023Y-70853640D01*
X151627016Y-70853653D01*
X151566678Y-70999324D01*
X151566675Y-70999336D01*
X151535914Y-71153979D01*
X151535914Y-71181645D01*
X151516229Y-71248684D01*
X151493892Y-71273777D01*
X151494018Y-71273903D01*
X151491852Y-71276068D01*
X151490580Y-71277498D01*
X151489704Y-71278216D01*
X151378213Y-71389707D01*
X151378210Y-71389711D01*
X151290609Y-71520814D01*
X151290602Y-71520827D01*
X151230264Y-71666498D01*
X151230261Y-71666510D01*
X151199500Y-71821153D01*
X148261230Y-71821153D01*
X148314924Y-71785276D01*
X148325969Y-71774231D01*
X148372816Y-71727385D01*
X148426421Y-71673779D01*
X148426424Y-71673776D01*
X148514029Y-71542666D01*
X148514293Y-71542030D01*
X148574370Y-71396988D01*
X148574372Y-71396984D01*
X148605135Y-71242329D01*
X148605135Y-71084645D01*
X148605135Y-71084642D01*
X148605134Y-71084640D01*
X148574500Y-70930633D01*
X148574372Y-70929990D01*
X148547695Y-70865585D01*
X148514032Y-70784314D01*
X148514025Y-70784301D01*
X148426424Y-70653198D01*
X148426421Y-70653194D01*
X148314927Y-70541700D01*
X148314923Y-70541697D01*
X148183820Y-70454096D01*
X148183807Y-70454089D01*
X148038136Y-70393751D01*
X148038124Y-70393748D01*
X147883480Y-70362987D01*
X147883477Y-70362987D01*
X147805541Y-70362987D01*
X147738502Y-70343302D01*
X147702438Y-70307876D01*
X147671790Y-70262007D01*
X147671786Y-70262002D01*
X147560292Y-70150508D01*
X147560288Y-70150505D01*
X147429185Y-70062904D01*
X147429172Y-70062897D01*
X147283501Y-70002559D01*
X147283489Y-70002556D01*
X147128845Y-69971795D01*
X147128842Y-69971795D01*
X146971158Y-69971795D01*
X146971155Y-69971795D01*
X146816510Y-70002556D01*
X146816498Y-70002559D01*
X146670827Y-70062897D01*
X146670814Y-70062904D01*
X146545683Y-70146515D01*
X146479005Y-70167393D01*
X146411625Y-70148908D01*
X146364935Y-70096930D01*
X146355175Y-70067604D01*
X146327287Y-69927406D01*
X146327286Y-69927399D01*
X146327284Y-69927394D01*
X146266946Y-69781723D01*
X146266939Y-69781710D01*
X146179338Y-69650607D01*
X146179335Y-69650603D01*
X146067841Y-69539109D01*
X146067837Y-69539106D01*
X145936734Y-69451505D01*
X145936721Y-69451498D01*
X145791050Y-69391160D01*
X145791038Y-69391157D01*
X145636394Y-69360396D01*
X145636391Y-69360396D01*
X145478707Y-69360396D01*
X145478704Y-69360396D01*
X145324059Y-69391157D01*
X145324047Y-69391160D01*
X145178376Y-69451498D01*
X145178363Y-69451505D01*
X145047260Y-69539106D01*
X145047256Y-69539109D01*
X144935762Y-69650603D01*
X144935759Y-69650607D01*
X144848158Y-69781710D01*
X144848151Y-69781723D01*
X144787813Y-69927394D01*
X144787810Y-69927406D01*
X144757049Y-70082049D01*
X131840658Y-70082049D01*
X131853455Y-70062897D01*
X131890758Y-70007071D01*
X131890759Y-70007069D01*
X131909387Y-69979190D01*
X131909390Y-69979185D01*
X131909394Y-69979179D01*
X131969737Y-69833497D01*
X132000500Y-69678842D01*
X132000500Y-69521158D01*
X132000500Y-69521155D01*
X132000499Y-69521153D01*
X131986644Y-69451502D01*
X131969737Y-69366503D01*
X131969735Y-69366498D01*
X131909397Y-69220827D01*
X131909390Y-69220814D01*
X131821789Y-69089711D01*
X131821786Y-69089707D01*
X131710292Y-68978213D01*
X131710288Y-68978210D01*
X131624897Y-68921153D01*
X140299500Y-68921153D01*
X140299500Y-69078846D01*
X140330261Y-69233489D01*
X140330264Y-69233501D01*
X140390602Y-69379172D01*
X140390609Y-69379185D01*
X140478210Y-69510288D01*
X140478213Y-69510292D01*
X140589707Y-69621786D01*
X140589711Y-69621789D01*
X140720814Y-69709390D01*
X140720827Y-69709397D01*
X140866498Y-69769735D01*
X140866503Y-69769737D01*
X141021153Y-69800499D01*
X141021156Y-69800500D01*
X141021158Y-69800500D01*
X141178844Y-69800500D01*
X141178845Y-69800499D01*
X141333497Y-69769737D01*
X141479179Y-69709394D01*
X141610289Y-69621789D01*
X141721789Y-69510289D01*
X141809394Y-69379179D01*
X141869737Y-69233497D01*
X141900500Y-69078842D01*
X141900500Y-68921158D01*
X141900500Y-68921155D01*
X141900499Y-68921153D01*
X141882419Y-68830261D01*
X141869737Y-68766503D01*
X141869735Y-68766498D01*
X141809397Y-68620827D01*
X141809390Y-68620814D01*
X141751354Y-68533957D01*
X141721789Y-68489711D01*
X141721786Y-68489707D01*
X141703232Y-68471153D01*
X152299500Y-68471153D01*
X152299500Y-68628846D01*
X152330261Y-68783489D01*
X152330264Y-68783501D01*
X152390602Y-68929172D01*
X152390609Y-68929185D01*
X152478210Y-69060288D01*
X152478213Y-69060292D01*
X152589707Y-69171786D01*
X152589711Y-69171789D01*
X152720814Y-69259390D01*
X152720827Y-69259397D01*
X152861172Y-69317529D01*
X152866503Y-69319737D01*
X153021153Y-69350499D01*
X153021156Y-69350500D01*
X153021158Y-69350500D01*
X153178844Y-69350500D01*
X153178845Y-69350499D01*
X153333497Y-69319737D01*
X153449086Y-69271858D01*
X153518554Y-69264390D01*
X153581033Y-69295665D01*
X153599639Y-69317529D01*
X153628210Y-69360288D01*
X153628213Y-69360292D01*
X153739707Y-69471786D01*
X153739711Y-69471789D01*
X153870814Y-69559390D01*
X153870827Y-69559397D01*
X154016498Y-69619735D01*
X154016503Y-69619737D01*
X154171153Y-69650499D01*
X154171156Y-69650500D01*
X154171158Y-69650500D01*
X154328844Y-69650500D01*
X154328845Y-69650499D01*
X154483497Y-69619737D01*
X154629179Y-69559394D01*
X154760289Y-69471789D01*
X154871789Y-69360289D01*
X154959394Y-69229179D01*
X154962854Y-69220827D01*
X154973067Y-69196166D01*
X155019737Y-69083497D01*
X155050500Y-68928842D01*
X155050500Y-68771158D01*
X155050500Y-68771155D01*
X155050499Y-68771153D01*
X155020596Y-68620821D01*
X155019737Y-68616503D01*
X155019735Y-68616498D01*
X154959397Y-68470827D01*
X154959390Y-68470814D01*
X154871789Y-68339711D01*
X154871786Y-68339707D01*
X154760292Y-68228213D01*
X154760288Y-68228210D01*
X154629185Y-68140609D01*
X154629172Y-68140602D01*
X154483501Y-68080264D01*
X154483489Y-68080261D01*
X154328845Y-68049500D01*
X154328842Y-68049500D01*
X154171158Y-68049500D01*
X154171155Y-68049500D01*
X154016510Y-68080261D01*
X154016507Y-68080261D01*
X153900914Y-68128141D01*
X153831444Y-68135609D01*
X153768965Y-68104333D01*
X153750360Y-68082470D01*
X153721789Y-68039711D01*
X153721786Y-68039707D01*
X153610292Y-67928213D01*
X153610288Y-67928210D01*
X153479185Y-67840609D01*
X153479172Y-67840602D01*
X153333501Y-67780264D01*
X153333489Y-67780261D01*
X153178845Y-67749500D01*
X153178842Y-67749500D01*
X153021158Y-67749500D01*
X153021155Y-67749500D01*
X152866510Y-67780261D01*
X152866498Y-67780264D01*
X152720827Y-67840602D01*
X152720814Y-67840609D01*
X152589711Y-67928210D01*
X152589707Y-67928213D01*
X152478213Y-68039707D01*
X152478210Y-68039711D01*
X152390609Y-68170814D01*
X152390602Y-68170827D01*
X152330264Y-68316498D01*
X152330261Y-68316510D01*
X152299500Y-68471153D01*
X141703232Y-68471153D01*
X141610292Y-68378213D01*
X141610288Y-68378210D01*
X141479185Y-68290609D01*
X141479172Y-68290602D01*
X141333501Y-68230264D01*
X141333489Y-68230261D01*
X141178845Y-68199500D01*
X141178842Y-68199500D01*
X141021158Y-68199500D01*
X141021155Y-68199500D01*
X140866510Y-68230261D01*
X140866498Y-68230264D01*
X140720827Y-68290602D01*
X140720814Y-68290609D01*
X140589711Y-68378210D01*
X140589707Y-68378213D01*
X140478213Y-68489707D01*
X140478210Y-68489711D01*
X140390609Y-68620814D01*
X140390602Y-68620827D01*
X140330264Y-68766498D01*
X140330261Y-68766510D01*
X140299500Y-68921153D01*
X131624897Y-68921153D01*
X131579185Y-68890609D01*
X131579172Y-68890602D01*
X131433501Y-68830264D01*
X131433489Y-68830261D01*
X131278845Y-68799500D01*
X131278842Y-68799500D01*
X131121158Y-68799500D01*
X131121155Y-68799500D01*
X130966510Y-68830261D01*
X130966498Y-68830264D01*
X130820827Y-68890602D01*
X130820814Y-68890609D01*
X130689711Y-68978210D01*
X130689707Y-68978213D01*
X130578213Y-69089707D01*
X130578210Y-69089711D01*
X130490609Y-69220814D01*
X130490602Y-69220827D01*
X130430264Y-69366498D01*
X130430261Y-69366510D01*
X130399500Y-69521153D01*
X110500500Y-69521153D01*
X110500500Y-67721153D01*
X127399500Y-67721153D01*
X127399500Y-67878846D01*
X127430261Y-68033489D01*
X127430264Y-68033501D01*
X127490602Y-68179172D01*
X127490609Y-68179185D01*
X127578210Y-68310288D01*
X127578213Y-68310292D01*
X127689707Y-68421786D01*
X127689711Y-68421789D01*
X127820814Y-68509390D01*
X127820827Y-68509397D01*
X127966498Y-68569735D01*
X127966503Y-68569737D01*
X128121153Y-68600499D01*
X128121156Y-68600500D01*
X128121158Y-68600500D01*
X128278844Y-68600500D01*
X128278845Y-68600499D01*
X128433497Y-68569737D01*
X128579179Y-68509394D01*
X128710289Y-68421789D01*
X128821789Y-68310289D01*
X128909394Y-68179179D01*
X128912854Y-68170827D01*
X128949452Y-68082470D01*
X128969737Y-68033497D01*
X129000500Y-67878842D01*
X129000500Y-67721158D01*
X129000500Y-67721155D01*
X129000499Y-67721153D01*
X128969737Y-67566503D01*
X128950955Y-67521158D01*
X128909397Y-67420827D01*
X128909390Y-67420814D01*
X128821789Y-67289711D01*
X128821786Y-67289707D01*
X128710292Y-67178213D01*
X128710288Y-67178210D01*
X128579185Y-67090609D01*
X128579172Y-67090602D01*
X128433501Y-67030264D01*
X128433489Y-67030261D01*
X128278845Y-66999500D01*
X128278842Y-66999500D01*
X128121158Y-66999500D01*
X128121155Y-66999500D01*
X127966510Y-67030261D01*
X127966498Y-67030264D01*
X127820827Y-67090602D01*
X127820814Y-67090609D01*
X127689711Y-67178210D01*
X127689707Y-67178213D01*
X127578213Y-67289707D01*
X127578210Y-67289711D01*
X127490609Y-67420814D01*
X127490602Y-67420827D01*
X127430264Y-67566498D01*
X127430261Y-67566510D01*
X127399500Y-67721153D01*
X110500500Y-67721153D01*
X110500500Y-64971153D01*
X125749500Y-64971153D01*
X125749500Y-65128846D01*
X125780261Y-65283489D01*
X125780264Y-65283501D01*
X125840602Y-65429172D01*
X125840609Y-65429185D01*
X125928210Y-65560288D01*
X125928213Y-65560292D01*
X126039707Y-65671786D01*
X126039711Y-65671789D01*
X126170814Y-65759390D01*
X126170827Y-65759397D01*
X126270060Y-65800500D01*
X126316503Y-65819737D01*
X126471153Y-65850499D01*
X126471156Y-65850500D01*
X126471158Y-65850500D01*
X126628844Y-65850500D01*
X126628845Y-65850499D01*
X126783497Y-65819737D01*
X126929179Y-65759394D01*
X127060289Y-65671789D01*
X127171789Y-65560289D01*
X127259394Y-65429179D01*
X127262439Y-65421829D01*
X127280102Y-65379185D01*
X127319737Y-65283497D01*
X127350500Y-65128842D01*
X127350500Y-65071153D01*
X130549500Y-65071153D01*
X130549500Y-65228846D01*
X130580261Y-65383489D01*
X130580264Y-65383501D01*
X130640602Y-65529172D01*
X130640609Y-65529185D01*
X130728210Y-65660288D01*
X130728213Y-65660292D01*
X130839707Y-65771786D01*
X130839711Y-65771789D01*
X130970814Y-65859390D01*
X130970818Y-65859392D01*
X130970821Y-65859394D01*
X131108877Y-65916578D01*
X131163276Y-65960416D01*
X131185342Y-66026710D01*
X131168063Y-66094409D01*
X131149103Y-66118818D01*
X131078210Y-66189711D01*
X130990609Y-66320814D01*
X130990602Y-66320827D01*
X130930264Y-66466498D01*
X130930261Y-66466510D01*
X130899500Y-66621153D01*
X130899500Y-66778846D01*
X130930260Y-66933488D01*
X130930261Y-66933489D01*
X130930263Y-66933497D01*
X130963192Y-67012995D01*
X130970660Y-67082464D01*
X130951733Y-67129336D01*
X130890608Y-67220816D01*
X130890602Y-67220827D01*
X130830264Y-67366498D01*
X130830261Y-67366510D01*
X130799500Y-67521153D01*
X130799500Y-67678846D01*
X130830261Y-67833489D01*
X130830264Y-67833501D01*
X130890602Y-67979172D01*
X130890609Y-67979185D01*
X130978210Y-68110288D01*
X130978213Y-68110292D01*
X131089707Y-68221786D01*
X131089711Y-68221789D01*
X131220814Y-68309390D01*
X131220827Y-68309397D01*
X131324517Y-68352346D01*
X131366503Y-68369737D01*
X131521153Y-68400499D01*
X131521156Y-68400500D01*
X131521158Y-68400500D01*
X131678844Y-68400500D01*
X131678845Y-68400499D01*
X131833497Y-68369737D01*
X131979179Y-68309394D01*
X132110289Y-68221789D01*
X132221789Y-68110289D01*
X132309394Y-67979179D01*
X132369737Y-67833497D01*
X132400500Y-67678842D01*
X132400500Y-67521158D01*
X132400500Y-67521155D01*
X132395504Y-67496041D01*
X132395503Y-67496039D01*
X132390920Y-67472999D01*
X138549502Y-67472999D01*
X138549502Y-67630692D01*
X138580263Y-67785335D01*
X138580266Y-67785347D01*
X138640604Y-67931018D01*
X138640611Y-67931031D01*
X138728212Y-68062134D01*
X138728215Y-68062138D01*
X138839709Y-68173632D01*
X138839713Y-68173635D01*
X138970816Y-68261236D01*
X138970829Y-68261243D01*
X139116500Y-68321581D01*
X139116505Y-68321583D01*
X139271155Y-68352345D01*
X139271158Y-68352346D01*
X139271160Y-68352346D01*
X139428846Y-68352346D01*
X139428847Y-68352345D01*
X139583499Y-68321583D01*
X139729181Y-68261240D01*
X139860291Y-68173635D01*
X139971791Y-68062135D01*
X140059396Y-67931025D01*
X140119739Y-67785343D01*
X140150502Y-67630688D01*
X140150502Y-67473004D01*
X140150502Y-67473001D01*
X140150501Y-67472999D01*
X140119739Y-67318349D01*
X140089545Y-67245454D01*
X140059399Y-67172673D01*
X140059392Y-67172660D01*
X139971791Y-67041557D01*
X139971788Y-67041553D01*
X139860294Y-66930059D01*
X139860290Y-66930056D01*
X139729187Y-66842455D01*
X139729174Y-66842448D01*
X139583503Y-66782110D01*
X139583491Y-66782107D01*
X139428847Y-66751346D01*
X139428844Y-66751346D01*
X139271160Y-66751346D01*
X139271157Y-66751346D01*
X139116512Y-66782107D01*
X139116500Y-66782110D01*
X138970829Y-66842448D01*
X138970816Y-66842455D01*
X138839713Y-66930056D01*
X138839709Y-66930059D01*
X138728215Y-67041553D01*
X138728212Y-67041557D01*
X138640611Y-67172660D01*
X138640604Y-67172673D01*
X138580266Y-67318344D01*
X138580263Y-67318356D01*
X138549502Y-67472999D01*
X132390920Y-67472999D01*
X132369737Y-67366503D01*
X132334072Y-67280402D01*
X132332114Y-67273526D01*
X132332340Y-67245454D01*
X132329339Y-67217536D01*
X132332631Y-67209381D01*
X132332678Y-67203659D01*
X132338595Y-67194611D01*
X132348267Y-67170662D01*
X132409390Y-67079185D01*
X132409390Y-67079184D01*
X132409394Y-67079179D01*
X132469737Y-66933497D01*
X132500500Y-66778842D01*
X132500500Y-66621158D01*
X132500500Y-66621155D01*
X132500499Y-66621153D01*
X132497608Y-66606620D01*
X144916376Y-66606620D01*
X144916376Y-66764313D01*
X144947137Y-66918956D01*
X144947140Y-66918968D01*
X145007478Y-67064639D01*
X145007485Y-67064652D01*
X145095086Y-67195755D01*
X145095089Y-67195759D01*
X145206583Y-67307253D01*
X145206587Y-67307256D01*
X145337690Y-67394857D01*
X145337703Y-67394864D01*
X145483374Y-67455202D01*
X145483379Y-67455204D01*
X145638029Y-67485966D01*
X145638032Y-67485967D01*
X145638034Y-67485967D01*
X145795720Y-67485967D01*
X145795721Y-67485966D01*
X145950373Y-67455204D01*
X146096055Y-67394861D01*
X146227165Y-67307256D01*
X146338665Y-67195756D01*
X146426270Y-67064646D01*
X146486613Y-66918964D01*
X146517376Y-66764309D01*
X146517376Y-66606625D01*
X146517376Y-66606622D01*
X146517375Y-66606620D01*
X146486615Y-66451978D01*
X146486612Y-66451968D01*
X146478849Y-66433226D01*
X146471380Y-66363756D01*
X146502656Y-66301277D01*
X146562745Y-66265626D01*
X146632570Y-66268120D01*
X146662300Y-66282671D01*
X146770821Y-66355183D01*
X146770823Y-66355184D01*
X146770827Y-66355186D01*
X146916498Y-66415524D01*
X146916503Y-66415526D01*
X147071153Y-66446288D01*
X147071156Y-66446289D01*
X147071158Y-66446289D01*
X147228844Y-66446289D01*
X147228845Y-66446288D01*
X147383497Y-66415526D01*
X147529179Y-66355183D01*
X147660289Y-66267578D01*
X147771789Y-66156078D01*
X147859394Y-66024968D01*
X147919737Y-65879286D01*
X147950500Y-65724631D01*
X147950500Y-65566947D01*
X147950500Y-65566944D01*
X147950499Y-65566942D01*
X147941078Y-65519580D01*
X147919737Y-65412292D01*
X147908513Y-65385194D01*
X147859397Y-65266616D01*
X147859390Y-65266603D01*
X147771789Y-65135500D01*
X147771786Y-65135496D01*
X147660292Y-65024002D01*
X147660288Y-65023999D01*
X147529185Y-64936398D01*
X147529172Y-64936391D01*
X147507515Y-64927421D01*
X147383501Y-64876053D01*
X147383489Y-64876050D01*
X147228845Y-64845289D01*
X147228842Y-64845289D01*
X147071158Y-64845289D01*
X147071155Y-64845289D01*
X146916510Y-64876050D01*
X146916498Y-64876053D01*
X146769209Y-64937062D01*
X146699740Y-64944531D01*
X146637261Y-64913255D01*
X146601609Y-64853166D01*
X146600140Y-64846692D01*
X146594621Y-64818947D01*
X149739380Y-64818947D01*
X149739380Y-64976640D01*
X149770141Y-65131283D01*
X149770144Y-65131295D01*
X149830482Y-65276966D01*
X149830489Y-65276979D01*
X149918090Y-65408082D01*
X149918093Y-65408086D01*
X150029587Y-65519580D01*
X150029591Y-65519583D01*
X150160694Y-65607184D01*
X150160707Y-65607191D01*
X150288899Y-65660289D01*
X150306383Y-65667531D01*
X150461033Y-65698293D01*
X150461036Y-65698294D01*
X150461038Y-65698294D01*
X150618724Y-65698294D01*
X150618725Y-65698293D01*
X150773377Y-65667531D01*
X150919059Y-65607188D01*
X151019839Y-65539849D01*
X153427656Y-65539849D01*
X153427656Y-65697542D01*
X153458417Y-65852185D01*
X153458420Y-65852197D01*
X153518758Y-65997868D01*
X153518765Y-65997881D01*
X153606366Y-66128984D01*
X153606369Y-66128988D01*
X153717863Y-66240482D01*
X153717867Y-66240485D01*
X153848970Y-66328086D01*
X153848983Y-66328093D01*
X153994654Y-66388431D01*
X153994659Y-66388433D01*
X154130854Y-66415524D01*
X154149309Y-66419195D01*
X154149312Y-66419196D01*
X154149314Y-66419196D01*
X154307000Y-66419196D01*
X154307001Y-66419195D01*
X154461653Y-66388433D01*
X154607335Y-66328090D01*
X154738445Y-66240485D01*
X154849945Y-66128985D01*
X154937550Y-65997875D01*
X154997893Y-65852193D01*
X155028656Y-65697538D01*
X155028656Y-65539854D01*
X155028656Y-65539851D01*
X155028655Y-65539849D01*
X155021947Y-65506127D01*
X154997893Y-65385199D01*
X154995402Y-65379185D01*
X154937553Y-65239523D01*
X154937546Y-65239510D01*
X154849945Y-65108407D01*
X154849942Y-65108403D01*
X154738448Y-64996909D01*
X154738444Y-64996906D01*
X154607341Y-64909305D01*
X154607328Y-64909298D01*
X154461657Y-64848960D01*
X154461645Y-64848957D01*
X154307001Y-64818196D01*
X154306998Y-64818196D01*
X154149314Y-64818196D01*
X154149311Y-64818196D01*
X153994666Y-64848957D01*
X153994654Y-64848960D01*
X153848983Y-64909298D01*
X153848970Y-64909305D01*
X153717867Y-64996906D01*
X153717863Y-64996909D01*
X153606369Y-65108403D01*
X153606366Y-65108407D01*
X153518765Y-65239510D01*
X153518758Y-65239523D01*
X153458420Y-65385194D01*
X153458417Y-65385206D01*
X153427656Y-65539849D01*
X151019839Y-65539849D01*
X151050169Y-65519583D01*
X151076364Y-65493388D01*
X151123672Y-65446081D01*
X151161666Y-65408086D01*
X151161669Y-65408083D01*
X151249274Y-65276973D01*
X151253567Y-65266610D01*
X151267282Y-65233497D01*
X151309617Y-65131291D01*
X151340380Y-64976636D01*
X151340380Y-64871821D01*
X151360065Y-64804782D01*
X151412869Y-64759027D01*
X151482027Y-64749083D01*
X151545583Y-64778108D01*
X151552061Y-64784140D01*
X151589707Y-64821786D01*
X151589711Y-64821789D01*
X151720814Y-64909390D01*
X151720827Y-64909397D01*
X151866498Y-64969735D01*
X151866503Y-64969737D01*
X152003090Y-64996906D01*
X152021153Y-65000499D01*
X152021156Y-65000500D01*
X152021158Y-65000500D01*
X152178844Y-65000500D01*
X152178845Y-65000499D01*
X152333497Y-64969737D01*
X152471647Y-64912514D01*
X152479172Y-64909397D01*
X152479172Y-64909396D01*
X152479179Y-64909394D01*
X152610289Y-64821789D01*
X152721789Y-64710289D01*
X152809394Y-64579179D01*
X152812854Y-64570827D01*
X152846293Y-64490096D01*
X152869737Y-64433497D01*
X152900500Y-64278842D01*
X152900500Y-64121158D01*
X152900500Y-64121155D01*
X152900499Y-64121153D01*
X152887290Y-64054749D01*
X152869737Y-63966503D01*
X152845948Y-63909071D01*
X152809397Y-63820827D01*
X152809390Y-63820814D01*
X152721789Y-63689711D01*
X152721786Y-63689707D01*
X152610292Y-63578213D01*
X152610288Y-63578210D01*
X152479185Y-63490609D01*
X152479172Y-63490602D01*
X152333501Y-63430264D01*
X152333491Y-63430261D01*
X152221405Y-63407965D01*
X152159494Y-63375579D01*
X152131036Y-63333801D01*
X152115541Y-63296394D01*
X152115540Y-63296391D01*
X152115538Y-63296388D01*
X152115536Y-63296384D01*
X152027935Y-63165281D01*
X152027932Y-63165277D01*
X151916438Y-63053783D01*
X151916434Y-63053780D01*
X151785331Y-62966179D01*
X151785318Y-62966172D01*
X151639647Y-62905834D01*
X151639635Y-62905831D01*
X151484991Y-62875070D01*
X151484988Y-62875070D01*
X151327304Y-62875070D01*
X151327301Y-62875070D01*
X151172656Y-62905831D01*
X151172644Y-62905834D01*
X151026973Y-62966172D01*
X151026960Y-62966179D01*
X150895857Y-63053780D01*
X150895853Y-63053783D01*
X150784359Y-63165277D01*
X150784356Y-63165281D01*
X150696755Y-63296384D01*
X150696748Y-63296397D01*
X150636410Y-63442068D01*
X150636407Y-63442080D01*
X150605646Y-63596723D01*
X150605646Y-63754416D01*
X150636407Y-63909059D01*
X150636410Y-63909071D01*
X150643357Y-63925842D01*
X150650826Y-63995312D01*
X150619550Y-64057791D01*
X150559461Y-64093442D01*
X150528796Y-64097294D01*
X150461035Y-64097294D01*
X150306390Y-64128055D01*
X150306378Y-64128058D01*
X150160707Y-64188396D01*
X150160694Y-64188403D01*
X150029591Y-64276004D01*
X150029587Y-64276007D01*
X149918093Y-64387501D01*
X149918090Y-64387505D01*
X149830489Y-64518608D01*
X149830482Y-64518621D01*
X149770144Y-64664292D01*
X149770141Y-64664304D01*
X149739380Y-64818947D01*
X146594621Y-64818947D01*
X146582702Y-64759027D01*
X146580247Y-64746686D01*
X146580245Y-64746681D01*
X146519907Y-64601010D01*
X146519900Y-64600997D01*
X146432299Y-64469894D01*
X146432296Y-64469890D01*
X146320802Y-64358396D01*
X146320798Y-64358393D01*
X146189695Y-64270792D01*
X146189682Y-64270785D01*
X146044011Y-64210447D01*
X146043999Y-64210444D01*
X145889355Y-64179683D01*
X145889352Y-64179683D01*
X145731668Y-64179683D01*
X145731665Y-64179683D01*
X145577020Y-64210444D01*
X145577008Y-64210447D01*
X145431337Y-64270785D01*
X145431324Y-64270792D01*
X145300221Y-64358393D01*
X145300217Y-64358396D01*
X145188723Y-64469890D01*
X145188720Y-64469894D01*
X145101119Y-64600997D01*
X145101112Y-64601010D01*
X145040774Y-64746681D01*
X145040771Y-64746693D01*
X145010010Y-64901336D01*
X145010010Y-65059029D01*
X145040771Y-65213672D01*
X145040774Y-65213684D01*
X145101114Y-65359360D01*
X145101506Y-65359946D01*
X145101616Y-65360299D01*
X145103986Y-65364732D01*
X145103145Y-65365181D01*
X145122382Y-65426624D01*
X145112963Y-65476286D01*
X145063216Y-65596387D01*
X145063213Y-65596399D01*
X145032452Y-65751042D01*
X145032452Y-65908735D01*
X145063213Y-66063382D01*
X145078633Y-66100609D01*
X145086101Y-66170079D01*
X145067174Y-66216951D01*
X145007484Y-66306283D01*
X145007478Y-66306294D01*
X144947140Y-66451965D01*
X144947137Y-66451977D01*
X144916376Y-66606620D01*
X132497608Y-66606620D01*
X132469738Y-66466510D01*
X132469737Y-66466503D01*
X132463717Y-66451970D01*
X132409397Y-66320827D01*
X132409390Y-66320814D01*
X132321789Y-66189711D01*
X132321786Y-66189707D01*
X132210292Y-66078213D01*
X132210288Y-66078210D01*
X132079185Y-65990609D01*
X132079172Y-65990602D01*
X131941126Y-65933423D01*
X131886722Y-65889583D01*
X131864657Y-65823289D01*
X131881936Y-65755589D01*
X131900893Y-65731184D01*
X131971789Y-65660289D01*
X132059394Y-65529179D01*
X132119737Y-65383497D01*
X132150500Y-65228842D01*
X132150500Y-65071158D01*
X132150500Y-65071155D01*
X132150499Y-65071153D01*
X132146829Y-65052701D01*
X132119737Y-64916503D01*
X132116794Y-64909397D01*
X132100953Y-64871153D01*
X137799500Y-64871153D01*
X137799500Y-65028846D01*
X137830261Y-65183489D01*
X137830264Y-65183501D01*
X137890602Y-65329172D01*
X137890609Y-65329185D01*
X137978210Y-65460288D01*
X137978213Y-65460292D01*
X138089707Y-65571786D01*
X138089711Y-65571789D01*
X138220814Y-65659390D01*
X138220827Y-65659397D01*
X138366498Y-65719735D01*
X138366503Y-65719737D01*
X138521153Y-65750499D01*
X138521156Y-65750500D01*
X138521158Y-65750500D01*
X138678844Y-65750500D01*
X138678845Y-65750499D01*
X138833497Y-65719737D01*
X138979179Y-65659394D01*
X139110289Y-65571789D01*
X139188691Y-65493386D01*
X139250012Y-65459903D01*
X139319704Y-65464887D01*
X139374212Y-65505691D01*
X139374347Y-65505581D01*
X139374795Y-65506127D01*
X139375638Y-65506758D01*
X139377671Y-65509631D01*
X139378213Y-65510292D01*
X139489707Y-65621786D01*
X139489711Y-65621789D01*
X139620814Y-65709390D01*
X139620827Y-65709397D01*
X139766498Y-65769735D01*
X139766503Y-65769737D01*
X139921153Y-65800499D01*
X139921156Y-65800500D01*
X139921158Y-65800500D01*
X140078844Y-65800500D01*
X140078845Y-65800499D01*
X140233497Y-65769737D01*
X140379179Y-65709394D01*
X140510289Y-65621789D01*
X140621789Y-65510289D01*
X140709394Y-65379179D01*
X140769737Y-65233497D01*
X140800500Y-65078842D01*
X140800500Y-64921158D01*
X140800500Y-64921155D01*
X140800499Y-64921153D01*
X140786139Y-64848960D01*
X140769737Y-64766503D01*
X140766640Y-64759027D01*
X140709397Y-64620827D01*
X140709390Y-64620814D01*
X140621789Y-64489711D01*
X140621786Y-64489707D01*
X140510292Y-64378213D01*
X140510288Y-64378210D01*
X140379185Y-64290609D01*
X140379172Y-64290602D01*
X140233501Y-64230264D01*
X140233489Y-64230261D01*
X140078845Y-64199500D01*
X140078842Y-64199500D01*
X139921158Y-64199500D01*
X139921155Y-64199500D01*
X139766510Y-64230261D01*
X139766498Y-64230264D01*
X139620827Y-64290602D01*
X139620814Y-64290609D01*
X139489711Y-64378210D01*
X139411309Y-64456612D01*
X139349985Y-64490096D01*
X139280294Y-64485112D01*
X139225787Y-64444308D01*
X139225653Y-64444419D01*
X139225203Y-64443871D01*
X139224360Y-64443240D01*
X139222328Y-64440367D01*
X139221786Y-64439707D01*
X139110292Y-64328213D01*
X139110288Y-64328210D01*
X138979185Y-64240609D01*
X138979172Y-64240602D01*
X138833501Y-64180264D01*
X138833489Y-64180261D01*
X138678845Y-64149500D01*
X138678842Y-64149500D01*
X138521158Y-64149500D01*
X138521155Y-64149500D01*
X138366510Y-64180261D01*
X138366498Y-64180264D01*
X138220827Y-64240602D01*
X138220814Y-64240609D01*
X138089711Y-64328210D01*
X138089707Y-64328213D01*
X137978213Y-64439707D01*
X137978210Y-64439711D01*
X137890609Y-64570814D01*
X137890602Y-64570827D01*
X137830264Y-64716498D01*
X137830261Y-64716510D01*
X137799500Y-64871153D01*
X132100953Y-64871153D01*
X132059397Y-64770827D01*
X132059390Y-64770814D01*
X131971789Y-64639711D01*
X131971786Y-64639707D01*
X131860292Y-64528213D01*
X131860288Y-64528210D01*
X131729185Y-64440609D01*
X131729172Y-64440602D01*
X131583501Y-64380264D01*
X131583489Y-64380261D01*
X131428845Y-64349500D01*
X131428842Y-64349500D01*
X131271158Y-64349500D01*
X131271155Y-64349500D01*
X131116510Y-64380261D01*
X131116498Y-64380264D01*
X130970827Y-64440602D01*
X130970814Y-64440609D01*
X130839711Y-64528210D01*
X130839707Y-64528213D01*
X130728213Y-64639707D01*
X130728210Y-64639711D01*
X130640609Y-64770814D01*
X130640602Y-64770827D01*
X130580264Y-64916498D01*
X130580261Y-64916510D01*
X130549500Y-65071153D01*
X127350500Y-65071153D01*
X127350500Y-64971158D01*
X127350500Y-64971155D01*
X127350499Y-64971153D01*
X127347432Y-64955734D01*
X127319737Y-64816503D01*
X127306332Y-64784140D01*
X127259397Y-64670827D01*
X127259390Y-64670814D01*
X127171789Y-64539711D01*
X127171786Y-64539707D01*
X127060292Y-64428213D01*
X127060288Y-64428210D01*
X126929185Y-64340609D01*
X126929172Y-64340602D01*
X126783501Y-64280264D01*
X126783489Y-64280261D01*
X126628845Y-64249500D01*
X126628842Y-64249500D01*
X126471158Y-64249500D01*
X126471155Y-64249500D01*
X126316510Y-64280261D01*
X126316498Y-64280264D01*
X126170827Y-64340602D01*
X126170814Y-64340609D01*
X126039711Y-64428210D01*
X126039707Y-64428213D01*
X125928213Y-64539707D01*
X125928210Y-64539711D01*
X125840609Y-64670814D01*
X125840602Y-64670827D01*
X125780264Y-64816498D01*
X125780261Y-64816510D01*
X125749500Y-64971153D01*
X110500500Y-64971153D01*
X110500500Y-62871153D01*
X119049500Y-62871153D01*
X119049500Y-63028846D01*
X119080261Y-63183489D01*
X119080264Y-63183501D01*
X119140602Y-63329172D01*
X119140609Y-63329185D01*
X119228210Y-63460288D01*
X119228213Y-63460292D01*
X119339707Y-63571786D01*
X119339711Y-63571789D01*
X119470814Y-63659390D01*
X119470827Y-63659397D01*
X119544013Y-63689711D01*
X119616503Y-63719737D01*
X119771153Y-63750499D01*
X119771156Y-63750500D01*
X119771158Y-63750500D01*
X119928844Y-63750500D01*
X119928845Y-63750499D01*
X120083497Y-63719737D01*
X120229179Y-63659394D01*
X120360289Y-63571789D01*
X120471789Y-63460289D01*
X120559394Y-63329179D01*
X120619737Y-63183497D01*
X120650500Y-63028842D01*
X120650500Y-62871158D01*
X120650500Y-62871155D01*
X120650499Y-62871153D01*
X120619738Y-62716510D01*
X120619737Y-62716503D01*
X120619735Y-62716498D01*
X120559397Y-62570827D01*
X120559390Y-62570814D01*
X120471789Y-62439711D01*
X120471786Y-62439707D01*
X120360289Y-62328210D01*
X120345259Y-62318168D01*
X120229185Y-62240609D01*
X120229172Y-62240602D01*
X120182217Y-62221153D01*
X133699500Y-62221153D01*
X133699500Y-62378846D01*
X133730261Y-62533489D01*
X133730264Y-62533501D01*
X133790602Y-62679172D01*
X133790609Y-62679185D01*
X133878210Y-62810288D01*
X133878213Y-62810292D01*
X133989707Y-62921786D01*
X133989711Y-62921789D01*
X134120814Y-63009390D01*
X134120827Y-63009397D01*
X134227986Y-63053783D01*
X134266503Y-63069737D01*
X134421153Y-63100499D01*
X134421156Y-63100500D01*
X134421158Y-63100500D01*
X134578844Y-63100500D01*
X134578845Y-63100499D01*
X134733497Y-63069737D01*
X134879179Y-63009394D01*
X135010289Y-62921789D01*
X135121789Y-62810289D01*
X135209394Y-62679179D01*
X135269737Y-62533497D01*
X135300500Y-62378842D01*
X135300500Y-62221158D01*
X135300500Y-62221155D01*
X135300499Y-62221153D01*
X135278269Y-62109397D01*
X135269737Y-62066503D01*
X135251215Y-62021786D01*
X135209397Y-61920827D01*
X135209390Y-61920814D01*
X135121789Y-61789711D01*
X135121786Y-61789707D01*
X135010292Y-61678213D01*
X135010288Y-61678210D01*
X134879185Y-61590609D01*
X134879172Y-61590602D01*
X134733501Y-61530264D01*
X134733489Y-61530261D01*
X134578845Y-61499500D01*
X134578842Y-61499500D01*
X134421158Y-61499500D01*
X134421155Y-61499500D01*
X134266510Y-61530261D01*
X134266498Y-61530264D01*
X134120827Y-61590602D01*
X134120814Y-61590609D01*
X133989711Y-61678210D01*
X133989707Y-61678213D01*
X133878213Y-61789707D01*
X133878210Y-61789711D01*
X133790609Y-61920814D01*
X133790602Y-61920827D01*
X133730264Y-62066498D01*
X133730261Y-62066510D01*
X133699500Y-62221153D01*
X120182217Y-62221153D01*
X120083501Y-62180264D01*
X120083489Y-62180261D01*
X119928845Y-62149500D01*
X119928842Y-62149500D01*
X119771158Y-62149500D01*
X119771155Y-62149500D01*
X119616510Y-62180261D01*
X119616498Y-62180264D01*
X119470827Y-62240602D01*
X119470814Y-62240609D01*
X119339711Y-62328210D01*
X119339707Y-62328213D01*
X119228213Y-62439707D01*
X119228210Y-62439711D01*
X119140609Y-62570814D01*
X119140602Y-62570827D01*
X119080264Y-62716498D01*
X119080261Y-62716510D01*
X119049500Y-62871153D01*
X110500500Y-62871153D01*
X110500500Y-61321153D01*
X142749500Y-61321153D01*
X142749500Y-61478846D01*
X142780261Y-61633489D01*
X142780264Y-61633501D01*
X142840602Y-61779172D01*
X142840609Y-61779185D01*
X142928210Y-61910288D01*
X142928213Y-61910292D01*
X143039707Y-62021786D01*
X143039711Y-62021789D01*
X143170814Y-62109390D01*
X143170827Y-62109397D01*
X143267646Y-62149500D01*
X143316503Y-62169737D01*
X143471153Y-62200499D01*
X143471156Y-62200500D01*
X143471158Y-62200500D01*
X143628844Y-62200500D01*
X143628845Y-62200499D01*
X143783497Y-62169737D01*
X143929179Y-62109394D01*
X144060289Y-62021789D01*
X144171789Y-61910289D01*
X144259394Y-61779179D01*
X144319737Y-61633497D01*
X144350500Y-61478842D01*
X144350500Y-61321158D01*
X144350500Y-61321155D01*
X144350499Y-61321153D01*
X144319738Y-61166510D01*
X144319737Y-61166503D01*
X144319735Y-61166498D01*
X144259397Y-61020827D01*
X144259390Y-61020814D01*
X144171789Y-60889711D01*
X144171786Y-60889707D01*
X144060292Y-60778213D01*
X144060288Y-60778210D01*
X143929185Y-60690609D01*
X143929172Y-60690602D01*
X143783501Y-60630264D01*
X143783489Y-60630261D01*
X143628845Y-60599500D01*
X143628842Y-60599500D01*
X143471158Y-60599500D01*
X143471155Y-60599500D01*
X143316510Y-60630261D01*
X143316498Y-60630264D01*
X143170827Y-60690602D01*
X143170814Y-60690609D01*
X143039711Y-60778210D01*
X143039707Y-60778213D01*
X142928213Y-60889707D01*
X142928210Y-60889711D01*
X142840609Y-61020814D01*
X142840602Y-61020827D01*
X142780264Y-61166498D01*
X142780261Y-61166510D01*
X142749500Y-61321153D01*
X110500500Y-61321153D01*
X110500500Y-59821153D01*
X157199500Y-59821153D01*
X157199500Y-59978846D01*
X157230261Y-60133489D01*
X157230264Y-60133501D01*
X157290602Y-60279172D01*
X157290609Y-60279185D01*
X157378210Y-60410288D01*
X157378213Y-60410292D01*
X157489707Y-60521786D01*
X157489711Y-60521789D01*
X157620814Y-60609390D01*
X157620827Y-60609397D01*
X157766498Y-60669735D01*
X157766503Y-60669737D01*
X157921153Y-60700499D01*
X157921156Y-60700500D01*
X157921158Y-60700500D01*
X158078844Y-60700500D01*
X158078845Y-60700499D01*
X158233497Y-60669737D01*
X158379179Y-60609394D01*
X158510289Y-60521789D01*
X158621789Y-60410289D01*
X158709394Y-60279179D01*
X158769737Y-60133497D01*
X158800500Y-59978842D01*
X158800500Y-59821158D01*
X158800500Y-59821155D01*
X158800499Y-59821153D01*
X158769738Y-59666510D01*
X158769737Y-59666503D01*
X158769735Y-59666498D01*
X158709397Y-59520827D01*
X158709390Y-59520814D01*
X158621789Y-59389711D01*
X158621786Y-59389707D01*
X158510292Y-59278213D01*
X158510288Y-59278210D01*
X158379185Y-59190609D01*
X158379172Y-59190602D01*
X158233501Y-59130264D01*
X158233489Y-59130261D01*
X158078845Y-59099500D01*
X158078842Y-59099500D01*
X157921158Y-59099500D01*
X157921155Y-59099500D01*
X157766510Y-59130261D01*
X157766498Y-59130264D01*
X157620827Y-59190602D01*
X157620814Y-59190609D01*
X157489711Y-59278210D01*
X157489707Y-59278213D01*
X157378213Y-59389707D01*
X157378210Y-59389711D01*
X157290609Y-59520814D01*
X157290602Y-59520827D01*
X157230264Y-59666498D01*
X157230261Y-59666510D01*
X157199500Y-59821153D01*
X110500500Y-59821153D01*
X110500500Y-58221153D01*
X131699500Y-58221153D01*
X131699500Y-58378846D01*
X131730261Y-58533489D01*
X131730264Y-58533501D01*
X131790602Y-58679172D01*
X131790609Y-58679185D01*
X131878210Y-58810288D01*
X131878213Y-58810292D01*
X131989707Y-58921786D01*
X131989711Y-58921789D01*
X132120814Y-59009390D01*
X132120827Y-59009397D01*
X132266498Y-59069735D01*
X132266503Y-59069737D01*
X132416131Y-59099500D01*
X132421153Y-59100499D01*
X132421156Y-59100500D01*
X132421158Y-59100500D01*
X132578844Y-59100500D01*
X132578845Y-59100499D01*
X132733497Y-59069737D01*
X132879179Y-59009394D01*
X133010289Y-58921789D01*
X133121789Y-58810289D01*
X133209394Y-58679179D01*
X133269737Y-58533497D01*
X133300500Y-58378842D01*
X133300500Y-58221158D01*
X133300500Y-58221155D01*
X133300499Y-58221153D01*
X133269738Y-58066510D01*
X133269737Y-58066503D01*
X133269735Y-58066498D01*
X133209397Y-57920827D01*
X133209390Y-57920814D01*
X133121789Y-57789711D01*
X133121786Y-57789707D01*
X133010292Y-57678213D01*
X133010288Y-57678210D01*
X132879185Y-57590609D01*
X132879172Y-57590602D01*
X132733501Y-57530264D01*
X132733489Y-57530261D01*
X132578845Y-57499500D01*
X132578842Y-57499500D01*
X132421158Y-57499500D01*
X132421155Y-57499500D01*
X132266510Y-57530261D01*
X132266498Y-57530264D01*
X132120827Y-57590602D01*
X132120814Y-57590609D01*
X131989711Y-57678210D01*
X131989707Y-57678213D01*
X131878213Y-57789707D01*
X131878210Y-57789711D01*
X131790609Y-57920814D01*
X131790602Y-57920827D01*
X131730264Y-58066498D01*
X131730261Y-58066510D01*
X131699500Y-58221153D01*
X110500500Y-58221153D01*
X110500500Y-56071153D01*
X111399500Y-56071153D01*
X111399500Y-56228846D01*
X111430261Y-56383489D01*
X111430264Y-56383501D01*
X111490602Y-56529172D01*
X111490609Y-56529185D01*
X111578210Y-56660288D01*
X111578213Y-56660292D01*
X111689707Y-56771786D01*
X111689711Y-56771789D01*
X111820814Y-56859390D01*
X111820827Y-56859397D01*
X111966498Y-56919735D01*
X111966503Y-56919737D01*
X112121153Y-56950499D01*
X112121156Y-56950500D01*
X112121158Y-56950500D01*
X112278844Y-56950500D01*
X112278845Y-56950499D01*
X112433497Y-56919737D01*
X112550790Y-56871153D01*
X121799500Y-56871153D01*
X121799500Y-57028846D01*
X121830261Y-57183489D01*
X121830264Y-57183501D01*
X121890602Y-57329172D01*
X121890609Y-57329185D01*
X121978210Y-57460288D01*
X121978213Y-57460292D01*
X122089707Y-57571786D01*
X122089711Y-57571789D01*
X122220814Y-57659390D01*
X122220827Y-57659397D01*
X122266254Y-57678213D01*
X122366503Y-57719737D01*
X122521153Y-57750499D01*
X122521156Y-57750500D01*
X122521158Y-57750500D01*
X122678844Y-57750500D01*
X122678845Y-57750499D01*
X122833497Y-57719737D01*
X122979179Y-57659394D01*
X123110289Y-57571789D01*
X123221789Y-57460289D01*
X123309394Y-57329179D01*
X123369737Y-57183497D01*
X123400500Y-57028842D01*
X123400500Y-56871158D01*
X123400500Y-56871155D01*
X123400499Y-56871153D01*
X123380734Y-56771788D01*
X123369737Y-56716503D01*
X123346452Y-56660288D01*
X123309397Y-56570827D01*
X123309390Y-56570814D01*
X123221789Y-56439711D01*
X123221786Y-56439707D01*
X123110292Y-56328213D01*
X123110288Y-56328210D01*
X122979185Y-56240609D01*
X122979172Y-56240602D01*
X122833501Y-56180264D01*
X122833489Y-56180261D01*
X122678845Y-56149500D01*
X122678842Y-56149500D01*
X122521158Y-56149500D01*
X122521155Y-56149500D01*
X122366510Y-56180261D01*
X122366498Y-56180264D01*
X122220827Y-56240602D01*
X122220814Y-56240609D01*
X122089711Y-56328210D01*
X122089707Y-56328213D01*
X121978213Y-56439707D01*
X121978210Y-56439711D01*
X121890609Y-56570814D01*
X121890602Y-56570827D01*
X121830264Y-56716498D01*
X121830261Y-56716510D01*
X121799500Y-56871153D01*
X112550790Y-56871153D01*
X112579179Y-56859394D01*
X112710289Y-56771789D01*
X112821789Y-56660289D01*
X112909394Y-56529179D01*
X112969737Y-56383497D01*
X113000500Y-56228842D01*
X113000500Y-56071158D01*
X113000500Y-56071155D01*
X113000499Y-56071153D01*
X112969738Y-55916510D01*
X112969737Y-55916503D01*
X112969735Y-55916498D01*
X112909397Y-55770827D01*
X112909390Y-55770814D01*
X112821789Y-55639711D01*
X112821786Y-55639707D01*
X112710292Y-55528213D01*
X112710288Y-55528210D01*
X112579185Y-55440609D01*
X112579172Y-55440602D01*
X112433501Y-55380264D01*
X112433489Y-55380261D01*
X112278845Y-55349500D01*
X112278842Y-55349500D01*
X112121158Y-55349500D01*
X112121155Y-55349500D01*
X111966510Y-55380261D01*
X111966498Y-55380264D01*
X111820827Y-55440602D01*
X111820814Y-55440609D01*
X111689711Y-55528210D01*
X111689707Y-55528213D01*
X111578213Y-55639707D01*
X111578210Y-55639711D01*
X111490609Y-55770814D01*
X111490602Y-55770827D01*
X111430264Y-55916498D01*
X111430261Y-55916510D01*
X111399500Y-56071153D01*
X110500500Y-56071153D01*
X110500500Y-53521153D01*
X128149500Y-53521153D01*
X128149500Y-53678846D01*
X128180261Y-53833489D01*
X128180264Y-53833501D01*
X128240602Y-53979172D01*
X128240609Y-53979185D01*
X128328210Y-54110288D01*
X128328213Y-54110292D01*
X128439707Y-54221786D01*
X128439711Y-54221789D01*
X128570814Y-54309390D01*
X128570827Y-54309397D01*
X128716498Y-54369735D01*
X128716503Y-54369737D01*
X128871153Y-54400499D01*
X128871156Y-54400500D01*
X128871158Y-54400500D01*
X129028844Y-54400500D01*
X129028845Y-54400499D01*
X129183497Y-54369737D01*
X129329179Y-54309394D01*
X129460289Y-54221789D01*
X129571789Y-54110289D01*
X129659394Y-53979179D01*
X129719737Y-53833497D01*
X129750500Y-53678842D01*
X129750500Y-53521158D01*
X129750500Y-53521155D01*
X129750499Y-53521153D01*
X129719738Y-53366510D01*
X129719737Y-53366503D01*
X129719735Y-53366498D01*
X129659397Y-53220827D01*
X129659390Y-53220814D01*
X129571789Y-53089711D01*
X129571786Y-53089707D01*
X129460292Y-52978213D01*
X129460288Y-52978210D01*
X129329185Y-52890609D01*
X129329172Y-52890602D01*
X129183501Y-52830264D01*
X129183489Y-52830261D01*
X129028845Y-52799500D01*
X129028842Y-52799500D01*
X128871158Y-52799500D01*
X128871155Y-52799500D01*
X128716510Y-52830261D01*
X128716498Y-52830264D01*
X128570827Y-52890602D01*
X128570814Y-52890609D01*
X128439711Y-52978210D01*
X128439707Y-52978213D01*
X128328213Y-53089707D01*
X128328210Y-53089711D01*
X128240609Y-53220814D01*
X128240602Y-53220827D01*
X128180264Y-53366498D01*
X128180261Y-53366510D01*
X128149500Y-53521153D01*
X110500500Y-53521153D01*
X110500500Y-49470097D01*
X134949500Y-49470097D01*
X134949500Y-49729902D01*
X134990140Y-49986493D01*
X135070422Y-50233576D01*
X135151534Y-50392764D01*
X135188366Y-50465051D01*
X135341069Y-50675229D01*
X135524771Y-50858931D01*
X135734949Y-51011634D01*
X135882445Y-51086787D01*
X135966423Y-51129577D01*
X135966425Y-51129577D01*
X135966428Y-51129579D01*
X136213507Y-51209860D01*
X136345706Y-51230797D01*
X136470098Y-51250500D01*
X136470103Y-51250500D01*
X136729902Y-51250500D01*
X136843298Y-51232539D01*
X136986493Y-51209860D01*
X137233572Y-51129579D01*
X137465051Y-51011634D01*
X137675229Y-50858931D01*
X137858931Y-50675229D01*
X138011634Y-50465051D01*
X138129579Y-50233572D01*
X138209860Y-49986493D01*
X138232539Y-49843298D01*
X138250500Y-49729902D01*
X138250500Y-49470097D01*
X143449500Y-49470097D01*
X143449500Y-49729902D01*
X143490140Y-49986493D01*
X143570422Y-50233576D01*
X143651534Y-50392764D01*
X143688366Y-50465051D01*
X143841069Y-50675229D01*
X144024771Y-50858931D01*
X144234949Y-51011634D01*
X144382445Y-51086787D01*
X144466423Y-51129577D01*
X144466425Y-51129577D01*
X144466428Y-51129579D01*
X144713507Y-51209860D01*
X144845706Y-51230797D01*
X144970098Y-51250500D01*
X144970103Y-51250500D01*
X145229902Y-51250500D01*
X145343298Y-51232539D01*
X145486493Y-51209860D01*
X145733572Y-51129579D01*
X145965051Y-51011634D01*
X146175229Y-50858931D01*
X146358931Y-50675229D01*
X146511634Y-50465051D01*
X146629579Y-50233572D01*
X146709860Y-49986493D01*
X146732539Y-49843298D01*
X146750500Y-49729902D01*
X146750500Y-49470097D01*
X146728179Y-49329172D01*
X146709860Y-49213507D01*
X146629579Y-48966428D01*
X146629576Y-48966423D01*
X146629575Y-48966418D01*
X146606618Y-48921363D01*
X146606616Y-48921361D01*
X146581036Y-48871158D01*
X146581033Y-48871153D01*
X154299500Y-48871153D01*
X154299500Y-49028846D01*
X154330261Y-49183489D01*
X154330264Y-49183501D01*
X154390602Y-49329172D01*
X154390609Y-49329185D01*
X154478210Y-49460288D01*
X154478213Y-49460292D01*
X154589707Y-49571786D01*
X154589711Y-49571789D01*
X154720814Y-49659390D01*
X154720827Y-49659397D01*
X154866498Y-49719735D01*
X154866503Y-49719737D01*
X155021153Y-49750499D01*
X155021156Y-49750500D01*
X155021158Y-49750500D01*
X155178844Y-49750500D01*
X155178845Y-49750499D01*
X155333497Y-49719737D01*
X155479179Y-49659394D01*
X155610289Y-49571789D01*
X155721789Y-49460289D01*
X155809394Y-49329179D01*
X155869737Y-49183497D01*
X155900500Y-49028842D01*
X155900500Y-48871158D01*
X155900500Y-48871155D01*
X155900499Y-48871153D01*
X155869738Y-48716510D01*
X155869737Y-48716503D01*
X155869735Y-48716498D01*
X155809397Y-48570827D01*
X155809390Y-48570814D01*
X155721789Y-48439711D01*
X155721786Y-48439707D01*
X155610292Y-48328213D01*
X155610288Y-48328210D01*
X155479185Y-48240609D01*
X155479172Y-48240602D01*
X155333501Y-48180264D01*
X155333489Y-48180261D01*
X155178845Y-48149500D01*
X155178842Y-48149500D01*
X155021158Y-48149500D01*
X155021155Y-48149500D01*
X154866510Y-48180261D01*
X154866498Y-48180264D01*
X154720827Y-48240602D01*
X154720814Y-48240609D01*
X154589711Y-48328210D01*
X154589707Y-48328213D01*
X154478213Y-48439707D01*
X154478210Y-48439711D01*
X154390609Y-48570814D01*
X154390602Y-48570827D01*
X154330264Y-48716498D01*
X154330261Y-48716510D01*
X154299500Y-48871153D01*
X146581033Y-48871153D01*
X146511634Y-48734949D01*
X146358931Y-48524771D01*
X146175229Y-48341069D01*
X146157534Y-48328213D01*
X145965054Y-48188368D01*
X145965053Y-48188367D01*
X145965051Y-48188366D01*
X145888773Y-48149500D01*
X145733576Y-48070422D01*
X145486493Y-47990140D01*
X145229902Y-47949500D01*
X145229897Y-47949500D01*
X144970103Y-47949500D01*
X144970098Y-47949500D01*
X144713506Y-47990140D01*
X144466423Y-48070422D01*
X144234945Y-48188368D01*
X144024774Y-48341066D01*
X144024768Y-48341071D01*
X143841071Y-48524768D01*
X143841066Y-48524774D01*
X143688368Y-48734945D01*
X143570422Y-48966423D01*
X143490140Y-49213506D01*
X143449500Y-49470097D01*
X138250500Y-49470097D01*
X138228179Y-49329172D01*
X138209860Y-49213507D01*
X138129579Y-48966428D01*
X138129577Y-48966425D01*
X138129577Y-48966423D01*
X138081034Y-48871153D01*
X138011634Y-48734949D01*
X137858931Y-48524771D01*
X137675229Y-48341069D01*
X137657534Y-48328213D01*
X137465054Y-48188368D01*
X137465053Y-48188367D01*
X137465051Y-48188366D01*
X137388773Y-48149500D01*
X137233576Y-48070422D01*
X136986493Y-47990140D01*
X136729902Y-47949500D01*
X136729897Y-47949500D01*
X136470103Y-47949500D01*
X136470098Y-47949500D01*
X136213506Y-47990140D01*
X135966423Y-48070422D01*
X135734945Y-48188368D01*
X135524774Y-48341066D01*
X135524768Y-48341071D01*
X135341071Y-48524768D01*
X135341066Y-48524774D01*
X135188368Y-48734945D01*
X135070422Y-48966423D01*
X134990140Y-49213506D01*
X134949500Y-49470097D01*
X110500500Y-49470097D01*
X110500500Y-47021153D01*
X149699500Y-47021153D01*
X149699500Y-47178846D01*
X149730261Y-47333489D01*
X149730264Y-47333501D01*
X149790602Y-47479172D01*
X149790609Y-47479185D01*
X149878210Y-47610288D01*
X149878213Y-47610292D01*
X149989707Y-47721786D01*
X149989711Y-47721789D01*
X150120814Y-47809390D01*
X150120827Y-47809397D01*
X150266498Y-47869735D01*
X150266503Y-47869737D01*
X150421153Y-47900499D01*
X150421156Y-47900500D01*
X150421158Y-47900500D01*
X150578844Y-47900500D01*
X150578845Y-47900499D01*
X150733497Y-47869737D01*
X150879179Y-47809394D01*
X151010289Y-47721789D01*
X151121789Y-47610289D01*
X151209394Y-47479179D01*
X151269737Y-47333497D01*
X151300500Y-47178842D01*
X151300500Y-47021158D01*
X151300500Y-47021155D01*
X151300499Y-47021153D01*
X154799500Y-47021153D01*
X154799500Y-47178846D01*
X154830261Y-47333489D01*
X154830264Y-47333501D01*
X154890602Y-47479172D01*
X154890609Y-47479185D01*
X154978210Y-47610288D01*
X154978213Y-47610292D01*
X155089707Y-47721786D01*
X155089711Y-47721789D01*
X155220814Y-47809390D01*
X155220827Y-47809397D01*
X155366498Y-47869735D01*
X155366503Y-47869737D01*
X155521153Y-47900499D01*
X155521156Y-47900500D01*
X155521158Y-47900500D01*
X155678844Y-47900500D01*
X155678845Y-47900499D01*
X155833497Y-47869737D01*
X155979179Y-47809394D01*
X156110289Y-47721789D01*
X156221789Y-47610289D01*
X156309394Y-47479179D01*
X156369737Y-47333497D01*
X156400500Y-47178842D01*
X156400500Y-47021158D01*
X156400500Y-47021155D01*
X156400499Y-47021153D01*
X156369738Y-46866510D01*
X156369737Y-46866503D01*
X156369735Y-46866498D01*
X156309397Y-46720827D01*
X156309390Y-46720814D01*
X156221789Y-46589711D01*
X156221786Y-46589707D01*
X156110292Y-46478213D01*
X156110288Y-46478210D01*
X155979185Y-46390609D01*
X155979172Y-46390602D01*
X155833501Y-46330264D01*
X155833489Y-46330261D01*
X155678845Y-46299500D01*
X155678842Y-46299500D01*
X155521158Y-46299500D01*
X155521155Y-46299500D01*
X155366510Y-46330261D01*
X155366498Y-46330264D01*
X155220827Y-46390602D01*
X155220814Y-46390609D01*
X155089711Y-46478210D01*
X155089707Y-46478213D01*
X154978213Y-46589707D01*
X154978210Y-46589711D01*
X154890609Y-46720814D01*
X154890602Y-46720827D01*
X154830264Y-46866498D01*
X154830261Y-46866510D01*
X154799500Y-47021153D01*
X151300499Y-47021153D01*
X151269738Y-46866510D01*
X151269737Y-46866503D01*
X151269735Y-46866498D01*
X151209397Y-46720827D01*
X151209390Y-46720814D01*
X151121789Y-46589711D01*
X151121786Y-46589707D01*
X151010292Y-46478213D01*
X151010288Y-46478210D01*
X150879185Y-46390609D01*
X150879172Y-46390602D01*
X150733501Y-46330264D01*
X150733489Y-46330261D01*
X150578845Y-46299500D01*
X150578842Y-46299500D01*
X150421158Y-46299500D01*
X150421155Y-46299500D01*
X150266510Y-46330261D01*
X150266498Y-46330264D01*
X150120827Y-46390602D01*
X150120814Y-46390609D01*
X149989711Y-46478210D01*
X149989707Y-46478213D01*
X149878213Y-46589707D01*
X149878210Y-46589711D01*
X149790609Y-46720814D01*
X149790602Y-46720827D01*
X149730264Y-46866498D01*
X149730261Y-46866510D01*
X149699500Y-47021153D01*
X110500500Y-47021153D01*
X110500500Y-44771153D01*
X118249500Y-44771153D01*
X118249500Y-44928846D01*
X118280261Y-45083489D01*
X118280264Y-45083501D01*
X118340602Y-45229172D01*
X118340609Y-45229185D01*
X118428210Y-45360288D01*
X118428213Y-45360292D01*
X118539707Y-45471786D01*
X118539711Y-45471789D01*
X118670814Y-45559390D01*
X118670827Y-45559397D01*
X118816498Y-45619735D01*
X118816503Y-45619737D01*
X118971153Y-45650499D01*
X118971156Y-45650500D01*
X118971158Y-45650500D01*
X119128844Y-45650500D01*
X119128845Y-45650499D01*
X119283497Y-45619737D01*
X119429179Y-45559394D01*
X119560289Y-45471789D01*
X119671789Y-45360289D01*
X119759394Y-45229179D01*
X119819737Y-45083497D01*
X119850500Y-44928842D01*
X119850500Y-44771158D01*
X119850500Y-44771155D01*
X119850499Y-44771153D01*
X119819738Y-44616510D01*
X119819737Y-44616503D01*
X119819735Y-44616498D01*
X119759397Y-44470827D01*
X119759390Y-44470814D01*
X119671789Y-44339711D01*
X119671786Y-44339707D01*
X119560292Y-44228213D01*
X119560288Y-44228210D01*
X119429185Y-44140609D01*
X119429172Y-44140602D01*
X119283501Y-44080264D01*
X119283489Y-44080261D01*
X119128845Y-44049500D01*
X119128842Y-44049500D01*
X118971158Y-44049500D01*
X118971155Y-44049500D01*
X118816510Y-44080261D01*
X118816498Y-44080264D01*
X118670827Y-44140602D01*
X118670814Y-44140609D01*
X118539711Y-44228210D01*
X118539707Y-44228213D01*
X118428213Y-44339707D01*
X118428210Y-44339711D01*
X118340609Y-44470814D01*
X118340602Y-44470827D01*
X118280264Y-44616498D01*
X118280261Y-44616510D01*
X118249500Y-44771153D01*
X110500500Y-44771153D01*
X110500500Y-42921153D01*
X111149500Y-42921153D01*
X111149500Y-43078846D01*
X111180261Y-43233489D01*
X111180264Y-43233501D01*
X111240602Y-43379172D01*
X111240609Y-43379185D01*
X111328210Y-43510288D01*
X111328213Y-43510292D01*
X111439707Y-43621786D01*
X111439711Y-43621789D01*
X111570814Y-43709390D01*
X111570827Y-43709397D01*
X111716498Y-43769735D01*
X111716503Y-43769737D01*
X111871153Y-43800499D01*
X111871156Y-43800500D01*
X111871158Y-43800500D01*
X112028844Y-43800500D01*
X112028845Y-43800499D01*
X112183497Y-43769737D01*
X112329179Y-43709394D01*
X112460289Y-43621789D01*
X112571789Y-43510289D01*
X112659394Y-43379179D01*
X112719737Y-43233497D01*
X112750500Y-43078842D01*
X112750500Y-42921158D01*
X112750500Y-42921155D01*
X112750499Y-42921153D01*
X112746716Y-42902135D01*
X134949500Y-42902135D01*
X134949500Y-45297870D01*
X134949501Y-45297876D01*
X134955908Y-45357483D01*
X135006202Y-45492328D01*
X135006206Y-45492335D01*
X135092452Y-45607544D01*
X135092455Y-45607547D01*
X135207664Y-45693793D01*
X135207671Y-45693797D01*
X135342517Y-45744091D01*
X135342516Y-45744091D01*
X135349444Y-45744835D01*
X135402127Y-45750500D01*
X137797872Y-45750499D01*
X137857483Y-45744091D01*
X137992331Y-45693796D01*
X138107546Y-45607546D01*
X138193796Y-45492331D01*
X138244091Y-45357483D01*
X138250500Y-45297873D01*
X138250499Y-42902135D01*
X143449500Y-42902135D01*
X143449500Y-45297870D01*
X143449501Y-45297876D01*
X143455908Y-45357483D01*
X143506202Y-45492328D01*
X143506206Y-45492335D01*
X143592452Y-45607544D01*
X143592455Y-45607547D01*
X143707664Y-45693793D01*
X143707671Y-45693797D01*
X143842517Y-45744091D01*
X143842516Y-45744091D01*
X143849444Y-45744835D01*
X143902127Y-45750500D01*
X146297872Y-45750499D01*
X146357483Y-45744091D01*
X146492331Y-45693796D01*
X146607546Y-45607546D01*
X146693796Y-45492331D01*
X146744091Y-45357483D01*
X146750500Y-45297873D01*
X146750499Y-42902128D01*
X146744091Y-42842517D01*
X146728419Y-42800499D01*
X146693797Y-42707671D01*
X146693793Y-42707664D01*
X146607547Y-42592455D01*
X146607544Y-42592452D01*
X146492335Y-42506206D01*
X146492328Y-42506202D01*
X146357482Y-42455908D01*
X146357483Y-42455908D01*
X146297883Y-42449501D01*
X146297881Y-42449500D01*
X146297873Y-42449500D01*
X146297864Y-42449500D01*
X143902129Y-42449500D01*
X143902123Y-42449501D01*
X143842516Y-42455908D01*
X143707671Y-42506202D01*
X143707664Y-42506206D01*
X143592455Y-42592452D01*
X143592452Y-42592455D01*
X143506206Y-42707664D01*
X143506202Y-42707671D01*
X143455908Y-42842517D01*
X143449501Y-42902116D01*
X143449501Y-42902123D01*
X143449500Y-42902135D01*
X138250499Y-42902135D01*
X138250499Y-42902128D01*
X138244091Y-42842517D01*
X138228419Y-42800499D01*
X138193797Y-42707671D01*
X138193793Y-42707664D01*
X138107547Y-42592455D01*
X138107544Y-42592452D01*
X137992335Y-42506206D01*
X137992328Y-42506202D01*
X137857482Y-42455908D01*
X137857483Y-42455908D01*
X137797883Y-42449501D01*
X137797881Y-42449500D01*
X137797873Y-42449500D01*
X137797864Y-42449500D01*
X135402129Y-42449500D01*
X135402123Y-42449501D01*
X135342516Y-42455908D01*
X135207671Y-42506202D01*
X135207664Y-42506206D01*
X135092455Y-42592452D01*
X135092452Y-42592455D01*
X135006206Y-42707664D01*
X135006202Y-42707671D01*
X134955908Y-42842517D01*
X134949501Y-42902116D01*
X134949501Y-42902123D01*
X134949500Y-42902135D01*
X112746716Y-42902135D01*
X112726499Y-42800499D01*
X112719737Y-42766503D01*
X112695368Y-42707671D01*
X112659397Y-42620827D01*
X112659390Y-42620814D01*
X112571789Y-42489711D01*
X112571786Y-42489707D01*
X112460292Y-42378213D01*
X112460288Y-42378210D01*
X112329185Y-42290609D01*
X112329172Y-42290602D01*
X112183501Y-42230264D01*
X112183489Y-42230261D01*
X112028845Y-42199500D01*
X112028842Y-42199500D01*
X111871158Y-42199500D01*
X111871155Y-42199500D01*
X111716510Y-42230261D01*
X111716498Y-42230264D01*
X111570827Y-42290602D01*
X111570814Y-42290609D01*
X111439711Y-42378210D01*
X111439707Y-42378213D01*
X111328213Y-42489707D01*
X111328210Y-42489711D01*
X111240609Y-42620814D01*
X111240602Y-42620827D01*
X111180264Y-42766498D01*
X111180261Y-42766510D01*
X111149500Y-42921153D01*
X110500500Y-42921153D01*
X110500500Y-41921153D01*
X129299500Y-41921153D01*
X129299500Y-42078846D01*
X129330261Y-42233489D01*
X129330264Y-42233501D01*
X129390602Y-42379172D01*
X129390609Y-42379185D01*
X129478210Y-42510288D01*
X129478213Y-42510292D01*
X129589707Y-42621786D01*
X129589711Y-42621789D01*
X129720814Y-42709390D01*
X129720827Y-42709397D01*
X129858683Y-42766498D01*
X129866503Y-42769737D01*
X130021153Y-42800499D01*
X130021156Y-42800500D01*
X130021158Y-42800500D01*
X130178844Y-42800500D01*
X130296035Y-42777189D01*
X130296035Y-42777188D01*
X130333497Y-42769737D01*
X130479179Y-42709394D01*
X130610289Y-42621789D01*
X130721789Y-42510289D01*
X130809394Y-42379179D01*
X130869737Y-42233497D01*
X130900500Y-42078842D01*
X130900500Y-41921158D01*
X130900500Y-41921155D01*
X130900499Y-41921153D01*
X130869738Y-41766510D01*
X130869737Y-41766503D01*
X130869735Y-41766498D01*
X130809397Y-41620827D01*
X130809390Y-41620814D01*
X130721789Y-41489711D01*
X130721786Y-41489707D01*
X130610292Y-41378213D01*
X130610288Y-41378210D01*
X130479185Y-41290609D01*
X130479175Y-41290604D01*
X130465117Y-41284781D01*
X130410713Y-41240939D01*
X130388649Y-41174645D01*
X130405929Y-41106946D01*
X130457066Y-41059336D01*
X130488379Y-41048603D01*
X130497586Y-41046771D01*
X130633497Y-41019737D01*
X130779179Y-40959394D01*
X130910289Y-40871789D01*
X131021789Y-40760289D01*
X131109394Y-40629179D01*
X131169737Y-40483497D01*
X131200500Y-40328842D01*
X131200500Y-40171158D01*
X131200500Y-40171155D01*
X131200499Y-40171153D01*
X131180326Y-40069737D01*
X131169737Y-40016503D01*
X131166791Y-40009390D01*
X131109397Y-39870827D01*
X131109390Y-39870814D01*
X131021789Y-39739711D01*
X131021786Y-39739707D01*
X130910292Y-39628213D01*
X130910288Y-39628210D01*
X130779185Y-39540609D01*
X130779172Y-39540602D01*
X130633501Y-39480264D01*
X130633489Y-39480261D01*
X130478845Y-39449500D01*
X130478842Y-39449500D01*
X130321158Y-39449500D01*
X130321155Y-39449500D01*
X130166510Y-39480261D01*
X130166498Y-39480264D01*
X130020827Y-39540602D01*
X130020814Y-39540609D01*
X129889711Y-39628210D01*
X129889707Y-39628213D01*
X129778213Y-39739707D01*
X129778210Y-39739711D01*
X129690609Y-39870814D01*
X129690602Y-39870827D01*
X129630264Y-40016498D01*
X129630261Y-40016510D01*
X129599500Y-40171153D01*
X129599500Y-40328846D01*
X129630261Y-40483489D01*
X129630264Y-40483501D01*
X129690602Y-40629172D01*
X129690609Y-40629185D01*
X129778210Y-40760288D01*
X129778213Y-40760292D01*
X129889707Y-40871786D01*
X129889711Y-40871789D01*
X130020814Y-40959390D01*
X130020821Y-40959394D01*
X130034880Y-40965217D01*
X130089284Y-41009057D01*
X130111350Y-41075351D01*
X130094072Y-41143050D01*
X130042936Y-41190662D01*
X130011621Y-41201396D01*
X129866508Y-41230261D01*
X129866498Y-41230264D01*
X129720827Y-41290602D01*
X129720814Y-41290609D01*
X129589711Y-41378210D01*
X129589707Y-41378213D01*
X129478213Y-41489707D01*
X129478210Y-41489711D01*
X129390609Y-41620814D01*
X129390602Y-41620827D01*
X129330264Y-41766498D01*
X129330261Y-41766510D01*
X129299500Y-41921153D01*
X110500500Y-41921153D01*
X110500500Y-39221153D01*
X116262000Y-39221153D01*
X116262000Y-39378846D01*
X116292761Y-39533489D01*
X116292764Y-39533501D01*
X116353102Y-39679172D01*
X116353109Y-39679185D01*
X116440710Y-39810288D01*
X116440713Y-39810292D01*
X116552207Y-39921786D01*
X116552211Y-39921789D01*
X116683314Y-40009390D01*
X116683327Y-40009397D01*
X116828998Y-40069735D01*
X116829003Y-40069737D01*
X116983653Y-40100499D01*
X116983656Y-40100500D01*
X116983658Y-40100500D01*
X117141344Y-40100500D01*
X117141345Y-40100499D01*
X117295997Y-40069737D01*
X117441679Y-40009394D01*
X117572789Y-39921789D01*
X117684289Y-39810289D01*
X117771894Y-39679179D01*
X117832237Y-39533497D01*
X117863000Y-39378842D01*
X117863000Y-39221158D01*
X117863000Y-39221155D01*
X117862999Y-39221153D01*
X117832238Y-39066510D01*
X117832237Y-39066503D01*
X117832235Y-39066498D01*
X117771897Y-38920827D01*
X117771890Y-38920814D01*
X117684289Y-38789711D01*
X117684286Y-38789707D01*
X117572792Y-38678213D01*
X117572788Y-38678210D01*
X117441685Y-38590609D01*
X117441672Y-38590602D01*
X117296001Y-38530264D01*
X117295989Y-38530261D01*
X117141345Y-38499500D01*
X117141342Y-38499500D01*
X116983658Y-38499500D01*
X116983655Y-38499500D01*
X116829010Y-38530261D01*
X116828998Y-38530264D01*
X116683327Y-38590602D01*
X116683314Y-38590609D01*
X116552211Y-38678210D01*
X116552207Y-38678213D01*
X116440713Y-38789707D01*
X116440710Y-38789711D01*
X116353109Y-38920814D01*
X116353102Y-38920827D01*
X116292764Y-39066498D01*
X116292761Y-39066510D01*
X116262000Y-39221153D01*
X110500500Y-39221153D01*
X110500500Y-35798008D01*
X110520185Y-35730969D01*
X110572989Y-35685214D01*
X110642147Y-35675270D01*
X110705703Y-35704295D01*
X110733858Y-35739555D01*
X110822140Y-35904720D01*
X110822151Y-35904738D01*
X111024140Y-36207035D01*
X111024150Y-36207049D01*
X111254807Y-36488106D01*
X111511893Y-36745192D01*
X111511898Y-36745196D01*
X111511899Y-36745197D01*
X111792956Y-36975854D01*
X112095268Y-37177853D01*
X112095277Y-37177858D01*
X112095279Y-37177859D01*
X112415916Y-37349243D01*
X112415918Y-37349243D01*
X112415924Y-37349247D01*
X112751836Y-37488386D01*
X113099767Y-37593930D01*
X113099773Y-37593931D01*
X113099776Y-37593932D01*
X113099787Y-37593935D01*
X113456369Y-37664862D01*
X113818206Y-37700500D01*
X113818209Y-37700500D01*
X114181791Y-37700500D01*
X114181794Y-37700500D01*
X114543631Y-37664862D01*
X114613045Y-37651054D01*
X114900212Y-37593935D01*
X114900223Y-37593932D01*
X114900223Y-37593931D01*
X114900233Y-37593930D01*
X115248164Y-37488386D01*
X115584076Y-37349247D01*
X115904732Y-37177853D01*
X116207044Y-36975854D01*
X116488101Y-36745197D01*
X116745197Y-36488101D01*
X116975854Y-36207044D01*
X117177853Y-35904732D01*
X117349247Y-35584076D01*
X117488386Y-35248164D01*
X117593930Y-34900233D01*
X117593932Y-34900223D01*
X117593935Y-34900212D01*
X117664862Y-34543630D01*
X117700500Y-34181790D01*
X117700500Y-33818209D01*
X117692197Y-33733910D01*
X117664862Y-33456369D01*
X117645404Y-33358543D01*
X125894499Y-33358543D01*
X125932947Y-33551829D01*
X125932950Y-33551839D01*
X126008365Y-33733907D01*
X126008368Y-33733914D01*
X126052352Y-33799740D01*
X126069971Y-33826110D01*
X126090848Y-33892787D01*
X126072363Y-33960167D01*
X126069971Y-33963890D01*
X126008366Y-34056089D01*
X125932950Y-34238160D01*
X125932947Y-34238170D01*
X125894500Y-34431456D01*
X125894500Y-34431459D01*
X125894500Y-34628541D01*
X125894500Y-34628543D01*
X125894499Y-34628543D01*
X125932947Y-34821829D01*
X125932950Y-34821839D01*
X126008365Y-35003907D01*
X126008368Y-35003914D01*
X126038828Y-35049500D01*
X126069971Y-35096110D01*
X126090848Y-35162787D01*
X126072363Y-35230167D01*
X126069971Y-35233890D01*
X126008366Y-35326089D01*
X125932950Y-35508160D01*
X125932947Y-35508170D01*
X125894500Y-35701456D01*
X125894500Y-35701459D01*
X125894500Y-35898541D01*
X125894500Y-35898543D01*
X125894499Y-35898543D01*
X125932947Y-36091829D01*
X125932950Y-36091839D01*
X125992369Y-36235289D01*
X126008368Y-36273914D01*
X126052352Y-36339740D01*
X126069971Y-36366110D01*
X126090848Y-36432787D01*
X126072363Y-36500167D01*
X126069971Y-36503890D01*
X126008366Y-36596089D01*
X125932950Y-36778160D01*
X125932947Y-36778170D01*
X125894500Y-36971456D01*
X125894500Y-36971458D01*
X125894500Y-36971459D01*
X125894500Y-37168541D01*
X125894500Y-37168543D01*
X125894499Y-37168543D01*
X125932947Y-37361829D01*
X125932950Y-37361839D01*
X126008364Y-37543907D01*
X126008371Y-37543920D01*
X126117860Y-37707781D01*
X126117863Y-37707785D01*
X126257214Y-37847136D01*
X126257218Y-37847139D01*
X126421079Y-37956628D01*
X126421092Y-37956635D01*
X126603160Y-38032049D01*
X126603165Y-38032051D01*
X126603169Y-38032051D01*
X126603170Y-38032052D01*
X126796456Y-38070500D01*
X126796459Y-38070500D01*
X126993543Y-38070500D01*
X127123582Y-38044632D01*
X127186835Y-38032051D01*
X127327655Y-37973721D01*
X127368907Y-37956635D01*
X127368907Y-37956634D01*
X127368914Y-37956632D01*
X127532782Y-37847139D01*
X127672139Y-37707782D01*
X127781632Y-37543914D01*
X127857051Y-37361835D01*
X127895500Y-37168541D01*
X127895500Y-36971459D01*
X127895499Y-36971456D01*
X127889255Y-36940065D01*
X127895481Y-36870474D01*
X127938344Y-36815296D01*
X128004233Y-36792050D01*
X128035062Y-36794254D01*
X128053276Y-36797877D01*
X128066458Y-36800500D01*
X128066459Y-36800500D01*
X128263543Y-36800500D01*
X128393582Y-36774632D01*
X128456835Y-36762051D01*
X128638914Y-36686632D01*
X128640970Y-36685258D01*
X134849500Y-36685258D01*
X134849500Y-36914741D01*
X134857547Y-36975859D01*
X134879452Y-37142238D01*
X134888994Y-37177848D01*
X134938842Y-37363887D01*
X135026650Y-37575876D01*
X135026657Y-37575890D01*
X135141392Y-37774617D01*
X135281081Y-37956661D01*
X135281089Y-37956670D01*
X135443330Y-38118911D01*
X135443338Y-38118918D01*
X135625382Y-38258607D01*
X135625385Y-38258608D01*
X135625388Y-38258611D01*
X135824112Y-38373344D01*
X135824117Y-38373346D01*
X135824123Y-38373349D01*
X135915480Y-38411190D01*
X136036113Y-38461158D01*
X136257762Y-38520548D01*
X136485266Y-38550500D01*
X136485273Y-38550500D01*
X136714727Y-38550500D01*
X136714734Y-38550500D01*
X136942238Y-38520548D01*
X137163887Y-38461158D01*
X137375888Y-38373344D01*
X137574612Y-38258611D01*
X137756661Y-38118919D01*
X137756665Y-38118914D01*
X137756670Y-38118911D01*
X137918911Y-37956670D01*
X137918914Y-37956665D01*
X137918919Y-37956661D01*
X138058611Y-37774612D01*
X138173344Y-37575888D01*
X138261158Y-37363887D01*
X138320548Y-37142238D01*
X138350500Y-36914734D01*
X138350500Y-36685266D01*
X138350499Y-36685258D01*
X143349500Y-36685258D01*
X143349500Y-36914741D01*
X143357547Y-36975859D01*
X143379452Y-37142238D01*
X143388994Y-37177848D01*
X143438842Y-37363887D01*
X143526650Y-37575876D01*
X143526657Y-37575890D01*
X143641392Y-37774617D01*
X143781081Y-37956661D01*
X143781089Y-37956670D01*
X143943330Y-38118911D01*
X143943338Y-38118918D01*
X144125382Y-38258607D01*
X144125385Y-38258608D01*
X144125388Y-38258611D01*
X144324112Y-38373344D01*
X144324117Y-38373346D01*
X144324123Y-38373349D01*
X144415480Y-38411190D01*
X144536113Y-38461158D01*
X144757762Y-38520548D01*
X144985266Y-38550500D01*
X144985273Y-38550500D01*
X145214727Y-38550500D01*
X145214734Y-38550500D01*
X145442238Y-38520548D01*
X145663887Y-38461158D01*
X145875888Y-38373344D01*
X146074612Y-38258611D01*
X146256661Y-38118919D01*
X146256665Y-38118914D01*
X146256670Y-38118911D01*
X146418911Y-37956670D01*
X146418914Y-37956665D01*
X146418919Y-37956661D01*
X146558611Y-37774612D01*
X146673344Y-37575888D01*
X146761158Y-37363887D01*
X146820548Y-37142238D01*
X146850500Y-36914734D01*
X146850500Y-36685266D01*
X146820548Y-36457762D01*
X146761158Y-36236113D01*
X146701396Y-36091835D01*
X146673349Y-36024123D01*
X146673346Y-36024117D01*
X146673344Y-36024112D01*
X146558611Y-35825388D01*
X146558608Y-35825385D01*
X146558607Y-35825382D01*
X146418918Y-35643338D01*
X146418911Y-35643330D01*
X146256670Y-35481089D01*
X146256661Y-35481081D01*
X146074617Y-35341392D01*
X146048111Y-35326089D01*
X145913141Y-35248164D01*
X145875890Y-35226657D01*
X145875876Y-35226650D01*
X145663887Y-35138842D01*
X145442238Y-35079452D01*
X145404215Y-35074446D01*
X145214741Y-35049500D01*
X145214734Y-35049500D01*
X144985266Y-35049500D01*
X144985258Y-35049500D01*
X144768715Y-35078009D01*
X144757762Y-35079452D01*
X144669095Y-35103210D01*
X144536112Y-35138842D01*
X144324123Y-35226650D01*
X144324109Y-35226657D01*
X144125382Y-35341392D01*
X143943338Y-35481081D01*
X143781081Y-35643338D01*
X143641392Y-35825382D01*
X143526657Y-36024109D01*
X143526650Y-36024123D01*
X143439183Y-36235289D01*
X143438842Y-36236113D01*
X143385714Y-36434394D01*
X143379453Y-36457759D01*
X143379451Y-36457770D01*
X143349500Y-36685258D01*
X138350499Y-36685258D01*
X138320548Y-36457762D01*
X138261158Y-36236113D01*
X138201396Y-36091835D01*
X138173349Y-36024123D01*
X138173346Y-36024117D01*
X138173344Y-36024112D01*
X138058611Y-35825388D01*
X138058608Y-35825385D01*
X138058607Y-35825382D01*
X137918918Y-35643338D01*
X137918911Y-35643330D01*
X137756670Y-35481089D01*
X137756661Y-35481081D01*
X137574617Y-35341392D01*
X137548111Y-35326089D01*
X137413141Y-35248164D01*
X137375890Y-35226657D01*
X137375876Y-35226650D01*
X137163887Y-35138842D01*
X136942238Y-35079452D01*
X136904215Y-35074446D01*
X136714741Y-35049500D01*
X136714734Y-35049500D01*
X136485266Y-35049500D01*
X136485258Y-35049500D01*
X136268715Y-35078009D01*
X136257762Y-35079452D01*
X136169095Y-35103210D01*
X136036112Y-35138842D01*
X135824123Y-35226650D01*
X135824109Y-35226657D01*
X135625382Y-35341392D01*
X135443338Y-35481081D01*
X135281081Y-35643338D01*
X135141392Y-35825382D01*
X135026657Y-36024109D01*
X135026650Y-36024123D01*
X134939183Y-36235289D01*
X134938842Y-36236113D01*
X134885714Y-36434394D01*
X134879453Y-36457759D01*
X134879451Y-36457770D01*
X134849500Y-36685258D01*
X128640970Y-36685258D01*
X128801337Y-36578105D01*
X128801337Y-36578104D01*
X128802782Y-36577139D01*
X128942139Y-36437782D01*
X129051632Y-36273914D01*
X129127051Y-36091835D01*
X129153574Y-35958497D01*
X129165500Y-35898543D01*
X129165500Y-35701460D01*
X129158100Y-35664257D01*
X129158100Y-35664254D01*
X129154499Y-35646153D01*
X130149500Y-35646153D01*
X130149500Y-35803846D01*
X130180261Y-35958489D01*
X130180264Y-35958501D01*
X130240602Y-36104172D01*
X130240609Y-36104185D01*
X130328210Y-36235288D01*
X130328213Y-36235292D01*
X130439707Y-36346786D01*
X130439711Y-36346789D01*
X130570814Y-36434390D01*
X130570827Y-36434397D01*
X130700482Y-36488101D01*
X130716503Y-36494737D01*
X130871153Y-36525499D01*
X130871156Y-36525500D01*
X130871158Y-36525500D01*
X131028844Y-36525500D01*
X131028845Y-36525499D01*
X131183497Y-36494737D01*
X131296166Y-36448067D01*
X131329172Y-36434397D01*
X131329172Y-36434396D01*
X131329179Y-36434394D01*
X131460289Y-36346789D01*
X131571789Y-36235289D01*
X131659394Y-36104179D01*
X131664510Y-36091829D01*
X131692554Y-36024123D01*
X131719737Y-35958497D01*
X131750500Y-35803842D01*
X131750500Y-35646158D01*
X131750500Y-35646155D01*
X131750499Y-35646153D01*
X131719738Y-35491510D01*
X131719737Y-35491503D01*
X131719735Y-35491498D01*
X131659397Y-35345827D01*
X131659390Y-35345814D01*
X131571789Y-35214711D01*
X131571786Y-35214707D01*
X131460292Y-35103213D01*
X131460288Y-35103210D01*
X131329185Y-35015609D01*
X131329172Y-35015602D01*
X131183501Y-34955264D01*
X131183489Y-34955261D01*
X131028845Y-34924500D01*
X131028842Y-34924500D01*
X130871158Y-34924500D01*
X130871155Y-34924500D01*
X130716510Y-34955261D01*
X130716498Y-34955264D01*
X130570827Y-35015602D01*
X130570814Y-35015609D01*
X130439711Y-35103210D01*
X130439707Y-35103213D01*
X130328213Y-35214707D01*
X130328210Y-35214711D01*
X130240609Y-35345814D01*
X130240602Y-35345827D01*
X130180264Y-35491498D01*
X130180261Y-35491510D01*
X130149500Y-35646153D01*
X129154499Y-35646153D01*
X129127052Y-35508170D01*
X129127051Y-35508169D01*
X129127051Y-35508165D01*
X129120152Y-35491510D01*
X129051635Y-35326092D01*
X129051633Y-35326088D01*
X129051632Y-35326086D01*
X129051628Y-35326080D01*
X128990029Y-35233891D01*
X128969151Y-35167214D01*
X128987635Y-35099834D01*
X128990029Y-35096109D01*
X129021172Y-35049500D01*
X129051632Y-35003914D01*
X129127051Y-34821835D01*
X129165500Y-34628541D01*
X129165500Y-34431459D01*
X129165500Y-34431456D01*
X129127052Y-34238170D01*
X129127051Y-34238169D01*
X129127051Y-34238165D01*
X129103700Y-34181790D01*
X129051635Y-34056092D01*
X129051633Y-34056088D01*
X129051632Y-34056086D01*
X128990029Y-33963891D01*
X128969151Y-33897214D01*
X128987635Y-33829834D01*
X128990029Y-33826109D01*
X129002872Y-33806887D01*
X129051632Y-33733914D01*
X129127051Y-33551835D01*
X129165500Y-33358541D01*
X129165500Y-33161459D01*
X129165500Y-33161456D01*
X129127052Y-32968170D01*
X129127051Y-32968169D01*
X129127051Y-32968165D01*
X129057660Y-32800639D01*
X129051635Y-32786092D01*
X129051628Y-32786079D01*
X128942139Y-32622218D01*
X128942136Y-32622214D01*
X128802785Y-32482863D01*
X128802781Y-32482860D01*
X128638920Y-32373371D01*
X128638907Y-32373364D01*
X128456839Y-32297950D01*
X128456829Y-32297947D01*
X128263543Y-32259500D01*
X128263541Y-32259500D01*
X128066459Y-32259500D01*
X128043688Y-32264029D01*
X127974097Y-32257800D01*
X127918920Y-32214936D01*
X127895677Y-32149046D01*
X127895499Y-32142411D01*
X127895499Y-31442129D01*
X127895498Y-31442123D01*
X127895497Y-31442116D01*
X127889091Y-31382517D01*
X127841458Y-31254807D01*
X127838797Y-31247671D01*
X127838793Y-31247664D01*
X127752547Y-31132455D01*
X127752544Y-31132452D01*
X127637335Y-31046206D01*
X127637328Y-31046202D01*
X127502482Y-30995908D01*
X127502483Y-30995908D01*
X127442883Y-30989501D01*
X127442881Y-30989500D01*
X127442873Y-30989500D01*
X127442864Y-30989500D01*
X126347129Y-30989500D01*
X126347123Y-30989501D01*
X126287516Y-30995908D01*
X126152671Y-31046202D01*
X126152664Y-31046206D01*
X126037455Y-31132452D01*
X126037452Y-31132455D01*
X125951206Y-31247664D01*
X125951202Y-31247671D01*
X125900908Y-31382517D01*
X125894501Y-31442116D01*
X125894501Y-31442123D01*
X125894500Y-31442135D01*
X125894500Y-32537870D01*
X125894501Y-32537876D01*
X125900908Y-32597483D01*
X125951202Y-32732328D01*
X125951206Y-32732335D01*
X125960023Y-32744113D01*
X125984440Y-32809578D01*
X125975318Y-32865874D01*
X125932948Y-32968168D01*
X125932947Y-32968171D01*
X125894500Y-33161456D01*
X125894500Y-33161459D01*
X125894500Y-33358541D01*
X125894500Y-33358543D01*
X125894499Y-33358543D01*
X117645404Y-33358543D01*
X117593935Y-33099787D01*
X117593932Y-33099776D01*
X117593931Y-33099773D01*
X117593930Y-33099767D01*
X117488386Y-32751836D01*
X117349247Y-32415924D01*
X117326500Y-32373368D01*
X117177859Y-32095279D01*
X117177858Y-32095277D01*
X117177853Y-32095268D01*
X116975854Y-31792956D01*
X116954441Y-31766865D01*
X116749773Y-31517474D01*
X116749771Y-31517472D01*
X116745197Y-31511899D01*
X116745191Y-31511893D01*
X116745188Y-31511889D01*
X116488106Y-31254807D01*
X116207049Y-31024150D01*
X116207048Y-31024149D01*
X116207044Y-31024146D01*
X115904732Y-30822147D01*
X115904727Y-30822144D01*
X115904720Y-30822140D01*
X115739555Y-30733858D01*
X115689711Y-30684896D01*
X115674250Y-30616758D01*
X115698082Y-30551079D01*
X115753639Y-30508710D01*
X115798008Y-30500500D01*
X154201992Y-30500500D01*
X154269031Y-30520185D01*
G37*
%TD.AperFunction*%
%TD*%
M02*
