M48
; DRILL file KiCad 10.0.0 date 2026-03-31T12:14:31
; FORMAT={-:-/ absolute / metric / decimal}
; #@! TF.CreationDate,2026-03-31T12:14:31+11:00
; #@! TF.GenerationSoftware,Kicad,Pcbnew,10.0.0
; #@! TF.FileFunction,Plated,1,4,PTH
FMAT,2
METRIC
; #@! TA.AperFunction,Plated,PTH,ViaDrill
T1C0.300
; #@! TA.AperFunction,Plated,PTH,ComponentDrill
T2C0.500
; #@! TA.AperFunction,Plated,PTH,ComponentDrill
T3C0.600
; #@! TA.AperFunction,Plated,PTH,ComponentDrill
T4C0.650
; #@! TA.AperFunction,Plated,PTH,ComponentDrill
T5C0.750
; #@! TA.AperFunction,Plated,PTH,ComponentDrill
T6C0.950
; #@! TA.AperFunction,Plated,PTH,ComponentDrill
T7C1.000
; #@! TA.AperFunction,Plated,PTH,ComponentDrill
T8C1.800
; #@! TA.AperFunction,Plated,PTH,ComponentDrill
T9C3.200
%
G90
G05
T1
X111.662Y-39.8
X111.95Y-43.0
X112.2Y-56.15
X114.3Y-55.7
X114.8Y-62.9
X116.4Y-99.35
X116.9Y-49.6
X117.062Y-39.3
X117.6Y-75.0
X117.9Y-101.6
X119.05Y-44.85
X119.6Y-82.6
X119.75Y-101.7
X119.85Y-62.95
X120.5Y-93.55
X120.8Y-85.1
X120.8Y-87.5
X121.5Y-73.5
X122.3Y-98.1
X122.6Y-56.95
X122.6Y-101.4
X122.9Y-82.3
X122.9Y-91.0
X123.25Y-76.145
X123.8Y-96.3
X124.362Y-72.575
X124.985Y-105.865
X126.55Y-65.05
X126.95Y-78.2
X127.1Y-105.8
X128.2Y-67.8
X128.95Y-53.6
X129.0Y-95.1
X129.7Y-105.8
X130.1Y-42.0
X130.4Y-40.25
X130.95Y-31.075
X130.95Y-35.725
X131.0Y-104.35
X131.137Y-95.262
X131.2Y-69.6
X131.35Y-65.15
X131.35Y-74.75
X131.6Y-67.6
X131.7Y-66.7
X131.75Y-105.75
X132.4Y-62.3
X132.5Y-58.3
X132.9Y-73.0
X132.95Y-77.15
X134.2Y-56.2
X134.5Y-62.3
X135.05Y-77.05
X136.432Y-71.45
X136.6Y-72.95
X137.0Y-62.7
X137.2Y-78.05
X138.15Y-73.45
X138.6Y-64.95
X139.35Y-67.552
X139.6Y-72.1
X139.6Y-73.7
X140.0Y-65.0
X141.1Y-69.0
X141.3Y-56.4
X142.0Y-61.3
X142.5Y-76.3
X143.55Y-61.4
X143.558Y-77.171
X145.558Y-70.161
X145.717Y-66.685
X145.811Y-64.98
X145.833Y-65.83
X146.877Y-54.581
X146.877Y-56.581
X146.877Y-58.081
X146.927Y-52.281
X147.05Y-70.772
X147.15Y-65.646
X147.805Y-71.163
X148.2Y-75.95
X148.25Y-60.15
X148.877Y-52.281
X148.9Y-75.45
X149.577Y-58.181
X149.577Y-59.981
X150.5Y-47.1
X150.54Y-64.898
X150.877Y-52.281
X151.05Y-49.05
X151.2Y-37.4
X151.406Y-63.676
X151.5Y-78.087
X152.0Y-71.9
X152.1Y-64.2
X152.336Y-71.233
X153.1Y-68.55
X153.211Y-120.0
X153.778Y-60.081
X153.877Y-52.281
X154.2Y-107.7
X154.228Y-65.619
X154.25Y-68.85
X155.1Y-48.95
X155.5Y-77.25
X155.6Y-47.1
X155.877Y-52.281
X155.877Y-54.581
X155.877Y-56.581
X155.877Y-58.581
X155.877Y-60.081
X157.1Y-74.0
X158.0Y-59.9
X159.1Y-64.1
X159.162Y-66.138
X159.2Y-63.3
T2
X111.6Y-34.0
X111.6Y-126.0
X112.303Y-32.303
X112.303Y-35.697
X112.303Y-124.303
X112.303Y-127.697
X114.0Y-31.6
X114.0Y-36.4
X114.0Y-123.6
X114.0Y-128.4
X115.697Y-32.303
X115.697Y-35.697
X115.697Y-124.303
X115.697Y-127.697
X116.4Y-34.0
X116.4Y-126.0
X153.6Y-34.0
X153.6Y-126.0
X154.303Y-32.303
X154.303Y-35.697
X154.303Y-124.303
X154.303Y-127.697
X156.0Y-31.6
X156.0Y-36.4
X156.0Y-123.6
X156.0Y-128.4
X157.697Y-32.303
X157.697Y-35.697
X157.697Y-124.303
X157.697Y-127.697
X158.4Y-34.0
X158.4Y-126.0
T4
X126.895Y-31.99
X126.895Y-33.26
X126.895Y-34.53
X126.895Y-35.8
X126.895Y-37.07
X128.165Y-31.99
X128.165Y-33.26
X128.165Y-34.53
X128.165Y-35.8
X128.165Y-37.07
T5
X134.8Y-117.65
X136.8Y-117.65
X138.8Y-117.65
X140.8Y-117.65
T6
X132.9Y-126.65
X135.4Y-126.65
X137.9Y-126.65
X140.4Y-126.65
X142.9Y-126.65
T7
X157.0Y-113.25
X157.0Y-115.75
X157.1Y-83.6
X157.1Y-86.1
X157.1Y-92.2
X157.1Y-94.7
X157.1Y-100.9
X157.1Y-103.4
T8
X121.6Y-110.07
X121.6Y-115.57
X136.6Y-44.1
X136.6Y-49.6
X145.1Y-44.1
X145.1Y-49.6
T9
X114.0Y-34.0
X114.0Y-126.0
X156.0Y-34.0
X156.0Y-126.0
T3
G00X113.79Y-84.48
M15
G01X113.19Y-84.48
M16
G05
G00X113.79Y-93.12
M15
G01X113.19Y-93.12
M16
G05
G00X118.22Y-84.48
M15
G01X117.12Y-84.48
M16
G05
G00X118.22Y-93.12
M15
G01X117.12Y-93.12
M16
G05
M30
