%TF.GenerationSoftware,KiCad,Pcbnew,10.0.0*%
%TF.CreationDate,2026-03-31T12:14:29+11:00*%
%TF.ProjectId,CAN-Interface-Board,43414e2d-496e-4746-9572-666163652d42,rev?*%
%TF.SameCoordinates,Original*%
%TF.FileFunction,Paste,Top*%
%TF.FilePolarity,Positive*%
%FSLAX46Y46*%
G04 Gerber Fmt 4.6, Leading zero omitted, Abs format (unit mm)*
G04 Created by KiCad (PCBNEW 10.0.0) date 2026-03-31 12:14:29*
%MOMM*%
%LPD*%
G01*
G04 APERTURE LIST*
G04 Aperture macros list*
%AMRoundRect*
0 Rectangle with rounded corners*
0 $1 Rounding radius*
0 $2 $3 $4 $5 $6 $7 $8 $9 X,Y pos of 4 corners*
0 Add a 4 corners polygon primitive as box body*
4,1,4,$2,$3,$4,$5,$6,$7,$8,$9,$2,$3,0*
0 Add four circle primitives for the rounded corners*
1,1,$1+$1,$2,$3*
1,1,$1+$1,$4,$5*
1,1,$1+$1,$6,$7*
1,1,$1+$1,$8,$9*
0 Add four rect primitives between the rounded corners*
20,1,$1+$1,$2,$3,$4,$5,0*
20,1,$1+$1,$4,$5,$6,$7,0*
20,1,$1+$1,$6,$7,$8,$9,0*
20,1,$1+$1,$8,$9,$2,$3,0*%
G04 Aperture macros list end*
%ADD10RoundRect,0.015750X0.159250X0.174250X-0.159250X0.174250X-0.159250X-0.174250X0.159250X-0.174250X0*%
%ADD11RoundRect,0.250000X-0.475000X0.337500X-0.475000X-0.337500X0.475000X-0.337500X0.475000X0.337500X0*%
%ADD12RoundRect,0.250000X-0.450000X0.350000X-0.450000X-0.350000X0.450000X-0.350000X0.450000X0.350000X0*%
%ADD13RoundRect,0.250000X0.337500X0.475000X-0.337500X0.475000X-0.337500X-0.475000X0.337500X-0.475000X0*%
%ADD14R,1.450000X0.600000*%
%ADD15R,1.450000X0.300000*%
%ADD16RoundRect,0.250000X0.475000X-0.337500X0.475000X0.337500X-0.475000X0.337500X-0.475000X-0.337500X0*%
%ADD17RoundRect,0.250000X-0.350000X-0.450000X0.350000X-0.450000X0.350000X0.450000X-0.350000X0.450000X0*%
%ADD18R,1.500000X0.800000*%
%ADD19RoundRect,0.362500X-0.637500X0.362500X-0.637500X-0.362500X0.637500X-0.362500X0.637500X0.362500X0*%
%ADD20RoundRect,0.150000X-0.850000X-0.350000X0.850000X-0.350000X0.850000X0.350000X-0.850000X0.350000X0*%
%ADD21RoundRect,0.075000X-0.075000X0.700000X-0.075000X-0.700000X0.075000X-0.700000X0.075000X0.700000X0*%
%ADD22RoundRect,0.075000X-0.700000X0.075000X-0.700000X-0.075000X0.700000X-0.075000X0.700000X0.075000X0*%
%ADD23RoundRect,0.090000X-0.660000X-0.360000X0.660000X-0.360000X0.660000X0.360000X-0.660000X0.360000X0*%
%ADD24RoundRect,0.250000X-0.337500X-0.475000X0.337500X-0.475000X0.337500X0.475000X-0.337500X0.475000X0*%
%ADD25RoundRect,0.250000X0.350000X0.450000X-0.350000X0.450000X-0.350000X-0.450000X0.350000X-0.450000X0*%
%ADD26RoundRect,0.250000X-0.587500X-1.625000X0.587500X-1.625000X0.587500X1.625000X-0.587500X1.625000X0*%
%ADD27RoundRect,0.250000X0.450000X-0.350000X0.450000X0.350000X-0.450000X0.350000X-0.450000X-0.350000X0*%
%ADD28RoundRect,0.250000X1.625000X-0.587500X1.625000X0.587500X-1.625000X0.587500X-1.625000X-0.587500X0*%
%ADD29RoundRect,0.237500X-0.287500X-0.237500X0.287500X-0.237500X0.287500X0.237500X-0.287500X0.237500X0*%
%ADD30RoundRect,0.116250X-0.873750X-0.348750X0.873750X-0.348750X0.873750X0.348750X-0.873750X0.348750X0*%
%ADD31RoundRect,0.247500X-0.742500X-1.367500X0.742500X-1.367500X0.742500X1.367500X-0.742500X1.367500X0*%
%ADD32R,0.250000X0.900000*%
%ADD33R,0.900000X0.250000*%
%ADD34RoundRect,0.150000X0.150000X-0.825000X0.150000X0.825000X-0.150000X0.825000X-0.150000X-0.825000X0*%
%ADD35RoundRect,0.150000X0.150000X-0.512500X0.150000X0.512500X-0.150000X0.512500X-0.150000X-0.512500X0*%
%ADD36RoundRect,0.250000X0.800000X0.650000X-0.800000X0.650000X-0.800000X-0.650000X0.800000X-0.650000X0*%
G04 APERTURE END LIST*
D10*
%TO.C,U7*%
X135565000Y-73450000D03*
X135565000Y-72950000D03*
X135300000Y-72435000D03*
X134800000Y-72435000D03*
X134300000Y-72435000D03*
X134035000Y-72950000D03*
X134035000Y-73450000D03*
X134300000Y-73965000D03*
X134800000Y-73965000D03*
X135300000Y-73965000D03*
%TD*%
D11*
%TO.C,C30*%
X141250000Y-73012500D03*
X141250000Y-75087500D03*
%TD*%
D12*
%TO.C,R9*%
X126550000Y-68600000D03*
X126550000Y-70600000D03*
%TD*%
D13*
%TO.C,C25*%
X134537500Y-63900000D03*
X132462500Y-63900000D03*
%TD*%
D14*
%TO.C,J2*%
X118585000Y-85550000D03*
X118585000Y-86350000D03*
D15*
X118585000Y-87550000D03*
X118585000Y-88550000D03*
X118585000Y-89050000D03*
X118585000Y-90050000D03*
D14*
X118585000Y-91250000D03*
X118585000Y-92050000D03*
X118585000Y-92050000D03*
X118585000Y-91250000D03*
D15*
X118585000Y-90550000D03*
X118585000Y-89550000D03*
X118585000Y-88050000D03*
X118585000Y-87050000D03*
D14*
X118585000Y-86350000D03*
X118585000Y-85550000D03*
%TD*%
D16*
%TO.C,C18*%
X144650000Y-59637500D03*
X144650000Y-57562500D03*
%TD*%
D17*
%TO.C,R13*%
X155900000Y-107700000D03*
X157900000Y-107700000D03*
%TD*%
D18*
%TO.C,J3*%
X119950000Y-69545000D03*
X119950000Y-70645000D03*
X119950000Y-71745000D03*
X119950000Y-72845000D03*
X119950000Y-73945000D03*
X119950000Y-75045000D03*
X119950000Y-76145000D03*
X119950000Y-77245000D03*
D19*
X122550000Y-65875000D03*
X114250000Y-65875000D03*
X122550000Y-79625000D03*
X114250000Y-79625000D03*
%TD*%
D17*
%TO.C,FB1*%
X136150000Y-59500000D03*
X138150000Y-59500000D03*
%TD*%
%TO.C,R7*%
X120900000Y-83900000D03*
X122900000Y-83900000D03*
%TD*%
D20*
%TO.C,BootSwitch1*%
X112150000Y-57400000D03*
X118150000Y-57400000D03*
X112150000Y-61100000D03*
X118150000Y-61100000D03*
%TD*%
D17*
%TO.C,R4*%
X116300000Y-62950000D03*
X118300000Y-62950000D03*
%TD*%
D21*
%TO.C,U3*%
X153750000Y-62125000D03*
X153250000Y-62125000D03*
X152750000Y-62125000D03*
X152250000Y-62125000D03*
X151750000Y-62125000D03*
X151250000Y-62125000D03*
X150750000Y-62125000D03*
X150250000Y-62125000D03*
X149750000Y-62125000D03*
X149250000Y-62125000D03*
X148750000Y-62125000D03*
X148250000Y-62125000D03*
X147750000Y-62125000D03*
X147250000Y-62125000D03*
X146750000Y-62125000D03*
X146250000Y-62125000D03*
D22*
X144325000Y-64050000D03*
X144325000Y-64550000D03*
X144325000Y-65050000D03*
X144325000Y-65550000D03*
X144325000Y-66050000D03*
X144325000Y-66550000D03*
X144325000Y-67050000D03*
X144325000Y-67550000D03*
X144325000Y-68050000D03*
X144325000Y-68550000D03*
X144325000Y-69050000D03*
X144325000Y-69550000D03*
X144325000Y-70050000D03*
X144325000Y-70550000D03*
X144325000Y-71050000D03*
X144325000Y-71550000D03*
D21*
X146250000Y-73475000D03*
X146750000Y-73475000D03*
X147250000Y-73475000D03*
X147750000Y-73475000D03*
X148250000Y-73475000D03*
X148750000Y-73475000D03*
X149250000Y-73475000D03*
X149750000Y-73475000D03*
X150250000Y-73475000D03*
X150750000Y-73475000D03*
X151250000Y-73475000D03*
X151750000Y-73475000D03*
X152250000Y-73475000D03*
X152750000Y-73475000D03*
X153250000Y-73475000D03*
X153750000Y-73475000D03*
D22*
X155675000Y-71550000D03*
X155675000Y-71050000D03*
X155675000Y-70550000D03*
X155675000Y-70050000D03*
X155675000Y-69550000D03*
X155675000Y-69050000D03*
X155675000Y-68550000D03*
X155675000Y-68050000D03*
X155675000Y-67550000D03*
X155675000Y-67050000D03*
X155675000Y-66550000D03*
X155675000Y-66050000D03*
X155675000Y-65550000D03*
X155675000Y-65050000D03*
X155675000Y-64550000D03*
X155675000Y-64050000D03*
%TD*%
D11*
%TO.C,C15*%
X155500000Y-74012500D03*
X155500000Y-76087500D03*
%TD*%
D23*
%TO.C,D5*%
X112000000Y-44700000D03*
X112000000Y-48000000D03*
X116900000Y-48000000D03*
X116900000Y-44700000D03*
%TD*%
D12*
%TO.C,R6*%
X123800000Y-92800000D03*
X123800000Y-94800000D03*
%TD*%
D24*
%TO.C,C12*%
X156362500Y-61800000D03*
X158437500Y-61800000D03*
%TD*%
D11*
%TO.C,C1*%
X126950000Y-79662500D03*
X126950000Y-81737500D03*
%TD*%
D24*
%TO.C,C19*%
X152640000Y-58481250D03*
X154715000Y-58481250D03*
%TD*%
D25*
%TO.C,R11*%
X137400000Y-80850000D03*
X135400000Y-80850000D03*
%TD*%
D16*
%TO.C,C22*%
X130955000Y-34307500D03*
X130955000Y-32232500D03*
%TD*%
D11*
%TO.C,C9*%
X153000000Y-76012500D03*
X153000000Y-78087500D03*
%TD*%
D16*
%TO.C,C11*%
X142000000Y-65337500D03*
X142000000Y-63262500D03*
%TD*%
D20*
%TO.C,RSTSwitch1*%
X112000000Y-51000000D03*
X118000000Y-51000000D03*
X112000000Y-54700000D03*
X118000000Y-54700000D03*
%TD*%
D26*
%TO.C,D1*%
X117350000Y-104350000D03*
X121725000Y-104350000D03*
%TD*%
D16*
%TO.C,C17*%
X142400000Y-59637500D03*
X142400000Y-57562500D03*
%TD*%
D11*
%TO.C,C31*%
X137200000Y-74762500D03*
X137200000Y-76837500D03*
%TD*%
%TO.C,C10*%
X143500000Y-73012500D03*
X143500000Y-75087500D03*
%TD*%
D27*
%TO.C,R10*%
X129900000Y-67800000D03*
X129900000Y-65800000D03*
%TD*%
D28*
%TO.C,D2*%
X113037500Y-105037500D03*
X113037500Y-100662500D03*
%TD*%
D17*
%TO.C,R12*%
X154761307Y-120067500D03*
X156761307Y-120067500D03*
%TD*%
D25*
%TO.C,R1*%
X137200000Y-84350000D03*
X135200000Y-84350000D03*
%TD*%
D16*
%TO.C,C24*%
X137100000Y-66437500D03*
X137100000Y-64362500D03*
%TD*%
D29*
%TO.C,PowerLED1*%
X111687500Y-41300000D03*
X113437500Y-41300000D03*
%TD*%
D27*
%TO.C,R5*%
X115362500Y-41300000D03*
X115362500Y-39300000D03*
%TD*%
D11*
%TO.C,C13*%
X134150000Y-57562500D03*
X134150000Y-59637500D03*
%TD*%
%TO.C,C14*%
X140150000Y-57562500D03*
X140150000Y-59637500D03*
%TD*%
D13*
%TO.C,C8*%
X142037500Y-70300000D03*
X139962500Y-70300000D03*
%TD*%
D16*
%TO.C,C20*%
X148487500Y-56358750D03*
X148487500Y-54283750D03*
%TD*%
D13*
%TO.C,C3*%
X154137500Y-47000000D03*
X152062500Y-47000000D03*
%TD*%
D30*
%TO.C,U2*%
X124985000Y-99300000D03*
X124985000Y-101600000D03*
X124985000Y-103900000D03*
D31*
X131015000Y-101600000D03*
%TD*%
D27*
%TO.C,R3*%
X122600000Y-55600000D03*
X122600000Y-53600000D03*
%TD*%
%TO.C,R14*%
X131200000Y-73000000D03*
X131200000Y-71000000D03*
%TD*%
D11*
%TO.C,C16*%
X157800000Y-64062500D03*
X157800000Y-66137500D03*
%TD*%
D32*
%TO.C,U5*%
X133350000Y-68450000D03*
X133850000Y-68450000D03*
X134350000Y-68450000D03*
X134850000Y-68450000D03*
D33*
X135200000Y-67600000D03*
X135200000Y-67100000D03*
X135200000Y-66600000D03*
D32*
X134850000Y-65750000D03*
X134350000Y-65750000D03*
X133850000Y-65750000D03*
X133350000Y-65750000D03*
D33*
X133000000Y-66600000D03*
X133000000Y-67100000D03*
X133000000Y-67600000D03*
%TD*%
D34*
%TO.C,U1*%
X151195000Y-44475000D03*
X152465000Y-44475000D03*
X153735000Y-44475000D03*
X155005000Y-44475000D03*
X155005000Y-39525000D03*
X153735000Y-39525000D03*
X152465000Y-39525000D03*
X151195000Y-39525000D03*
%TD*%
D13*
%TO.C,C5*%
X131137500Y-96900000D03*
X129062500Y-96900000D03*
%TD*%
D25*
%TO.C,R8*%
X128900000Y-75000000D03*
X126900000Y-75000000D03*
%TD*%
D16*
%TO.C,C7*%
X120450000Y-53387500D03*
X120450000Y-51312500D03*
%TD*%
D35*
%TO.C,D4*%
X121950000Y-89637500D03*
X122900000Y-89637500D03*
X123850000Y-89637500D03*
X123850000Y-87362500D03*
X122900000Y-87362500D03*
X121950000Y-87362500D03*
%TD*%
D16*
%TO.C,C4*%
X119400000Y-100237500D03*
X119400000Y-98162500D03*
%TD*%
D13*
%TO.C,C32*%
X135037500Y-75600000D03*
X132962500Y-75600000D03*
%TD*%
D12*
%TO.C,R2*%
X157100000Y-39100000D03*
X157100000Y-41100000D03*
%TD*%
D36*
%TO.C,Y1*%
X153877500Y-53881250D03*
X150977500Y-53881250D03*
X150977500Y-56181250D03*
X153877500Y-56181250D03*
%TD*%
M02*
