%TF.GenerationSoftware,KiCad,Pcbnew,10.0.0*%
%TF.CreationDate,2026-03-31T12:14:29+11:00*%
%TF.ProjectId,CAN-Interface-Board,43414e2d-496e-4746-9572-666163652d42,rev?*%
%TF.SameCoordinates,Original*%
%TF.FileFunction,Soldermask,Bot*%
%TF.FilePolarity,Negative*%
%FSLAX46Y46*%
G04 Gerber Fmt 4.6, Leading zero omitted, Abs format (unit mm)*
G04 Created by KiCad (PCBNEW 10.0.0) date 2026-03-31 12:14:29*
%MOMM*%
%LPD*%
G01*
G04 APERTURE LIST*
G04 Aperture macros list*
%AMRoundRect*
0 Rectangle with rounded corners*
0 $1 Rounding radius*
0 $2 $3 $4 $5 $6 $7 $8 $9 X,Y pos of 4 corners*
0 Add a 4 corners polygon primitive as box body*
4,1,4,$2,$3,$4,$5,$6,$7,$8,$9,$2,$3,0*
0 Add four circle primitives for the rounded corners*
1,1,$1+$1,$2,$3*
1,1,$1+$1,$4,$5*
1,1,$1+$1,$6,$7*
1,1,$1+$1,$8,$9*
0 Add four rect primitives between the rounded corners*
20,1,$1+$1,$2,$3,$4,$5,0*
20,1,$1+$1,$4,$5,$6,$7,0*
20,1,$1+$1,$6,$7,$8,$9,0*
20,1,$1+$1,$8,$9,$2,$3,0*%
G04 Aperture macros list end*
%ADD10C,1.576200*%
%ADD11C,1.226200*%
%ADD12C,0.010000*%
%ADD13C,3.000000*%
%ADD14C,0.650000*%
%ADD15O,2.100000X1.000000*%
%ADD16O,1.600000X1.000000*%
%ADD17C,0.800000*%
%ADD18C,6.400000*%
%ADD19RoundRect,0.250000X0.750000X-0.600000X0.750000X0.600000X-0.750000X0.600000X-0.750000X-0.600000X0*%
%ADD20O,2.000000X1.700000*%
%ADD21RoundRect,0.250000X0.350000X0.625000X-0.350000X0.625000X-0.350000X-0.625000X0.350000X-0.625000X0*%
%ADD22O,1.200000X1.750000*%
%ADD23RoundRect,0.250000X0.600000X0.725000X-0.600000X0.725000X-0.600000X-0.725000X0.600000X-0.725000X0*%
%ADD24O,1.700000X1.950000*%
%ADD25R,1.000000X1.000000*%
%ADD26C,1.000000*%
G04 APERTURE END LIST*
%TO.C,CAN_IN1*%
D10*
X145888100Y-36800000D02*
G75*
G02*
X144311900Y-36800000I-788100J0D01*
G01*
X144311900Y-36800000D02*
G75*
G02*
X145888100Y-36800000I788100J0D01*
G01*
D11*
X145713100Y-49600000D02*
G75*
G02*
X144486900Y-49600000I-613100J0D01*
G01*
X144486900Y-49600000D02*
G75*
G02*
X145713100Y-49600000I613100J0D01*
G01*
D12*
X146326200Y-45326200D02*
X143873800Y-45326200D01*
X143873800Y-42873800D01*
X146326200Y-42873800D01*
X146326200Y-45326200D01*
G36*
X146326200Y-45326200D02*
G01*
X143873800Y-45326200D01*
X143873800Y-42873800D01*
X146326200Y-42873800D01*
X146326200Y-45326200D01*
G37*
%TO.C,PowerIn1*%
D11*
X122213100Y-110070000D02*
G75*
G02*
X120986900Y-110070000I-613100J0D01*
G01*
X120986900Y-110070000D02*
G75*
G02*
X122213100Y-110070000I613100J0D01*
G01*
D10*
X122388100Y-122870000D02*
G75*
G02*
X120811900Y-122870000I-788100J0D01*
G01*
X120811900Y-122870000D02*
G75*
G02*
X122388100Y-122870000I788100J0D01*
G01*
D12*
X122826200Y-116796200D02*
X120373800Y-116796200D01*
X120373800Y-114343800D01*
X122826200Y-114343800D01*
X122826200Y-116796200D01*
G36*
X122826200Y-116796200D02*
G01*
X120373800Y-116796200D01*
X120373800Y-114343800D01*
X122826200Y-114343800D01*
X122826200Y-116796200D01*
G37*
%TO.C,CAN_OUT1*%
D10*
X137388100Y-36800000D02*
G75*
G02*
X135811900Y-36800000I-788100J0D01*
G01*
X135811900Y-36800000D02*
G75*
G02*
X137388100Y-36800000I788100J0D01*
G01*
D11*
X137213100Y-49600000D02*
G75*
G02*
X135986900Y-49600000I-613100J0D01*
G01*
X135986900Y-49600000D02*
G75*
G02*
X137213100Y-49600000I613100J0D01*
G01*
D12*
X137826200Y-45326200D02*
X135373800Y-45326200D01*
X135373800Y-42873800D01*
X137826200Y-42873800D01*
X137826200Y-45326200D01*
G36*
X137826200Y-45326200D02*
G01*
X135373800Y-45326200D01*
X135373800Y-42873800D01*
X137826200Y-42873800D01*
X137826200Y-45326200D01*
G37*
%TD*%
D13*
%TO.C,CAN_IN1*%
X145100000Y-36800000D03*
%TD*%
%TO.C,PowerIn1*%
X121600000Y-122870000D03*
%TD*%
D14*
%TO.C,J2*%
X117140000Y-85910000D03*
X117140000Y-91690000D03*
D15*
X117670000Y-84480000D03*
D16*
X113490000Y-84480000D03*
D15*
X117670000Y-93120000D03*
D16*
X113490000Y-93120000D03*
%TD*%
D17*
%TO.C,REF\u002A\u002A*%
X153600000Y-34000000D03*
X154302944Y-32302944D03*
X154302944Y-35697056D03*
X156000000Y-31600000D03*
D18*
X156000000Y-34000000D03*
D17*
X156000000Y-36400000D03*
X157697056Y-32302944D03*
X157697056Y-35697056D03*
X158400000Y-34000000D03*
%TD*%
D19*
%TO.C,J5*%
X157100000Y-94700000D03*
D20*
X157100000Y-92200000D03*
%TD*%
D13*
%TO.C,CAN_OUT1*%
X136600000Y-36800000D03*
%TD*%
D21*
%TO.C,J7*%
X140800000Y-117650000D03*
D22*
X138800000Y-117650000D03*
X136800000Y-117650000D03*
X134800000Y-117650000D03*
%TD*%
D17*
%TO.C,REF\u002A\u002A*%
X111600000Y-34000000D03*
X112302944Y-32302944D03*
X112302944Y-35697056D03*
X114000000Y-31600000D03*
D18*
X114000000Y-34000000D03*
D17*
X114000000Y-36400000D03*
X115697056Y-32302944D03*
X115697056Y-35697056D03*
X116400000Y-34000000D03*
%TD*%
D19*
%TO.C,CN2*%
X157100000Y-103400000D03*
D20*
X157100000Y-100900000D03*
%TD*%
D17*
%TO.C,REF\u002A\u002A*%
X153600000Y-126000000D03*
X154302944Y-124302944D03*
X154302944Y-127697056D03*
X156000000Y-123600000D03*
D18*
X156000000Y-126000000D03*
D17*
X156000000Y-128400000D03*
X157697056Y-124302944D03*
X157697056Y-127697056D03*
X158400000Y-126000000D03*
%TD*%
D23*
%TO.C,J6*%
X142900000Y-126650000D03*
D24*
X140400000Y-126650000D03*
X137900000Y-126650000D03*
X135400000Y-126650000D03*
X132900000Y-126650000D03*
%TD*%
D17*
%TO.C,REF\u002A\u002A*%
X111600000Y-126000000D03*
X112302944Y-124302944D03*
X112302944Y-127697056D03*
X114000000Y-123600000D03*
D18*
X114000000Y-126000000D03*
D17*
X114000000Y-128400000D03*
X115697056Y-124302944D03*
X115697056Y-127697056D03*
X116400000Y-126000000D03*
%TD*%
D19*
%TO.C,CN1*%
X157000000Y-115750000D03*
D20*
X157000000Y-113250000D03*
%TD*%
D25*
%TO.C,J1*%
X126895000Y-31990000D03*
D26*
X128165000Y-31990000D03*
X126895000Y-33260000D03*
X128165000Y-33260000D03*
X126895000Y-34530000D03*
X128165000Y-34530000D03*
X126895000Y-35800000D03*
X128165000Y-35800000D03*
X126895000Y-37070000D03*
X128165000Y-37070000D03*
%TD*%
D19*
%TO.C,J4*%
X157100000Y-86100000D03*
D20*
X157100000Y-83600000D03*
%TD*%
M02*
