%TF.GenerationSoftware,KiCad,Pcbnew,10.0.0*%
%TF.CreationDate,2026-03-31T12:14:29+11:00*%
%TF.ProjectId,CAN-Interface-Board,43414e2d-496e-4746-9572-666163652d42,rev?*%
%TF.SameCoordinates,Original*%
%TF.FileFunction,Copper,L4,Bot*%
%TF.FilePolarity,Positive*%
%FSLAX46Y46*%
G04 Gerber Fmt 4.6, Leading zero omitted, Abs format (unit mm)*
G04 Created by KiCad (PCBNEW 10.0.0) date 2026-03-31 12:14:29*
%MOMM*%
%LPD*%
G01*
G04 APERTURE LIST*
G04 Aperture macros list*
%AMRoundRect*
0 Rectangle with rounded corners*
0 $1 Rounding radius*
0 $2 $3 $4 $5 $6 $7 $8 $9 X,Y pos of 4 corners*
0 Add a 4 corners polygon primitive as box body*
4,1,4,$2,$3,$4,$5,$6,$7,$8,$9,$2,$3,0*
0 Add four circle primitives for the rounded corners*
1,1,$1+$1,$2,$3*
1,1,$1+$1,$4,$5*
1,1,$1+$1,$6,$7*
1,1,$1+$1,$8,$9*
0 Add four rect primitives between the rounded corners*
20,1,$1+$1,$2,$3,$4,$5,0*
20,1,$1+$1,$4,$5,$6,$7,0*
20,1,$1+$1,$6,$7,$8,$9,0*
20,1,$1+$1,$8,$9,$2,$3,0*%
G04 Aperture macros list end*
%TA.AperFunction,ComponentPad*%
%ADD10R,2.300000X2.300000*%
%TD*%
%TA.AperFunction,ComponentPad*%
%ADD11C,2.300000*%
%TD*%
%TA.AperFunction,HeatsinkPad*%
%ADD12O,2.100000X1.000000*%
%TD*%
%TA.AperFunction,HeatsinkPad*%
%ADD13O,1.600000X1.000000*%
%TD*%
%TA.AperFunction,ComponentPad*%
%ADD14C,0.800000*%
%TD*%
%TA.AperFunction,ComponentPad*%
%ADD15C,6.400000*%
%TD*%
%TA.AperFunction,ComponentPad*%
%ADD16RoundRect,0.250000X0.750000X-0.600000X0.750000X0.600000X-0.750000X0.600000X-0.750000X-0.600000X0*%
%TD*%
%TA.AperFunction,ComponentPad*%
%ADD17O,2.000000X1.700000*%
%TD*%
%TA.AperFunction,ComponentPad*%
%ADD18RoundRect,0.250000X0.350000X0.625000X-0.350000X0.625000X-0.350000X-0.625000X0.350000X-0.625000X0*%
%TD*%
%TA.AperFunction,ComponentPad*%
%ADD19O,1.200000X1.750000*%
%TD*%
%TA.AperFunction,ComponentPad*%
%ADD20RoundRect,0.250000X0.600000X0.725000X-0.600000X0.725000X-0.600000X-0.725000X0.600000X-0.725000X0*%
%TD*%
%TA.AperFunction,ComponentPad*%
%ADD21O,1.700000X1.950000*%
%TD*%
%TA.AperFunction,ComponentPad*%
%ADD22R,1.000000X1.000000*%
%TD*%
%TA.AperFunction,ComponentPad*%
%ADD23C,1.000000*%
%TD*%
%TA.AperFunction,ViaPad*%
%ADD24C,0.600000*%
%TD*%
%TA.AperFunction,Conductor*%
%ADD25C,0.200000*%
%TD*%
G04 APERTURE END LIST*
D10*
%TO.P,CAN_IN1,1,Pin_1_1*%
%TO.N,/CAN Transciever/CANH*%
X145100000Y-44100000D03*
D11*
%TO.P,CAN_IN1,2,Pin_2_2*%
%TO.N,/CAN Transciever/CANL*%
X145100000Y-49600000D03*
%TD*%
D10*
%TO.P,PowerIn1,1,Pin_1_1*%
%TO.N,+BATT*%
X121600000Y-115570000D03*
D11*
%TO.P,PowerIn1,2,Pin_2_2*%
%TO.N,GND*%
X121600000Y-110070000D03*
%TD*%
D12*
%TO.P,J2,S1,SHIELD_S1*%
%TO.N,unconnected-(J2-SHIELD-PadS1)*%
X117670000Y-84480000D03*
D13*
%TO.N,unconnected-(J2-SHIELD-PadS1)_1*%
X113490000Y-84480000D03*
D12*
%TO.N,unconnected-(J2-SHIELD-PadS1)_2*%
X117670000Y-93120000D03*
D13*
%TO.N,unconnected-(J2-SHIELD-PadS1)_3*%
X113490000Y-93120000D03*
%TD*%
D14*
%TO.P,REF\u002A\u002A,1*%
%TO.N,N/C*%
X153600000Y-34000000D03*
X154302944Y-32302944D03*
X154302944Y-35697056D03*
X156000000Y-31600000D03*
D15*
X156000000Y-34000000D03*
D14*
X156000000Y-36400000D03*
X157697056Y-32302944D03*
X157697056Y-35697056D03*
X158400000Y-34000000D03*
%TD*%
D16*
%TO.P,J5,1,Pin_1_1*%
%TO.N,GND*%
X157100000Y-94700000D03*
D17*
%TO.P,J5,2,Pin_2_2*%
%TO.N,/MCU/PWMServo_CAS*%
X157100000Y-92200000D03*
%TD*%
D10*
%TO.P,CAN_OUT1,1,Pin_1_1*%
%TO.N,/CAN Transciever/CANH*%
X136600000Y-44100000D03*
D11*
%TO.P,CAN_OUT1,2,Pin_2_2*%
%TO.N,/CAN Transciever/CANL*%
X136600000Y-49600000D03*
%TD*%
D18*
%TO.P,J7,1,Pin_1_1*%
%TO.N,/MCU/Encoder-B*%
X140800000Y-117650000D03*
D19*
%TO.P,J7,2,Pin_2_2*%
%TO.N,/MCU/Encoder-A*%
X138800000Y-117650000D03*
%TO.P,J7,3,Pin_3_3*%
%TO.N,+3.3V*%
X136800000Y-117650000D03*
%TO.P,J7,4,Pin_4_4*%
%TO.N,GND*%
X134800000Y-117650000D03*
%TD*%
D14*
%TO.P,REF\u002A\u002A,1*%
%TO.N,N/C*%
X111600000Y-34000000D03*
X112302944Y-32302944D03*
X112302944Y-35697056D03*
X114000000Y-31600000D03*
D15*
X114000000Y-34000000D03*
D14*
X114000000Y-36400000D03*
X115697056Y-32302944D03*
X115697056Y-35697056D03*
X116400000Y-34000000D03*
%TD*%
D16*
%TO.P,CN2,1,1_1*%
%TO.N,/MCU/LimitSwitchRoll*%
X157100000Y-103400000D03*
D17*
%TO.P,CN2,2,2_2*%
%TO.N,+3.3V*%
X157100000Y-100900000D03*
%TD*%
D14*
%TO.P,REF\u002A\u002A,1*%
%TO.N,N/C*%
X153600000Y-126000000D03*
X154302944Y-124302944D03*
X154302944Y-127697056D03*
X156000000Y-123600000D03*
D15*
X156000000Y-126000000D03*
D14*
X156000000Y-128400000D03*
X157697056Y-124302944D03*
X157697056Y-127697056D03*
X158400000Y-126000000D03*
%TD*%
D20*
%TO.P,J6,1,Pin_1_1*%
%TO.N,+3.3V*%
X142900000Y-126650000D03*
D21*
%TO.P,J6,2,Pin_2_2*%
%TO.N,GND*%
X140400000Y-126650000D03*
%TO.P,J6,3,Pin_3_3*%
%TO.N,/GPS1_TX*%
X137900000Y-126650000D03*
%TO.P,J6,4,Pin_4_4*%
%TO.N,/GPS1_RX*%
X135400000Y-126650000D03*
%TO.P,J6,5,Pin_5_5*%
%TO.N,/RESET1*%
X132900000Y-126650000D03*
%TD*%
D14*
%TO.P,REF\u002A\u002A,1*%
%TO.N,N/C*%
X111600000Y-126000000D03*
X112302944Y-124302944D03*
X112302944Y-127697056D03*
X114000000Y-123600000D03*
D15*
X114000000Y-126000000D03*
D14*
X114000000Y-128400000D03*
X115697056Y-124302944D03*
X115697056Y-127697056D03*
X116400000Y-126000000D03*
%TD*%
D16*
%TO.P,CN1,1,1_1*%
%TO.N,/MCU/LimitSwitchCAS*%
X157000000Y-115750000D03*
D17*
%TO.P,CN1,2,2_2*%
%TO.N,+3.3V*%
X157000000Y-113250000D03*
%TD*%
D22*
%TO.P,J1,1,TCK_1*%
%TO.N,/MCU/SWCLK*%
X126895000Y-31990000D03*
D23*
%TO.P,J1,2,GND_2*%
%TO.N,GND*%
X128165000Y-31990000D03*
%TO.P,J1,3,TDO_3*%
%TO.N,unconnected-(J1-TDO-Pad3)*%
X126895000Y-33260000D03*
%TO.P,J1,4,PGM/NC_4*%
%TO.N,unconnected-(J1-PGM{slash}NC-Pad4)*%
X128165000Y-33260000D03*
%TO.P,J1,5,TMS_5*%
%TO.N,/MCU/SWDIO*%
X126895000Y-34530000D03*
%TO.P,J1,6,VJTAG_6*%
%TO.N,+3.3V*%
X128165000Y-34530000D03*
%TO.P,J1,7,VPUMP_7*%
%TO.N,unconnected-(J1-VPUMP-Pad7)*%
X126895000Y-35800000D03*
%TO.P,J1,8,~{TRST}_8*%
%TO.N,/MCU/NRST*%
X128165000Y-35800000D03*
%TO.P,J1,9,TDI_9*%
%TO.N,unconnected-(J1-TDI-Pad9)*%
X126895000Y-37070000D03*
%TO.P,J1,10,GND_10*%
%TO.N,GND*%
X128165000Y-37070000D03*
%TD*%
D16*
%TO.P,J4,1,Pin_1_1*%
%TO.N,GND*%
X157100000Y-86100000D03*
D17*
%TO.P,J4,2,Pin_2_2*%
%TO.N,/MCU/PWMServo_Roll*%
X157100000Y-83600000D03*
%TD*%
D24*
%TO.N,GND*%
X126950000Y-78200000D03*
X148250000Y-60150000D03*
%TO.N,+3.3V*%
X135050000Y-77050000D03*
X117062500Y-39300000D03*
X157100000Y-74000000D03*
X155100000Y-48950000D03*
X131137500Y-95262500D03*
X122600000Y-56950000D03*
X138150000Y-73450000D03*
X159100000Y-64100000D03*
X131000000Y-104350000D03*
X124985001Y-105864999D03*
X121500000Y-73500000D03*
X128200000Y-67800000D03*
X126550000Y-65050000D03*
X131200000Y-69600000D03*
X130950000Y-35725000D03*
X139600000Y-73700000D03*
X158000000Y-59900000D03*
X112200000Y-56150000D03*
X111950000Y-43000000D03*
X132500000Y-58300000D03*
X138600000Y-64950000D03*
X140000000Y-65000000D03*
X134500000Y-62300000D03*
%TO.N,/Barometer/Baraometer-SCK*%
X145716876Y-66685467D03*
X131700000Y-66700000D03*
X136600000Y-72950000D03*
%TO.N,GND*%
X117600000Y-75000000D03*
X130950000Y-31075000D03*
X120500000Y-93550000D03*
X155877500Y-60081252D03*
X137000000Y-62700000D03*
X151200000Y-37400000D03*
X129000000Y-95100000D03*
X114800000Y-62900000D03*
X142500000Y-76300000D03*
X146927498Y-52281250D03*
X132950000Y-77150000D03*
X153777500Y-60081250D03*
X127100000Y-105800000D03*
X149577500Y-58181250D03*
X151500000Y-78087500D03*
X122900000Y-82300000D03*
X149577500Y-59981250D03*
X141300000Y-56400000D03*
X139600000Y-72100000D03*
X111662500Y-39800000D03*
X142000000Y-61300000D03*
X146877500Y-56581250D03*
X155877500Y-52281250D03*
X155500000Y-77250000D03*
X122300000Y-98100000D03*
X148877500Y-52281250D03*
X159200000Y-63300000D03*
X155877500Y-56581250D03*
X122600000Y-101400000D03*
X153211307Y-120000000D03*
X150877500Y-52281250D03*
X151050000Y-49050000D03*
X129700000Y-105800000D03*
X114300000Y-55700000D03*
X159162499Y-66137501D03*
X132400000Y-62300000D03*
X131750000Y-105750000D03*
X117900000Y-101600000D03*
X134200000Y-56200000D03*
X137200000Y-78050000D03*
X116400000Y-99350000D03*
X119750000Y-101700000D03*
X153877500Y-52281250D03*
X119600000Y-82600000D03*
X146877500Y-54581250D03*
X123800000Y-96300000D03*
X116900000Y-49600000D03*
X155877500Y-58581250D03*
X136432449Y-71449971D03*
X155877500Y-54581250D03*
X146877500Y-58081250D03*
X154200000Y-107700000D03*
X122900000Y-91000000D03*
%TO.N,/Barometer/Baraometer-MOSI*%
X139350002Y-67551846D03*
X131600000Y-67600000D03*
%TO.N,/Barometer/Baraometer-ChipSelect*%
X132900000Y-73000000D03*
X141100000Y-69000000D03*
%TO.N,Net-(J2-CC1)*%
X120800000Y-85100000D03*
X120800000Y-87500000D03*
%TO.N,/FlashSD/SDMISO*%
X124362185Y-72574731D03*
X147150000Y-65645789D03*
%TO.N,/FlashSD/SDMOSI*%
X123250000Y-76145000D03*
X145810510Y-64980183D03*
%TO.N,/MCU/PWMServo_CAS*%
X152000000Y-71900000D03*
%TO.N,/MCU/BOOT0*%
X154228156Y-65618696D03*
X119850000Y-62950000D03*
%TO.N,/MCU/NRST*%
X150539880Y-64897794D03*
X128950000Y-53600000D03*
%TO.N,/MCU/RGB_DATA*%
X119050000Y-44850000D03*
X143550000Y-61400000D03*
%TO.N,/IMU/IMU_CS*%
X131350000Y-65150000D03*
X145832952Y-65829889D03*
%TO.N,/MCU/PWMServo_Roll*%
X152336414Y-71232826D03*
%TO.N,/FlashSD/SDCLK*%
X145557549Y-70160896D03*
X131350000Y-74750000D03*
%TO.N,/CAN Transciever/CAN_TX_2*%
X147050000Y-70772295D03*
X150500000Y-47100000D03*
%TO.N,/CAN Transciever/CAN_RX_2*%
X147804635Y-71163487D03*
X155600000Y-47100000D03*
%TO.N,/RESET1*%
X143557661Y-77170914D03*
%TO.N,/MCU/SWDIO*%
X151406146Y-63675570D03*
X130400000Y-40250000D03*
%TO.N,/MCU/SWCLK*%
X130100000Y-42000000D03*
X152100000Y-64200000D03*
%TO.N,/GPS1_RX*%
X153100000Y-68550000D03*
%TO.N,/GPS1_TX*%
X154250000Y-68850000D03*
%TO.N,/MCU/Encoder-A*%
X148900000Y-75450000D03*
%TO.N,/MCU/Encoder-B*%
X148200000Y-75950000D03*
%TD*%
%TO.N,/GPS1_RX*%
D25*
X133450000Y-124700000D02*
X135400000Y-126650000D01*
X133450000Y-88300000D02*
X133450000Y-124700000D01*
X153100000Y-68650000D02*
X133450000Y-88300000D01*
X153100000Y-68550000D02*
X153100000Y-68650000D01*
%TO.N,/IMU/IMU_CS*%
X145832952Y-65829889D02*
X132029889Y-65829889D01*
X132029889Y-65829889D02*
X131350000Y-65150000D01*
%TO.N,/Barometer/Baraometer-SCK*%
X145702343Y-66700000D02*
X131700000Y-66700000D01*
X145716876Y-66685467D02*
X145702343Y-66700000D01*
%TO.N,/FlashSD/SDCLK*%
X136400000Y-68400000D02*
X131350000Y-73450000D01*
X143796653Y-68400000D02*
X136400000Y-68400000D01*
X131350000Y-73450000D02*
X131350000Y-74750000D01*
X145557549Y-70160896D02*
X143796653Y-68400000D01*
%TO.N,/MCU/NRST*%
X131701000Y-54901000D02*
X130522000Y-53722000D01*
X143800000Y-58900000D02*
X143800000Y-57850000D01*
X149797794Y-64897794D02*
X143800000Y-58900000D01*
X140851000Y-54901000D02*
X131701000Y-54901000D01*
X150539880Y-64897794D02*
X149797794Y-64897794D01*
X143800000Y-57850000D02*
X140851000Y-54901000D01*
%TO.N,/MCU/SWCLK*%
X130400000Y-52300000D02*
X130400000Y-42300000D01*
X144600000Y-58600000D02*
X144600000Y-57502548D01*
X144600000Y-57502548D02*
X141047452Y-53950000D01*
X132050000Y-53950000D02*
X130400000Y-52300000D01*
X150200000Y-64200000D02*
X144600000Y-58600000D01*
X152100000Y-64200000D02*
X150200000Y-64200000D01*
X141047452Y-53950000D02*
X132050000Y-53950000D01*
X130400000Y-42300000D02*
X130100000Y-42000000D01*
%TO.N,/MCU/SWDIO*%
X131450000Y-52275000D02*
X131450000Y-41300000D01*
X141450000Y-52950000D02*
X132125000Y-52950000D01*
X132125000Y-52950000D02*
X131450000Y-52275000D01*
X145350000Y-56850000D02*
X141450000Y-52950000D01*
X131450000Y-41300000D02*
X130400000Y-40250000D01*
X145350000Y-58250000D02*
X145350000Y-56850000D01*
X150775570Y-63675570D02*
X145350000Y-58250000D01*
X151406146Y-63675570D02*
X150775570Y-63675570D01*
%TO.N,/MCU/NRST*%
X129450000Y-52650000D02*
X129450000Y-37085000D01*
X129450000Y-37085000D02*
X128165000Y-35800000D01*
X130522000Y-53722000D02*
X129450000Y-52650000D01*
X130522000Y-53722000D02*
X130400000Y-53600000D01*
X130400000Y-53600000D02*
X128950000Y-53600000D01*
%TO.N,/Barometer/Baraometer-SCK*%
X136600000Y-72950000D02*
X138450000Y-71100000D01*
X145785467Y-66685467D02*
X145716876Y-66685467D01*
X146900000Y-69770561D02*
X146900000Y-67800000D01*
X138450000Y-71100000D02*
X145570561Y-71100000D01*
X145570561Y-71100000D02*
X146900000Y-69770561D01*
X146900000Y-67800000D02*
X145785467Y-66685467D01*
%TO.N,/Barometer/Baraometer-MOSI*%
X131648154Y-67551846D02*
X139350002Y-67551846D01*
X131600000Y-67600000D02*
X131648154Y-67551846D01*
%TO.N,/Barometer/Baraometer-ChipSelect*%
X132900000Y-73000000D02*
X133800000Y-73000000D01*
X137800000Y-69000000D02*
X141100000Y-69000000D01*
X133800000Y-73000000D02*
X137800000Y-69000000D01*
%TO.N,Net-(J2-CC1)*%
X120800000Y-87500000D02*
X120800000Y-85100000D01*
%TO.N,/FlashSD/SDMISO*%
X124362185Y-68637815D02*
X129300000Y-63700000D01*
X129300000Y-63700000D02*
X145400000Y-63700000D01*
X145400000Y-63700000D02*
X147150000Y-65450000D01*
X147150000Y-65450000D02*
X147150000Y-65645789D01*
X124362185Y-72574731D02*
X124362185Y-68637815D01*
%TO.N,/FlashSD/SDMOSI*%
X125000000Y-74395000D02*
X123250000Y-76145000D01*
X125000000Y-68700000D02*
X125000000Y-74395000D01*
X129377680Y-64322320D02*
X125000000Y-68700000D01*
X145810510Y-64980183D02*
X145152647Y-64322320D01*
X145152647Y-64322320D02*
X129377680Y-64322320D01*
%TO.N,/MCU/PWMServo_CAS*%
X149650000Y-74250000D02*
X149650000Y-88400000D01*
X153450000Y-92200000D02*
X157100000Y-92200000D01*
X152000000Y-71900000D02*
X149650000Y-74250000D01*
X149650000Y-88400000D02*
X153450000Y-92200000D01*
%TO.N,/MCU/BOOT0*%
X120700000Y-79350000D02*
X140537361Y-79350000D01*
X119150000Y-63650000D02*
X119150000Y-77800000D01*
X119850000Y-62950000D02*
X119150000Y-63650000D01*
X140537361Y-79350000D02*
X154228156Y-65659205D01*
X154228156Y-65659205D02*
X154228156Y-65618696D01*
X119150000Y-77800000D02*
X120700000Y-79350000D01*
%TO.N,/MCU/RGB_DATA*%
X131649000Y-60699000D02*
X142849000Y-60699000D01*
X119050000Y-48100000D02*
X131649000Y-60699000D01*
X142849000Y-60699000D02*
X143550000Y-61400000D01*
X119050000Y-44850000D02*
X119050000Y-48100000D01*
%TO.N,/MCU/PWMServo_Roll*%
X153925000Y-82575000D02*
X154950000Y-83600000D01*
X153100000Y-71996412D02*
X153100000Y-81750000D01*
X152336414Y-71232826D02*
X153100000Y-71996412D01*
X153100000Y-81750000D02*
X153925000Y-82575000D01*
X154950000Y-83600000D02*
X157100000Y-83600000D01*
%TO.N,/CAN Transciever/CAN_TX_2*%
X147406914Y-70415381D02*
X147050000Y-70772295D01*
X156477500Y-51838414D02*
X156477500Y-61822500D01*
X156477500Y-61822500D02*
X147884619Y-70415381D01*
X151739086Y-47100000D02*
X156477500Y-51838414D01*
X150500000Y-47100000D02*
X151739086Y-47100000D01*
X147884619Y-70415381D02*
X147406914Y-70415381D01*
%TO.N,/CAN Transciever/CAN_RX_2*%
X156878500Y-62021500D02*
X147804635Y-71095365D01*
X155600000Y-47100000D02*
X156878500Y-48378500D01*
X156878500Y-48378500D02*
X156878500Y-62021500D01*
X147804635Y-71095365D02*
X147804635Y-71163487D01*
%TO.N,/RESET1*%
X132900000Y-87828575D02*
X143557661Y-77170914D01*
X132900000Y-126650000D02*
X132900000Y-87828575D01*
%TO.N,/GPS1_TX*%
X137900000Y-84850000D02*
X153900000Y-68850000D01*
X137900000Y-126650000D02*
X137900000Y-84850000D01*
X153900000Y-68850000D02*
X154250000Y-68850000D01*
%TO.N,/MCU/Encoder-A*%
X148114608Y-75300000D02*
X148750000Y-75300000D01*
X148750000Y-75300000D02*
X148900000Y-75450000D01*
X138800000Y-117650000D02*
X138800000Y-84614608D01*
X138800000Y-84614608D02*
X148114608Y-75300000D01*
%TO.N,/MCU/Encoder-B*%
X140800000Y-83350000D02*
X140800000Y-117650000D01*
X148200000Y-75950000D02*
X140800000Y-83350000D01*
%TD*%
%TA.AperFunction,Conductor*%
%TO.N,GND*%
G36*
X134706080Y-118013062D02*
G01*
X134750630Y-118025000D01*
X134849368Y-118025000D01*
X134849370Y-118025000D01*
X134893907Y-118013066D01*
X134963754Y-118014727D01*
X135021618Y-118053889D01*
X135049123Y-118118117D01*
X135050000Y-118132840D01*
X135050000Y-118999115D01*
X135057584Y-118997914D01*
X135222255Y-118944408D01*
X135376524Y-118865804D01*
X135455170Y-118808664D01*
X135516596Y-118764037D01*
X135516598Y-118764034D01*
X135516602Y-118764032D01*
X135639036Y-118641598D01*
X135688893Y-118572973D01*
X135713480Y-118547672D01*
X135724478Y-118539190D01*
X135789580Y-118513840D01*
X135858058Y-118527709D01*
X135864245Y-118530974D01*
X135906698Y-118567759D01*
X135920587Y-118586874D01*
X135960586Y-118641928D01*
X136083072Y-118764414D01*
X136223212Y-118866232D01*
X136377555Y-118944873D01*
X136542299Y-118998402D01*
X136713389Y-119025500D01*
X136713390Y-119025500D01*
X136886610Y-119025500D01*
X136886611Y-119025500D01*
X137057701Y-118998402D01*
X137120229Y-118978084D01*
X137155006Y-118972066D01*
X137168877Y-118971670D01*
X137236451Y-118989433D01*
X137283688Y-119040897D01*
X137286772Y-119047168D01*
X137299500Y-119101890D01*
X137299500Y-125221451D01*
X137294476Y-125256390D01*
X137289666Y-125272769D01*
X137253882Y-125329781D01*
X137244014Y-125338709D01*
X137217117Y-125357243D01*
X137192185Y-125369946D01*
X137192186Y-125369946D01*
X137192184Y-125369948D01*
X137020213Y-125494890D01*
X136869893Y-125645209D01*
X136869875Y-125645233D01*
X136760794Y-125795371D01*
X136736200Y-125820679D01*
X136725212Y-125829152D01*
X136660106Y-125854504D01*
X136591627Y-125840631D01*
X136591620Y-125840628D01*
X136585440Y-125837367D01*
X136542991Y-125800583D01*
X136447758Y-125669506D01*
X136430109Y-125645214D01*
X136430105Y-125645209D01*
X136279786Y-125494890D01*
X136107820Y-125369951D01*
X136046504Y-125338709D01*
X135940245Y-125284567D01*
X135940240Y-125284565D01*
X135918414Y-125273444D01*
X135918413Y-125273443D01*
X135918412Y-125273443D01*
X135785014Y-125230099D01*
X135725074Y-125210623D01*
X135720552Y-125208770D01*
X135711362Y-125206600D01*
X135706599Y-125206226D01*
X135653198Y-125197768D01*
X135554957Y-125182208D01*
X135535489Y-125179124D01*
X135506290Y-125174500D01*
X135506287Y-125174500D01*
X135293713Y-125174500D01*
X135293709Y-125174500D01*
X135245646Y-125182112D01*
X135245607Y-125182118D01*
X135245042Y-125182208D01*
X135083760Y-125207753D01*
X135083757Y-125207754D01*
X135074524Y-125210753D01*
X135074517Y-125210755D01*
X134964083Y-125246638D01*
X134929309Y-125252656D01*
X134912243Y-125253143D01*
X134846960Y-125236727D01*
X134835417Y-125230099D01*
X134809482Y-125210247D01*
X134099426Y-124500191D01*
X134078274Y-124471935D01*
X134065667Y-124448846D01*
X134050500Y-124389421D01*
X134050500Y-118997847D01*
X134055522Y-118962914D01*
X134059433Y-118949595D01*
X134097206Y-118890818D01*
X134160758Y-118861793D01*
X134164070Y-118861317D01*
X134219200Y-118865857D01*
X134221091Y-118866457D01*
X134239887Y-118874166D01*
X134377742Y-118944408D01*
X134449446Y-118967706D01*
X134478922Y-118987861D01*
X134549999Y-118999115D01*
X134550000Y-118999114D01*
X134550000Y-118132840D01*
X134569685Y-118065801D01*
X134622489Y-118020046D01*
X134691647Y-118010102D01*
X134706080Y-118013062D01*
G37*
%TD.AperFunction*%
%TA.AperFunction,Conductor*%
G36*
X137247126Y-85507013D02*
G01*
X137288999Y-85562945D01*
X137289001Y-85562949D01*
X137291682Y-85570137D01*
X137299500Y-85613471D01*
X137299500Y-116191662D01*
X137294475Y-116226603D01*
X137290564Y-116239920D01*
X137252787Y-116298696D01*
X137189229Y-116327718D01*
X137189227Y-116327718D01*
X137182310Y-116328712D01*
X137126354Y-116323904D01*
X137057702Y-116301597D01*
X137057698Y-116301596D01*
X136899434Y-116276531D01*
X136899433Y-116276530D01*
X136886611Y-116274500D01*
X136713389Y-116274500D01*
X136700565Y-116276531D01*
X136542306Y-116301595D01*
X136542305Y-116301596D01*
X136517133Y-116309775D01*
X136398339Y-116348374D01*
X136377549Y-116355129D01*
X136223218Y-116433764D01*
X136223205Y-116433772D01*
X136148387Y-116488131D01*
X136094942Y-116526961D01*
X136087563Y-116531093D01*
X135960584Y-116658072D01*
X135910485Y-116727027D01*
X135885890Y-116752335D01*
X135874901Y-116760809D01*
X135809792Y-116786159D01*
X135741314Y-116772284D01*
X135741311Y-116772283D01*
X135735128Y-116769020D01*
X135692680Y-116732238D01*
X135639036Y-116658401D01*
X135516602Y-116535967D01*
X135516596Y-116535961D01*
X135376527Y-116434197D01*
X135376526Y-116434196D01*
X135376524Y-116434195D01*
X135222257Y-116355591D01*
X135220832Y-116355128D01*
X135057605Y-116302092D01*
X135057599Y-116302090D01*
X135057589Y-116302087D01*
X135057581Y-116302085D01*
X135050000Y-116300884D01*
X135050000Y-117167159D01*
X135030315Y-117234198D01*
X134977511Y-117279953D01*
X134908353Y-117289897D01*
X134893909Y-117286934D01*
X134849370Y-117275000D01*
X134849369Y-117275000D01*
X134750630Y-117275000D01*
X134706092Y-117286933D01*
X134636244Y-117285271D01*
X134578381Y-117246108D01*
X134550877Y-117181880D01*
X134550000Y-117167159D01*
X134550000Y-116300884D01*
X134549999Y-116300884D01*
X134549998Y-116300884D01*
X134542429Y-116302083D01*
X134542422Y-116302084D01*
X134542418Y-116302085D01*
X134542410Y-116302087D01*
X134542406Y-116302088D01*
X134542393Y-116302092D01*
X134377743Y-116355590D01*
X134377735Y-116355593D01*
X134246683Y-116422370D01*
X134213274Y-116433755D01*
X134199632Y-116436317D01*
X134130111Y-116429345D01*
X134075396Y-116385893D01*
X134075395Y-116385891D01*
X134073472Y-116383163D01*
X134052487Y-116331973D01*
X134052165Y-116330028D01*
X134050500Y-116309775D01*
X134050500Y-88617926D01*
X134055522Y-88582993D01*
X134062934Y-88557748D01*
X134094228Y-88505006D01*
X137075214Y-85524020D01*
X137103457Y-85502876D01*
X137113391Y-85497452D01*
X137181661Y-85482599D01*
X137247126Y-85507013D01*
G37*
%TD.AperFunction*%
%TA.AperFunction,Conductor*%
G36*
X149020539Y-58500935D02*
G01*
X149066294Y-58553739D01*
X149077500Y-58605250D01*
X149077500Y-60481250D01*
X155753000Y-60481250D01*
X155820039Y-60500935D01*
X155865794Y-60553739D01*
X155877000Y-60605250D01*
X155877000Y-61504573D01*
X155871976Y-61539510D01*
X155864564Y-61564751D01*
X155833269Y-61617495D01*
X153124788Y-64325976D01*
X153096538Y-64347125D01*
X153086611Y-64352546D01*
X153018338Y-64367400D01*
X152952873Y-64342986D01*
X152911000Y-64287054D01*
X152908313Y-64279848D01*
X152900500Y-64236528D01*
X152900500Y-64120971D01*
X152900064Y-64118966D01*
X152898301Y-64110106D01*
X152869737Y-63966503D01*
X152869735Y-63966498D01*
X152809397Y-63820827D01*
X152809390Y-63820814D01*
X152721789Y-63689711D01*
X152721786Y-63689707D01*
X152721781Y-63689701D01*
X152610297Y-63578217D01*
X152610291Y-63578212D01*
X152610290Y-63578211D01*
X152479191Y-63490613D01*
X152479190Y-63490612D01*
X152479185Y-63490609D01*
X152479172Y-63490602D01*
X152479165Y-63490598D01*
X152333523Y-63430272D01*
X152333509Y-63430267D01*
X152333501Y-63430264D01*
X152333491Y-63430261D01*
X152333486Y-63430260D01*
X152333483Y-63430259D01*
X152238891Y-63411443D01*
X152205605Y-63399700D01*
X152187013Y-63389974D01*
X152142009Y-63349910D01*
X152138227Y-63344358D01*
X152126149Y-63322002D01*
X152117224Y-63300456D01*
X152116243Y-63297828D01*
X152115541Y-63296394D01*
X152115540Y-63296391D01*
X152115538Y-63296388D01*
X152115536Y-63296384D01*
X152027935Y-63165280D01*
X152027932Y-63165276D01*
X151916443Y-63053787D01*
X151916437Y-63053782D01*
X151916436Y-63053781D01*
X151785337Y-62966183D01*
X151785336Y-62966182D01*
X151785331Y-62966179D01*
X151785318Y-62966172D01*
X151785311Y-62966168D01*
X151639648Y-62905834D01*
X151639617Y-62905827D01*
X151484993Y-62875070D01*
X151484991Y-62875070D01*
X151484988Y-62875070D01*
X151327304Y-62875070D01*
X151327301Y-62875070D01*
X151327299Y-62875070D01*
X151172673Y-62905827D01*
X151172644Y-62905834D01*
X151172640Y-62905835D01*
X151041100Y-62960320D01*
X151006907Y-62969048D01*
X150991369Y-62970719D01*
X150922609Y-62958316D01*
X150922608Y-62958315D01*
X150910431Y-62952220D01*
X150878252Y-62929016D01*
X146642167Y-58692931D01*
X146608682Y-58631608D01*
X146613666Y-58561916D01*
X146655538Y-58505983D01*
X146721002Y-58481566D01*
X146729848Y-58481250D01*
X148953500Y-58481250D01*
X149020539Y-58500935D01*
G37*
%TD.AperFunction*%
%TA.AperFunction,Conductor*%
G36*
X154219090Y-30505521D02*
G01*
X154225053Y-30507271D01*
X154229701Y-30508636D01*
X154288481Y-30546407D01*
X154317510Y-30609961D01*
X154307570Y-30679120D01*
X154272151Y-30724510D01*
X154269341Y-30726754D01*
X154252039Y-30733830D01*
X154253620Y-30736762D01*
X154095478Y-30822025D01*
X154095284Y-30822136D01*
X154095263Y-30822149D01*
X153792959Y-31024143D01*
X153792940Y-31024157D01*
X153792937Y-31024159D01*
X153511887Y-31254811D01*
X153254811Y-31511887D01*
X153024159Y-31792937D01*
X153024157Y-31792940D01*
X153024143Y-31792959D01*
X152822149Y-32095263D01*
X152822146Y-32095269D01*
X152822135Y-32095288D01*
X152650759Y-32415910D01*
X152650704Y-32416028D01*
X152650472Y-32416598D01*
X152511615Y-32751828D01*
X152406063Y-33099789D01*
X152335135Y-33456379D01*
X152335135Y-33456381D01*
X152325734Y-33551839D01*
X152299500Y-33818209D01*
X152299500Y-34181790D01*
X152312106Y-34309788D01*
X152335135Y-34543617D01*
X152335135Y-34543619D01*
X152335136Y-34543628D01*
X152335137Y-34543630D01*
X152352027Y-34628543D01*
X152406061Y-34900200D01*
X152406064Y-34900212D01*
X152406067Y-34900223D01*
X152511614Y-35248165D01*
X152561085Y-35367598D01*
X152650472Y-35583399D01*
X152650707Y-35583978D01*
X152650752Y-35584073D01*
X152650754Y-35584078D01*
X152650756Y-35584083D01*
X152822140Y-35904720D01*
X152822151Y-35904738D01*
X153024140Y-36207035D01*
X153024146Y-36207044D01*
X153024157Y-36207058D01*
X153024159Y-36207061D01*
X153254811Y-36488111D01*
X153511886Y-36745186D01*
X153511963Y-36745255D01*
X153512496Y-36745687D01*
X153792956Y-36975854D01*
X153947157Y-37078888D01*
X154095269Y-37177854D01*
X154095942Y-37178227D01*
X154096742Y-37178641D01*
X154261704Y-37266815D01*
X154410615Y-37346410D01*
X154410617Y-37346411D01*
X154414688Y-37348587D01*
X154414789Y-37348641D01*
X154414843Y-37348670D01*
X154419387Y-37351099D01*
X154424364Y-37352743D01*
X154751836Y-37488386D01*
X155099767Y-37593930D01*
X155099773Y-37593931D01*
X155099776Y-37593932D01*
X155099787Y-37593935D01*
X155099812Y-37593939D01*
X155100350Y-37594067D01*
X155101622Y-37594300D01*
X155456369Y-37664862D01*
X155818206Y-37700500D01*
X155818209Y-37700500D01*
X156181791Y-37700500D01*
X156181794Y-37700500D01*
X156358205Y-37683124D01*
X156543624Y-37664863D01*
X156543627Y-37664862D01*
X156543631Y-37664862D01*
X156613045Y-37651054D01*
X156613046Y-37651054D01*
X156894360Y-37595099D01*
X156894360Y-37595098D01*
X156900212Y-37593935D01*
X156900218Y-37593933D01*
X156900501Y-37593877D01*
X156901926Y-37593467D01*
X156930505Y-37585672D01*
X156932231Y-37584406D01*
X156938438Y-37582340D01*
X157248164Y-37488386D01*
X157584076Y-37349247D01*
X157904732Y-37177853D01*
X158207044Y-36975854D01*
X158488101Y-36745197D01*
X158745197Y-36488101D01*
X158975854Y-36207044D01*
X159177853Y-35904732D01*
X159257740Y-35755273D01*
X159285673Y-35726837D01*
X159303648Y-35704318D01*
X159318290Y-35699368D01*
X159318525Y-35699247D01*
X159318543Y-35699282D01*
X159369838Y-35681943D01*
X159437617Y-35698905D01*
X159485467Y-35749819D01*
X159496769Y-35783254D01*
X159497425Y-35786795D01*
X159499500Y-35809383D01*
X159499500Y-63195614D01*
X159494475Y-63230555D01*
X159490564Y-63243872D01*
X159452787Y-63302648D01*
X159389229Y-63331670D01*
X159383287Y-63332524D01*
X159333052Y-63329424D01*
X159313384Y-63324065D01*
X159310727Y-63324659D01*
X159294703Y-63322545D01*
X159178848Y-63299500D01*
X159178845Y-63299500D01*
X159178842Y-63299500D01*
X159021158Y-63299500D01*
X159021155Y-63299500D01*
X159021153Y-63299500D01*
X158866527Y-63330257D01*
X158866496Y-63330264D01*
X158720833Y-63390598D01*
X158720824Y-63390603D01*
X158720807Y-63390613D01*
X158589708Y-63478211D01*
X158589707Y-63478212D01*
X158589701Y-63478217D01*
X158478217Y-63589701D01*
X158478212Y-63589707D01*
X158478211Y-63589708D01*
X158390613Y-63720807D01*
X158390603Y-63720824D01*
X158390598Y-63720833D01*
X158330264Y-63866496D01*
X158330257Y-63866527D01*
X158299500Y-64021150D01*
X158299500Y-64021153D01*
X158299500Y-64178846D01*
X158299500Y-64178848D01*
X158299499Y-64178848D01*
X158330257Y-64333471D01*
X158330264Y-64333502D01*
X158390598Y-64479165D01*
X158390603Y-64479174D01*
X158390613Y-64479191D01*
X158478211Y-64610290D01*
X158478212Y-64610291D01*
X158478217Y-64610297D01*
X158589701Y-64721781D01*
X158589707Y-64721786D01*
X158589711Y-64721789D01*
X158720814Y-64809390D01*
X158720827Y-64809397D01*
X158866498Y-64869735D01*
X158866503Y-64869737D01*
X158996982Y-64895691D01*
X159013530Y-64898982D01*
X159016248Y-64899703D01*
X159021155Y-64900500D01*
X159178844Y-64900500D01*
X159182965Y-64900500D01*
X159190820Y-64898116D01*
X159309207Y-64874568D01*
X159319971Y-64872915D01*
X159340157Y-64870718D01*
X159340158Y-64870720D01*
X159359426Y-64868623D01*
X159428197Y-64880942D01*
X159479394Y-64928487D01*
X159482061Y-64932969D01*
X159499500Y-64996378D01*
X159499500Y-124184161D01*
X159488260Y-124222437D01*
X159483009Y-124250791D01*
X159472416Y-124262062D01*
X159472298Y-124262235D01*
X159472271Y-124262216D01*
X159435162Y-124301706D01*
X159367383Y-124318671D01*
X159301192Y-124296299D01*
X159275472Y-124272129D01*
X159273225Y-124269314D01*
X159260779Y-124250411D01*
X159257738Y-124244722D01*
X159178626Y-124096714D01*
X159178222Y-124095932D01*
X159177854Y-124095269D01*
X159010373Y-123844617D01*
X158975854Y-123792956D01*
X158745687Y-123512496D01*
X158745687Y-123512495D01*
X158745187Y-123511887D01*
X158488111Y-123254811D01*
X158433244Y-123209783D01*
X158208354Y-123025221D01*
X158207356Y-123024379D01*
X158207065Y-123024161D01*
X158207051Y-123024151D01*
X158207039Y-123024143D01*
X157957935Y-122857696D01*
X157904746Y-122822156D01*
X157904738Y-122822151D01*
X157904732Y-122822147D01*
X157904727Y-122822144D01*
X157904720Y-122822140D01*
X157904711Y-122822135D01*
X157904704Y-122822131D01*
X157719504Y-122723140D01*
X157584083Y-122650756D01*
X157584078Y-122650754D01*
X157584073Y-122650752D01*
X157583978Y-122650707D01*
X157583399Y-122650472D01*
X157248166Y-122511614D01*
X157056323Y-122453419D01*
X156900223Y-122406067D01*
X156900212Y-122406064D01*
X156900209Y-122406063D01*
X156656993Y-122357685D01*
X156543630Y-122335137D01*
X156543628Y-122335136D01*
X156543619Y-122335135D01*
X156271111Y-122308296D01*
X156271111Y-122308295D01*
X156196489Y-122300947D01*
X156181794Y-122299500D01*
X156181792Y-122299500D01*
X155818208Y-122299500D01*
X155818206Y-122299500D01*
X155805659Y-122300735D01*
X155735678Y-122307627D01*
X155735679Y-122307628D01*
X155456379Y-122335135D01*
X155099789Y-122406063D01*
X154751828Y-122511615D01*
X154416598Y-122650472D01*
X154416028Y-122650704D01*
X154415910Y-122650759D01*
X154095288Y-122822135D01*
X154095269Y-122822146D01*
X154095263Y-122822149D01*
X153792959Y-123024143D01*
X153792949Y-123024151D01*
X153792937Y-123024159D01*
X153511887Y-123254811D01*
X153254811Y-123511887D01*
X153024159Y-123792937D01*
X153024151Y-123792947D01*
X153024150Y-123792950D01*
X153024140Y-123792964D01*
X152903393Y-123973674D01*
X152822149Y-124095263D01*
X152822146Y-124095269D01*
X152822135Y-124095288D01*
X152650759Y-124415910D01*
X152650704Y-124416028D01*
X152650472Y-124416598D01*
X152511615Y-124751828D01*
X152406063Y-125099789D01*
X152335135Y-125456379D01*
X152335135Y-125456381D01*
X152308954Y-125722210D01*
X152299500Y-125818209D01*
X152299500Y-126181790D01*
X152305810Y-126245854D01*
X152335135Y-126543617D01*
X152335135Y-126543619D01*
X152406061Y-126900200D01*
X152406064Y-126900212D01*
X152406067Y-126900223D01*
X152511614Y-127248165D01*
X152530356Y-127293412D01*
X152650472Y-127583399D01*
X152650707Y-127583978D01*
X152650752Y-127584073D01*
X152650754Y-127584078D01*
X152650756Y-127584083D01*
X152712767Y-127700097D01*
X152789500Y-127843656D01*
X152822140Y-127904720D01*
X152822144Y-127904727D01*
X152822147Y-127904732D01*
X152822151Y-127904738D01*
X152822156Y-127904746D01*
X152993764Y-128161575D01*
X153024138Y-128207032D01*
X153024151Y-128207051D01*
X153024159Y-128207061D01*
X153254811Y-128488111D01*
X153511886Y-128745186D01*
X153511963Y-128745255D01*
X153512496Y-128745687D01*
X153792956Y-128975854D01*
X153947157Y-129078888D01*
X154095269Y-129177854D01*
X154095942Y-129178227D01*
X154096742Y-129178641D01*
X154244722Y-129257738D01*
X154273157Y-129278629D01*
X154281051Y-129286384D01*
X154315082Y-129347402D01*
X154310722Y-129417136D01*
X154269353Y-129473442D01*
X154216751Y-129496768D01*
X154213211Y-129497424D01*
X154190617Y-129499500D01*
X115815838Y-129499500D01*
X115777574Y-129488264D01*
X115749227Y-129483019D01*
X115737961Y-129472435D01*
X115737774Y-129472307D01*
X115737793Y-129472278D01*
X115698303Y-129435180D01*
X115681326Y-129367404D01*
X115703687Y-129301210D01*
X115727848Y-129275489D01*
X115730671Y-129273235D01*
X115749572Y-129260787D01*
X115838608Y-129213197D01*
X115904732Y-129177853D01*
X116207044Y-128975854D01*
X116488101Y-128745197D01*
X116745197Y-128488101D01*
X116975854Y-128207044D01*
X117177853Y-127904732D01*
X117349247Y-127584076D01*
X117488386Y-127248164D01*
X117593930Y-126900233D01*
X117593932Y-126900223D01*
X117593935Y-126900212D01*
X117664862Y-126543630D01*
X117683111Y-126358343D01*
X117700500Y-126181794D01*
X117700500Y-125818206D01*
X117664862Y-125456369D01*
X117647672Y-125369947D01*
X117593935Y-125099787D01*
X117593932Y-125099776D01*
X117593931Y-125099773D01*
X117593930Y-125099767D01*
X117488386Y-124751836D01*
X117349247Y-124415924D01*
X117302577Y-124328611D01*
X117178641Y-124096742D01*
X117178227Y-124095942D01*
X117177854Y-124095269D01*
X117010373Y-123844617D01*
X116975854Y-123792956D01*
X116745687Y-123512496D01*
X116745687Y-123512495D01*
X116745187Y-123511887D01*
X116488111Y-123254811D01*
X116433244Y-123209783D01*
X116208354Y-123025221D01*
X116207356Y-123024379D01*
X116207068Y-123024163D01*
X116207049Y-123024150D01*
X116207048Y-123024149D01*
X116207044Y-123024146D01*
X116148060Y-122984734D01*
X115956124Y-122856486D01*
X115952840Y-122854291D01*
X115952839Y-122854290D01*
X115938291Y-122844570D01*
X115904748Y-122822157D01*
X115904727Y-122822144D01*
X115904719Y-122822139D01*
X115904698Y-122822127D01*
X115779592Y-122755257D01*
X119849500Y-122755257D01*
X119849500Y-122984746D01*
X119854688Y-123024140D01*
X119854689Y-123024150D01*
X119879452Y-123212238D01*
X119938842Y-123433886D01*
X119938845Y-123433896D01*
X120026652Y-123645880D01*
X120026665Y-123645905D01*
X120111564Y-123792955D01*
X120111565Y-123792956D01*
X120111570Y-123792964D01*
X120141397Y-123844626D01*
X120281079Y-124026659D01*
X120281081Y-124026661D01*
X120281089Y-124026670D01*
X120438478Y-124184059D01*
X120443325Y-124188906D01*
X120443332Y-124188913D01*
X120443338Y-124188918D01*
X120625583Y-124328762D01*
X120627149Y-124329628D01*
X120627338Y-124329737D01*
X120824112Y-124443344D01*
X120824117Y-124443346D01*
X120824123Y-124443349D01*
X120915480Y-124481190D01*
X120915481Y-124481191D01*
X120961352Y-124500191D01*
X121036113Y-124531158D01*
X121257762Y-124590548D01*
X121485266Y-124620500D01*
X121485273Y-124620500D01*
X121714727Y-124620500D01*
X121714734Y-124620500D01*
X121942238Y-124590548D01*
X122163887Y-124531158D01*
X122375888Y-124443344D01*
X122574612Y-124328611D01*
X122756661Y-124188919D01*
X122756665Y-124188914D01*
X122756670Y-124188911D01*
X122761522Y-124184059D01*
X122914070Y-124031512D01*
X122914840Y-124030822D01*
X122918422Y-124027167D01*
X122918895Y-124026689D01*
X122918905Y-124026675D01*
X122918911Y-124026670D01*
X122918914Y-124026665D01*
X122918919Y-124026661D01*
X122919028Y-124026518D01*
X122919322Y-124026143D01*
X122919322Y-124026142D01*
X122922716Y-124021795D01*
X122923216Y-124021061D01*
X123058607Y-123844617D01*
X123058606Y-123844617D01*
X123058611Y-123844612D01*
X123173344Y-123645888D01*
X123261158Y-123433887D01*
X123320548Y-123212238D01*
X123350500Y-122984734D01*
X123350500Y-122755266D01*
X123320548Y-122527762D01*
X123261158Y-122306113D01*
X123173344Y-122094112D01*
X123059691Y-121897259D01*
X123058764Y-121895587D01*
X123058598Y-121895371D01*
X122918918Y-121713338D01*
X122918911Y-121713330D01*
X122756670Y-121551089D01*
X122756661Y-121551081D01*
X122756659Y-121551079D01*
X122574627Y-121411399D01*
X122574621Y-121411395D01*
X122574617Y-121411392D01*
X122375890Y-121296657D01*
X122375887Y-121296655D01*
X122375881Y-121296652D01*
X122163896Y-121208845D01*
X122163889Y-121208843D01*
X122163887Y-121208842D01*
X121942238Y-121149452D01*
X121904215Y-121144446D01*
X121714742Y-121119500D01*
X121714741Y-121119500D01*
X121714734Y-121119500D01*
X121485266Y-121119500D01*
X121485258Y-121119500D01*
X121485250Y-121119500D01*
X121321755Y-121141025D01*
X121268715Y-121148009D01*
X121268709Y-121148009D01*
X121257764Y-121149451D01*
X121257760Y-121149452D01*
X121164076Y-121174553D01*
X121164076Y-121174554D01*
X121107651Y-121189672D01*
X121036107Y-121208843D01*
X120824117Y-121296652D01*
X120625388Y-121411388D01*
X120625371Y-121411399D01*
X120443342Y-121551077D01*
X120443332Y-121551086D01*
X120281086Y-121713332D01*
X120281077Y-121713342D01*
X120141399Y-121895371D01*
X120141388Y-121895388D01*
X120026652Y-122094117D01*
X119938845Y-122306102D01*
X119938842Y-122306112D01*
X119879453Y-122527759D01*
X119879452Y-122527763D01*
X119879450Y-122527773D01*
X119879448Y-122527789D01*
X119849500Y-122755257D01*
X115779592Y-122755257D01*
X115651032Y-122686541D01*
X115584083Y-122650756D01*
X115584078Y-122650754D01*
X115584073Y-122650752D01*
X115583978Y-122650707D01*
X115583399Y-122650472D01*
X115248166Y-122511614D01*
X115056323Y-122453419D01*
X114900223Y-122406067D01*
X114900212Y-122406064D01*
X114900209Y-122406063D01*
X114656993Y-122357685D01*
X114543630Y-122335137D01*
X114543628Y-122335136D01*
X114543619Y-122335135D01*
X114271111Y-122308296D01*
X114271111Y-122308295D01*
X114196489Y-122300947D01*
X114181794Y-122299500D01*
X114181792Y-122299500D01*
X113818208Y-122299500D01*
X113818206Y-122299500D01*
X113805659Y-122300735D01*
X113735678Y-122307627D01*
X113735679Y-122307628D01*
X113456379Y-122335135D01*
X113099789Y-122406063D01*
X112751828Y-122511615D01*
X112416598Y-122650472D01*
X112416028Y-122650704D01*
X112415910Y-122650759D01*
X112095288Y-122822135D01*
X112095269Y-122822146D01*
X112095263Y-122822149D01*
X111792959Y-123024143D01*
X111792949Y-123024151D01*
X111792937Y-123024159D01*
X111511887Y-123254811D01*
X111254811Y-123511887D01*
X111024159Y-123792937D01*
X111024151Y-123792947D01*
X111024150Y-123792950D01*
X111024140Y-123792964D01*
X110903393Y-123973674D01*
X110822149Y-124095263D01*
X110822146Y-124095269D01*
X110822140Y-124095279D01*
X110821791Y-124095932D01*
X110742261Y-124244722D01*
X110714311Y-124273174D01*
X110696323Y-124295699D01*
X110681682Y-124300643D01*
X110681475Y-124300751D01*
X110681458Y-124300719D01*
X110630127Y-124318056D01*
X110562352Y-124301076D01*
X110514517Y-124250149D01*
X110503224Y-124216713D01*
X110502567Y-124213165D01*
X110500500Y-124190615D01*
X110500500Y-114372133D01*
X119949500Y-114372133D01*
X119949500Y-116767876D01*
X119949659Y-116769806D01*
X119949885Y-116771454D01*
X119955907Y-116827482D01*
X119983690Y-116901971D01*
X120006202Y-116962328D01*
X120006203Y-116962330D01*
X120006204Y-116962332D01*
X120006205Y-116962333D01*
X120092450Y-117077542D01*
X120092456Y-117077548D01*
X120121419Y-117099229D01*
X120207664Y-117163793D01*
X120207671Y-117163797D01*
X120342517Y-117214091D01*
X120342516Y-117214091D01*
X120349444Y-117214835D01*
X120402127Y-117220500D01*
X122797872Y-117220499D01*
X122857483Y-117214091D01*
X122992331Y-117163796D01*
X123107546Y-117077546D01*
X123193796Y-116962331D01*
X123244091Y-116827483D01*
X123250500Y-116767873D01*
X123250499Y-114372128D01*
X123244091Y-114312517D01*
X123227711Y-114268601D01*
X123193797Y-114177671D01*
X123193793Y-114177664D01*
X123107547Y-114062455D01*
X123107544Y-114062452D01*
X123107542Y-114062450D01*
X123049616Y-114019086D01*
X122992335Y-113976206D01*
X122992332Y-113976204D01*
X122992330Y-113976203D01*
X122992328Y-113976202D01*
X122857482Y-113925908D01*
X122857483Y-113925908D01*
X122797883Y-113919501D01*
X122797881Y-113919500D01*
X122797873Y-113919500D01*
X122797864Y-113919500D01*
X122796841Y-113919500D01*
X120402123Y-113919500D01*
X120400192Y-113919659D01*
X120398545Y-113919885D01*
X120342516Y-113925908D01*
X120256967Y-113957816D01*
X120207666Y-113976204D01*
X120207665Y-113976205D01*
X120092456Y-114062450D01*
X120092450Y-114062456D01*
X120006205Y-114177665D01*
X120006203Y-114177668D01*
X119955907Y-114312517D01*
X119954037Y-114329923D01*
X119949500Y-114372133D01*
X110500500Y-114372133D01*
X110500500Y-109940142D01*
X119950000Y-109940142D01*
X119950000Y-110199856D01*
X119990629Y-110456378D01*
X120070880Y-110703370D01*
X120070882Y-110703373D01*
X120070883Y-110703377D01*
X120188795Y-110934789D01*
X120188798Y-110934794D01*
X120269945Y-111046486D01*
X120269951Y-111046492D01*
X120269952Y-111046493D01*
X120269953Y-111046493D01*
X120702681Y-110613763D01*
X120764004Y-110580278D01*
X120833695Y-110585262D01*
X120889629Y-110627133D01*
X120893464Y-110632553D01*
X120900923Y-110643716D01*
X120900926Y-110643720D01*
X121026279Y-110769073D01*
X121026283Y-110769076D01*
X121037444Y-110776534D01*
X121082249Y-110830147D01*
X121090956Y-110899472D01*
X121060801Y-110962499D01*
X121056234Y-110967317D01*
X120623505Y-111400044D01*
X120623504Y-111400046D01*
X120623506Y-111400048D01*
X120735208Y-111481203D01*
X120966622Y-111599116D01*
X121213622Y-111679370D01*
X121470143Y-111720000D01*
X121729856Y-111720000D01*
X121729857Y-111720000D01*
X121986377Y-111679370D01*
X122233377Y-111599116D01*
X122464788Y-111481205D01*
X122543897Y-111423727D01*
X122570635Y-111414187D01*
X122576493Y-111400045D01*
X122143764Y-110967317D01*
X122110279Y-110905994D01*
X122115263Y-110836303D01*
X122157134Y-110780369D01*
X122162537Y-110776545D01*
X122173717Y-110769076D01*
X122299076Y-110643717D01*
X122306533Y-110632555D01*
X122360143Y-110587750D01*
X122429468Y-110579041D01*
X122492496Y-110609194D01*
X122497317Y-110613764D01*
X122930045Y-111046493D01*
X122930045Y-111046492D01*
X122930046Y-111046493D01*
X122930046Y-111046492D01*
X122943514Y-111040913D01*
X122949731Y-111019743D01*
X122953729Y-111013896D01*
X123011202Y-110934792D01*
X123011201Y-110934792D01*
X123011205Y-110934788D01*
X123129116Y-110703377D01*
X123209370Y-110456377D01*
X123250000Y-110199857D01*
X123250000Y-109940142D01*
X123209370Y-109683622D01*
X123129116Y-109436622D01*
X123011203Y-109205208D01*
X122930048Y-109093506D01*
X122930046Y-109093505D01*
X122930045Y-109093504D01*
X122497316Y-109526233D01*
X122435993Y-109559718D01*
X122366301Y-109554734D01*
X122310368Y-109512862D01*
X122306532Y-109507442D01*
X122299074Y-109496280D01*
X122173720Y-109370926D01*
X122173716Y-109370923D01*
X122162553Y-109363464D01*
X122117748Y-109309851D01*
X122109041Y-109240526D01*
X122139196Y-109177499D01*
X122143730Y-109172715D01*
X122576493Y-108739952D01*
X122576492Y-108739951D01*
X122576486Y-108739945D01*
X122464794Y-108658798D01*
X122464793Y-108658797D01*
X122464791Y-108658796D01*
X122233377Y-108540883D01*
X122233373Y-108540882D01*
X122233370Y-108540880D01*
X121986378Y-108460629D01*
X121858117Y-108440314D01*
X121729857Y-108420000D01*
X121729856Y-108420000D01*
X121470144Y-108420000D01*
X121470143Y-108420000D01*
X121384636Y-108433543D01*
X121213620Y-108460629D01*
X120966624Y-108540881D01*
X120966621Y-108540882D01*
X120735218Y-108658790D01*
X120735215Y-108658791D01*
X120735215Y-108658792D01*
X120735207Y-108658798D01*
X120623506Y-108739952D01*
X121056235Y-109172681D01*
X121089720Y-109234004D01*
X121084736Y-109303696D01*
X121042864Y-109359629D01*
X121037451Y-109363460D01*
X121026285Y-109370921D01*
X121026279Y-109370926D01*
X120900926Y-109496279D01*
X120900921Y-109496285D01*
X120893460Y-109507451D01*
X120839845Y-109552253D01*
X120770519Y-109560956D01*
X120707494Y-109530797D01*
X120702681Y-109526235D01*
X120269952Y-109093506D01*
X120188797Y-109205209D01*
X120188790Y-109205218D01*
X120070882Y-109436621D01*
X120070881Y-109436624D01*
X119990629Y-109683620D01*
X119950000Y-109940142D01*
X110500500Y-109940142D01*
X110500500Y-105943847D01*
X124184500Y-105943847D01*
X124215258Y-106098470D01*
X124215265Y-106098501D01*
X124275599Y-106244164D01*
X124275604Y-106244173D01*
X124275614Y-106244190D01*
X124363212Y-106375289D01*
X124363213Y-106375290D01*
X124363218Y-106375296D01*
X124474702Y-106486780D01*
X124474708Y-106486785D01*
X124474712Y-106486788D01*
X124605815Y-106574389D01*
X124605828Y-106574396D01*
X124751499Y-106634734D01*
X124751504Y-106634736D01*
X124906154Y-106665498D01*
X124906157Y-106665499D01*
X124906159Y-106665499D01*
X125063845Y-106665499D01*
X125063846Y-106665498D01*
X125218498Y-106634736D01*
X125364180Y-106574393D01*
X125495290Y-106486788D01*
X125606790Y-106375288D01*
X125694395Y-106244178D01*
X125754738Y-106098496D01*
X125785501Y-105943841D01*
X125785501Y-105786157D01*
X125785501Y-105786154D01*
X125785501Y-105785972D01*
X125785066Y-105783971D01*
X125755398Y-105634823D01*
X125754995Y-105632466D01*
X125754739Y-105631507D01*
X125754738Y-105631505D01*
X125754738Y-105631502D01*
X125754736Y-105631497D01*
X125694398Y-105485826D01*
X125694391Y-105485813D01*
X125606790Y-105354710D01*
X125606787Y-105354706D01*
X125606782Y-105354700D01*
X125495298Y-105243216D01*
X125495292Y-105243211D01*
X125495291Y-105243210D01*
X125364192Y-105155612D01*
X125364191Y-105155611D01*
X125364186Y-105155608D01*
X125364173Y-105155601D01*
X125364166Y-105155597D01*
X125218503Y-105095263D01*
X125218472Y-105095256D01*
X125063848Y-105064499D01*
X125063846Y-105064499D01*
X125063843Y-105064499D01*
X124906159Y-105064499D01*
X124906156Y-105064499D01*
X124906154Y-105064499D01*
X124751528Y-105095256D01*
X124751497Y-105095263D01*
X124605834Y-105155597D01*
X124605825Y-105155602D01*
X124605808Y-105155612D01*
X124474709Y-105243210D01*
X124474708Y-105243211D01*
X124474702Y-105243216D01*
X124363218Y-105354700D01*
X124363213Y-105354706D01*
X124363212Y-105354707D01*
X124275614Y-105485806D01*
X124275604Y-105485823D01*
X124275599Y-105485832D01*
X124215265Y-105631495D01*
X124215258Y-105631526D01*
X124184501Y-105786149D01*
X124184501Y-105786152D01*
X124184501Y-105943845D01*
X124184501Y-105943847D01*
X124184500Y-105943847D01*
X110500500Y-105943847D01*
X110500500Y-104428848D01*
X130199499Y-104428848D01*
X130230257Y-104583471D01*
X130230264Y-104583502D01*
X130290598Y-104729165D01*
X130290603Y-104729174D01*
X130290613Y-104729191D01*
X130378211Y-104860290D01*
X130378212Y-104860291D01*
X130378217Y-104860297D01*
X130489701Y-104971781D01*
X130489707Y-104971786D01*
X130489711Y-104971789D01*
X130620814Y-105059390D01*
X130620827Y-105059397D01*
X130766498Y-105119735D01*
X130766503Y-105119737D01*
X130921153Y-105150499D01*
X130921156Y-105150500D01*
X130921158Y-105150500D01*
X131078844Y-105150500D01*
X131078845Y-105150499D01*
X131233497Y-105119737D01*
X131379179Y-105059394D01*
X131510289Y-104971789D01*
X131621789Y-104860289D01*
X131709394Y-104729179D01*
X131769737Y-104583497D01*
X131800500Y-104428842D01*
X131800500Y-104271158D01*
X131800500Y-104271155D01*
X131800500Y-104270971D01*
X131800064Y-104268966D01*
X131776998Y-104153007D01*
X131769737Y-104116503D01*
X131742198Y-104050018D01*
X131742194Y-104050009D01*
X131709399Y-103970833D01*
X131709397Y-103970827D01*
X131709390Y-103970814D01*
X131621789Y-103839711D01*
X131621786Y-103839707D01*
X131621781Y-103839701D01*
X131510297Y-103728217D01*
X131510291Y-103728212D01*
X131510290Y-103728211D01*
X131379191Y-103640613D01*
X131379190Y-103640612D01*
X131379185Y-103640609D01*
X131379172Y-103640602D01*
X131379165Y-103640598D01*
X131233502Y-103580264D01*
X131233471Y-103580257D01*
X131078847Y-103549500D01*
X131078845Y-103549500D01*
X131078842Y-103549500D01*
X130921158Y-103549500D01*
X130921155Y-103549500D01*
X130921153Y-103549500D01*
X130766527Y-103580257D01*
X130766496Y-103580264D01*
X130620833Y-103640598D01*
X130620824Y-103640603D01*
X130620807Y-103640613D01*
X130489708Y-103728211D01*
X130489707Y-103728212D01*
X130489701Y-103728217D01*
X130378217Y-103839701D01*
X130378212Y-103839707D01*
X130378211Y-103839708D01*
X130290613Y-103970807D01*
X130290603Y-103970824D01*
X130290598Y-103970833D01*
X130230264Y-104116496D01*
X130230257Y-104116527D01*
X130199500Y-104271150D01*
X130199500Y-104271152D01*
X130199500Y-104271153D01*
X130199500Y-104428846D01*
X130199500Y-104428848D01*
X130199499Y-104428848D01*
X110500500Y-104428848D01*
X110500500Y-95341348D01*
X130336999Y-95341348D01*
X130367757Y-95495971D01*
X130367764Y-95496002D01*
X130428098Y-95641665D01*
X130428103Y-95641674D01*
X130428113Y-95641691D01*
X130515711Y-95772790D01*
X130515712Y-95772791D01*
X130515717Y-95772797D01*
X130627201Y-95884281D01*
X130627207Y-95884286D01*
X130627211Y-95884289D01*
X130758314Y-95971890D01*
X130758327Y-95971897D01*
X130903998Y-96032235D01*
X130904003Y-96032237D01*
X131058653Y-96062999D01*
X131058656Y-96063000D01*
X131058658Y-96063000D01*
X131216344Y-96063000D01*
X131216345Y-96062999D01*
X131370997Y-96032237D01*
X131516679Y-95971894D01*
X131647789Y-95884289D01*
X131759289Y-95772789D01*
X131846894Y-95641679D01*
X131907237Y-95495997D01*
X131938000Y-95341342D01*
X131938000Y-95183658D01*
X131938000Y-95183655D01*
X131938000Y-95183473D01*
X131937565Y-95181472D01*
X131907895Y-95032315D01*
X131907483Y-95029903D01*
X131907237Y-95029004D01*
X131874513Y-94949999D01*
X131860196Y-94915434D01*
X131846897Y-94883327D01*
X131846890Y-94883314D01*
X131759289Y-94752211D01*
X131759286Y-94752207D01*
X131759281Y-94752201D01*
X131647797Y-94640717D01*
X131647791Y-94640712D01*
X131647790Y-94640711D01*
X131516691Y-94553113D01*
X131516690Y-94553112D01*
X131516685Y-94553109D01*
X131516672Y-94553102D01*
X131516665Y-94553098D01*
X131371002Y-94492764D01*
X131370971Y-94492757D01*
X131216347Y-94462000D01*
X131216345Y-94462000D01*
X131216342Y-94462000D01*
X131058658Y-94462000D01*
X131058655Y-94462000D01*
X131058653Y-94462000D01*
X130904027Y-94492757D01*
X130903996Y-94492764D01*
X130758333Y-94553098D01*
X130758324Y-94553103D01*
X130758307Y-94553113D01*
X130627208Y-94640711D01*
X130627207Y-94640712D01*
X130627201Y-94640717D01*
X130515717Y-94752201D01*
X130515712Y-94752207D01*
X130515711Y-94752208D01*
X130428113Y-94883307D01*
X130428103Y-94883324D01*
X130428098Y-94883333D01*
X130367764Y-95028996D01*
X130367757Y-95029027D01*
X130337000Y-95183650D01*
X130337000Y-95183653D01*
X130337000Y-95341346D01*
X130337000Y-95341348D01*
X130336999Y-95341348D01*
X110500500Y-95341348D01*
X110500500Y-93218543D01*
X112189499Y-93218543D01*
X112227947Y-93411829D01*
X112227950Y-93411839D01*
X112228316Y-93412723D01*
X112228317Y-93412728D01*
X112303360Y-93593900D01*
X112303365Y-93593909D01*
X112303375Y-93593926D01*
X112412861Y-93757783D01*
X112412862Y-93757784D01*
X112412867Y-93757790D01*
X112552208Y-93897131D01*
X112552214Y-93897136D01*
X112552218Y-93897139D01*
X112716079Y-94006628D01*
X112716092Y-94006635D01*
X112898160Y-94082049D01*
X112898165Y-94082051D01*
X112898169Y-94082051D01*
X112898170Y-94082052D01*
X112898442Y-94082106D01*
X112898469Y-94082112D01*
X113091453Y-94120500D01*
X113888543Y-94120500D01*
X113888544Y-94120500D01*
X113910216Y-94116188D01*
X114018582Y-94094632D01*
X114018583Y-94094632D01*
X114031301Y-94092102D01*
X114081835Y-94082051D01*
X114263914Y-94006632D01*
X114427782Y-93897139D01*
X114567139Y-93757782D01*
X114676632Y-93593914D01*
X114752051Y-93411835D01*
X114788200Y-93230104D01*
X114790500Y-93218543D01*
X114790500Y-93192094D01*
X116114237Y-93192094D01*
X116157945Y-93411822D01*
X116157946Y-93411826D01*
X116157947Y-93411829D01*
X116157950Y-93411839D01*
X116157953Y-93411847D01*
X116157958Y-93411861D01*
X116233360Y-93593900D01*
X116233365Y-93593909D01*
X116233375Y-93593926D01*
X116342861Y-93757783D01*
X116342862Y-93757784D01*
X116342867Y-93757790D01*
X116482208Y-93897131D01*
X116482214Y-93897136D01*
X116482218Y-93897139D01*
X116646079Y-94006628D01*
X116646092Y-94006635D01*
X116828160Y-94082049D01*
X116828165Y-94082051D01*
X116828169Y-94082051D01*
X116828170Y-94082052D01*
X116828442Y-94082106D01*
X116828469Y-94082112D01*
X117021453Y-94120500D01*
X118318543Y-94120500D01*
X118318544Y-94120500D01*
X118340216Y-94116188D01*
X118448582Y-94094632D01*
X118448583Y-94094632D01*
X118461301Y-94092102D01*
X118511835Y-94082051D01*
X118693914Y-94006632D01*
X118857782Y-93897139D01*
X118997139Y-93757782D01*
X119106632Y-93593914D01*
X119182051Y-93411835D01*
X119218200Y-93230104D01*
X119220500Y-93218543D01*
X119220500Y-93021456D01*
X119220500Y-93021453D01*
X119181812Y-92826964D01*
X119179733Y-92822570D01*
X119153641Y-92759576D01*
X119128621Y-92699173D01*
X119106638Y-92646098D01*
X119106633Y-92646089D01*
X119106628Y-92646079D01*
X118997139Y-92482218D01*
X118997136Y-92482214D01*
X118997131Y-92482208D01*
X118857790Y-92342867D01*
X118857784Y-92342862D01*
X118857783Y-92342861D01*
X118693926Y-92233375D01*
X118693925Y-92233374D01*
X118693920Y-92233371D01*
X118693907Y-92233364D01*
X118693900Y-92233360D01*
X118511861Y-92157958D01*
X118511847Y-92157953D01*
X118511839Y-92157950D01*
X118511829Y-92157947D01*
X118511826Y-92157946D01*
X118511822Y-92157945D01*
X118318546Y-92119500D01*
X118318543Y-92119500D01*
X118318541Y-92119500D01*
X117789163Y-92119500D01*
X117754224Y-92114476D01*
X117740906Y-92110565D01*
X117682129Y-92072789D01*
X117653107Y-92009232D01*
X117653105Y-92009221D01*
X117652874Y-92007613D01*
X117658429Y-91949439D01*
X117660075Y-91944685D01*
X117669877Y-91923226D01*
X117671606Y-91920233D01*
X117673835Y-91916968D01*
X117674728Y-91915205D01*
X117677991Y-91909173D01*
X117686762Y-91893979D01*
X117685487Y-91888723D01*
X117689570Y-91862536D01*
X117715500Y-91765766D01*
X117715500Y-91614234D01*
X117676281Y-91467865D01*
X117676276Y-91467857D01*
X117666129Y-91450281D01*
X117600515Y-91336635D01*
X117493365Y-91229485D01*
X117427750Y-91191602D01*
X117362136Y-91153719D01*
X117288950Y-91134109D01*
X117288949Y-91134108D01*
X117215767Y-91114500D01*
X117215766Y-91114500D01*
X117064234Y-91114500D01*
X116917859Y-91153720D01*
X116917857Y-91153721D01*
X116786645Y-91229478D01*
X116786631Y-91229487D01*
X116786626Y-91229491D01*
X116679491Y-91336626D01*
X116679487Y-91336631D01*
X116679478Y-91336645D01*
X116603721Y-91467857D01*
X116603720Y-91467859D01*
X116571780Y-91587065D01*
X116564500Y-91614234D01*
X116564500Y-91765765D01*
X116584109Y-91838950D01*
X116603719Y-91912137D01*
X116641602Y-91977750D01*
X116681745Y-92047280D01*
X116690014Y-92064564D01*
X116693194Y-92072789D01*
X116695621Y-92079065D01*
X116701436Y-92148692D01*
X116668684Y-92210410D01*
X116655669Y-92223739D01*
X116635841Y-92240211D01*
X116482211Y-92342864D01*
X116342867Y-92482208D01*
X116342862Y-92482214D01*
X116342861Y-92482215D01*
X116233375Y-92646072D01*
X116233365Y-92646089D01*
X116233360Y-92646098D01*
X116157958Y-92828137D01*
X116157945Y-92828176D01*
X116119500Y-93021451D01*
X116119500Y-93174174D01*
X116114237Y-93192094D01*
X114790500Y-93192094D01*
X114790500Y-93021456D01*
X114790500Y-93021453D01*
X114751812Y-92826964D01*
X114749733Y-92822570D01*
X114723641Y-92759576D01*
X114698621Y-92699173D01*
X114676638Y-92646098D01*
X114676633Y-92646089D01*
X114676628Y-92646079D01*
X114567139Y-92482218D01*
X114567136Y-92482214D01*
X114567131Y-92482208D01*
X114427790Y-92342867D01*
X114427784Y-92342862D01*
X114427783Y-92342861D01*
X114263926Y-92233375D01*
X114263925Y-92233374D01*
X114263920Y-92233371D01*
X114263907Y-92233364D01*
X114263900Y-92233360D01*
X114081861Y-92157958D01*
X114081847Y-92157953D01*
X114081839Y-92157950D01*
X114081829Y-92157947D01*
X114081826Y-92157946D01*
X114081822Y-92157945D01*
X113888546Y-92119500D01*
X113888543Y-92119500D01*
X113888541Y-92119500D01*
X113091459Y-92119500D01*
X113091457Y-92119500D01*
X113091453Y-92119500D01*
X112898176Y-92157945D01*
X112898170Y-92157947D01*
X112898160Y-92157950D01*
X112898155Y-92157951D01*
X112898137Y-92157958D01*
X112716098Y-92233360D01*
X112716089Y-92233365D01*
X112716072Y-92233375D01*
X112552215Y-92342861D01*
X112552214Y-92342862D01*
X112552208Y-92342867D01*
X112412867Y-92482208D01*
X112412862Y-92482214D01*
X112412861Y-92482215D01*
X112303375Y-92646072D01*
X112303365Y-92646089D01*
X112303360Y-92646098D01*
X112227958Y-92828137D01*
X112227945Y-92828176D01*
X112189500Y-93021451D01*
X112189500Y-93021456D01*
X112189500Y-93021459D01*
X112189500Y-93218541D01*
X112189500Y-93218543D01*
X112189499Y-93218543D01*
X110500500Y-93218543D01*
X110500500Y-84578543D01*
X112189499Y-84578543D01*
X112227947Y-84771829D01*
X112227950Y-84771839D01*
X112228316Y-84772723D01*
X112228317Y-84772728D01*
X112303360Y-84953900D01*
X112303365Y-84953909D01*
X112303375Y-84953926D01*
X112412861Y-85117783D01*
X112412862Y-85117784D01*
X112412867Y-85117790D01*
X112552208Y-85257131D01*
X112552214Y-85257136D01*
X112552218Y-85257139D01*
X112716079Y-85366628D01*
X112716092Y-85366635D01*
X112716094Y-85366635D01*
X112716098Y-85366638D01*
X112881475Y-85435138D01*
X112881480Y-85435140D01*
X112892556Y-85439728D01*
X112896964Y-85441812D01*
X112898169Y-85442051D01*
X112898170Y-85442052D01*
X112926133Y-85447614D01*
X113091453Y-85480500D01*
X113888543Y-85480500D01*
X113888545Y-85480500D01*
X114041732Y-85450028D01*
X114081835Y-85442051D01*
X114263914Y-85366632D01*
X114427782Y-85257139D01*
X114567139Y-85117782D01*
X114676632Y-84953914D01*
X114752051Y-84771835D01*
X114754359Y-84760236D01*
X114769590Y-84683660D01*
X114770261Y-84680287D01*
X114790500Y-84578543D01*
X114790500Y-84552094D01*
X116114237Y-84552094D01*
X116157945Y-84771822D01*
X116157946Y-84771826D01*
X116157947Y-84771829D01*
X116157950Y-84771839D01*
X116157953Y-84771847D01*
X116157958Y-84771861D01*
X116233360Y-84953900D01*
X116233365Y-84953909D01*
X116233375Y-84953926D01*
X116342861Y-85117783D01*
X116342862Y-85117784D01*
X116342867Y-85117790D01*
X116482208Y-85257131D01*
X116482214Y-85257136D01*
X116482218Y-85257139D01*
X116633802Y-85358425D01*
X116651793Y-85373055D01*
X116666883Y-85387877D01*
X116700915Y-85448895D01*
X116696556Y-85518628D01*
X116696555Y-85518629D01*
X116691788Y-85531768D01*
X116681111Y-85552872D01*
X116681521Y-85553109D01*
X116679492Y-85556622D01*
X116679489Y-85556627D01*
X116654969Y-85599097D01*
X116603719Y-85687861D01*
X116564500Y-85834234D01*
X116564500Y-85985765D01*
X116566076Y-85991647D01*
X116603719Y-86132137D01*
X116623170Y-86165826D01*
X116641602Y-86197750D01*
X116679485Y-86263365D01*
X116786635Y-86370515D01*
X116917865Y-86446281D01*
X117064234Y-86485500D01*
X117064236Y-86485500D01*
X117215764Y-86485500D01*
X117215766Y-86485500D01*
X117362135Y-86446281D01*
X117493365Y-86370515D01*
X117600515Y-86263365D01*
X117676281Y-86132135D01*
X117715500Y-85985766D01*
X117715500Y-85834234D01*
X117676281Y-85687865D01*
X117676278Y-85687859D01*
X117672861Y-85681941D01*
X117659743Y-85649174D01*
X117656471Y-85635687D01*
X117659795Y-85565896D01*
X117700261Y-85509031D01*
X117701540Y-85508024D01*
X117754802Y-85483686D01*
X117759732Y-85482735D01*
X117783174Y-85480500D01*
X118318545Y-85480500D01*
X118471732Y-85450028D01*
X118511835Y-85442051D01*
X118693914Y-85366632D01*
X118857782Y-85257139D01*
X118936073Y-85178848D01*
X119999499Y-85178848D01*
X120030257Y-85333471D01*
X120030264Y-85333502D01*
X120090598Y-85479165D01*
X120090602Y-85479172D01*
X120090609Y-85479185D01*
X120168697Y-85596050D01*
X120183928Y-85627886D01*
X120193834Y-85659522D01*
X120199500Y-85696575D01*
X120199500Y-86902404D01*
X120194476Y-86937341D01*
X120185136Y-86969148D01*
X120169262Y-87003102D01*
X120090613Y-87120807D01*
X120090603Y-87120824D01*
X120090598Y-87120833D01*
X120030264Y-87266496D01*
X120030257Y-87266527D01*
X119999500Y-87421150D01*
X119999500Y-87421153D01*
X119999500Y-87578846D01*
X119999500Y-87578848D01*
X119999499Y-87578848D01*
X120030257Y-87733471D01*
X120030264Y-87733502D01*
X120090598Y-87879165D01*
X120090603Y-87879174D01*
X120090613Y-87879191D01*
X120178211Y-88010290D01*
X120178212Y-88010291D01*
X120178217Y-88010297D01*
X120289701Y-88121781D01*
X120289707Y-88121786D01*
X120289711Y-88121789D01*
X120420814Y-88209390D01*
X120420827Y-88209397D01*
X120566498Y-88269735D01*
X120566503Y-88269737D01*
X120721153Y-88300499D01*
X120721156Y-88300500D01*
X120721158Y-88300500D01*
X120878844Y-88300500D01*
X120878845Y-88300499D01*
X121033497Y-88269737D01*
X121179179Y-88209394D01*
X121310289Y-88121789D01*
X121421789Y-88010289D01*
X121509394Y-87879179D01*
X121569737Y-87733497D01*
X121600500Y-87578842D01*
X121600500Y-87421158D01*
X121600500Y-87421155D01*
X121600500Y-87420971D01*
X121600064Y-87418966D01*
X121593180Y-87384358D01*
X121569739Y-87266510D01*
X121569736Y-87266501D01*
X121569734Y-87266496D01*
X121529079Y-87168345D01*
X121509397Y-87120827D01*
X121509390Y-87120814D01*
X121429320Y-87000981D01*
X121427506Y-86997895D01*
X121426512Y-86993933D01*
X121416071Y-86972111D01*
X121406165Y-86940474D01*
X121400500Y-86903422D01*
X121400500Y-85697594D01*
X121405522Y-85662661D01*
X121406444Y-85659522D01*
X121414864Y-85630845D01*
X121430733Y-85596902D01*
X121509390Y-85479185D01*
X121509390Y-85479184D01*
X121509394Y-85479179D01*
X121509397Y-85479172D01*
X121510074Y-85478159D01*
X121511710Y-85473585D01*
X121569737Y-85333497D01*
X121600500Y-85178842D01*
X121600500Y-85021158D01*
X121600500Y-85021155D01*
X121600500Y-85020973D01*
X121600065Y-85018971D01*
X121577928Y-84907682D01*
X121577927Y-84907681D01*
X121569737Y-84866503D01*
X121561935Y-84847666D01*
X121561934Y-84847663D01*
X121561934Y-84847662D01*
X121509400Y-84720833D01*
X121509395Y-84720824D01*
X121509390Y-84720814D01*
X121421789Y-84589711D01*
X121421786Y-84589707D01*
X121421781Y-84589701D01*
X121310297Y-84478217D01*
X121310291Y-84478212D01*
X121310290Y-84478211D01*
X121179191Y-84390613D01*
X121179190Y-84390612D01*
X121179185Y-84390609D01*
X121179172Y-84390602D01*
X121179165Y-84390598D01*
X121033502Y-84330264D01*
X121033471Y-84330257D01*
X120878847Y-84299500D01*
X120878845Y-84299500D01*
X120878842Y-84299500D01*
X120721158Y-84299500D01*
X120721155Y-84299500D01*
X120721153Y-84299500D01*
X120566527Y-84330257D01*
X120566496Y-84330264D01*
X120420833Y-84390598D01*
X120420824Y-84390603D01*
X120420807Y-84390613D01*
X120289708Y-84478211D01*
X120289707Y-84478212D01*
X120289701Y-84478217D01*
X120178217Y-84589701D01*
X120178212Y-84589707D01*
X120178211Y-84589708D01*
X120090613Y-84720807D01*
X120090603Y-84720824D01*
X120090598Y-84720833D01*
X120030264Y-84866496D01*
X120030257Y-84866527D01*
X119999500Y-85021150D01*
X119999500Y-85021153D01*
X119999500Y-85178846D01*
X119999500Y-85178848D01*
X119999499Y-85178848D01*
X118936073Y-85178848D01*
X118997139Y-85117782D01*
X119106632Y-84953914D01*
X119182051Y-84771835D01*
X119184359Y-84760236D01*
X119200261Y-84680288D01*
X119200261Y-84680286D01*
X119220500Y-84578544D01*
X119220500Y-84381453D01*
X119181812Y-84186964D01*
X119179733Y-84182570D01*
X119158223Y-84130639D01*
X119106635Y-84006092D01*
X119106628Y-84006079D01*
X118997139Y-83842218D01*
X118997136Y-83842214D01*
X118997131Y-83842208D01*
X118857790Y-83702867D01*
X118857784Y-83702862D01*
X118857783Y-83702861D01*
X118693926Y-83593375D01*
X118693925Y-83593374D01*
X118693920Y-83593371D01*
X118693907Y-83593364D01*
X118693900Y-83593360D01*
X118511861Y-83517958D01*
X118511847Y-83517953D01*
X118511839Y-83517950D01*
X118511829Y-83517947D01*
X118511826Y-83517946D01*
X118511822Y-83517945D01*
X118318546Y-83479500D01*
X118318543Y-83479500D01*
X118318541Y-83479500D01*
X117021459Y-83479500D01*
X117021457Y-83479500D01*
X117021453Y-83479500D01*
X116828176Y-83517945D01*
X116828170Y-83517947D01*
X116828160Y-83517950D01*
X116828155Y-83517951D01*
X116828137Y-83517958D01*
X116646098Y-83593360D01*
X116646089Y-83593365D01*
X116646072Y-83593375D01*
X116482215Y-83702861D01*
X116482214Y-83702862D01*
X116482208Y-83702867D01*
X116342867Y-83842208D01*
X116342862Y-83842214D01*
X116342861Y-83842215D01*
X116233375Y-84006072D01*
X116233365Y-84006089D01*
X116233360Y-84006098D01*
X116157958Y-84188137D01*
X116157945Y-84188176D01*
X116119500Y-84381451D01*
X116119500Y-84534174D01*
X116114237Y-84552094D01*
X114790500Y-84552094D01*
X114790500Y-84381456D01*
X114790500Y-84381453D01*
X114751812Y-84186964D01*
X114749733Y-84182570D01*
X114728223Y-84130639D01*
X114676635Y-84006092D01*
X114676628Y-84006079D01*
X114567139Y-83842218D01*
X114567136Y-83842214D01*
X114567131Y-83842208D01*
X114427790Y-83702867D01*
X114427784Y-83702862D01*
X114427783Y-83702861D01*
X114263926Y-83593375D01*
X114263925Y-83593374D01*
X114263920Y-83593371D01*
X114263907Y-83593364D01*
X114263900Y-83593360D01*
X114081861Y-83517958D01*
X114081847Y-83517953D01*
X114081839Y-83517950D01*
X114081829Y-83517947D01*
X114081826Y-83517946D01*
X114081822Y-83517945D01*
X113888546Y-83479500D01*
X113888543Y-83479500D01*
X113888541Y-83479500D01*
X113091459Y-83479500D01*
X113091457Y-83479500D01*
X113091453Y-83479500D01*
X112898176Y-83517945D01*
X112898170Y-83517947D01*
X112898160Y-83517950D01*
X112898155Y-83517951D01*
X112898137Y-83517958D01*
X112716098Y-83593360D01*
X112716089Y-83593365D01*
X112716072Y-83593375D01*
X112552215Y-83702861D01*
X112552214Y-83702862D01*
X112552208Y-83702867D01*
X112412867Y-83842208D01*
X112412862Y-83842214D01*
X112412861Y-83842215D01*
X112303375Y-84006072D01*
X112303365Y-84006089D01*
X112303360Y-84006098D01*
X112227958Y-84188137D01*
X112227945Y-84188176D01*
X112189500Y-84381451D01*
X112189500Y-84381456D01*
X112189500Y-84381459D01*
X112189500Y-84578541D01*
X112189500Y-84578543D01*
X112189499Y-84578543D01*
X110500500Y-84578543D01*
X110500500Y-57028848D01*
X121799499Y-57028848D01*
X121830257Y-57183471D01*
X121830264Y-57183502D01*
X121890598Y-57329165D01*
X121890603Y-57329174D01*
X121890613Y-57329191D01*
X121978211Y-57460290D01*
X121978212Y-57460291D01*
X121978217Y-57460297D01*
X122089701Y-57571781D01*
X122089707Y-57571786D01*
X122089711Y-57571789D01*
X122220814Y-57659390D01*
X122220827Y-57659397D01*
X122266254Y-57678213D01*
X122366503Y-57719737D01*
X122366505Y-57719737D01*
X122366510Y-57719739D01*
X122450279Y-57736401D01*
X122521153Y-57750499D01*
X122521156Y-57750500D01*
X122521158Y-57750500D01*
X122678844Y-57750500D01*
X122678845Y-57750499D01*
X122833497Y-57719737D01*
X122979179Y-57659394D01*
X123110289Y-57571789D01*
X123221789Y-57460289D01*
X123309394Y-57329179D01*
X123369737Y-57183497D01*
X123400500Y-57028842D01*
X123400500Y-56871158D01*
X123400500Y-56871155D01*
X123400500Y-56870971D01*
X123400064Y-56868966D01*
X123380734Y-56771788D01*
X123369737Y-56716503D01*
X123346454Y-56660292D01*
X123329025Y-56618214D01*
X123309397Y-56570827D01*
X123309390Y-56570814D01*
X123221789Y-56439711D01*
X123221786Y-56439707D01*
X123221781Y-56439701D01*
X123110297Y-56328217D01*
X123110291Y-56328212D01*
X123110290Y-56328211D01*
X122979191Y-56240613D01*
X122979190Y-56240612D01*
X122979185Y-56240609D01*
X122979172Y-56240602D01*
X122979165Y-56240598D01*
X122833502Y-56180264D01*
X122833471Y-56180257D01*
X122678847Y-56149500D01*
X122678845Y-56149500D01*
X122678842Y-56149500D01*
X122521158Y-56149500D01*
X122521155Y-56149500D01*
X122521153Y-56149500D01*
X122366527Y-56180257D01*
X122366496Y-56180264D01*
X122220833Y-56240598D01*
X122220824Y-56240603D01*
X122220807Y-56240613D01*
X122089708Y-56328211D01*
X122089707Y-56328212D01*
X122089701Y-56328217D01*
X121978217Y-56439701D01*
X121978212Y-56439707D01*
X121978211Y-56439708D01*
X121890613Y-56570807D01*
X121890603Y-56570824D01*
X121890598Y-56570833D01*
X121830264Y-56716496D01*
X121830257Y-56716527D01*
X121799500Y-56871150D01*
X121799500Y-56871153D01*
X121799500Y-57028846D01*
X121799500Y-57028848D01*
X121799499Y-57028848D01*
X110500500Y-57028848D01*
X110500500Y-56228848D01*
X111399499Y-56228848D01*
X111430257Y-56383471D01*
X111430264Y-56383502D01*
X111490598Y-56529165D01*
X111490603Y-56529174D01*
X111490613Y-56529191D01*
X111578211Y-56660290D01*
X111578212Y-56660291D01*
X111578217Y-56660297D01*
X111689701Y-56771781D01*
X111689707Y-56771786D01*
X111689708Y-56771787D01*
X111689711Y-56771789D01*
X111820814Y-56859390D01*
X111820827Y-56859397D01*
X111966498Y-56919735D01*
X111966503Y-56919737D01*
X112063641Y-56939059D01*
X112113532Y-56948983D01*
X112116254Y-56949704D01*
X112121155Y-56950500D01*
X112278844Y-56950500D01*
X112282964Y-56950500D01*
X112290814Y-56948118D01*
X112433497Y-56919737D01*
X112579179Y-56859394D01*
X112710289Y-56771789D01*
X112821789Y-56660289D01*
X112909394Y-56529179D01*
X112969737Y-56383497D01*
X113000500Y-56228842D01*
X113000500Y-56071158D01*
X113000500Y-56071155D01*
X113000500Y-56070973D01*
X113000065Y-56068972D01*
X112970397Y-55919824D01*
X112969994Y-55917467D01*
X112969738Y-55916508D01*
X112969737Y-55916506D01*
X112969737Y-55916503D01*
X112969735Y-55916498D01*
X112909397Y-55770827D01*
X112909390Y-55770814D01*
X112821789Y-55639711D01*
X112821786Y-55639707D01*
X112821781Y-55639701D01*
X112710297Y-55528217D01*
X112710291Y-55528212D01*
X112710290Y-55528211D01*
X112579191Y-55440613D01*
X112579190Y-55440612D01*
X112579185Y-55440609D01*
X112579172Y-55440602D01*
X112579165Y-55440598D01*
X112433502Y-55380264D01*
X112433471Y-55380257D01*
X112278847Y-55349500D01*
X112278845Y-55349500D01*
X112278842Y-55349500D01*
X112121158Y-55349500D01*
X112121155Y-55349500D01*
X112121153Y-55349500D01*
X111966527Y-55380257D01*
X111966496Y-55380264D01*
X111820833Y-55440598D01*
X111820824Y-55440603D01*
X111820807Y-55440613D01*
X111689708Y-55528211D01*
X111689707Y-55528212D01*
X111689701Y-55528217D01*
X111578217Y-55639701D01*
X111578212Y-55639707D01*
X111578211Y-55639708D01*
X111490613Y-55770807D01*
X111490603Y-55770824D01*
X111490598Y-55770833D01*
X111430264Y-55916496D01*
X111430257Y-55916527D01*
X111399500Y-56071150D01*
X111399500Y-56071153D01*
X111399500Y-56228846D01*
X111399500Y-56228848D01*
X111399499Y-56228848D01*
X110500500Y-56228848D01*
X110500500Y-44928848D01*
X118249499Y-44928848D01*
X118280257Y-45083471D01*
X118280264Y-45083502D01*
X118340598Y-45229165D01*
X118340602Y-45229172D01*
X118340608Y-45229184D01*
X118340613Y-45229191D01*
X118418696Y-45346050D01*
X118433928Y-45377885D01*
X118443834Y-45409519D01*
X118449500Y-45446575D01*
X118449500Y-48011590D01*
X118449499Y-48011664D01*
X118449499Y-48136960D01*
X118443600Y-48157046D01*
X118465989Y-48240598D01*
X118490423Y-48331785D01*
X118509717Y-48365203D01*
X118510198Y-48366035D01*
X118510202Y-48366043D01*
X118514526Y-48373533D01*
X118514527Y-48373535D01*
X118552733Y-48439711D01*
X118569474Y-48468707D01*
X118569481Y-48468717D01*
X118569485Y-48468722D01*
X118690756Y-48589993D01*
X118690794Y-48590029D01*
X131280287Y-61179523D01*
X131280969Y-61180014D01*
X131283475Y-61181363D01*
X131417209Y-61258573D01*
X131417216Y-61258577D01*
X131569943Y-61299501D01*
X131569945Y-61299501D01*
X131735654Y-61299501D01*
X131737558Y-61299501D01*
X131737621Y-61299500D01*
X134182394Y-61299500D01*
X134221475Y-61310975D01*
X134252386Y-61318280D01*
X134277632Y-61344444D01*
X134278730Y-61345427D01*
X134279510Y-61346390D01*
X134300902Y-61368559D01*
X134314532Y-61437087D01*
X134288951Y-61502105D01*
X134263553Y-61526612D01*
X134259401Y-61529606D01*
X134234327Y-61543589D01*
X134120833Y-61590599D01*
X134120822Y-61590604D01*
X134120807Y-61590613D01*
X133989708Y-61678211D01*
X133989707Y-61678212D01*
X133989701Y-61678217D01*
X133878217Y-61789701D01*
X133878212Y-61789707D01*
X133878211Y-61789708D01*
X133790613Y-61920807D01*
X133790603Y-61920824D01*
X133790598Y-61920833D01*
X133730264Y-62066496D01*
X133730257Y-62066527D01*
X133699500Y-62221150D01*
X133699500Y-62221153D01*
X133699500Y-62378846D01*
X133699500Y-62378848D01*
X133699499Y-62378848D01*
X133730257Y-62533471D01*
X133730264Y-62533502D01*
X133790598Y-62679165D01*
X133790603Y-62679174D01*
X133790613Y-62679191D01*
X133878210Y-62810289D01*
X133878213Y-62810292D01*
X133943135Y-62875214D01*
X133964284Y-62903466D01*
X133969704Y-62913392D01*
X133984556Y-62981665D01*
X133960139Y-63047129D01*
X133904206Y-63089001D01*
X133897018Y-63091682D01*
X133853684Y-63099500D01*
X129388620Y-63099500D01*
X129388557Y-63099499D01*
X129386653Y-63099499D01*
X129379057Y-63099499D01*
X129220943Y-63099499D01*
X129113586Y-63128265D01*
X129113585Y-63128264D01*
X129068209Y-63140423D01*
X129054089Y-63148575D01*
X129054073Y-63148586D01*
X129026777Y-63164346D01*
X129026768Y-63164352D01*
X128931289Y-63219475D01*
X128931284Y-63219478D01*
X128819478Y-63331286D01*
X128819477Y-63331286D01*
X127467048Y-64683714D01*
X127438795Y-64704865D01*
X127426613Y-64711517D01*
X127358340Y-64726369D01*
X127292877Y-64701953D01*
X127285640Y-64696536D01*
X127255324Y-64663821D01*
X127241299Y-64641771D01*
X127234492Y-64633552D01*
X127171787Y-64539708D01*
X127171786Y-64539707D01*
X127171781Y-64539701D01*
X127060297Y-64428217D01*
X127060291Y-64428212D01*
X127060290Y-64428211D01*
X126929191Y-64340613D01*
X126929190Y-64340612D01*
X126929185Y-64340609D01*
X126929172Y-64340602D01*
X126929165Y-64340598D01*
X126783502Y-64280264D01*
X126783471Y-64280257D01*
X126628847Y-64249500D01*
X126628845Y-64249500D01*
X126628842Y-64249500D01*
X126471158Y-64249500D01*
X126471155Y-64249500D01*
X126471153Y-64249500D01*
X126316527Y-64280257D01*
X126316496Y-64280264D01*
X126170833Y-64340598D01*
X126170824Y-64340603D01*
X126170807Y-64340613D01*
X126039708Y-64428211D01*
X126039707Y-64428212D01*
X126039701Y-64428217D01*
X125928217Y-64539701D01*
X125928212Y-64539707D01*
X125928211Y-64539708D01*
X125840613Y-64670807D01*
X125840603Y-64670824D01*
X125840598Y-64670833D01*
X125780264Y-64816496D01*
X125780257Y-64816527D01*
X125749500Y-64971150D01*
X125749500Y-64971153D01*
X125749500Y-65128846D01*
X125749500Y-65128848D01*
X125749499Y-65128848D01*
X125780257Y-65283471D01*
X125780261Y-65283489D01*
X125780263Y-65283500D01*
X125840598Y-65429165D01*
X125840602Y-65429172D01*
X125840609Y-65429185D01*
X125884112Y-65494291D01*
X125928211Y-65560290D01*
X125928212Y-65560291D01*
X125928217Y-65560297D01*
X126039701Y-65671781D01*
X126039707Y-65671786D01*
X126039711Y-65671789D01*
X126155780Y-65749344D01*
X126173750Y-65763953D01*
X126174565Y-65764753D01*
X126174565Y-65764754D01*
X126189682Y-65779592D01*
X126223734Y-65840602D01*
X126219397Y-65910336D01*
X126219396Y-65910340D01*
X126216838Y-65917397D01*
X126187941Y-65962821D01*
X123996981Y-68153782D01*
X123993458Y-68157304D01*
X123993459Y-68157305D01*
X123881665Y-68269099D01*
X123851364Y-68321583D01*
X123845900Y-68331045D01*
X123837545Y-68345514D01*
X123837546Y-68345514D01*
X123802607Y-68406029D01*
X123802608Y-68406030D01*
X123761684Y-68558758D01*
X123761684Y-68558760D01*
X123761684Y-68729215D01*
X123761685Y-68729266D01*
X123761685Y-71977135D01*
X123756661Y-72012072D01*
X123747321Y-72043879D01*
X123731447Y-72077833D01*
X123652798Y-72195538D01*
X123652788Y-72195555D01*
X123652783Y-72195564D01*
X123592449Y-72341227D01*
X123592442Y-72341258D01*
X123561685Y-72495881D01*
X123561685Y-72495884D01*
X123561685Y-72653577D01*
X123561685Y-72653579D01*
X123561684Y-72653579D01*
X123592442Y-72808202D01*
X123592449Y-72808233D01*
X123652783Y-72953896D01*
X123652788Y-72953905D01*
X123652798Y-72953922D01*
X123740396Y-73085021D01*
X123740397Y-73085022D01*
X123740402Y-73085028D01*
X123851886Y-73196512D01*
X123851892Y-73196517D01*
X123851896Y-73196520D01*
X123982999Y-73284121D01*
X123983012Y-73284128D01*
X124091791Y-73329185D01*
X124128688Y-73344468D01*
X124233233Y-73365263D01*
X124278339Y-73374235D01*
X124278340Y-73374236D01*
X124300558Y-73380867D01*
X124318672Y-73388180D01*
X124373465Y-73431526D01*
X124373474Y-73431539D01*
X124376380Y-73435646D01*
X124397462Y-73486835D01*
X124397805Y-73488888D01*
X124399500Y-73509322D01*
X124399500Y-74077072D01*
X124394476Y-74112009D01*
X124387064Y-74137250D01*
X124355769Y-74189994D01*
X123247946Y-75297817D01*
X123219693Y-75318967D01*
X123190599Y-75334854D01*
X123155363Y-75347640D01*
X123016515Y-75375259D01*
X123016509Y-75375260D01*
X123016508Y-75375261D01*
X123016498Y-75375264D01*
X123016493Y-75375265D01*
X123016475Y-75375272D01*
X122870833Y-75435598D01*
X122870824Y-75435603D01*
X122870807Y-75435613D01*
X122739708Y-75523211D01*
X122739707Y-75523212D01*
X122739701Y-75523217D01*
X122628217Y-75634701D01*
X122628212Y-75634707D01*
X122628211Y-75634708D01*
X122540613Y-75765807D01*
X122540603Y-75765824D01*
X122540598Y-75765833D01*
X122480264Y-75911496D01*
X122480257Y-75911527D01*
X122449500Y-76066150D01*
X122449500Y-76066153D01*
X122449500Y-76223846D01*
X122449500Y-76223848D01*
X122449499Y-76223848D01*
X122480257Y-76378471D01*
X122480264Y-76378502D01*
X122540598Y-76524165D01*
X122540603Y-76524174D01*
X122540613Y-76524191D01*
X122628211Y-76655290D01*
X122628212Y-76655291D01*
X122628217Y-76655297D01*
X122739701Y-76766781D01*
X122739707Y-76766786D01*
X122739711Y-76766789D01*
X122870814Y-76854390D01*
X122870827Y-76854397D01*
X123016498Y-76914735D01*
X123016503Y-76914737D01*
X123171153Y-76945499D01*
X123171156Y-76945500D01*
X123171158Y-76945500D01*
X123328844Y-76945500D01*
X123328845Y-76945499D01*
X123483497Y-76914737D01*
X123629179Y-76854394D01*
X123760289Y-76766789D01*
X123871789Y-76655289D01*
X123959394Y-76524179D01*
X124019737Y-76378497D01*
X124032734Y-76313155D01*
X124039277Y-76280263D01*
X124047159Y-76240638D01*
X124058900Y-76207355D01*
X124074266Y-76177979D01*
X124096458Y-76147775D01*
X125480520Y-74763716D01*
X125480522Y-74763712D01*
X125480526Y-74763708D01*
X125546462Y-74649500D01*
X125559577Y-74626784D01*
X125600501Y-74474057D01*
X125600501Y-74315942D01*
X125600501Y-74308347D01*
X125600501Y-74306663D01*
X125600500Y-74306589D01*
X125600500Y-69678848D01*
X130399499Y-69678848D01*
X130430257Y-69833471D01*
X130430264Y-69833502D01*
X130490598Y-69979165D01*
X130490603Y-69979174D01*
X130490613Y-69979191D01*
X130578211Y-70110290D01*
X130578212Y-70110291D01*
X130578217Y-70110297D01*
X130689701Y-70221781D01*
X130689707Y-70221786D01*
X130689711Y-70221789D01*
X130820814Y-70309390D01*
X130820827Y-70309397D01*
X130922011Y-70351308D01*
X130966503Y-70369737D01*
X131116757Y-70399624D01*
X131118505Y-70400070D01*
X131121155Y-70400500D01*
X131278844Y-70400500D01*
X131282964Y-70400500D01*
X131290814Y-70398118D01*
X131433497Y-70369737D01*
X131579179Y-70309394D01*
X131710289Y-70221789D01*
X131821789Y-70110289D01*
X131909394Y-69979179D01*
X131969737Y-69833497D01*
X132000500Y-69678842D01*
X132000500Y-69521158D01*
X132000500Y-69521155D01*
X132000500Y-69520973D01*
X132000065Y-69518972D01*
X131998338Y-69510292D01*
X131986644Y-69451502D01*
X131969737Y-69366503D01*
X131969735Y-69366498D01*
X131909397Y-69220827D01*
X131909390Y-69220814D01*
X131821789Y-69089711D01*
X131821786Y-69089707D01*
X131821781Y-69089701D01*
X131710297Y-68978217D01*
X131710291Y-68978212D01*
X131710290Y-68978211D01*
X131579191Y-68890613D01*
X131579190Y-68890612D01*
X131579185Y-68890609D01*
X131579172Y-68890602D01*
X131579165Y-68890598D01*
X131433502Y-68830264D01*
X131433471Y-68830257D01*
X131278847Y-68799500D01*
X131278845Y-68799500D01*
X131278842Y-68799500D01*
X131121158Y-68799500D01*
X131121155Y-68799500D01*
X131121153Y-68799500D01*
X130966527Y-68830257D01*
X130966496Y-68830264D01*
X130820833Y-68890598D01*
X130820824Y-68890603D01*
X130820807Y-68890613D01*
X130689708Y-68978211D01*
X130689707Y-68978212D01*
X130689701Y-68978217D01*
X130578217Y-69089701D01*
X130578212Y-69089707D01*
X130578211Y-69089708D01*
X130490613Y-69220807D01*
X130490603Y-69220824D01*
X130490603Y-69220825D01*
X130490599Y-69220831D01*
X130430264Y-69366496D01*
X130430257Y-69366527D01*
X130399500Y-69521150D01*
X130399500Y-69521153D01*
X130399500Y-69678846D01*
X130399500Y-69678848D01*
X130399499Y-69678848D01*
X125600500Y-69678848D01*
X125600500Y-69017926D01*
X125605522Y-68982993D01*
X125612934Y-68957748D01*
X125644228Y-68905006D01*
X126475496Y-68073739D01*
X127317095Y-67232138D01*
X127345346Y-67210990D01*
X127350712Y-67208060D01*
X127418985Y-67193212D01*
X127484448Y-67217632D01*
X127526317Y-67273568D01*
X127531298Y-67343260D01*
X127531295Y-67343275D01*
X127530919Y-67345002D01*
X127512860Y-67387513D01*
X127490605Y-67420819D01*
X127490600Y-67420829D01*
X127430264Y-67566496D01*
X127430257Y-67566527D01*
X127399500Y-67721150D01*
X127399500Y-67721153D01*
X127399500Y-67878846D01*
X127399500Y-67878848D01*
X127399499Y-67878848D01*
X127430257Y-68033471D01*
X127430264Y-68033502D01*
X127490598Y-68179165D01*
X127490603Y-68179174D01*
X127490613Y-68179191D01*
X127578211Y-68310290D01*
X127578212Y-68310291D01*
X127578217Y-68310297D01*
X127689701Y-68421781D01*
X127689707Y-68421786D01*
X127689711Y-68421789D01*
X127820814Y-68509390D01*
X127820827Y-68509397D01*
X127939997Y-68558758D01*
X127966503Y-68569737D01*
X127966505Y-68569737D01*
X127966510Y-68569739D01*
X128050279Y-68586401D01*
X128121153Y-68600499D01*
X128121156Y-68600500D01*
X128121158Y-68600500D01*
X128278844Y-68600500D01*
X128278845Y-68600499D01*
X128433497Y-68569737D01*
X128579179Y-68509394D01*
X128710289Y-68421789D01*
X128821789Y-68310289D01*
X128909394Y-68179179D01*
X128969737Y-68033497D01*
X129000500Y-67878842D01*
X129000500Y-67721158D01*
X129000500Y-67721155D01*
X129000500Y-67720977D01*
X129000076Y-67719031D01*
X128969737Y-67566503D01*
X128931009Y-67473004D01*
X128909397Y-67420827D01*
X128909390Y-67420814D01*
X128821789Y-67289711D01*
X128821786Y-67289707D01*
X128821781Y-67289701D01*
X128710297Y-67178217D01*
X128710291Y-67178212D01*
X128710290Y-67178211D01*
X128579191Y-67090613D01*
X128579190Y-67090612D01*
X128579185Y-67090609D01*
X128579172Y-67090602D01*
X128579165Y-67090598D01*
X128433502Y-67030264D01*
X128433471Y-67030257D01*
X128278847Y-66999500D01*
X128278845Y-66999500D01*
X128278842Y-66999500D01*
X128121158Y-66999500D01*
X128121155Y-66999500D01*
X128121153Y-66999500D01*
X127966527Y-67030257D01*
X127966496Y-67030264D01*
X127820829Y-67090600D01*
X127820825Y-67090602D01*
X127820816Y-67090607D01*
X127790927Y-67110578D01*
X127726974Y-67131376D01*
X127724179Y-67131487D01*
X127718464Y-67133279D01*
X127651078Y-67114815D01*
X127604372Y-67062850D01*
X127593174Y-66993884D01*
X127602501Y-66959844D01*
X127603208Y-66958219D01*
X127629233Y-66920000D01*
X129577491Y-64971743D01*
X129605741Y-64950595D01*
X129628833Y-64937987D01*
X129688258Y-64922820D01*
X130410082Y-64922820D01*
X130445014Y-64927841D01*
X130458333Y-64931752D01*
X130517111Y-64969526D01*
X130546136Y-65033080D01*
X130548237Y-65047690D01*
X130549500Y-65065340D01*
X130549500Y-65071156D01*
X130549500Y-65228846D01*
X130549500Y-65228848D01*
X130549499Y-65228848D01*
X130580257Y-65383471D01*
X130580264Y-65383502D01*
X130640598Y-65529165D01*
X130640603Y-65529174D01*
X130640613Y-65529191D01*
X130728212Y-65660291D01*
X130728217Y-65660297D01*
X130839701Y-65771781D01*
X130839707Y-65771786D01*
X130839711Y-65771789D01*
X130970814Y-65859390D01*
X130970818Y-65859392D01*
X130970821Y-65859394D01*
X131092404Y-65909755D01*
X131122760Y-65927766D01*
X131133564Y-65936473D01*
X131173411Y-65993867D01*
X131175906Y-66063675D01*
X131174611Y-66068751D01*
X131142141Y-66125779D01*
X131078212Y-66189707D01*
X131078209Y-66189711D01*
X130990613Y-66320807D01*
X130990603Y-66320824D01*
X130990598Y-66320833D01*
X130930264Y-66466496D01*
X130930257Y-66466527D01*
X130899500Y-66621150D01*
X130899500Y-66778850D01*
X130930499Y-66934694D01*
X130932589Y-66939113D01*
X130956368Y-66996522D01*
X130965096Y-67030718D01*
X130967339Y-67051579D01*
X130959028Y-67111269D01*
X130956512Y-67117499D01*
X130944637Y-67139954D01*
X130890605Y-67220819D01*
X130890605Y-67220820D01*
X130890602Y-67220825D01*
X130890600Y-67220829D01*
X130830264Y-67366496D01*
X130830257Y-67366527D01*
X130799500Y-67521150D01*
X130799500Y-67678847D01*
X130830257Y-67833471D01*
X130830264Y-67833502D01*
X130890598Y-67979165D01*
X130890603Y-67979174D01*
X130890613Y-67979191D01*
X130978211Y-68110290D01*
X130978212Y-68110291D01*
X130978217Y-68110297D01*
X131089701Y-68221781D01*
X131089707Y-68221786D01*
X131089711Y-68221789D01*
X131220814Y-68309390D01*
X131220827Y-68309397D01*
X131366498Y-68369735D01*
X131366503Y-68369737D01*
X131521153Y-68400499D01*
X131521156Y-68400500D01*
X131521158Y-68400500D01*
X131678844Y-68400500D01*
X131678845Y-68400499D01*
X131833497Y-68369737D01*
X131977011Y-68310292D01*
X131979172Y-68309397D01*
X131979172Y-68309396D01*
X131979179Y-68309394D01*
X132110289Y-68221789D01*
X132130804Y-68201274D01*
X132159058Y-68180122D01*
X132182145Y-68167515D01*
X132241574Y-68152346D01*
X135481227Y-68152346D01*
X135516154Y-68157367D01*
X135527007Y-68160553D01*
X135585788Y-68198323D01*
X135614817Y-68261877D01*
X135604878Y-68331036D01*
X135604874Y-68331045D01*
X135601689Y-68338019D01*
X135576576Y-68374187D01*
X133268980Y-70681784D01*
X130981286Y-72969477D01*
X130981286Y-72969478D01*
X130869478Y-73081284D01*
X130869470Y-73081296D01*
X130820955Y-73165331D01*
X130820952Y-73165337D01*
X130790424Y-73218211D01*
X130790422Y-73218216D01*
X130787193Y-73230266D01*
X130749499Y-73370943D01*
X130749499Y-73541400D01*
X130749500Y-73541451D01*
X130749500Y-74152404D01*
X130744476Y-74187341D01*
X130735136Y-74219148D01*
X130719262Y-74253102D01*
X130640613Y-74370807D01*
X130640603Y-74370824D01*
X130640603Y-74370825D01*
X130640599Y-74370831D01*
X130580264Y-74516496D01*
X130580257Y-74516527D01*
X130549500Y-74671150D01*
X130549500Y-74671153D01*
X130549500Y-74828846D01*
X130549500Y-74828848D01*
X130549499Y-74828848D01*
X130580257Y-74983471D01*
X130580264Y-74983502D01*
X130640598Y-75129165D01*
X130640603Y-75129174D01*
X130640613Y-75129191D01*
X130728211Y-75260290D01*
X130728212Y-75260291D01*
X130728217Y-75260297D01*
X130839701Y-75371781D01*
X130839707Y-75371786D01*
X130839711Y-75371789D01*
X130970814Y-75459390D01*
X130970827Y-75459397D01*
X131116498Y-75519735D01*
X131116503Y-75519737D01*
X131271153Y-75550499D01*
X131271156Y-75550500D01*
X131271158Y-75550500D01*
X131428844Y-75550500D01*
X131428845Y-75550499D01*
X131583497Y-75519737D01*
X131729179Y-75459394D01*
X131860289Y-75371789D01*
X131971789Y-75260289D01*
X132059394Y-75129179D01*
X132119737Y-74983497D01*
X132150500Y-74828842D01*
X132150500Y-74671158D01*
X132150500Y-74671155D01*
X132150500Y-74671067D01*
X132150307Y-74670192D01*
X132146192Y-74649500D01*
X132119737Y-74516503D01*
X132117163Y-74510288D01*
X132075368Y-74409385D01*
X132059399Y-74370831D01*
X132059396Y-74370825D01*
X132059395Y-74370824D01*
X132059390Y-74370814D01*
X132059379Y-74370797D01*
X131981304Y-74253949D01*
X131966071Y-74222111D01*
X131956165Y-74190474D01*
X131950500Y-74153422D01*
X131950500Y-73767925D01*
X131955522Y-73732992D01*
X131959414Y-73719737D01*
X131962934Y-73707747D01*
X131994228Y-73655005D01*
X132108295Y-73540938D01*
X132136543Y-73519791D01*
X132150266Y-73512298D01*
X132218522Y-73497448D01*
X132220332Y-73497577D01*
X132278532Y-73516945D01*
X132285045Y-73521131D01*
X132305680Y-73537759D01*
X132389707Y-73621786D01*
X132389711Y-73621789D01*
X132520814Y-73709390D01*
X132520827Y-73709397D01*
X132620060Y-73750500D01*
X132666503Y-73769737D01*
X132666505Y-73769737D01*
X132666510Y-73769739D01*
X132750279Y-73786401D01*
X132821153Y-73800499D01*
X132821156Y-73800500D01*
X132821158Y-73800500D01*
X132978844Y-73800500D01*
X132978845Y-73800499D01*
X133133497Y-73769737D01*
X133279179Y-73709394D01*
X133354005Y-73659397D01*
X133396053Y-73631301D01*
X133427885Y-73616071D01*
X133447574Y-73609906D01*
X133459529Y-73606164D01*
X133496578Y-73600500D01*
X133711380Y-73600500D01*
X133711443Y-73600501D01*
X133713347Y-73600501D01*
X133720943Y-73600501D01*
X133879054Y-73600501D01*
X133879057Y-73600501D01*
X134031785Y-73559577D01*
X134089136Y-73526465D01*
X134168716Y-73480520D01*
X134280520Y-73368716D01*
X134280520Y-73368715D01*
X134297956Y-73351279D01*
X134297960Y-73351272D01*
X137999811Y-69649423D01*
X138028061Y-69628275D01*
X138051153Y-69615667D01*
X138110578Y-69600500D01*
X140502404Y-69600500D01*
X140537336Y-69605521D01*
X140569150Y-69614863D01*
X140603098Y-69630735D01*
X140720814Y-69709390D01*
X140720827Y-69709397D01*
X140791292Y-69738584D01*
X140866503Y-69769737D01*
X140866505Y-69769737D01*
X140866510Y-69769739D01*
X140950279Y-69786401D01*
X141021153Y-69800499D01*
X141021156Y-69800500D01*
X141021158Y-69800500D01*
X141178844Y-69800500D01*
X141178845Y-69800499D01*
X141333497Y-69769737D01*
X141479179Y-69709394D01*
X141610289Y-69621789D01*
X141721789Y-69510289D01*
X141809394Y-69379179D01*
X141869737Y-69233497D01*
X141874505Y-69209524D01*
X141892753Y-69117790D01*
X141904494Y-69084511D01*
X141905025Y-69083497D01*
X141911741Y-69070656D01*
X141960253Y-69020381D01*
X141966647Y-69016740D01*
X142027997Y-69000500D01*
X143478726Y-69000500D01*
X143513658Y-69005521D01*
X143538902Y-69012934D01*
X143591648Y-69044230D01*
X144710366Y-70162948D01*
X144731517Y-70191202D01*
X144747404Y-70220297D01*
X144760189Y-70255532D01*
X144775762Y-70333819D01*
X144777652Y-70369061D01*
X144776415Y-70382887D01*
X144750834Y-70447906D01*
X144694168Y-70488771D01*
X144683784Y-70492434D01*
X144642527Y-70499500D01*
X138370943Y-70499500D01*
X138224963Y-70538614D01*
X138224953Y-70538617D01*
X138218215Y-70540423D01*
X138218214Y-70540423D01*
X138218212Y-70540424D01*
X138218209Y-70540425D01*
X138215413Y-70542039D01*
X138215411Y-70542040D01*
X138196311Y-70553067D01*
X138168096Y-70569359D01*
X138168095Y-70569360D01*
X138124689Y-70594420D01*
X138124688Y-70594419D01*
X138081290Y-70619475D01*
X138081278Y-70619483D01*
X136597946Y-72102817D01*
X136569693Y-72123967D01*
X136540599Y-72139854D01*
X136505363Y-72152640D01*
X136366515Y-72180259D01*
X136366509Y-72180260D01*
X136366508Y-72180261D01*
X136366498Y-72180264D01*
X136366493Y-72180265D01*
X136366475Y-72180272D01*
X136220833Y-72240598D01*
X136220824Y-72240603D01*
X136220807Y-72240613D01*
X136089708Y-72328211D01*
X136089707Y-72328212D01*
X136089701Y-72328217D01*
X135978217Y-72439701D01*
X135978212Y-72439707D01*
X135978211Y-72439708D01*
X135890613Y-72570807D01*
X135890603Y-72570824D01*
X135890598Y-72570833D01*
X135830264Y-72716496D01*
X135830257Y-72716527D01*
X135799500Y-72871150D01*
X135799500Y-72871153D01*
X135799500Y-73028846D01*
X135799500Y-73028848D01*
X135799499Y-73028848D01*
X135830257Y-73183471D01*
X135830264Y-73183502D01*
X135890598Y-73329165D01*
X135890603Y-73329174D01*
X135890613Y-73329191D01*
X135978211Y-73460290D01*
X135978212Y-73460291D01*
X135978217Y-73460297D01*
X136089701Y-73571781D01*
X136089707Y-73571786D01*
X136089711Y-73571789D01*
X136220814Y-73659390D01*
X136220827Y-73659397D01*
X136366498Y-73719735D01*
X136366503Y-73719737D01*
X136519127Y-73750096D01*
X136521153Y-73750499D01*
X136521156Y-73750500D01*
X136521158Y-73750500D01*
X136678844Y-73750500D01*
X136678845Y-73750499D01*
X136833497Y-73719737D01*
X136979179Y-73659394D01*
X137110289Y-73571789D01*
X137140292Y-73541785D01*
X137168539Y-73520639D01*
X137180496Y-73514110D01*
X137248767Y-73499258D01*
X137314232Y-73523674D01*
X137353173Y-73572440D01*
X137356538Y-73579986D01*
X137364905Y-73606294D01*
X137380261Y-73683488D01*
X137380265Y-73683504D01*
X137380265Y-73683506D01*
X137440598Y-73829165D01*
X137440603Y-73829174D01*
X137440613Y-73829191D01*
X137528211Y-73960290D01*
X137528212Y-73960291D01*
X137528217Y-73960297D01*
X137639701Y-74071781D01*
X137639707Y-74071786D01*
X137639708Y-74071787D01*
X137639711Y-74071789D01*
X137770814Y-74159390D01*
X137770827Y-74159397D01*
X137770829Y-74159397D01*
X137770833Y-74159400D01*
X137877702Y-74203665D01*
X137891551Y-74209402D01*
X137913326Y-74218421D01*
X137913328Y-74218422D01*
X137916503Y-74219737D01*
X137916506Y-74219737D01*
X137916507Y-74219738D01*
X137964459Y-74229276D01*
X138071153Y-74250499D01*
X138071156Y-74250500D01*
X138071158Y-74250500D01*
X138228844Y-74250500D01*
X138228845Y-74250499D01*
X138383497Y-74219737D01*
X138529179Y-74159394D01*
X138660289Y-74071789D01*
X138677151Y-74054925D01*
X138705402Y-74033776D01*
X138717589Y-74027121D01*
X138785859Y-74012271D01*
X138851314Y-74036682D01*
X138856029Y-74040211D01*
X138889483Y-74078127D01*
X138900697Y-74097821D01*
X138902663Y-74099074D01*
X138912361Y-74111741D01*
X138978205Y-74210281D01*
X138978212Y-74210291D01*
X138978217Y-74210297D01*
X139089701Y-74321781D01*
X139089707Y-74321786D01*
X139089711Y-74321789D01*
X139220814Y-74409390D01*
X139220827Y-74409397D01*
X139220829Y-74409397D01*
X139220833Y-74409400D01*
X139303609Y-74443686D01*
X139348828Y-74462416D01*
X139366503Y-74469737D01*
X139512285Y-74498735D01*
X139514264Y-74499128D01*
X139516151Y-74499567D01*
X139516452Y-74499736D01*
X139521155Y-74500500D01*
X139678844Y-74500500D01*
X139682964Y-74500500D01*
X139690814Y-74498118D01*
X139833497Y-74469737D01*
X139979179Y-74409394D01*
X140110289Y-74321789D01*
X140221789Y-74210289D01*
X140309394Y-74079179D01*
X140312456Y-74071788D01*
X140328202Y-74033771D01*
X140369737Y-73933497D01*
X140400500Y-73778842D01*
X140400500Y-73621158D01*
X140400500Y-73621155D01*
X140400500Y-73620973D01*
X140400065Y-73618971D01*
X140394833Y-73592668D01*
X140369738Y-73466505D01*
X140369736Y-73466501D01*
X140367164Y-73460291D01*
X140350955Y-73421158D01*
X140334267Y-73380869D01*
X140309400Y-73320833D01*
X140309395Y-73320824D01*
X140309390Y-73320814D01*
X140221789Y-73189711D01*
X140221786Y-73189707D01*
X140221781Y-73189701D01*
X140110297Y-73078217D01*
X140110291Y-73078212D01*
X140110290Y-73078211D01*
X139979191Y-72990613D01*
X139979190Y-72990612D01*
X139979185Y-72990609D01*
X139979172Y-72990602D01*
X139979165Y-72990598D01*
X139833502Y-72930264D01*
X139833471Y-72930257D01*
X139678847Y-72899500D01*
X139678845Y-72899500D01*
X139678842Y-72899500D01*
X139521158Y-72899500D01*
X139521155Y-72899500D01*
X139521153Y-72899500D01*
X139366527Y-72930257D01*
X139366496Y-72930264D01*
X139220833Y-72990598D01*
X139220824Y-72990603D01*
X139220807Y-72990613D01*
X139089711Y-73078209D01*
X139089706Y-73078213D01*
X139072843Y-73095076D01*
X139044589Y-73116226D01*
X139032410Y-73122876D01*
X138964137Y-73137727D01*
X138898679Y-73113314D01*
X138893969Y-73109787D01*
X138860514Y-73071864D01*
X138849316Y-73052194D01*
X138847380Y-73050963D01*
X138837595Y-73038196D01*
X138771799Y-72939724D01*
X138771786Y-72939707D01*
X138771781Y-72939701D01*
X138660297Y-72828217D01*
X138660291Y-72828212D01*
X138660290Y-72828211D01*
X138529191Y-72740613D01*
X138529190Y-72740612D01*
X138529185Y-72740609D01*
X138529172Y-72740602D01*
X138529165Y-72740598D01*
X138383502Y-72680264D01*
X138383471Y-72680257D01*
X138228847Y-72649500D01*
X138228845Y-72649500D01*
X138228842Y-72649500D01*
X138075657Y-72649500D01*
X138052040Y-72647230D01*
X138029794Y-72642914D01*
X138030189Y-72640877D01*
X138007442Y-72638836D01*
X137952276Y-72595958D01*
X137929049Y-72530062D01*
X137932203Y-72494919D01*
X137932744Y-72492631D01*
X137965728Y-72433505D01*
X138649811Y-71749423D01*
X138678061Y-71728275D01*
X138701153Y-71715667D01*
X138760578Y-71700500D01*
X145481941Y-71700500D01*
X145482004Y-71700501D01*
X145483908Y-71700501D01*
X145491504Y-71700501D01*
X145649615Y-71700501D01*
X145649618Y-71700501D01*
X145802346Y-71659577D01*
X145802348Y-71659575D01*
X145802350Y-71659575D01*
X145802351Y-71659574D01*
X145802350Y-71659574D01*
X145804978Y-71658870D01*
X145809865Y-71656461D01*
X145809958Y-71656422D01*
X145816486Y-71651412D01*
X145857564Y-71627697D01*
X145857565Y-71627696D01*
X145939277Y-71580520D01*
X146051081Y-71468716D01*
X146051081Y-71468715D01*
X146068516Y-71451280D01*
X146068518Y-71451276D01*
X146232775Y-71287018D01*
X146261018Y-71265876D01*
X146274006Y-71258784D01*
X146342277Y-71243934D01*
X146405509Y-71266719D01*
X146421104Y-71277860D01*
X146436694Y-71291068D01*
X146539707Y-71394081D01*
X146539711Y-71394084D01*
X146670814Y-71481685D01*
X146670827Y-71481692D01*
X146816498Y-71542030D01*
X146816503Y-71542032D01*
X146971153Y-71572794D01*
X146971156Y-71572795D01*
X146971158Y-71572795D01*
X147033887Y-71572795D01*
X147036524Y-71572907D01*
X147039801Y-71574022D01*
X147066196Y-71577817D01*
X147072836Y-71579766D01*
X147087546Y-71584086D01*
X147137798Y-71612955D01*
X147139610Y-71614668D01*
X147157525Y-71635882D01*
X147182844Y-71673773D01*
X147185692Y-71677244D01*
X147205442Y-71711065D01*
X147206067Y-71712679D01*
X147207166Y-71715763D01*
X147207504Y-71716382D01*
X147209041Y-71720345D01*
X147211729Y-71752130D01*
X147216033Y-71783751D01*
X147216029Y-71783773D01*
X147215716Y-71785837D01*
X147214787Y-71788296D01*
X147214929Y-71789966D01*
X147212243Y-71795038D01*
X147197437Y-71834279D01*
X147193124Y-71840991D01*
X147176486Y-71861638D01*
X140337552Y-78700573D01*
X140309301Y-78721722D01*
X140286213Y-78734330D01*
X140226783Y-78749500D01*
X121017927Y-78749500D01*
X120982991Y-78744477D01*
X120957749Y-78737065D01*
X120905004Y-78705769D01*
X119799426Y-77600191D01*
X119778274Y-77571935D01*
X119765667Y-77548846D01*
X119750500Y-77489421D01*
X119750500Y-77128848D01*
X134249499Y-77128848D01*
X134280257Y-77283471D01*
X134280264Y-77283502D01*
X134340598Y-77429165D01*
X134340603Y-77429174D01*
X134340613Y-77429191D01*
X134428211Y-77560290D01*
X134428212Y-77560291D01*
X134428217Y-77560297D01*
X134539701Y-77671781D01*
X134539707Y-77671786D01*
X134539711Y-77671789D01*
X134670814Y-77759390D01*
X134670827Y-77759397D01*
X134816498Y-77819735D01*
X134816503Y-77819737D01*
X134971153Y-77850499D01*
X134971156Y-77850500D01*
X134971158Y-77850500D01*
X135128844Y-77850500D01*
X135128845Y-77850499D01*
X135283497Y-77819737D01*
X135429179Y-77759394D01*
X135560289Y-77671789D01*
X135671789Y-77560289D01*
X135759394Y-77429179D01*
X135819737Y-77283497D01*
X135850500Y-77128842D01*
X135850500Y-76971158D01*
X135850500Y-76971155D01*
X135850500Y-76970971D01*
X135850064Y-76968966D01*
X135839277Y-76914735D01*
X135819739Y-76816510D01*
X135819736Y-76816501D01*
X135770240Y-76697005D01*
X135759397Y-76670827D01*
X135759390Y-76670814D01*
X135671789Y-76539711D01*
X135671786Y-76539707D01*
X135671781Y-76539701D01*
X135560297Y-76428217D01*
X135560291Y-76428212D01*
X135560290Y-76428211D01*
X135429191Y-76340613D01*
X135429190Y-76340612D01*
X135429185Y-76340609D01*
X135429172Y-76340602D01*
X135429165Y-76340598D01*
X135283502Y-76280264D01*
X135283471Y-76280257D01*
X135128847Y-76249500D01*
X135128845Y-76249500D01*
X135128842Y-76249500D01*
X134971158Y-76249500D01*
X134971155Y-76249500D01*
X134971153Y-76249500D01*
X134816527Y-76280257D01*
X134816496Y-76280264D01*
X134670833Y-76340598D01*
X134670824Y-76340603D01*
X134670807Y-76340613D01*
X134539708Y-76428211D01*
X134539707Y-76428212D01*
X134539701Y-76428217D01*
X134428217Y-76539701D01*
X134428212Y-76539707D01*
X134428211Y-76539708D01*
X134340613Y-76670807D01*
X134340604Y-76670823D01*
X134340599Y-76670831D01*
X134280264Y-76816496D01*
X134280257Y-76816527D01*
X134249500Y-76971150D01*
X134249500Y-76971153D01*
X134249500Y-77128846D01*
X134249500Y-77128848D01*
X134249499Y-77128848D01*
X119750500Y-77128848D01*
X119750500Y-73578848D01*
X120699499Y-73578848D01*
X120730257Y-73733471D01*
X120730264Y-73733502D01*
X120790598Y-73879165D01*
X120790603Y-73879174D01*
X120790613Y-73879191D01*
X120878211Y-74010290D01*
X120878212Y-74010291D01*
X120878217Y-74010297D01*
X120989701Y-74121781D01*
X120989707Y-74121786D01*
X120989711Y-74121789D01*
X121120814Y-74209390D01*
X121120827Y-74209397D01*
X121220060Y-74250500D01*
X121266503Y-74269737D01*
X121266505Y-74269737D01*
X121266510Y-74269739D01*
X121350279Y-74286401D01*
X121421153Y-74300499D01*
X121421156Y-74300500D01*
X121421158Y-74300500D01*
X121578844Y-74300500D01*
X121578845Y-74300499D01*
X121733497Y-74269737D01*
X121877011Y-74210292D01*
X121879172Y-74209397D01*
X121879172Y-74209396D01*
X121879179Y-74209394D01*
X122010289Y-74121789D01*
X122121789Y-74010289D01*
X122209394Y-73879179D01*
X122269737Y-73733497D01*
X122300500Y-73578842D01*
X122300500Y-73421158D01*
X122300500Y-73421155D01*
X122300500Y-73421064D01*
X122300485Y-73420998D01*
X122300276Y-73420033D01*
X122290512Y-73370945D01*
X122269737Y-73266503D01*
X122268407Y-73263293D01*
X122209397Y-73120827D01*
X122209390Y-73120814D01*
X122121789Y-72989711D01*
X122121786Y-72989707D01*
X122121781Y-72989701D01*
X122010297Y-72878217D01*
X122010291Y-72878212D01*
X122010290Y-72878211D01*
X121879191Y-72790613D01*
X121879190Y-72790612D01*
X121879185Y-72790609D01*
X121879172Y-72790602D01*
X121879165Y-72790598D01*
X121733502Y-72730264D01*
X121733471Y-72730257D01*
X121578847Y-72699500D01*
X121578845Y-72699500D01*
X121578842Y-72699500D01*
X121421158Y-72699500D01*
X121421155Y-72699500D01*
X121421153Y-72699500D01*
X121266527Y-72730257D01*
X121266496Y-72730264D01*
X121120833Y-72790598D01*
X121120824Y-72790603D01*
X121120807Y-72790613D01*
X120989708Y-72878211D01*
X120989707Y-72878212D01*
X120989701Y-72878217D01*
X120878217Y-72989701D01*
X120878212Y-72989707D01*
X120878211Y-72989708D01*
X120790613Y-73120807D01*
X120790603Y-73120824D01*
X120790598Y-73120833D01*
X120730264Y-73266496D01*
X120730257Y-73266527D01*
X120699500Y-73421150D01*
X120699500Y-73421153D01*
X120699500Y-73578846D01*
X120699500Y-73578848D01*
X120699499Y-73578848D01*
X119750500Y-73578848D01*
X119750500Y-63967926D01*
X119755523Y-63932991D01*
X119762935Y-63907748D01*
X119794229Y-63855004D01*
X119852057Y-63797176D01*
X119880306Y-63776029D01*
X119909403Y-63760141D01*
X119944628Y-63747360D01*
X119986425Y-63739046D01*
X120083497Y-63719737D01*
X120229179Y-63659394D01*
X120360289Y-63571789D01*
X120471789Y-63460289D01*
X120559394Y-63329179D01*
X120619737Y-63183497D01*
X120650500Y-63028842D01*
X120650500Y-62871158D01*
X120650500Y-62871155D01*
X120650500Y-62870973D01*
X120650065Y-62868972D01*
X120647159Y-62854362D01*
X120620918Y-62722442D01*
X120620901Y-62722323D01*
X120619738Y-62716510D01*
X120619738Y-62716508D01*
X120619737Y-62716503D01*
X120619735Y-62716498D01*
X120559397Y-62570827D01*
X120559390Y-62570814D01*
X120471789Y-62439711D01*
X120471786Y-62439707D01*
X120471781Y-62439701D01*
X120360297Y-62328217D01*
X120360291Y-62328212D01*
X120360290Y-62328211D01*
X120229191Y-62240613D01*
X120229190Y-62240612D01*
X120229185Y-62240609D01*
X120229172Y-62240602D01*
X120229165Y-62240598D01*
X120083502Y-62180264D01*
X120083471Y-62180257D01*
X119928847Y-62149500D01*
X119928845Y-62149500D01*
X119928842Y-62149500D01*
X119771158Y-62149500D01*
X119771155Y-62149500D01*
X119771153Y-62149500D01*
X119616527Y-62180257D01*
X119616496Y-62180264D01*
X119470833Y-62240598D01*
X119470824Y-62240603D01*
X119470807Y-62240613D01*
X119339708Y-62328211D01*
X119339707Y-62328212D01*
X119339701Y-62328217D01*
X119228217Y-62439701D01*
X119228212Y-62439707D01*
X119228211Y-62439708D01*
X119140613Y-62570807D01*
X119140603Y-62570824D01*
X119140598Y-62570833D01*
X119080272Y-62716475D01*
X119080264Y-62716499D01*
X119080259Y-62716515D01*
X119052839Y-62854362D01*
X119041098Y-62887644D01*
X119025733Y-62917018D01*
X119003538Y-62947225D01*
X118669479Y-63281283D01*
X118660764Y-63296381D01*
X118660762Y-63296383D01*
X118641203Y-63330262D01*
X118640613Y-63331284D01*
X118590423Y-63418215D01*
X118549499Y-63570943D01*
X118549499Y-63570945D01*
X118549499Y-63741400D01*
X118549500Y-63741451D01*
X118549500Y-77713330D01*
X118549499Y-77713348D01*
X118549499Y-77819735D01*
X118549499Y-77836961D01*
X118543601Y-77857046D01*
X118590423Y-78031786D01*
X118610662Y-78066841D01*
X118610663Y-78066841D01*
X118619358Y-78081901D01*
X118619359Y-78081904D01*
X118619360Y-78081904D01*
X118631422Y-78102796D01*
X118631422Y-78102798D01*
X118669467Y-78168695D01*
X118669477Y-78168711D01*
X118669481Y-78168717D01*
X118669485Y-78168722D01*
X118790314Y-78289551D01*
X118790359Y-78289594D01*
X120214085Y-79713320D01*
X120214106Y-79713342D01*
X120215149Y-79714385D01*
X120219479Y-79718715D01*
X120219480Y-79718716D01*
X120331284Y-79830520D01*
X120418095Y-79880639D01*
X120418097Y-79880641D01*
X120456146Y-79902608D01*
X120456149Y-79902611D01*
X120456150Y-79902611D01*
X120468211Y-79909575D01*
X120468212Y-79909575D01*
X120468215Y-79909577D01*
X120620943Y-79950501D01*
X120620946Y-79950501D01*
X120786653Y-79950501D01*
X120788557Y-79950501D01*
X120788620Y-79950500D01*
X139611647Y-79950500D01*
X139646574Y-79955521D01*
X139657427Y-79958707D01*
X139716208Y-79996477D01*
X139745237Y-80060031D01*
X139735298Y-80129190D01*
X139735297Y-80129192D01*
X139732112Y-80136167D01*
X139706996Y-80172342D01*
X132419485Y-87459851D01*
X132419481Y-87459856D01*
X132419481Y-87459857D01*
X132373424Y-87539631D01*
X132373422Y-87539635D01*
X132348585Y-87582650D01*
X132346614Y-87585219D01*
X132340187Y-87597227D01*
X132339390Y-87600641D01*
X132299499Y-87749518D01*
X132299499Y-87919975D01*
X132299500Y-87920026D01*
X132299500Y-125221451D01*
X132294476Y-125256390D01*
X132289666Y-125272769D01*
X132253882Y-125329781D01*
X132244014Y-125338709D01*
X132217117Y-125357243D01*
X132192185Y-125369946D01*
X132192186Y-125369946D01*
X132192184Y-125369948D01*
X132020210Y-125494892D01*
X131869892Y-125645210D01*
X131860394Y-125658283D01*
X131750009Y-125810218D01*
X131744949Y-125817182D01*
X131648445Y-126006580D01*
X131582754Y-126208755D01*
X131582752Y-126208762D01*
X131576878Y-126245854D01*
X131573069Y-126269905D01*
X131549500Y-126418713D01*
X131549500Y-126881287D01*
X131552499Y-126900223D01*
X131582754Y-127091244D01*
X131582754Y-127091247D01*
X131633740Y-127248164D01*
X131648441Y-127293406D01*
X131648443Y-127293412D01*
X131740541Y-127474166D01*
X131744951Y-127482820D01*
X131869890Y-127654786D01*
X131869892Y-127654788D01*
X132020216Y-127805112D01*
X132192169Y-127930042D01*
X132192200Y-127930060D01*
X132192442Y-127930182D01*
X132381588Y-128026557D01*
X132583757Y-128092246D01*
X132793713Y-128125500D01*
X132793714Y-128125500D01*
X133006286Y-128125500D01*
X133006287Y-128125500D01*
X133216243Y-128092246D01*
X133418412Y-128026557D01*
X133607816Y-127930051D01*
X133623529Y-127918634D01*
X133642681Y-127904721D01*
X133726730Y-127843656D01*
X133779786Y-127805109D01*
X133779788Y-127805106D01*
X133779792Y-127805104D01*
X133779798Y-127805097D01*
X133779849Y-127805060D01*
X133780551Y-127804344D01*
X133930104Y-127654792D01*
X134039204Y-127504626D01*
X134063790Y-127479325D01*
X134074788Y-127470844D01*
X134139891Y-127445494D01*
X134208370Y-127459366D01*
X134208377Y-127459370D01*
X134214559Y-127462632D01*
X134257009Y-127499416D01*
X134353605Y-127632370D01*
X134353606Y-127632371D01*
X134369896Y-127654792D01*
X134369898Y-127654794D01*
X134520216Y-127805112D01*
X134692169Y-127930042D01*
X134692200Y-127930060D01*
X134692442Y-127930182D01*
X134881588Y-128026557D01*
X135083757Y-128092246D01*
X135293713Y-128125500D01*
X135293714Y-128125500D01*
X135506286Y-128125500D01*
X135506287Y-128125500D01*
X135716243Y-128092246D01*
X135918412Y-128026557D01*
X136107816Y-127930051D01*
X136123529Y-127918634D01*
X136142681Y-127904721D01*
X136226730Y-127843656D01*
X136279786Y-127805109D01*
X136279788Y-127805106D01*
X136279792Y-127805104D01*
X136279798Y-127805097D01*
X136279849Y-127805060D01*
X136280551Y-127804344D01*
X136430104Y-127654792D01*
X136539204Y-127504626D01*
X136563790Y-127479325D01*
X136574788Y-127470844D01*
X136639891Y-127445494D01*
X136708370Y-127459366D01*
X136708377Y-127459370D01*
X136714559Y-127462632D01*
X136757009Y-127499416D01*
X136853605Y-127632370D01*
X136853606Y-127632371D01*
X136869896Y-127654792D01*
X136869898Y-127654794D01*
X137020216Y-127805112D01*
X137192169Y-127930042D01*
X137192200Y-127930060D01*
X137192442Y-127930182D01*
X137381588Y-128026557D01*
X137583757Y-128092246D01*
X137793713Y-128125500D01*
X137793714Y-128125500D01*
X138006286Y-128125500D01*
X138006287Y-128125500D01*
X138216243Y-128092246D01*
X138418412Y-128026557D01*
X138607816Y-127930051D01*
X138623529Y-127918634D01*
X138642681Y-127904721D01*
X138726730Y-127843656D01*
X138779786Y-127805109D01*
X138779788Y-127805106D01*
X138779792Y-127805104D01*
X138779798Y-127805097D01*
X138779849Y-127805060D01*
X138780551Y-127804344D01*
X138930104Y-127654792D01*
X139039513Y-127504200D01*
X139064106Y-127478894D01*
X139075100Y-127470416D01*
X139140207Y-127445069D01*
X139208683Y-127458943D01*
X139208685Y-127458944D01*
X139208686Y-127458945D01*
X139214868Y-127462207D01*
X139257318Y-127498991D01*
X139370267Y-127654453D01*
X139370272Y-127654460D01*
X139370274Y-127654462D01*
X139370283Y-127654472D01*
X139520528Y-127804717D01*
X139520532Y-127804720D01*
X139520535Y-127804723D01*
X139520540Y-127804727D01*
X139692442Y-127929620D01*
X139881782Y-128026095D01*
X139881787Y-128026096D01*
X139881790Y-128026098D01*
X139989625Y-128061135D01*
X140083871Y-128091757D01*
X140150000Y-128102231D01*
X140150000Y-127236368D01*
X140169685Y-127169329D01*
X140222489Y-127123574D01*
X140291647Y-127113630D01*
X140306086Y-127116592D01*
X140337465Y-127125000D01*
X140462533Y-127125000D01*
X140462535Y-127125000D01*
X140493906Y-127116594D01*
X140563755Y-127118255D01*
X140621618Y-127157417D01*
X140649123Y-127221645D01*
X140650000Y-127236368D01*
X140650000Y-128102229D01*
X140650000Y-128102230D01*
X140706486Y-128093283D01*
X140706492Y-128093283D01*
X140716126Y-128091757D01*
X140716129Y-128091757D01*
X140918217Y-128026095D01*
X141107557Y-127929620D01*
X141279458Y-127804728D01*
X141405728Y-127678457D01*
X141433969Y-127657316D01*
X141446160Y-127650659D01*
X141514430Y-127635808D01*
X141579895Y-127660224D01*
X141579895Y-127660225D01*
X141587512Y-127665927D01*
X141618739Y-127700095D01*
X141707288Y-127843656D01*
X141831344Y-127967712D01*
X141980666Y-128059814D01*
X142147203Y-128114999D01*
X142249991Y-128125500D01*
X143550008Y-128125499D01*
X143652797Y-128114999D01*
X143819334Y-128059814D01*
X143968656Y-127967712D01*
X144092712Y-127843656D01*
X144184814Y-127694334D01*
X144239999Y-127527797D01*
X144250500Y-127425009D01*
X144250499Y-125874992D01*
X144248851Y-125858863D01*
X144239999Y-125772203D01*
X144239998Y-125772200D01*
X144184814Y-125605666D01*
X144092712Y-125456344D01*
X143968656Y-125332288D01*
X143968652Y-125332285D01*
X143873254Y-125273442D01*
X143873254Y-125273443D01*
X143819337Y-125240187D01*
X143819335Y-125240186D01*
X143819329Y-125240184D01*
X143816604Y-125239280D01*
X143816604Y-125239281D01*
X143661265Y-125187807D01*
X143658445Y-125186641D01*
X143652792Y-125184999D01*
X143550019Y-125174500D01*
X143550010Y-125174500D01*
X142249998Y-125174500D01*
X142249981Y-125174501D01*
X142235959Y-125175933D01*
X142147198Y-125185000D01*
X142147193Y-125185001D01*
X142147032Y-125185056D01*
X141980667Y-125240185D01*
X141980665Y-125240186D01*
X141980663Y-125240187D01*
X141926001Y-125273903D01*
X141831340Y-125332290D01*
X141707289Y-125456341D01*
X141707286Y-125456345D01*
X141620909Y-125596384D01*
X141598302Y-125623474D01*
X141587984Y-125632756D01*
X141524979Y-125662958D01*
X141455649Y-125654302D01*
X141452529Y-125652946D01*
X141446906Y-125650503D01*
X141408648Y-125624460D01*
X141279464Y-125495276D01*
X141279459Y-125495272D01*
X141107557Y-125370379D01*
X140918215Y-125273903D01*
X140918211Y-125273901D01*
X140918206Y-125273899D01*
X140716126Y-125208241D01*
X140716127Y-125208241D01*
X140650000Y-125197767D01*
X140650000Y-126063631D01*
X140630315Y-126130670D01*
X140577511Y-126176425D01*
X140508353Y-126186369D01*
X140493908Y-126183406D01*
X140462536Y-126175000D01*
X140462535Y-126175000D01*
X140337465Y-126175000D01*
X140337463Y-126175000D01*
X140306092Y-126183406D01*
X140236242Y-126181743D01*
X140178380Y-126142579D01*
X140150877Y-126078351D01*
X140150000Y-126063631D01*
X140150000Y-125197768D01*
X140149999Y-125197768D01*
X140149995Y-125197768D01*
X140083871Y-125208241D01*
X139881792Y-125273899D01*
X139692438Y-125370381D01*
X139520557Y-125495259D01*
X139520528Y-125495281D01*
X139370283Y-125645526D01*
X139370274Y-125645536D01*
X139370272Y-125645538D01*
X139370267Y-125645545D01*
X139261107Y-125795792D01*
X139236509Y-125821103D01*
X139225517Y-125829579D01*
X139160408Y-125854928D01*
X139091930Y-125841052D01*
X139091922Y-125841048D01*
X139085741Y-125837786D01*
X139043298Y-125801006D01*
X138930113Y-125645219D01*
X138930108Y-125645212D01*
X138930106Y-125645210D01*
X138881280Y-125596384D01*
X138779786Y-125494890D01*
X138607815Y-125369948D01*
X138607814Y-125369947D01*
X138584087Y-125357857D01*
X138555242Y-125337522D01*
X138542832Y-125325801D01*
X138508277Y-125268030D01*
X138504802Y-125255183D01*
X138500500Y-125222806D01*
X138500500Y-119154795D01*
X138505522Y-119119862D01*
X138509433Y-119106543D01*
X138547206Y-119047766D01*
X138610758Y-119018741D01*
X138616192Y-119017959D01*
X138623649Y-119016888D01*
X138660690Y-119017152D01*
X138713389Y-119025500D01*
X138713391Y-119025500D01*
X138886610Y-119025500D01*
X138886611Y-119025500D01*
X139057701Y-118998402D01*
X139222445Y-118944873D01*
X139376788Y-118866232D01*
X139516928Y-118764414D01*
X139611864Y-118669476D01*
X139640116Y-118648326D01*
X139652299Y-118641674D01*
X139720570Y-118626824D01*
X139786033Y-118651241D01*
X139793650Y-118656943D01*
X139824878Y-118691113D01*
X139857285Y-118743652D01*
X139857288Y-118743656D01*
X139981344Y-118867712D01*
X140130666Y-118959814D01*
X140297203Y-119014999D01*
X140399991Y-119025500D01*
X141200008Y-119025499D01*
X141200016Y-119025498D01*
X141200019Y-119025498D01*
X141200027Y-119025497D01*
X141200317Y-119025479D01*
X141201333Y-119025363D01*
X141246459Y-119020753D01*
X141256303Y-119019748D01*
X141256303Y-119019747D01*
X141302797Y-119014999D01*
X141469334Y-118959814D01*
X141618656Y-118867712D01*
X141742712Y-118743656D01*
X141834814Y-118594334D01*
X141889999Y-118427797D01*
X141900500Y-118325009D01*
X141900499Y-116974992D01*
X141889999Y-116872203D01*
X141834814Y-116705666D01*
X141742712Y-116556344D01*
X141618656Y-116432288D01*
X141482609Y-116348374D01*
X141465755Y-116335894D01*
X141446772Y-116319177D01*
X141409605Y-116260567D01*
X141405450Y-116246202D01*
X141405381Y-116245963D01*
X141400500Y-116211515D01*
X141400500Y-113143707D01*
X155499500Y-113143707D01*
X155499500Y-113356291D01*
X155532752Y-113566239D01*
X155598445Y-113768418D01*
X155675507Y-113919659D01*
X155694951Y-113957820D01*
X155819890Y-114129786D01*
X155819892Y-114129788D01*
X155946097Y-114255993D01*
X155967248Y-114284246D01*
X155973900Y-114296428D01*
X155988752Y-114364701D01*
X155964336Y-114430166D01*
X155964331Y-114430173D01*
X155958629Y-114437789D01*
X155924463Y-114469010D01*
X155781345Y-114557286D01*
X155781341Y-114557289D01*
X155657290Y-114681340D01*
X155565187Y-114830662D01*
X155565152Y-114830770D01*
X155521050Y-114963857D01*
X155521044Y-114963875D01*
X155510001Y-114997203D01*
X155510001Y-114997204D01*
X155510000Y-114997204D01*
X155509230Y-115004735D01*
X155509229Y-115004741D01*
X155499500Y-115099973D01*
X155499500Y-115099981D01*
X155499500Y-115099983D01*
X155499500Y-116400001D01*
X155499501Y-116400018D01*
X155510000Y-116502796D01*
X155510001Y-116502799D01*
X155556502Y-116643127D01*
X155565186Y-116669334D01*
X155657288Y-116818656D01*
X155781344Y-116942712D01*
X155930666Y-117034814D01*
X156097203Y-117089999D01*
X156199991Y-117100500D01*
X157800008Y-117100499D01*
X157902797Y-117089999D01*
X158069334Y-117034814D01*
X158218656Y-116942712D01*
X158342712Y-116818656D01*
X158434814Y-116669334D01*
X158489999Y-116502797D01*
X158500500Y-116400009D01*
X158500499Y-115099992D01*
X158489999Y-114997203D01*
X158434814Y-114830666D01*
X158342712Y-114681344D01*
X158218656Y-114557288D01*
X158079052Y-114471180D01*
X158051959Y-114448569D01*
X158042673Y-114438245D01*
X158012477Y-114375242D01*
X158021136Y-114305915D01*
X158024933Y-114297177D01*
X158050974Y-114258920D01*
X158180104Y-114129792D01*
X158229031Y-114062450D01*
X158305048Y-113957820D01*
X158305047Y-113957820D01*
X158305051Y-113957816D01*
X158401557Y-113768412D01*
X158467246Y-113566243D01*
X158500500Y-113356287D01*
X158500500Y-113143713D01*
X158467246Y-112933757D01*
X158401557Y-112731588D01*
X158305051Y-112542184D01*
X158305049Y-112542181D01*
X158305048Y-112542179D01*
X158304702Y-112541703D01*
X158304700Y-112541699D01*
X158180112Y-112370216D01*
X158029788Y-112219892D01*
X158029786Y-112219890D01*
X157857820Y-112094951D01*
X157844167Y-112087994D01*
X157690245Y-112009567D01*
X157690240Y-112009565D01*
X157668414Y-111998444D01*
X157668413Y-111998443D01*
X157668412Y-111998443D01*
X157571550Y-111966970D01*
X157475074Y-111935623D01*
X157470552Y-111933770D01*
X157461362Y-111931600D01*
X157456599Y-111931226D01*
X157304957Y-111907208D01*
X157285489Y-111904124D01*
X157256290Y-111899500D01*
X157256287Y-111899500D01*
X156743713Y-111899500D01*
X156743709Y-111899500D01*
X156704776Y-111905666D01*
X156695042Y-111907208D01*
X156657654Y-111913129D01*
X156533763Y-111932752D01*
X156331582Y-111998445D01*
X156142182Y-112094949D01*
X155970210Y-112219892D01*
X155819892Y-112370210D01*
X155694949Y-112542182D01*
X155598445Y-112731580D01*
X155532752Y-112933759D01*
X155499500Y-113143707D01*
X141400500Y-113143707D01*
X141400500Y-100793707D01*
X155599500Y-100793707D01*
X155599500Y-101006291D01*
X155632752Y-101216239D01*
X155698445Y-101418418D01*
X155791532Y-101601111D01*
X155794951Y-101607820D01*
X155919890Y-101779786D01*
X155919892Y-101779788D01*
X156046097Y-101905993D01*
X156067248Y-101934246D01*
X156073900Y-101946428D01*
X156088752Y-102014701D01*
X156064336Y-102080166D01*
X156064331Y-102080173D01*
X156058629Y-102087789D01*
X156024463Y-102119010D01*
X155881345Y-102207286D01*
X155881341Y-102207289D01*
X155757290Y-102331340D01*
X155665187Y-102480662D01*
X155665152Y-102480770D01*
X155621050Y-102613857D01*
X155621044Y-102613875D01*
X155610001Y-102647203D01*
X155610001Y-102647204D01*
X155610000Y-102647204D01*
X155609230Y-102654735D01*
X155609229Y-102654741D01*
X155599500Y-102749973D01*
X155599500Y-102749981D01*
X155599500Y-102749983D01*
X155599500Y-104050001D01*
X155599501Y-104050018D01*
X155610000Y-104152796D01*
X155610001Y-104152799D01*
X155649220Y-104271153D01*
X155665186Y-104319334D01*
X155757288Y-104468656D01*
X155881344Y-104592712D01*
X156030666Y-104684814D01*
X156197203Y-104739999D01*
X156299991Y-104750500D01*
X157900008Y-104750499D01*
X158002797Y-104739999D01*
X158169334Y-104684814D01*
X158318656Y-104592712D01*
X158442712Y-104468656D01*
X158534814Y-104319334D01*
X158589999Y-104152797D01*
X158600500Y-104050009D01*
X158600499Y-102749992D01*
X158589999Y-102647203D01*
X158534814Y-102480666D01*
X158442712Y-102331344D01*
X158318656Y-102207288D01*
X158179052Y-102121180D01*
X158151959Y-102098569D01*
X158142673Y-102088245D01*
X158112477Y-102025242D01*
X158121136Y-101955915D01*
X158124933Y-101947177D01*
X158150974Y-101908920D01*
X158280104Y-101779792D01*
X158405051Y-101607816D01*
X158501557Y-101418412D01*
X158567246Y-101216243D01*
X158600500Y-101006287D01*
X158600500Y-100793713D01*
X158567246Y-100583757D01*
X158501557Y-100381588D01*
X158405051Y-100192184D01*
X158405049Y-100192181D01*
X158405048Y-100192179D01*
X158404702Y-100191703D01*
X158404700Y-100191699D01*
X158280112Y-100020216D01*
X158129788Y-99869892D01*
X158129786Y-99869890D01*
X157957820Y-99744951D01*
X157944167Y-99737994D01*
X157790245Y-99659567D01*
X157790240Y-99659565D01*
X157768414Y-99648444D01*
X157768413Y-99648443D01*
X157768412Y-99648443D01*
X157671550Y-99616970D01*
X157575074Y-99585623D01*
X157570552Y-99583770D01*
X157561362Y-99581600D01*
X157556599Y-99581226D01*
X157404957Y-99557208D01*
X157385489Y-99554124D01*
X157356290Y-99549500D01*
X157356287Y-99549500D01*
X156843713Y-99549500D01*
X156843709Y-99549500D01*
X156804776Y-99555666D01*
X156795042Y-99557208D01*
X156757654Y-99563129D01*
X156633763Y-99582752D01*
X156431582Y-99648445D01*
X156242182Y-99744949D01*
X156070210Y-99869892D01*
X155919892Y-100020210D01*
X155794949Y-100192182D01*
X155698445Y-100381580D01*
X155632752Y-100583759D01*
X155599500Y-100793707D01*
X141400500Y-100793707D01*
X141400500Y-83667926D01*
X141405522Y-83632993D01*
X141412934Y-83607748D01*
X141444228Y-83555006D01*
X143549332Y-81449903D01*
X148202056Y-76797177D01*
X148230307Y-76776029D01*
X148259403Y-76760141D01*
X148294635Y-76747358D01*
X148336085Y-76739113D01*
X148433497Y-76719737D01*
X148551592Y-76670821D01*
X148579172Y-76659397D01*
X148579172Y-76659396D01*
X148579179Y-76659394D01*
X148579184Y-76659390D01*
X148581534Y-76658417D01*
X148581534Y-76658416D01*
X148581537Y-76658416D01*
X148590792Y-76654582D01*
X148599677Y-76645698D01*
X148655002Y-76608730D01*
X148710289Y-76571789D01*
X148820330Y-76461747D01*
X148839449Y-76446109D01*
X148856942Y-76434502D01*
X148858027Y-76436138D01*
X148874732Y-76422166D01*
X148944053Y-76413428D01*
X149007094Y-76443555D01*
X149029739Y-76470627D01*
X149030967Y-76472613D01*
X149049500Y-76537826D01*
X149049500Y-88311590D01*
X149049499Y-88311664D01*
X149049499Y-88436960D01*
X149043600Y-88457046D01*
X149090423Y-88631786D01*
X149110662Y-88666841D01*
X149110663Y-88666841D01*
X149119358Y-88681901D01*
X149119359Y-88681904D01*
X149119360Y-88681904D01*
X149131422Y-88702796D01*
X149131422Y-88702798D01*
X149169467Y-88768695D01*
X149169477Y-88768711D01*
X149169481Y-88768717D01*
X149169485Y-88768722D01*
X149290756Y-88889993D01*
X149290794Y-88890029D01*
X153081287Y-92680523D01*
X153081969Y-92681014D01*
X153084475Y-92682363D01*
X153218209Y-92759573D01*
X153218216Y-92759577D01*
X153370943Y-92800501D01*
X153370945Y-92800501D01*
X153536654Y-92800501D01*
X153538558Y-92800501D01*
X153538621Y-92800500D01*
X155646451Y-92800500D01*
X155681383Y-92805521D01*
X155697764Y-92810331D01*
X155754779Y-92846115D01*
X155763712Y-92855988D01*
X155782242Y-92882880D01*
X155794947Y-92907814D01*
X155794948Y-92907815D01*
X155919890Y-93079786D01*
X155919892Y-93079788D01*
X156046460Y-93206356D01*
X156067611Y-93234609D01*
X156074263Y-93246791D01*
X156089115Y-93315064D01*
X156064699Y-93380529D01*
X156064697Y-93380531D01*
X156058997Y-93388145D01*
X156024829Y-93419371D01*
X155919802Y-93484152D01*
X155881659Y-93507680D01*
X155881658Y-93507681D01*
X155881652Y-93507685D01*
X155795438Y-93593900D01*
X155757684Y-93631654D01*
X155679887Y-93757783D01*
X155665641Y-93780879D01*
X155665638Y-93780888D01*
X155610494Y-93947299D01*
X155610493Y-93947304D01*
X155600000Y-94050007D01*
X155600000Y-94050010D01*
X155600000Y-94050013D01*
X155600000Y-94450000D01*
X156487750Y-94450000D01*
X156554789Y-94469685D01*
X156600544Y-94522489D01*
X156610488Y-94591647D01*
X156607524Y-94606095D01*
X156600000Y-94634171D01*
X156600000Y-94765828D01*
X156607524Y-94793905D01*
X156605863Y-94863755D01*
X156566701Y-94921618D01*
X156502473Y-94949123D01*
X156487750Y-94950000D01*
X155600001Y-94950000D01*
X155600001Y-95349995D01*
X155610493Y-95452694D01*
X155610493Y-95452695D01*
X155610494Y-95452697D01*
X155665641Y-95619119D01*
X155665643Y-95619124D01*
X155757684Y-95768345D01*
X155881654Y-95892315D01*
X156030875Y-95984356D01*
X156030880Y-95984358D01*
X156197299Y-96039504D01*
X156197300Y-96039504D01*
X156197302Y-96039505D01*
X156197309Y-96039506D01*
X156300019Y-96049999D01*
X156849999Y-96049999D01*
X156850000Y-96049998D01*
X156850000Y-95312250D01*
X156869685Y-95245211D01*
X156922489Y-95199456D01*
X156991647Y-95189512D01*
X157006093Y-95192475D01*
X157034174Y-95200000D01*
X157165825Y-95200000D01*
X157165826Y-95200000D01*
X157193905Y-95192476D01*
X157263755Y-95194137D01*
X157321618Y-95233299D01*
X157349123Y-95297527D01*
X157350000Y-95312250D01*
X157350000Y-96049999D01*
X157899960Y-96049999D01*
X157899972Y-96049999D01*
X157899986Y-96049998D01*
X158002697Y-96039505D01*
X158169119Y-95984358D01*
X158169124Y-95984356D01*
X158318345Y-95892315D01*
X158442315Y-95768345D01*
X158534356Y-95619124D01*
X158534358Y-95619119D01*
X158589505Y-95452697D01*
X158589506Y-95452690D01*
X158599999Y-95349986D01*
X158600000Y-95349973D01*
X158600000Y-94950000D01*
X157712250Y-94950000D01*
X157645211Y-94930315D01*
X157599456Y-94877511D01*
X157589512Y-94808353D01*
X157592476Y-94793905D01*
X157599999Y-94765828D01*
X157600000Y-94765825D01*
X157600000Y-94634175D01*
X157599999Y-94634171D01*
X157592476Y-94606095D01*
X157594137Y-94536245D01*
X157633299Y-94478382D01*
X157697527Y-94450877D01*
X157712250Y-94450000D01*
X158599999Y-94450000D01*
X158599999Y-94050032D01*
X158599999Y-94050028D01*
X158599998Y-94050013D01*
X158589505Y-93947302D01*
X158534358Y-93780880D01*
X158534356Y-93780875D01*
X158442315Y-93631654D01*
X158318345Y-93507684D01*
X158318341Y-93507681D01*
X158178688Y-93421541D01*
X158151597Y-93398933D01*
X158148801Y-93395825D01*
X158142314Y-93388613D01*
X158112115Y-93325611D01*
X158120771Y-93256282D01*
X158124570Y-93247540D01*
X158150611Y-93209283D01*
X158280104Y-93079792D01*
X158322490Y-93021453D01*
X158405048Y-92907820D01*
X158405047Y-92907820D01*
X158405051Y-92907816D01*
X158501557Y-92718412D01*
X158567246Y-92516243D01*
X158600500Y-92306287D01*
X158600500Y-92093713D01*
X158567246Y-91883757D01*
X158501557Y-91681588D01*
X158405051Y-91492184D01*
X158405049Y-91492181D01*
X158405048Y-91492179D01*
X158404702Y-91491703D01*
X158404700Y-91491699D01*
X158280112Y-91320216D01*
X158129788Y-91169892D01*
X158129786Y-91169890D01*
X157957820Y-91044951D01*
X157944167Y-91037994D01*
X157790245Y-90959567D01*
X157790240Y-90959565D01*
X157768414Y-90948444D01*
X157768413Y-90948443D01*
X157768412Y-90948443D01*
X157671550Y-90916970D01*
X157575074Y-90885623D01*
X157570552Y-90883770D01*
X157561362Y-90881600D01*
X157556599Y-90881226D01*
X157404957Y-90857208D01*
X157385489Y-90854124D01*
X157356290Y-90849500D01*
X157356287Y-90849500D01*
X156843713Y-90849500D01*
X156843709Y-90849500D01*
X156804776Y-90855666D01*
X156795042Y-90857208D01*
X156757654Y-90863129D01*
X156633763Y-90882752D01*
X156431582Y-90948445D01*
X156242182Y-91044949D01*
X156070210Y-91169892D01*
X155919892Y-91320210D01*
X155799466Y-91485964D01*
X155799462Y-91485969D01*
X155794948Y-91492184D01*
X155794947Y-91492185D01*
X155781938Y-91517716D01*
X155780930Y-91519543D01*
X155778829Y-91521623D01*
X155762521Y-91544758D01*
X155750801Y-91557167D01*
X155693041Y-91591719D01*
X155680195Y-91595195D01*
X155647807Y-91599500D01*
X153767928Y-91599500D01*
X153732992Y-91594477D01*
X153707750Y-91587065D01*
X153655005Y-91555769D01*
X150299426Y-88200190D01*
X150278274Y-88171934D01*
X150265667Y-88148845D01*
X150250500Y-88089420D01*
X150250500Y-74567926D01*
X150255522Y-74532993D01*
X150260364Y-74516503D01*
X150262934Y-74507748D01*
X150294228Y-74455006D01*
X151148735Y-73600500D01*
X152002057Y-72747176D01*
X152030307Y-72726029D01*
X152059403Y-72710141D01*
X152094635Y-72697358D01*
X152136085Y-72689113D01*
X152233497Y-72669737D01*
X152311574Y-72637395D01*
X152345769Y-72628667D01*
X152346583Y-72628579D01*
X152359570Y-72627183D01*
X152428329Y-72639587D01*
X152479466Y-72687195D01*
X152482141Y-72691703D01*
X152499500Y-72754977D01*
X152499500Y-81661590D01*
X152499499Y-81661664D01*
X152499499Y-81786960D01*
X152493600Y-81807046D01*
X152540425Y-81981792D01*
X152548580Y-81995916D01*
X152548585Y-81995923D01*
X152559841Y-82015419D01*
X152559842Y-82015423D01*
X152559844Y-82015423D01*
X152619476Y-82118711D01*
X152619477Y-82118712D01*
X152619482Y-82118718D01*
X152619488Y-82118725D01*
X152740314Y-82239551D01*
X152740359Y-82239594D01*
X154464085Y-83963320D01*
X154464106Y-83963342D01*
X154465149Y-83964385D01*
X154469479Y-83968715D01*
X154469480Y-83968716D01*
X154581284Y-84080520D01*
X154646917Y-84118412D01*
X154661059Y-84126576D01*
X154661072Y-84126585D01*
X154668096Y-84130640D01*
X154668097Y-84130641D01*
X154706143Y-84152606D01*
X154706149Y-84152612D01*
X154706150Y-84152611D01*
X154718211Y-84159575D01*
X154718212Y-84159575D01*
X154718215Y-84159577D01*
X154870943Y-84200501D01*
X154870946Y-84200501D01*
X155036653Y-84200501D01*
X155038557Y-84200501D01*
X155038620Y-84200500D01*
X155646451Y-84200500D01*
X155681383Y-84205521D01*
X155697764Y-84210331D01*
X155754779Y-84246115D01*
X155763712Y-84255988D01*
X155782242Y-84282880D01*
X155794947Y-84307814D01*
X155794948Y-84307815D01*
X155919890Y-84479786D01*
X155919892Y-84479788D01*
X156046460Y-84606356D01*
X156067611Y-84634609D01*
X156074263Y-84646791D01*
X156089115Y-84715064D01*
X156064699Y-84780529D01*
X156064697Y-84780531D01*
X156058997Y-84788145D01*
X156024829Y-84819371D01*
X155919802Y-84884152D01*
X155881659Y-84907680D01*
X155881654Y-84907683D01*
X155881652Y-84907685D01*
X155770367Y-85018971D01*
X155757684Y-85031654D01*
X155666894Y-85178848D01*
X155665641Y-85180879D01*
X155665638Y-85180888D01*
X155610494Y-85347299D01*
X155610493Y-85347304D01*
X155600000Y-85450007D01*
X155600000Y-85450010D01*
X155600000Y-85450013D01*
X155600000Y-85850000D01*
X156487750Y-85850000D01*
X156554789Y-85869685D01*
X156600544Y-85922489D01*
X156610488Y-85991647D01*
X156607524Y-86006095D01*
X156600000Y-86034171D01*
X156600000Y-86165828D01*
X156607524Y-86193905D01*
X156605863Y-86263755D01*
X156566701Y-86321618D01*
X156502473Y-86349123D01*
X156487750Y-86350000D01*
X155600001Y-86350000D01*
X155600001Y-86749995D01*
X155610493Y-86852694D01*
X155610493Y-86852695D01*
X155610494Y-86852697D01*
X155665641Y-87019119D01*
X155665643Y-87019124D01*
X155757684Y-87168345D01*
X155881654Y-87292315D01*
X156030875Y-87384356D01*
X156030880Y-87384358D01*
X156197299Y-87439504D01*
X156197300Y-87439504D01*
X156197302Y-87439505D01*
X156197309Y-87439506D01*
X156300019Y-87449999D01*
X156849999Y-87449999D01*
X156850000Y-87449998D01*
X156850000Y-86712250D01*
X156869685Y-86645211D01*
X156922489Y-86599456D01*
X156991647Y-86589512D01*
X157006093Y-86592475D01*
X157034174Y-86600000D01*
X157165825Y-86600000D01*
X157165826Y-86600000D01*
X157193905Y-86592476D01*
X157263755Y-86594137D01*
X157321618Y-86633299D01*
X157349123Y-86697527D01*
X157350000Y-86712250D01*
X157350000Y-87449999D01*
X157899960Y-87449999D01*
X157899972Y-87449999D01*
X157899986Y-87449998D01*
X158002697Y-87439505D01*
X158169119Y-87384358D01*
X158169124Y-87384356D01*
X158318345Y-87292315D01*
X158442315Y-87168345D01*
X158534356Y-87019124D01*
X158534358Y-87019119D01*
X158589505Y-86852697D01*
X158589506Y-86852690D01*
X158599999Y-86749986D01*
X158600000Y-86749973D01*
X158600000Y-86350000D01*
X157712250Y-86350000D01*
X157645211Y-86330315D01*
X157599456Y-86277511D01*
X157589512Y-86208353D01*
X157592476Y-86193905D01*
X157599999Y-86165828D01*
X157600000Y-86165825D01*
X157600000Y-86034175D01*
X157599999Y-86034171D01*
X157592476Y-86006095D01*
X157594137Y-85936245D01*
X157633299Y-85878382D01*
X157697527Y-85850877D01*
X157712250Y-85850000D01*
X158599999Y-85850000D01*
X158599999Y-85450026D01*
X158599998Y-85450023D01*
X158599998Y-85450013D01*
X158589505Y-85347302D01*
X158534358Y-85180880D01*
X158534356Y-85180875D01*
X158442315Y-85031654D01*
X158318345Y-84907684D01*
X158318341Y-84907681D01*
X158178688Y-84821541D01*
X158151597Y-84798933D01*
X158148801Y-84795825D01*
X158142314Y-84788613D01*
X158112115Y-84725611D01*
X158120771Y-84656282D01*
X158124570Y-84647540D01*
X158150611Y-84609283D01*
X158280104Y-84479792D01*
X158281254Y-84478210D01*
X158405048Y-84307820D01*
X158405047Y-84307820D01*
X158405051Y-84307816D01*
X158405054Y-84307808D01*
X158425446Y-84279742D01*
X158433730Y-84251529D01*
X158501557Y-84118412D01*
X158567246Y-83916243D01*
X158600500Y-83706287D01*
X158600500Y-83493713D01*
X158567246Y-83283757D01*
X158501557Y-83081588D01*
X158405051Y-82892184D01*
X158405049Y-82892181D01*
X158405048Y-82892179D01*
X158404702Y-82891703D01*
X158404700Y-82891699D01*
X158280112Y-82720216D01*
X158129788Y-82569892D01*
X158129786Y-82569890D01*
X157957820Y-82444951D01*
X157944167Y-82437994D01*
X157790245Y-82359567D01*
X157790240Y-82359565D01*
X157768414Y-82348444D01*
X157768413Y-82348443D01*
X157768412Y-82348443D01*
X157671550Y-82316970D01*
X157575074Y-82285623D01*
X157570552Y-82283770D01*
X157561362Y-82281600D01*
X157556599Y-82281226D01*
X157404957Y-82257208D01*
X157385489Y-82254124D01*
X157356290Y-82249500D01*
X157356287Y-82249500D01*
X156843713Y-82249500D01*
X156843709Y-82249500D01*
X156804776Y-82255666D01*
X156795042Y-82257208D01*
X156757654Y-82263129D01*
X156633763Y-82282752D01*
X156431582Y-82348445D01*
X156242182Y-82444949D01*
X156070210Y-82569892D01*
X155919892Y-82720210D01*
X155799466Y-82885964D01*
X155799462Y-82885969D01*
X155794948Y-82892184D01*
X155794947Y-82892185D01*
X155781938Y-82917716D01*
X155780930Y-82919543D01*
X155778829Y-82921623D01*
X155762521Y-82944758D01*
X155750801Y-82957167D01*
X155693041Y-82991719D01*
X155680195Y-82995195D01*
X155647807Y-82999500D01*
X155267927Y-82999500D01*
X155232991Y-82994477D01*
X155207749Y-82987065D01*
X155155004Y-82955769D01*
X153749426Y-81550191D01*
X153728274Y-81521935D01*
X153715667Y-81498846D01*
X153700500Y-81439421D01*
X153700500Y-74078848D01*
X156299499Y-74078848D01*
X156330257Y-74233471D01*
X156330264Y-74233502D01*
X156390598Y-74379165D01*
X156390603Y-74379174D01*
X156390613Y-74379191D01*
X156478211Y-74510290D01*
X156478217Y-74510297D01*
X156589701Y-74621781D01*
X156589707Y-74621786D01*
X156589711Y-74621789D01*
X156720814Y-74709390D01*
X156720827Y-74709397D01*
X156851950Y-74763709D01*
X156866503Y-74769737D01*
X156866510Y-74769738D01*
X156866510Y-74769739D01*
X156950279Y-74786401D01*
X157021153Y-74800499D01*
X157021156Y-74800500D01*
X157021158Y-74800500D01*
X157178844Y-74800500D01*
X157178845Y-74800499D01*
X157333497Y-74769737D01*
X157479179Y-74709394D01*
X157610289Y-74621789D01*
X157664152Y-74567926D01*
X157721788Y-74510291D01*
X157721789Y-74510289D01*
X157809394Y-74379179D01*
X157811841Y-74373270D01*
X157812855Y-74370825D01*
X157814556Y-74366716D01*
X157823064Y-74346172D01*
X157823068Y-74346167D01*
X157823067Y-74346167D01*
X157843939Y-74295778D01*
X157869737Y-74233497D01*
X157900500Y-74078842D01*
X157900500Y-73921158D01*
X157900500Y-73921155D01*
X157900500Y-73920978D01*
X157900082Y-73919060D01*
X157882204Y-73829179D01*
X157869737Y-73766503D01*
X157869735Y-73766498D01*
X157809397Y-73620827D01*
X157809390Y-73620814D01*
X157721789Y-73489711D01*
X157721786Y-73489707D01*
X157721781Y-73489701D01*
X157610297Y-73378217D01*
X157610291Y-73378212D01*
X157610290Y-73378211D01*
X157479191Y-73290613D01*
X157479190Y-73290612D01*
X157479185Y-73290609D01*
X157479172Y-73290602D01*
X157479165Y-73290598D01*
X157333502Y-73230264D01*
X157333471Y-73230257D01*
X157178847Y-73199500D01*
X157178845Y-73199500D01*
X157178842Y-73199500D01*
X157021158Y-73199500D01*
X157021155Y-73199500D01*
X157021153Y-73199500D01*
X156866527Y-73230257D01*
X156866496Y-73230264D01*
X156720833Y-73290598D01*
X156720824Y-73290603D01*
X156720807Y-73290613D01*
X156589708Y-73378211D01*
X156589707Y-73378212D01*
X156589701Y-73378217D01*
X156478217Y-73489701D01*
X156478212Y-73489707D01*
X156478211Y-73489708D01*
X156390613Y-73620807D01*
X156390603Y-73620824D01*
X156390598Y-73620833D01*
X156330264Y-73766496D01*
X156330257Y-73766527D01*
X156299500Y-73921150D01*
X156299500Y-73921153D01*
X156299500Y-74078846D01*
X156299500Y-74078848D01*
X156299499Y-74078848D01*
X153700500Y-74078848D01*
X153700500Y-72087864D01*
X153700501Y-72087813D01*
X153700501Y-71917356D01*
X153685571Y-71861638D01*
X153659577Y-71764628D01*
X153607124Y-71673776D01*
X153598518Y-71658870D01*
X153582372Y-71630902D01*
X153580956Y-71628270D01*
X153580572Y-71627748D01*
X153183594Y-71230770D01*
X153162444Y-71202517D01*
X153146557Y-71173423D01*
X153133771Y-71138186D01*
X153106811Y-71002649D01*
X153106408Y-71000294D01*
X153106151Y-70999330D01*
X153106149Y-70999324D01*
X153045811Y-70853653D01*
X153045809Y-70853649D01*
X153045808Y-70853647D01*
X152991695Y-70772662D01*
X152991404Y-70772218D01*
X152991117Y-70771275D01*
X152976765Y-70741277D01*
X152972094Y-70726360D01*
X152971757Y-70707513D01*
X152971104Y-70705362D01*
X152971682Y-70703322D01*
X152970846Y-70656505D01*
X152972793Y-70649405D01*
X153004689Y-70594543D01*
X153926165Y-69673067D01*
X153954410Y-69651922D01*
X153972833Y-69641862D01*
X154031146Y-69626701D01*
X154037879Y-69626641D01*
X154063160Y-69629018D01*
X154153580Y-69647004D01*
X154171154Y-69650500D01*
X154328844Y-69650500D01*
X154332964Y-69650500D01*
X154340814Y-69648118D01*
X154483497Y-69619737D01*
X154629179Y-69559394D01*
X154760289Y-69471789D01*
X154871789Y-69360289D01*
X154959394Y-69229179D01*
X154961841Y-69223270D01*
X154962855Y-69220825D01*
X154967537Y-69209519D01*
X154973064Y-69196172D01*
X154973068Y-69196167D01*
X154973067Y-69196167D01*
X155005530Y-69117794D01*
X155019737Y-69083497D01*
X155050500Y-68928842D01*
X155050500Y-68771158D01*
X155050500Y-68771155D01*
X155050500Y-68770973D01*
X155050065Y-68768972D01*
X155041691Y-68726874D01*
X155020395Y-68619815D01*
X155019984Y-68617406D01*
X155019737Y-68616507D01*
X155019737Y-68616503D01*
X155013425Y-68601264D01*
X154975368Y-68509385D01*
X154959400Y-68470833D01*
X154959395Y-68470824D01*
X154959390Y-68470814D01*
X154871789Y-68339711D01*
X154871786Y-68339707D01*
X154871781Y-68339701D01*
X154760297Y-68228217D01*
X154760291Y-68228212D01*
X154760290Y-68228211D01*
X154629191Y-68140613D01*
X154629190Y-68140612D01*
X154629185Y-68140609D01*
X154629172Y-68140602D01*
X154629165Y-68140598D01*
X154483502Y-68080264D01*
X154483471Y-68080257D01*
X154328847Y-68049500D01*
X154328845Y-68049500D01*
X154328842Y-68049500D01*
X154171158Y-68049500D01*
X154171155Y-68049500D01*
X154171153Y-68049500D01*
X154038432Y-68075900D01*
X154038429Y-68075900D01*
X154016510Y-68080261D01*
X154016507Y-68080261D01*
X153915506Y-68122096D01*
X153913555Y-68122830D01*
X153910602Y-68123048D01*
X153883188Y-68130046D01*
X153867644Y-68131717D01*
X153846071Y-68127824D01*
X153843876Y-68127987D01*
X153842334Y-68127150D01*
X153798884Y-68119310D01*
X153792312Y-68116020D01*
X153744721Y-68074030D01*
X153721789Y-68039711D01*
X153721786Y-68039707D01*
X153721785Y-68039705D01*
X153610297Y-67928217D01*
X153610291Y-67928212D01*
X153610290Y-67928211D01*
X153479191Y-67840613D01*
X153479190Y-67840612D01*
X153479185Y-67840609D01*
X153479172Y-67840602D01*
X153479165Y-67840598D01*
X153333502Y-67780264D01*
X153333471Y-67780257D01*
X153263924Y-67766423D01*
X153230642Y-67754682D01*
X153218573Y-67748369D01*
X153168294Y-67699854D01*
X153152225Y-67631857D01*
X153171138Y-67572386D01*
X153173764Y-67568220D01*
X153175543Y-67565394D01*
X153192766Y-67543827D01*
X154280780Y-66455813D01*
X154309027Y-66434667D01*
X154338128Y-66418777D01*
X154373355Y-66405995D01*
X154461653Y-66388433D01*
X154607335Y-66328090D01*
X154738445Y-66240485D01*
X154849945Y-66128985D01*
X154937550Y-65997875D01*
X154997893Y-65852193D01*
X155028656Y-65697538D01*
X155028656Y-65539854D01*
X155028656Y-65539851D01*
X155028656Y-65539667D01*
X155028220Y-65537662D01*
X155006640Y-65429172D01*
X154997893Y-65385199D01*
X154955764Y-65283489D01*
X154937553Y-65239523D01*
X154937546Y-65239510D01*
X154849945Y-65108407D01*
X154849942Y-65108403D01*
X154849937Y-65108397D01*
X154845673Y-65104133D01*
X154824521Y-65075878D01*
X154822283Y-65071780D01*
X154817029Y-65062158D01*
X154802178Y-64993898D01*
X154802307Y-64992089D01*
X154821673Y-64933893D01*
X154825863Y-64927373D01*
X154842487Y-64906745D01*
X157229773Y-62519460D01*
X157229777Y-62519458D01*
X157247215Y-62502020D01*
X157247216Y-62502020D01*
X157359020Y-62390216D01*
X157411394Y-62299500D01*
X157438077Y-62253285D01*
X157479001Y-62100557D01*
X157479001Y-61942443D01*
X157479001Y-61934848D01*
X157479001Y-61933164D01*
X157479000Y-61933090D01*
X157479000Y-60754057D01*
X157484022Y-60719124D01*
X157487933Y-60705805D01*
X157525706Y-60647028D01*
X157589258Y-60618003D01*
X157594455Y-60617256D01*
X157659544Y-60625433D01*
X157766503Y-60669737D01*
X157921153Y-60700499D01*
X157921156Y-60700500D01*
X157921158Y-60700500D01*
X158078844Y-60700500D01*
X158078845Y-60700499D01*
X158233497Y-60669737D01*
X158379179Y-60609394D01*
X158510289Y-60521789D01*
X158621789Y-60410289D01*
X158709394Y-60279179D01*
X158769737Y-60133497D01*
X158800500Y-59978842D01*
X158800500Y-59821158D01*
X158800500Y-59821155D01*
X158800500Y-59820973D01*
X158800065Y-59818972D01*
X158770397Y-59669824D01*
X158769994Y-59667467D01*
X158769738Y-59666508D01*
X158769737Y-59666506D01*
X158769737Y-59666503D01*
X158769735Y-59666498D01*
X158709397Y-59520827D01*
X158709390Y-59520814D01*
X158621789Y-59389711D01*
X158621786Y-59389707D01*
X158621781Y-59389701D01*
X158510297Y-59278217D01*
X158510291Y-59278212D01*
X158510290Y-59278211D01*
X158379191Y-59190613D01*
X158379190Y-59190612D01*
X158379185Y-59190609D01*
X158379172Y-59190602D01*
X158379165Y-59190598D01*
X158233502Y-59130264D01*
X158233471Y-59130257D01*
X158078847Y-59099500D01*
X158078845Y-59099500D01*
X158078842Y-59099500D01*
X157921158Y-59099500D01*
X157921155Y-59099500D01*
X157921153Y-59099500D01*
X157766527Y-59130257D01*
X157766496Y-59130264D01*
X157666921Y-59171509D01*
X157632731Y-59180237D01*
X157627258Y-59180825D01*
X157618933Y-59181720D01*
X157550175Y-59169319D01*
X157499035Y-59121711D01*
X157499026Y-59121696D01*
X157496353Y-59117190D01*
X157479000Y-59053926D01*
X157479000Y-48469951D01*
X157479001Y-48469900D01*
X157479001Y-48299445D01*
X157479001Y-48299443D01*
X157438077Y-48146715D01*
X157394028Y-48070421D01*
X157359020Y-48009784D01*
X157247216Y-47897980D01*
X157247215Y-47897979D01*
X157242885Y-47893649D01*
X157241863Y-47892627D01*
X157241820Y-47892585D01*
X156447181Y-47097946D01*
X156426031Y-47069693D01*
X156410144Y-47040599D01*
X156397359Y-47005366D01*
X156370395Y-46869815D01*
X156369983Y-46867403D01*
X156369738Y-46866507D01*
X156369737Y-46866505D01*
X156369737Y-46866503D01*
X156313728Y-46731284D01*
X156309397Y-46720827D01*
X156309390Y-46720814D01*
X156221789Y-46589711D01*
X156221786Y-46589707D01*
X156221781Y-46589701D01*
X156110297Y-46478217D01*
X156110291Y-46478212D01*
X156110290Y-46478211D01*
X155979191Y-46390613D01*
X155979190Y-46390612D01*
X155979185Y-46390609D01*
X155979172Y-46390602D01*
X155979165Y-46390598D01*
X155833502Y-46330264D01*
X155833471Y-46330257D01*
X155678847Y-46299500D01*
X155678845Y-46299500D01*
X155678842Y-46299500D01*
X155521158Y-46299500D01*
X155521155Y-46299500D01*
X155521153Y-46299500D01*
X155366527Y-46330257D01*
X155366496Y-46330264D01*
X155220833Y-46390598D01*
X155220824Y-46390603D01*
X155220807Y-46390613D01*
X155089708Y-46478211D01*
X155089707Y-46478212D01*
X155089701Y-46478217D01*
X154978217Y-46589701D01*
X154978212Y-46589707D01*
X154978211Y-46589708D01*
X154890613Y-46720807D01*
X154890603Y-46720824D01*
X154890598Y-46720833D01*
X154830264Y-46866496D01*
X154830257Y-46866527D01*
X154799500Y-47021150D01*
X154799500Y-47021153D01*
X154799500Y-47178846D01*
X154799500Y-47178848D01*
X154799499Y-47178848D01*
X154830257Y-47333471D01*
X154830264Y-47333502D01*
X154890598Y-47479165D01*
X154890603Y-47479174D01*
X154890613Y-47479191D01*
X154978211Y-47610290D01*
X154978212Y-47610291D01*
X154978217Y-47610297D01*
X155089701Y-47721781D01*
X155089707Y-47721786D01*
X155089711Y-47721789D01*
X155220814Y-47809390D01*
X155220827Y-47809397D01*
X155366498Y-47869735D01*
X155366503Y-47869737D01*
X155393474Y-47875101D01*
X155431099Y-47882586D01*
X155431123Y-47882590D01*
X155431147Y-47882595D01*
X155504364Y-47897159D01*
X155537644Y-47908901D01*
X155567021Y-47924268D01*
X155597227Y-47946462D01*
X156229073Y-48578308D01*
X156250223Y-48606560D01*
X156262831Y-48629649D01*
X156278000Y-48689078D01*
X156278000Y-50472487D01*
X156272976Y-50507425D01*
X156269789Y-50518278D01*
X156232014Y-50577055D01*
X156168457Y-50606078D01*
X156099307Y-50596137D01*
X156092329Y-50592950D01*
X156056157Y-50567836D01*
X155388629Y-49900308D01*
X155367480Y-49872058D01*
X155360825Y-49859870D01*
X155345974Y-49791600D01*
X155370388Y-49726139D01*
X155373541Y-49721928D01*
X155425344Y-49681691D01*
X155479179Y-49659394D01*
X155610289Y-49571789D01*
X155721789Y-49460289D01*
X155809394Y-49329179D01*
X155869737Y-49183497D01*
X155900500Y-49028842D01*
X155900500Y-48871158D01*
X155900500Y-48871155D01*
X155900500Y-48870973D01*
X155900065Y-48868972D01*
X155870395Y-48719815D01*
X155869983Y-48717403D01*
X155869738Y-48716507D01*
X155869737Y-48716505D01*
X155869737Y-48716503D01*
X155843118Y-48652239D01*
X155841209Y-48647631D01*
X155831877Y-48625101D01*
X155809397Y-48570827D01*
X155809390Y-48570814D01*
X155721789Y-48439711D01*
X155721786Y-48439707D01*
X155721781Y-48439701D01*
X155610297Y-48328217D01*
X155610290Y-48328211D01*
X155479191Y-48240613D01*
X155479190Y-48240612D01*
X155479185Y-48240609D01*
X155479172Y-48240602D01*
X155479165Y-48240598D01*
X155333502Y-48180264D01*
X155333471Y-48180257D01*
X155178847Y-48149500D01*
X155178845Y-48149500D01*
X155178842Y-48149500D01*
X155021158Y-48149500D01*
X155021155Y-48149500D01*
X155021153Y-48149500D01*
X154866527Y-48180257D01*
X154866496Y-48180264D01*
X154720833Y-48240598D01*
X154720824Y-48240603D01*
X154720807Y-48240613D01*
X154589709Y-48328211D01*
X154589701Y-48328217D01*
X154478217Y-48439701D01*
X154478212Y-48439707D01*
X154478211Y-48439708D01*
X154390608Y-48570815D01*
X154390602Y-48570828D01*
X154371361Y-48617279D01*
X154353353Y-48647631D01*
X154344645Y-48658437D01*
X154287252Y-48698285D01*
X154217430Y-48700779D01*
X154212351Y-48699483D01*
X154155338Y-48667017D01*
X152231014Y-46742693D01*
X152231005Y-46742683D01*
X152209129Y-46720807D01*
X152107803Y-46619481D01*
X152107802Y-46619480D01*
X152039800Y-46580220D01*
X152037739Y-46578920D01*
X152033575Y-46574197D01*
X152028516Y-46569798D01*
X152005928Y-46560663D01*
X151970872Y-46540423D01*
X151932689Y-46530192D01*
X151818143Y-46499499D01*
X151818140Y-46499499D01*
X151650529Y-46499499D01*
X151650466Y-46499500D01*
X151097596Y-46499500D01*
X151062661Y-46494477D01*
X151030852Y-46485137D01*
X150996898Y-46469263D01*
X150879185Y-46390609D01*
X150879172Y-46390602D01*
X150879165Y-46390598D01*
X150733502Y-46330264D01*
X150733471Y-46330257D01*
X150578847Y-46299500D01*
X150578845Y-46299500D01*
X150578842Y-46299500D01*
X150421158Y-46299500D01*
X150421155Y-46299500D01*
X150421153Y-46299500D01*
X150266527Y-46330257D01*
X150266496Y-46330264D01*
X150120833Y-46390598D01*
X150120824Y-46390603D01*
X150120807Y-46390613D01*
X149989708Y-46478211D01*
X149989707Y-46478212D01*
X149989701Y-46478217D01*
X149878217Y-46589701D01*
X149878212Y-46589707D01*
X149878211Y-46589708D01*
X149790613Y-46720807D01*
X149790603Y-46720824D01*
X149790598Y-46720833D01*
X149730264Y-46866496D01*
X149730257Y-46866527D01*
X149699500Y-47021150D01*
X149699500Y-47021153D01*
X149699500Y-47178846D01*
X149699500Y-47178848D01*
X149699499Y-47178848D01*
X149730257Y-47333471D01*
X149730264Y-47333502D01*
X149790598Y-47479165D01*
X149790603Y-47479174D01*
X149790613Y-47479191D01*
X149878211Y-47610290D01*
X149878212Y-47610291D01*
X149878217Y-47610297D01*
X149989701Y-47721781D01*
X149989707Y-47721786D01*
X149989711Y-47721789D01*
X150120814Y-47809390D01*
X150120827Y-47809397D01*
X150266498Y-47869735D01*
X150266503Y-47869737D01*
X150386666Y-47893639D01*
X150413528Y-47898982D01*
X150416252Y-47899704D01*
X150421155Y-47900500D01*
X150578844Y-47900500D01*
X150582964Y-47900500D01*
X150590814Y-47898118D01*
X150733497Y-47869737D01*
X150879179Y-47809394D01*
X150893385Y-47799902D01*
X150909073Y-47789420D01*
X150976704Y-47744230D01*
X150996050Y-47731303D01*
X151027889Y-47716071D01*
X151059527Y-47706165D01*
X151096578Y-47700500D01*
X151421159Y-47700500D01*
X151456091Y-47705521D01*
X151481335Y-47712934D01*
X151534081Y-47744230D01*
X155359420Y-51569569D01*
X155392905Y-51630892D01*
X155387921Y-51700584D01*
X155346049Y-51756517D01*
X155280585Y-51780934D01*
X155271739Y-51781250D01*
X146277500Y-51781250D01*
X146277500Y-58028902D01*
X146257815Y-58095941D01*
X146205011Y-58141696D01*
X146135853Y-58151640D01*
X146072297Y-58122615D01*
X146065819Y-58116583D01*
X145999426Y-58050190D01*
X145978274Y-58021934D01*
X145965667Y-57998845D01*
X145950500Y-57939420D01*
X145950500Y-56941451D01*
X145950501Y-56941400D01*
X145950501Y-56770945D01*
X145950501Y-56770943D01*
X145909577Y-56618215D01*
X145878662Y-56564669D01*
X145830520Y-56481284D01*
X145718716Y-56369480D01*
X145718715Y-56369479D01*
X145714385Y-56365149D01*
X145713363Y-56364127D01*
X145713320Y-56364085D01*
X141941928Y-52592693D01*
X141941908Y-52592671D01*
X141818725Y-52469488D01*
X141818718Y-52469482D01*
X141818712Y-52469477D01*
X141818711Y-52469476D01*
X141693282Y-52397061D01*
X141693189Y-52397006D01*
X141681789Y-52390424D01*
X141669263Y-52387067D01*
X141529057Y-52349499D01*
X141529054Y-52349499D01*
X141361443Y-52349499D01*
X141361380Y-52349500D01*
X132442927Y-52349500D01*
X132407991Y-52344477D01*
X132382749Y-52337065D01*
X132330004Y-52305769D01*
X132099426Y-52075191D01*
X132078274Y-52046935D01*
X132065667Y-52023846D01*
X132050500Y-51964421D01*
X132050500Y-49470097D01*
X134949500Y-49470097D01*
X134949500Y-49729901D01*
X134990140Y-49986494D01*
X134990140Y-49986497D01*
X135070421Y-50233574D01*
X135070424Y-50233581D01*
X135151533Y-50392762D01*
X135151533Y-50392764D01*
X135151534Y-50392764D01*
X135188368Y-50465054D01*
X135270427Y-50577998D01*
X135341069Y-50675229D01*
X135524771Y-50858931D01*
X135734949Y-51011634D01*
X135882445Y-51086787D01*
X135959977Y-51126292D01*
X135961583Y-51127233D01*
X135965306Y-51129036D01*
X135967281Y-51130017D01*
X135971041Y-51131077D01*
X136213507Y-51209860D01*
X136281235Y-51220586D01*
X136345545Y-51230772D01*
X136345644Y-51230787D01*
X136345706Y-51230797D01*
X136470098Y-51250500D01*
X136470103Y-51250500D01*
X136729901Y-51250500D01*
X136729902Y-51250500D01*
X136843298Y-51232539D01*
X136986493Y-51209860D01*
X137233572Y-51129579D01*
X137465051Y-51011634D01*
X137675229Y-50858931D01*
X137858931Y-50675229D01*
X138011634Y-50465051D01*
X138129579Y-50233572D01*
X138209860Y-49986493D01*
X138235219Y-49826378D01*
X138250500Y-49729902D01*
X138250500Y-49470097D01*
X143449500Y-49470097D01*
X143449500Y-49729901D01*
X143490140Y-49986494D01*
X143490140Y-49986497D01*
X143570421Y-50233574D01*
X143570424Y-50233581D01*
X143651533Y-50392762D01*
X143651533Y-50392764D01*
X143651534Y-50392764D01*
X143688368Y-50465054D01*
X143770427Y-50577998D01*
X143841069Y-50675229D01*
X144024771Y-50858931D01*
X144234949Y-51011634D01*
X144382445Y-51086787D01*
X144459977Y-51126292D01*
X144461583Y-51127233D01*
X144465306Y-51129036D01*
X144467281Y-51130017D01*
X144471041Y-51131077D01*
X144713507Y-51209860D01*
X144781235Y-51220586D01*
X144845545Y-51230772D01*
X144845644Y-51230787D01*
X144845706Y-51230797D01*
X144970098Y-51250500D01*
X144970103Y-51250500D01*
X145229901Y-51250500D01*
X145229902Y-51250500D01*
X145343298Y-51232539D01*
X145486493Y-51209860D01*
X145733572Y-51129579D01*
X145965051Y-51011634D01*
X146175229Y-50858931D01*
X146358931Y-50675229D01*
X146511634Y-50465051D01*
X146629579Y-50233572D01*
X146709860Y-49986493D01*
X146735219Y-49826378D01*
X146750500Y-49729902D01*
X146750500Y-49470097D01*
X146728179Y-49329172D01*
X146709860Y-49213507D01*
X146629579Y-48966428D01*
X146629577Y-48966425D01*
X146629577Y-48966423D01*
X146627337Y-48962027D01*
X146627027Y-48961232D01*
X146626294Y-48959979D01*
X146581034Y-48871153D01*
X146511634Y-48734949D01*
X146358931Y-48524771D01*
X146175229Y-48341069D01*
X146157540Y-48328217D01*
X146157532Y-48328211D01*
X145972949Y-48194104D01*
X145972608Y-48193813D01*
X145965044Y-48188360D01*
X145964680Y-48188177D01*
X145883305Y-48146714D01*
X145733576Y-48070422D01*
X145655591Y-48045083D01*
X145486495Y-47990140D01*
X145315432Y-47963046D01*
X145229902Y-47949500D01*
X145229901Y-47949500D01*
X144970093Y-47949500D01*
X144713504Y-47990140D01*
X144713501Y-47990140D01*
X144466432Y-48070419D01*
X144466423Y-48070422D01*
X144296417Y-48157046D01*
X144234941Y-48188370D01*
X144024774Y-48341065D01*
X144024754Y-48341083D01*
X143841083Y-48524754D01*
X143841065Y-48524774D01*
X143688370Y-48734941D01*
X143688368Y-48734945D01*
X143570422Y-48966423D01*
X143570421Y-48966425D01*
X143570421Y-48966426D01*
X143490140Y-49213501D01*
X143490140Y-49213504D01*
X143449500Y-49470097D01*
X138250500Y-49470097D01*
X138228179Y-49329172D01*
X138209860Y-49213507D01*
X138129579Y-48966428D01*
X138129577Y-48966425D01*
X138129577Y-48966423D01*
X138127337Y-48962027D01*
X138127027Y-48961232D01*
X138126294Y-48959979D01*
X138081034Y-48871153D01*
X138011634Y-48734949D01*
X137858931Y-48524771D01*
X137675229Y-48341069D01*
X137657540Y-48328217D01*
X137657532Y-48328211D01*
X137472949Y-48194104D01*
X137472608Y-48193813D01*
X137465044Y-48188360D01*
X137464680Y-48188177D01*
X137383305Y-48146714D01*
X137233576Y-48070422D01*
X137155591Y-48045083D01*
X136986495Y-47990140D01*
X136815432Y-47963046D01*
X136729902Y-47949500D01*
X136729901Y-47949500D01*
X136470093Y-47949500D01*
X136213504Y-47990140D01*
X136213501Y-47990140D01*
X135966432Y-48070419D01*
X135966423Y-48070422D01*
X135796417Y-48157046D01*
X135734941Y-48188370D01*
X135524774Y-48341065D01*
X135524754Y-48341083D01*
X135341083Y-48524754D01*
X135341065Y-48524774D01*
X135188370Y-48734941D01*
X135188368Y-48734945D01*
X135070422Y-48966423D01*
X135070421Y-48966425D01*
X135070421Y-48966426D01*
X134990140Y-49213501D01*
X134990140Y-49213504D01*
X134949500Y-49470097D01*
X132050500Y-49470097D01*
X132050500Y-42902115D01*
X134949500Y-42902115D01*
X134949500Y-45297876D01*
X134949659Y-45299806D01*
X134949885Y-45301454D01*
X134955907Y-45357482D01*
X134963517Y-45377885D01*
X135006202Y-45492328D01*
X135006203Y-45492330D01*
X135006204Y-45492332D01*
X135006205Y-45492333D01*
X135092450Y-45607542D01*
X135092452Y-45607544D01*
X135092455Y-45607547D01*
X135207664Y-45693793D01*
X135207671Y-45693797D01*
X135342517Y-45744091D01*
X135342516Y-45744091D01*
X135349444Y-45744835D01*
X135402127Y-45750500D01*
X137797872Y-45750499D01*
X137857483Y-45744091D01*
X137992331Y-45693796D01*
X138107546Y-45607546D01*
X138193796Y-45492331D01*
X138244091Y-45357483D01*
X138250500Y-45297873D01*
X138250499Y-42902128D01*
X138250499Y-42902125D01*
X143449500Y-42902125D01*
X143449500Y-45297876D01*
X143449659Y-45299806D01*
X143449885Y-45301454D01*
X143455907Y-45357482D01*
X143463517Y-45377885D01*
X143506202Y-45492328D01*
X143506203Y-45492330D01*
X143506204Y-45492332D01*
X143506205Y-45492333D01*
X143592450Y-45607542D01*
X143592452Y-45607544D01*
X143592455Y-45607547D01*
X143707664Y-45693793D01*
X143707671Y-45693797D01*
X143842517Y-45744091D01*
X143842516Y-45744091D01*
X143849444Y-45744835D01*
X143902127Y-45750500D01*
X146297872Y-45750499D01*
X146357483Y-45744091D01*
X146492331Y-45693796D01*
X146607546Y-45607546D01*
X146693796Y-45492331D01*
X146744091Y-45357483D01*
X146750500Y-45297873D01*
X146750499Y-42902128D01*
X146744091Y-42842517D01*
X146715742Y-42766510D01*
X146693797Y-42707671D01*
X146693793Y-42707664D01*
X146607547Y-42592455D01*
X146607544Y-42592452D01*
X146607542Y-42592450D01*
X146549616Y-42549086D01*
X146492335Y-42506206D01*
X146492332Y-42506204D01*
X146492330Y-42506203D01*
X146492328Y-42506202D01*
X146357482Y-42455908D01*
X146357483Y-42455908D01*
X146297883Y-42449501D01*
X146297881Y-42449500D01*
X146297873Y-42449500D01*
X146297864Y-42449500D01*
X146296841Y-42449500D01*
X143902123Y-42449500D01*
X143900192Y-42449659D01*
X143898545Y-42449885D01*
X143842516Y-42455908D01*
X143751897Y-42489707D01*
X143707666Y-42506204D01*
X143707665Y-42506205D01*
X143592456Y-42592450D01*
X143592450Y-42592456D01*
X143506205Y-42707665D01*
X143506203Y-42707668D01*
X143455908Y-42842516D01*
X143449500Y-42902125D01*
X138250499Y-42902125D01*
X138244091Y-42842517D01*
X138215742Y-42766510D01*
X138193797Y-42707671D01*
X138193793Y-42707664D01*
X138107547Y-42592455D01*
X138107544Y-42592452D01*
X138107542Y-42592450D01*
X138049616Y-42549086D01*
X137992335Y-42506206D01*
X137992332Y-42506204D01*
X137992330Y-42506203D01*
X137992328Y-42506202D01*
X137857482Y-42455908D01*
X137857483Y-42455908D01*
X137797883Y-42449501D01*
X137797881Y-42449500D01*
X137797873Y-42449500D01*
X137797864Y-42449500D01*
X137796841Y-42449500D01*
X135402123Y-42449500D01*
X135400192Y-42449659D01*
X135398545Y-42449885D01*
X135342516Y-42455908D01*
X135251897Y-42489707D01*
X135207666Y-42506204D01*
X135207665Y-42506205D01*
X135092456Y-42592450D01*
X135092450Y-42592456D01*
X135006205Y-42707665D01*
X135006203Y-42707668D01*
X134955908Y-42842516D01*
X134949500Y-42902115D01*
X132050500Y-42902115D01*
X132050500Y-41220944D01*
X132050498Y-41220932D01*
X132050497Y-41220928D01*
X132048609Y-41213883D01*
X132048607Y-41213879D01*
X132047288Y-41208954D01*
X132044755Y-41199500D01*
X132009577Y-41068215D01*
X131980639Y-41018095D01*
X131930520Y-40931284D01*
X131818716Y-40819480D01*
X131818715Y-40819479D01*
X131814385Y-40815149D01*
X131813363Y-40814127D01*
X131813320Y-40814085D01*
X131247181Y-40247946D01*
X131226031Y-40219693D01*
X131210144Y-40190599D01*
X131197359Y-40155366D01*
X131170396Y-40019821D01*
X131169984Y-40017406D01*
X131169737Y-40016504D01*
X131166792Y-40009394D01*
X131166791Y-40009390D01*
X131130503Y-39921781D01*
X131109400Y-39870833D01*
X131109395Y-39870824D01*
X131109390Y-39870814D01*
X131021789Y-39739711D01*
X131021786Y-39739707D01*
X131021781Y-39739701D01*
X130910297Y-39628217D01*
X130910291Y-39628212D01*
X130910290Y-39628211D01*
X130779191Y-39540613D01*
X130779190Y-39540612D01*
X130779185Y-39540609D01*
X130779172Y-39540602D01*
X130779165Y-39540598D01*
X130633502Y-39480264D01*
X130633471Y-39480257D01*
X130478847Y-39449500D01*
X130478845Y-39449500D01*
X130478842Y-39449500D01*
X130321158Y-39449500D01*
X130321153Y-39449500D01*
X130321148Y-39449500D01*
X130216178Y-39470380D01*
X130180936Y-39472270D01*
X130167111Y-39471033D01*
X130102093Y-39445452D01*
X130061226Y-39388780D01*
X130057560Y-39378387D01*
X130050500Y-39337143D01*
X130050500Y-37005942D01*
X130045878Y-36988695D01*
X130045877Y-36988691D01*
X130041260Y-36971459D01*
X130039534Y-36965018D01*
X130039534Y-36965019D01*
X130011390Y-36859982D01*
X130009577Y-36853217D01*
X130009576Y-36853215D01*
X130003947Y-36843466D01*
X129930520Y-36716284D01*
X129899493Y-36685257D01*
X134849500Y-36685257D01*
X134849500Y-36914747D01*
X134857546Y-36975854D01*
X134859237Y-36988695D01*
X134879452Y-37142238D01*
X134888994Y-37177848D01*
X134890640Y-37183991D01*
X134890641Y-37183997D01*
X134923727Y-37307477D01*
X134938293Y-37361839D01*
X134938842Y-37363886D01*
X134938845Y-37363896D01*
X135026652Y-37575881D01*
X135026655Y-37575887D01*
X135026657Y-37575890D01*
X135141392Y-37774617D01*
X135141395Y-37774621D01*
X135141399Y-37774627D01*
X135281060Y-37956634D01*
X135281081Y-37956661D01*
X135281089Y-37956670D01*
X135369051Y-38044632D01*
X135443325Y-38118906D01*
X135443332Y-38118913D01*
X135443338Y-38118918D01*
X135625583Y-38258762D01*
X135627149Y-38259628D01*
X135627338Y-38259737D01*
X135824112Y-38373344D01*
X135824117Y-38373346D01*
X135824123Y-38373349D01*
X135915480Y-38411190D01*
X135915481Y-38411191D01*
X135975796Y-38436174D01*
X136036113Y-38461158D01*
X136257762Y-38520548D01*
X136485266Y-38550500D01*
X136485273Y-38550500D01*
X136714727Y-38550500D01*
X136714734Y-38550500D01*
X136942238Y-38520548D01*
X137163887Y-38461158D01*
X137375888Y-38373344D01*
X137574612Y-38258611D01*
X137756661Y-38118919D01*
X137756665Y-38118914D01*
X137756670Y-38118911D01*
X137830949Y-38044632D01*
X137914070Y-37961512D01*
X137914840Y-37960822D01*
X137918422Y-37957167D01*
X137918895Y-37956689D01*
X137918905Y-37956675D01*
X137918911Y-37956670D01*
X137918914Y-37956665D01*
X137918919Y-37956661D01*
X137919028Y-37956518D01*
X137919322Y-37956143D01*
X137919322Y-37956142D01*
X137922716Y-37951795D01*
X137923216Y-37951061D01*
X138058607Y-37774617D01*
X138058606Y-37774617D01*
X138058611Y-37774612D01*
X138173344Y-37575888D01*
X138261158Y-37363887D01*
X138320548Y-37142238D01*
X138350500Y-36914734D01*
X138350500Y-36685266D01*
X138350499Y-36685257D01*
X143349500Y-36685257D01*
X143349500Y-36914747D01*
X143357546Y-36975854D01*
X143359237Y-36988695D01*
X143379452Y-37142238D01*
X143388994Y-37177848D01*
X143390640Y-37183991D01*
X143390641Y-37183997D01*
X143423727Y-37307477D01*
X143438293Y-37361839D01*
X143438842Y-37363886D01*
X143438845Y-37363896D01*
X143526652Y-37575881D01*
X143526655Y-37575887D01*
X143526657Y-37575890D01*
X143641392Y-37774617D01*
X143641395Y-37774621D01*
X143641399Y-37774627D01*
X143781060Y-37956634D01*
X143781081Y-37956661D01*
X143781089Y-37956670D01*
X143869051Y-38044632D01*
X143943325Y-38118906D01*
X143943332Y-38118913D01*
X143943338Y-38118918D01*
X144125583Y-38258762D01*
X144127149Y-38259628D01*
X144127338Y-38259737D01*
X144324112Y-38373344D01*
X144324117Y-38373346D01*
X144324123Y-38373349D01*
X144415480Y-38411190D01*
X144415481Y-38411191D01*
X144475796Y-38436174D01*
X144536113Y-38461158D01*
X144757762Y-38520548D01*
X144985266Y-38550500D01*
X144985273Y-38550500D01*
X145214727Y-38550500D01*
X145214734Y-38550500D01*
X145442238Y-38520548D01*
X145663887Y-38461158D01*
X145875888Y-38373344D01*
X146074612Y-38258611D01*
X146256661Y-38118919D01*
X146256665Y-38118914D01*
X146256670Y-38118911D01*
X146330949Y-38044632D01*
X146414070Y-37961512D01*
X146414840Y-37960822D01*
X146418422Y-37957167D01*
X146418895Y-37956689D01*
X146418905Y-37956675D01*
X146418911Y-37956670D01*
X146418914Y-37956665D01*
X146418919Y-37956661D01*
X146419028Y-37956518D01*
X146419322Y-37956143D01*
X146419322Y-37956142D01*
X146422716Y-37951795D01*
X146423216Y-37951061D01*
X146558607Y-37774617D01*
X146558606Y-37774617D01*
X146558611Y-37774612D01*
X146673344Y-37575888D01*
X146761158Y-37363887D01*
X146820548Y-37142238D01*
X146850500Y-36914734D01*
X146850500Y-36685266D01*
X146820548Y-36457762D01*
X146761158Y-36236113D01*
X146760808Y-36235269D01*
X146706514Y-36104191D01*
X146701396Y-36091835D01*
X146673349Y-36024123D01*
X146673346Y-36024117D01*
X146673344Y-36024112D01*
X146659533Y-36000191D01*
X146559699Y-35827272D01*
X146558768Y-35825591D01*
X146418918Y-35643338D01*
X146418913Y-35643332D01*
X146418906Y-35643325D01*
X146358980Y-35583399D01*
X146256670Y-35481089D01*
X146256661Y-35481081D01*
X146256659Y-35481079D01*
X146074616Y-35341390D01*
X146074612Y-35341388D01*
X146048112Y-35326089D01*
X146048109Y-35326088D01*
X145913141Y-35248164D01*
X145910808Y-35246817D01*
X145875890Y-35226657D01*
X145875888Y-35226656D01*
X145875884Y-35226653D01*
X145875881Y-35226652D01*
X145663896Y-35138845D01*
X145663889Y-35138843D01*
X145663887Y-35138842D01*
X145442238Y-35079452D01*
X145404215Y-35074446D01*
X145214742Y-35049500D01*
X145214741Y-35049500D01*
X145214734Y-35049500D01*
X144985266Y-35049500D01*
X144985258Y-35049500D01*
X144985250Y-35049500D01*
X144821755Y-35071025D01*
X144768715Y-35078009D01*
X144768709Y-35078009D01*
X144757768Y-35079450D01*
X144757756Y-35079453D01*
X144669095Y-35103210D01*
X144536112Y-35138842D01*
X144536102Y-35138845D01*
X144324117Y-35226652D01*
X144125388Y-35341388D01*
X144125371Y-35341399D01*
X143943342Y-35481077D01*
X143943332Y-35481086D01*
X143781086Y-35643332D01*
X143781077Y-35643342D01*
X143641399Y-35825371D01*
X143641388Y-35825388D01*
X143526652Y-36024117D01*
X143439190Y-36235269D01*
X143439183Y-36235289D01*
X143438841Y-36236113D01*
X143409187Y-36346789D01*
X143385714Y-36434394D01*
X143379453Y-36457759D01*
X143379452Y-36457764D01*
X143379450Y-36457774D01*
X143379448Y-36457789D01*
X143349500Y-36685257D01*
X138350499Y-36685257D01*
X138320548Y-36457762D01*
X138261158Y-36236113D01*
X138260808Y-36235269D01*
X138206514Y-36104191D01*
X138201396Y-36091835D01*
X138173349Y-36024123D01*
X138173346Y-36024117D01*
X138173344Y-36024112D01*
X138159533Y-36000191D01*
X138059699Y-35827272D01*
X138058768Y-35825591D01*
X137918918Y-35643338D01*
X137918913Y-35643332D01*
X137918906Y-35643325D01*
X137858980Y-35583399D01*
X137756670Y-35481089D01*
X137756661Y-35481081D01*
X137756659Y-35481079D01*
X137574616Y-35341390D01*
X137574612Y-35341388D01*
X137548112Y-35326089D01*
X137548109Y-35326088D01*
X137413141Y-35248164D01*
X137410808Y-35246817D01*
X137375890Y-35226657D01*
X137375888Y-35226656D01*
X137375884Y-35226653D01*
X137375881Y-35226652D01*
X137163896Y-35138845D01*
X137163889Y-35138843D01*
X137163887Y-35138842D01*
X136942238Y-35079452D01*
X136904215Y-35074446D01*
X136714742Y-35049500D01*
X136714741Y-35049500D01*
X136714734Y-35049500D01*
X136485266Y-35049500D01*
X136485258Y-35049500D01*
X136485250Y-35049500D01*
X136321755Y-35071025D01*
X136268715Y-35078009D01*
X136268709Y-35078009D01*
X136257768Y-35079450D01*
X136257756Y-35079453D01*
X136169095Y-35103210D01*
X136036112Y-35138842D01*
X136036102Y-35138845D01*
X135824117Y-35226652D01*
X135625388Y-35341388D01*
X135625371Y-35341399D01*
X135443342Y-35481077D01*
X135443332Y-35481086D01*
X135281086Y-35643332D01*
X135281077Y-35643342D01*
X135141399Y-35825371D01*
X135141388Y-35825388D01*
X135026652Y-36024117D01*
X134939190Y-36235269D01*
X134939183Y-36235289D01*
X134938841Y-36236113D01*
X134909187Y-36346789D01*
X134885714Y-36434394D01*
X134879453Y-36457759D01*
X134879452Y-36457764D01*
X134879450Y-36457774D01*
X134879448Y-36457789D01*
X134849500Y-36685257D01*
X129899493Y-36685257D01*
X129818716Y-36604480D01*
X129818713Y-36604478D01*
X129214426Y-36000191D01*
X129193274Y-35971935D01*
X129180667Y-35948846D01*
X129165500Y-35889421D01*
X129165500Y-35803848D01*
X130149499Y-35803848D01*
X130180257Y-35958471D01*
X130180264Y-35958502D01*
X130240598Y-36104165D01*
X130240603Y-36104174D01*
X130240613Y-36104191D01*
X130328212Y-36235291D01*
X130328217Y-36235297D01*
X130439701Y-36346781D01*
X130439707Y-36346786D01*
X130439711Y-36346789D01*
X130535104Y-36410529D01*
X130570821Y-36434394D01*
X130716503Y-36494737D01*
X130871158Y-36525500D01*
X131028842Y-36525500D01*
X131183497Y-36494737D01*
X131320461Y-36438005D01*
X131329172Y-36434397D01*
X131329172Y-36434396D01*
X131329179Y-36434394D01*
X131329183Y-36434391D01*
X131331523Y-36433422D01*
X131331532Y-36433418D01*
X131340790Y-36429583D01*
X131349675Y-36420698D01*
X131460289Y-36346789D01*
X131571789Y-36235289D01*
X131659394Y-36104179D01*
X131659836Y-36103112D01*
X131664512Y-36091826D01*
X131692519Y-36024209D01*
X131692534Y-36024171D01*
X131692554Y-36024123D01*
X131719737Y-35958497D01*
X131750500Y-35803842D01*
X131750500Y-35646158D01*
X131750500Y-35646155D01*
X131750500Y-35645973D01*
X131750065Y-35643972D01*
X131723049Y-35508157D01*
X131720395Y-35494816D01*
X131719994Y-35492467D01*
X131719737Y-35491504D01*
X131719737Y-35491503D01*
X131719735Y-35491498D01*
X131659397Y-35345827D01*
X131659390Y-35345814D01*
X131571789Y-35214711D01*
X131571786Y-35214707D01*
X131571781Y-35214701D01*
X131460297Y-35103217D01*
X131460291Y-35103212D01*
X131460288Y-35103210D01*
X131329191Y-35015613D01*
X131329190Y-35015612D01*
X131329185Y-35015609D01*
X131329172Y-35015602D01*
X131329165Y-35015598D01*
X131183502Y-34955264D01*
X131183471Y-34955257D01*
X131028847Y-34924500D01*
X131028845Y-34924500D01*
X131028842Y-34924500D01*
X130871158Y-34924500D01*
X130871155Y-34924500D01*
X130871153Y-34924500D01*
X130716527Y-34955257D01*
X130716496Y-34955264D01*
X130570833Y-35015598D01*
X130570824Y-35015603D01*
X130570807Y-35015613D01*
X130439711Y-35103210D01*
X130439707Y-35103212D01*
X130439701Y-35103217D01*
X130328217Y-35214701D01*
X130328212Y-35214707D01*
X130328211Y-35214708D01*
X130240613Y-35345807D01*
X130240603Y-35345824D01*
X130240598Y-35345833D01*
X130180264Y-35491496D01*
X130180264Y-35491498D01*
X130180261Y-35491510D01*
X130176947Y-35508170D01*
X130149500Y-35646150D01*
X130149500Y-35646153D01*
X130149500Y-35803846D01*
X130149500Y-35803848D01*
X130149499Y-35803848D01*
X129165500Y-35803848D01*
X129165500Y-35701459D01*
X129163163Y-35689711D01*
X129158100Y-35664257D01*
X129158100Y-35664254D01*
X129158095Y-35664228D01*
X129126813Y-35506967D01*
X129124734Y-35502573D01*
X129120152Y-35491510D01*
X129057975Y-35341399D01*
X129053360Y-35330256D01*
X129053359Y-35330254D01*
X129051635Y-35326092D01*
X129051633Y-35326088D01*
X129051632Y-35326086D01*
X129051628Y-35326080D01*
X128999554Y-35248146D01*
X128999320Y-35247789D01*
X128999025Y-35246817D01*
X128984700Y-35216873D01*
X128980029Y-35201953D01*
X128979692Y-35183074D01*
X128979041Y-35180927D01*
X128979617Y-35178896D01*
X128978783Y-35132102D01*
X128982385Y-35118971D01*
X128998860Y-35082891D01*
X129021172Y-35049500D01*
X129051632Y-35003914D01*
X129127051Y-34821835D01*
X129165500Y-34628541D01*
X129165500Y-34431459D01*
X129165500Y-34431456D01*
X129165500Y-34431453D01*
X129126812Y-34236963D01*
X129124725Y-34232550D01*
X129103700Y-34181791D01*
X129103700Y-34181790D01*
X129051635Y-34056092D01*
X129051633Y-34056088D01*
X129051632Y-34056086D01*
X128999621Y-33978247D01*
X128999320Y-33977787D01*
X128999026Y-33976818D01*
X128984701Y-33946877D01*
X128980028Y-33931954D01*
X128979692Y-33913071D01*
X128979041Y-33910925D01*
X128979617Y-33908894D01*
X128978783Y-33862102D01*
X128982385Y-33848971D01*
X128998862Y-33812888D01*
X128999932Y-33811287D01*
X129002869Y-33806890D01*
X129002872Y-33806888D01*
X129051635Y-33733909D01*
X129106705Y-33600953D01*
X129127051Y-33551835D01*
X129165500Y-33358541D01*
X129165500Y-33161459D01*
X129165500Y-33161456D01*
X129165500Y-33161453D01*
X129126812Y-32966962D01*
X129124725Y-32962550D01*
X129057660Y-32800639D01*
X129051635Y-32786092D01*
X129051628Y-32786079D01*
X128942139Y-32622218D01*
X128942136Y-32622214D01*
X128942131Y-32622208D01*
X128802790Y-32482867D01*
X128802784Y-32482862D01*
X128802783Y-32482861D01*
X128638926Y-32373375D01*
X128638925Y-32373374D01*
X128638920Y-32373371D01*
X128638907Y-32373364D01*
X128638900Y-32373360D01*
X128456861Y-32297958D01*
X128456847Y-32297953D01*
X128456839Y-32297950D01*
X128456829Y-32297947D01*
X128456826Y-32297946D01*
X128456822Y-32297945D01*
X128263546Y-32259500D01*
X128263543Y-32259500D01*
X128263541Y-32259500D01*
X128066459Y-32259500D01*
X128066456Y-32259500D01*
X128061167Y-32260552D01*
X128025931Y-32262439D01*
X128012109Y-32261202D01*
X127947091Y-32235620D01*
X127906225Y-32178948D01*
X127906222Y-32178939D01*
X127902559Y-32168553D01*
X127895499Y-32127310D01*
X127895499Y-31446424D01*
X127895499Y-31442129D01*
X127895498Y-31442123D01*
X127895497Y-31442116D01*
X127889091Y-31382517D01*
X127841458Y-31254807D01*
X127838797Y-31247671D01*
X127838793Y-31247664D01*
X127752547Y-31132455D01*
X127752544Y-31132452D01*
X127752542Y-31132450D01*
X127694616Y-31089086D01*
X127637335Y-31046206D01*
X127637332Y-31046204D01*
X127637330Y-31046203D01*
X127637328Y-31046202D01*
X127502482Y-30995908D01*
X127502483Y-30995908D01*
X127442883Y-30989501D01*
X127442881Y-30989500D01*
X127442873Y-30989500D01*
X127442864Y-30989500D01*
X127441841Y-30989500D01*
X126347123Y-30989500D01*
X126345192Y-30989659D01*
X126343545Y-30989885D01*
X126287516Y-30995908D01*
X126211182Y-31024379D01*
X126152666Y-31046204D01*
X126152665Y-31046205D01*
X126037456Y-31132450D01*
X126037450Y-31132456D01*
X125951205Y-31247665D01*
X125951203Y-31247668D01*
X125900908Y-31382516D01*
X125894500Y-31442125D01*
X125894500Y-32537876D01*
X125894659Y-32539806D01*
X125894885Y-32541454D01*
X125900907Y-32597482D01*
X125928690Y-32671971D01*
X125951202Y-32732328D01*
X125951203Y-32732330D01*
X125951204Y-32732332D01*
X125953305Y-32735532D01*
X125953106Y-32735662D01*
X125953110Y-32735668D01*
X125953016Y-32735721D01*
X125952844Y-32735834D01*
X125953335Y-32736881D01*
X125953213Y-32736938D01*
X125966254Y-32760820D01*
X125972967Y-32778820D01*
X125979189Y-32841974D01*
X125977630Y-32851600D01*
X125969787Y-32879226D01*
X125932952Y-32968158D01*
X125932947Y-32968171D01*
X125932945Y-32968175D01*
X125932943Y-32968183D01*
X125894500Y-33161451D01*
X125894500Y-33314174D01*
X125889237Y-33332094D01*
X125932945Y-33551822D01*
X125932948Y-33551833D01*
X125932954Y-33551848D01*
X126008366Y-33733909D01*
X126008367Y-33733913D01*
X126052352Y-33799740D01*
X126052354Y-33799743D01*
X126060067Y-33811287D01*
X126075299Y-33843126D01*
X126079969Y-33858042D01*
X126081215Y-33927897D01*
X126077611Y-33941034D01*
X126061132Y-33977118D01*
X126008364Y-34056092D01*
X125932951Y-34238157D01*
X125932945Y-34238176D01*
X125894500Y-34431451D01*
X125894500Y-34584174D01*
X125889237Y-34602094D01*
X125932945Y-34821822D01*
X125932947Y-34821829D01*
X125932950Y-34821839D01*
X126008365Y-35003907D01*
X126008368Y-35003914D01*
X126038828Y-35049500D01*
X126058841Y-35079453D01*
X126060066Y-35081285D01*
X126075299Y-35113126D01*
X126079969Y-35128042D01*
X126081215Y-35197897D01*
X126077611Y-35211034D01*
X126061132Y-35247118D01*
X126008364Y-35326092D01*
X125932951Y-35508157D01*
X125932945Y-35508176D01*
X125894500Y-35701451D01*
X125894500Y-35854174D01*
X125889237Y-35872094D01*
X125932945Y-36091822D01*
X125932946Y-36091826D01*
X125932947Y-36091829D01*
X125932950Y-36091839D01*
X125951962Y-36137738D01*
X125989435Y-36228207D01*
X125989436Y-36228210D01*
X125992369Y-36235289D01*
X126008368Y-36273914D01*
X126052352Y-36339740D01*
X126054862Y-36343497D01*
X126054864Y-36343500D01*
X126060067Y-36351287D01*
X126075299Y-36383126D01*
X126079969Y-36398042D01*
X126081215Y-36467897D01*
X126077611Y-36481034D01*
X126061132Y-36517118D01*
X126008364Y-36596092D01*
X125932951Y-36778157D01*
X125932945Y-36778176D01*
X125894500Y-36971451D01*
X125894500Y-37124174D01*
X125889237Y-37142094D01*
X125932945Y-37361822D01*
X125932946Y-37361826D01*
X125932947Y-37361829D01*
X125932950Y-37361839D01*
X125932953Y-37361847D01*
X125932958Y-37361861D01*
X126008360Y-37543900D01*
X126008365Y-37543909D01*
X126008375Y-37543926D01*
X126117861Y-37707783D01*
X126117862Y-37707784D01*
X126117867Y-37707790D01*
X126257208Y-37847131D01*
X126257214Y-37847136D01*
X126257218Y-37847139D01*
X126421079Y-37956628D01*
X126421092Y-37956635D01*
X126603160Y-38032049D01*
X126603165Y-38032051D01*
X126603169Y-38032051D01*
X126603170Y-38032052D01*
X126603442Y-38032106D01*
X126603469Y-38032112D01*
X126796453Y-38070500D01*
X126993543Y-38070500D01*
X126993544Y-38070500D01*
X127006833Y-38067856D01*
X127123582Y-38044632D01*
X127186835Y-38032051D01*
X127327655Y-37973721D01*
X127362376Y-37959339D01*
X127365161Y-37958369D01*
X127366596Y-37957705D01*
X127371264Y-37955658D01*
X127380524Y-37951822D01*
X127389409Y-37942937D01*
X127532782Y-37847139D01*
X127672139Y-37707782D01*
X127781632Y-37543914D01*
X127857051Y-37361835D01*
X127893488Y-37178656D01*
X127895500Y-37168543D01*
X127895500Y-36971457D01*
X127894705Y-36966558D01*
X127893982Y-36963832D01*
X127892732Y-36957548D01*
X127890843Y-36922311D01*
X127891521Y-36914741D01*
X127892080Y-36908483D01*
X127917661Y-36843466D01*
X127974331Y-36802599D01*
X127974336Y-36802598D01*
X127979277Y-36800855D01*
X128044714Y-36796174D01*
X128053264Y-36797874D01*
X128053273Y-36797879D01*
X128053274Y-36797877D01*
X128058491Y-36798914D01*
X128066458Y-36800500D01*
X128247073Y-36800500D01*
X128282005Y-36805521D01*
X128307249Y-36812934D01*
X128359995Y-36844230D01*
X128800573Y-37284808D01*
X128821723Y-37313060D01*
X128834331Y-37336149D01*
X128849500Y-37395578D01*
X128849500Y-52570939D01*
X128849499Y-52570943D01*
X128849499Y-52684215D01*
X128844474Y-52719159D01*
X128840069Y-52734157D01*
X128830431Y-52749151D01*
X128829814Y-52751255D01*
X128828156Y-52752690D01*
X128802297Y-52792926D01*
X128796746Y-52797736D01*
X128739739Y-52825639D01*
X128716511Y-52830260D01*
X128716509Y-52830260D01*
X128716505Y-52830261D01*
X128716475Y-52830272D01*
X128570833Y-52890598D01*
X128570824Y-52890603D01*
X128570807Y-52890613D01*
X128439708Y-52978211D01*
X128439707Y-52978212D01*
X128439701Y-52978217D01*
X128328217Y-53089701D01*
X128328212Y-53089707D01*
X128328211Y-53089708D01*
X128240613Y-53220807D01*
X128240603Y-53220824D01*
X128240598Y-53220833D01*
X128180264Y-53366496D01*
X128180257Y-53366527D01*
X128149500Y-53521150D01*
X128149500Y-53521153D01*
X128149500Y-53678846D01*
X128149500Y-53678848D01*
X128149499Y-53678848D01*
X128180257Y-53833471D01*
X128180264Y-53833502D01*
X128240598Y-53979165D01*
X128240603Y-53979174D01*
X128240613Y-53979191D01*
X128328211Y-54110290D01*
X128328212Y-54110291D01*
X128328217Y-54110297D01*
X128439701Y-54221781D01*
X128439707Y-54221786D01*
X128439711Y-54221789D01*
X128570814Y-54309390D01*
X128570827Y-54309397D01*
X128716498Y-54369735D01*
X128716503Y-54369737D01*
X128871153Y-54400499D01*
X128871156Y-54400500D01*
X128871158Y-54400500D01*
X129028844Y-54400500D01*
X129028845Y-54400499D01*
X129183497Y-54369737D01*
X129329179Y-54309394D01*
X129329185Y-54309390D01*
X129446055Y-54231299D01*
X129477885Y-54216071D01*
X129497574Y-54209906D01*
X129509529Y-54206164D01*
X129546578Y-54200500D01*
X130082073Y-54200500D01*
X130117005Y-54205521D01*
X130142249Y-54212934D01*
X130194994Y-54244229D01*
X131332284Y-55381520D01*
X131469215Y-55460577D01*
X131621943Y-55501501D01*
X131621946Y-55501501D01*
X131787654Y-55501501D01*
X131789558Y-55501501D01*
X131789621Y-55501500D01*
X140533073Y-55501500D01*
X140568005Y-55506521D01*
X140593249Y-55513934D01*
X140645995Y-55545230D01*
X143150573Y-58049808D01*
X143171723Y-58078060D01*
X143184331Y-58101149D01*
X143199500Y-58160578D01*
X143199500Y-58813330D01*
X143199499Y-58813348D01*
X143199499Y-58921781D01*
X143199499Y-58939023D01*
X143193248Y-58960309D01*
X143198322Y-58975530D01*
X143200459Y-58982645D01*
X143240421Y-59131781D01*
X143240422Y-59131782D01*
X143240423Y-59131785D01*
X143240424Y-59131786D01*
X143256468Y-59159577D01*
X143256469Y-59159578D01*
X143260535Y-59166620D01*
X143260535Y-59166622D01*
X143319466Y-59268695D01*
X143319471Y-59268703D01*
X143319475Y-59268709D01*
X143319481Y-59268717D01*
X143319485Y-59268722D01*
X143440756Y-59389993D01*
X143440794Y-59390029D01*
X149429077Y-65378313D01*
X149429770Y-65378813D01*
X149432281Y-65380164D01*
X149517190Y-65429185D01*
X149566010Y-65457371D01*
X149718737Y-65498295D01*
X149718739Y-65498295D01*
X149884448Y-65498295D01*
X149886352Y-65498295D01*
X149886415Y-65498294D01*
X149942284Y-65498294D01*
X149977216Y-65503315D01*
X150009030Y-65512657D01*
X150042978Y-65528529D01*
X150160694Y-65607184D01*
X150160707Y-65607191D01*
X150288899Y-65660289D01*
X150306383Y-65667531D01*
X150306387Y-65667531D01*
X150306390Y-65667533D01*
X150390159Y-65684195D01*
X150461033Y-65698293D01*
X150461036Y-65698294D01*
X150461038Y-65698294D01*
X150618724Y-65698294D01*
X150618725Y-65698293D01*
X150773377Y-65667531D01*
X150919059Y-65607188D01*
X151050169Y-65519583D01*
X151161669Y-65408083D01*
X151249274Y-65276973D01*
X151253567Y-65266610D01*
X151268984Y-65229389D01*
X151309617Y-65131291D01*
X151310104Y-65128846D01*
X151328862Y-65034542D01*
X151340380Y-64976636D01*
X151340380Y-64942329D01*
X151345403Y-64907393D01*
X151347428Y-64900499D01*
X151349807Y-64892394D01*
X151387552Y-64833644D01*
X151388921Y-64832457D01*
X151443800Y-64804977D01*
X151451359Y-64803333D01*
X151477712Y-64800500D01*
X151502404Y-64800500D01*
X151537336Y-64805521D01*
X151569150Y-64814863D01*
X151603098Y-64830735D01*
X151720814Y-64909390D01*
X151720827Y-64909397D01*
X151840917Y-64959139D01*
X151866503Y-64969737D01*
X152015872Y-64999448D01*
X152018196Y-65000005D01*
X152018232Y-65000025D01*
X152021155Y-65000500D01*
X152021156Y-65000500D01*
X152133073Y-65000500D01*
X152168000Y-65005521D01*
X152178853Y-65008707D01*
X152237634Y-65046477D01*
X152266663Y-65110031D01*
X152256724Y-65179190D01*
X152256723Y-65179192D01*
X152253538Y-65186167D01*
X152228422Y-65222342D01*
X147724788Y-69725976D01*
X147696538Y-69747125D01*
X147686611Y-69752546D01*
X147618338Y-69767400D01*
X147552873Y-69742986D01*
X147511000Y-69687054D01*
X147508313Y-69679848D01*
X147500500Y-69636528D01*
X147500500Y-67891452D01*
X147500501Y-67891401D01*
X147500501Y-67720946D01*
X147500500Y-67720943D01*
X147494850Y-67699854D01*
X147489221Y-67678844D01*
X147489221Y-67678843D01*
X147459578Y-67568220D01*
X147459577Y-67568216D01*
X147433060Y-67522286D01*
X147432404Y-67521150D01*
X147394332Y-67455206D01*
X147380524Y-67431290D01*
X147380518Y-67431282D01*
X147380517Y-67431281D01*
X147380513Y-67431276D01*
X146546195Y-66596959D01*
X146526167Y-66570717D01*
X146511680Y-66545320D01*
X146497773Y-66508078D01*
X146486613Y-66451970D01*
X146483489Y-66444430D01*
X146474123Y-66392751D01*
X146474214Y-66390115D01*
X146474213Y-66390107D01*
X146474328Y-66386742D01*
X146496288Y-66320413D01*
X146550622Y-66276486D01*
X146602693Y-66267051D01*
X146605793Y-66267162D01*
X146670245Y-66287980D01*
X146719374Y-66320807D01*
X146770819Y-66355182D01*
X146770820Y-66355182D01*
X146770821Y-66355183D01*
X146770823Y-66355184D01*
X146770827Y-66355186D01*
X146901407Y-66409273D01*
X146901408Y-66409273D01*
X146901409Y-66409274D01*
X146902498Y-66409725D01*
X146916503Y-66415526D01*
X147055679Y-66443210D01*
X147063524Y-66444770D01*
X147066252Y-66445493D01*
X147071155Y-66446289D01*
X147228844Y-66446289D01*
X147232964Y-66446289D01*
X147240814Y-66443907D01*
X147383497Y-66415526D01*
X147527832Y-66355741D01*
X147529172Y-66355186D01*
X147529172Y-66355185D01*
X147529179Y-66355183D01*
X147660289Y-66267578D01*
X147771789Y-66156078D01*
X147859394Y-66024968D01*
X147919737Y-65879286D01*
X147950500Y-65724631D01*
X147950500Y-65566947D01*
X147950500Y-65566944D01*
X147950500Y-65566760D01*
X147950064Y-65564755D01*
X147941001Y-65519192D01*
X147919738Y-65412294D01*
X147917811Y-65407644D01*
X147908513Y-65385194D01*
X147866391Y-65283501D01*
X147859400Y-65266622D01*
X147859392Y-65266607D01*
X147859390Y-65266603D01*
X147771789Y-65135500D01*
X147771786Y-65135496D01*
X147771781Y-65135490D01*
X147660297Y-65024006D01*
X147660291Y-65024001D01*
X147660290Y-65024000D01*
X147529181Y-64936395D01*
X147523131Y-64933889D01*
X147488908Y-64919713D01*
X147467470Y-64908255D01*
X147447545Y-64894941D01*
X147428757Y-64879521D01*
X145891928Y-63342693D01*
X145891908Y-63342671D01*
X145768722Y-63219485D01*
X145768717Y-63219481D01*
X145768713Y-63219478D01*
X145768709Y-63219475D01*
X145758263Y-63213444D01*
X145673261Y-63164368D01*
X145673221Y-63164346D01*
X145645927Y-63148587D01*
X145645923Y-63148584D01*
X145631788Y-63140423D01*
X145619267Y-63137067D01*
X145619267Y-63137068D01*
X145586410Y-63128264D01*
X145479057Y-63099499D01*
X145479056Y-63099499D01*
X145311443Y-63099499D01*
X145311380Y-63099500D01*
X135149771Y-63099500D01*
X135114836Y-63094477D01*
X135103982Y-63091290D01*
X135045204Y-63053516D01*
X135016179Y-62989960D01*
X135026122Y-62920803D01*
X135029312Y-62913820D01*
X135054421Y-62877658D01*
X135121787Y-62810292D01*
X135121789Y-62810289D01*
X135209394Y-62679179D01*
X135269737Y-62533497D01*
X135300500Y-62378842D01*
X135300500Y-62221158D01*
X135300500Y-62221155D01*
X135300500Y-62220973D01*
X135300065Y-62218971D01*
X135278269Y-62109396D01*
X135269738Y-62066508D01*
X135269737Y-62066507D01*
X135269737Y-62066503D01*
X135251215Y-62021786D01*
X135209397Y-61920827D01*
X135209390Y-61920814D01*
X135121789Y-61789711D01*
X135121786Y-61789707D01*
X135121781Y-61789701D01*
X135010297Y-61678217D01*
X135010291Y-61678212D01*
X135010290Y-61678211D01*
X134879191Y-61590613D01*
X134879190Y-61590612D01*
X134879185Y-61590609D01*
X134879172Y-61590602D01*
X134876371Y-61589442D01*
X134768797Y-61544884D01*
X134737074Y-61519320D01*
X134711311Y-61500740D01*
X134697939Y-61466744D01*
X134697346Y-61465508D01*
X134697021Y-61464411D01*
X134685736Y-61435720D01*
X134699372Y-61367194D01*
X134747892Y-61316919D01*
X134780737Y-61303999D01*
X134785724Y-61302821D01*
X134814230Y-61299500D01*
X142531073Y-61299500D01*
X142566005Y-61304521D01*
X142591249Y-61311934D01*
X142643995Y-61343230D01*
X142702817Y-61402052D01*
X142723967Y-61430305D01*
X142739854Y-61459399D01*
X142752640Y-61494635D01*
X142780259Y-61633484D01*
X142780260Y-61633488D01*
X142780261Y-61633491D01*
X142780264Y-61633501D01*
X142780267Y-61633509D01*
X142780272Y-61633523D01*
X142840598Y-61779165D01*
X142840603Y-61779174D01*
X142840613Y-61779191D01*
X142928211Y-61910290D01*
X142928212Y-61910291D01*
X142928217Y-61910297D01*
X143039701Y-62021781D01*
X143039707Y-62021786D01*
X143039711Y-62021789D01*
X143170814Y-62109390D01*
X143170827Y-62109397D01*
X143267646Y-62149500D01*
X143316503Y-62169737D01*
X143466938Y-62199660D01*
X143468556Y-62200078D01*
X143471155Y-62200500D01*
X143628844Y-62200500D01*
X143632964Y-62200500D01*
X143640814Y-62198118D01*
X143783497Y-62169737D01*
X143929179Y-62109394D01*
X143929192Y-62109385D01*
X144060291Y-62021788D01*
X144060292Y-62021786D01*
X144171786Y-61910292D01*
X144171788Y-61910290D01*
X144171789Y-61910289D01*
X144259394Y-61779179D01*
X144319737Y-61633497D01*
X144350500Y-61478842D01*
X144350500Y-61321158D01*
X144350500Y-61321155D01*
X144350500Y-61320971D01*
X144350064Y-61318966D01*
X144338052Y-61258577D01*
X144319739Y-61166511D01*
X144319738Y-61166509D01*
X144319737Y-61166503D01*
X144319735Y-61166498D01*
X144259397Y-61020827D01*
X144259390Y-61020814D01*
X144171789Y-60889711D01*
X144171786Y-60889707D01*
X144171781Y-60889701D01*
X144060297Y-60778217D01*
X144060291Y-60778212D01*
X144060290Y-60778211D01*
X143929191Y-60690613D01*
X143929190Y-60690612D01*
X143929185Y-60690609D01*
X143929172Y-60690602D01*
X143929165Y-60690598D01*
X143783523Y-60630272D01*
X143783509Y-60630267D01*
X143783501Y-60630264D01*
X143783491Y-60630261D01*
X143783486Y-60630260D01*
X143783483Y-60630259D01*
X143645636Y-60602839D01*
X143612354Y-60591098D01*
X143582980Y-60575733D01*
X143552773Y-60553538D01*
X143340928Y-60341693D01*
X143340919Y-60341683D01*
X143336588Y-60337352D01*
X143217717Y-60218481D01*
X143217716Y-60218480D01*
X143149714Y-60179220D01*
X143147653Y-60177920D01*
X143143489Y-60173197D01*
X143138430Y-60168798D01*
X143115842Y-60159663D01*
X143080786Y-60139423D01*
X143042603Y-60129192D01*
X142928057Y-60098499D01*
X142928054Y-60098499D01*
X142760443Y-60098499D01*
X142760380Y-60098500D01*
X131966928Y-60098500D01*
X131931992Y-60093477D01*
X131906750Y-60086065D01*
X131854005Y-60054769D01*
X130178084Y-58378848D01*
X131699499Y-58378848D01*
X131730257Y-58533471D01*
X131730264Y-58533502D01*
X131790598Y-58679165D01*
X131790603Y-58679174D01*
X131790613Y-58679191D01*
X131878211Y-58810290D01*
X131878212Y-58810291D01*
X131878217Y-58810297D01*
X131989701Y-58921781D01*
X131989707Y-58921786D01*
X131989711Y-58921789D01*
X132120814Y-59009390D01*
X132120827Y-59009397D01*
X132266498Y-59069735D01*
X132266503Y-59069737D01*
X132416131Y-59099500D01*
X132421153Y-59100499D01*
X132421156Y-59100500D01*
X132421158Y-59100500D01*
X132578844Y-59100500D01*
X132578845Y-59100499D01*
X132733497Y-59069737D01*
X132879179Y-59009394D01*
X133010289Y-58921789D01*
X133121789Y-58810289D01*
X133209394Y-58679179D01*
X133269737Y-58533497D01*
X133300500Y-58378842D01*
X133300500Y-58221158D01*
X133300500Y-58221155D01*
X133300500Y-58220973D01*
X133300065Y-58218972D01*
X133270395Y-58069815D01*
X133269983Y-58067403D01*
X133269738Y-58066508D01*
X133269737Y-58066506D01*
X133269737Y-58066503D01*
X133257758Y-58037583D01*
X133241712Y-57998845D01*
X133209402Y-57920840D01*
X133209399Y-57920833D01*
X133209397Y-57920827D01*
X133209390Y-57920814D01*
X133121789Y-57789711D01*
X133121786Y-57789707D01*
X133121781Y-57789701D01*
X133010297Y-57678217D01*
X133010291Y-57678212D01*
X133010290Y-57678211D01*
X132879191Y-57590613D01*
X132879190Y-57590612D01*
X132879185Y-57590609D01*
X132879172Y-57590602D01*
X132879165Y-57590598D01*
X132733502Y-57530264D01*
X132733471Y-57530257D01*
X132578847Y-57499500D01*
X132578845Y-57499500D01*
X132578842Y-57499500D01*
X132421158Y-57499500D01*
X132421155Y-57499500D01*
X132421153Y-57499500D01*
X132266527Y-57530257D01*
X132266496Y-57530264D01*
X132120833Y-57590598D01*
X132120824Y-57590603D01*
X132120807Y-57590613D01*
X131989708Y-57678211D01*
X131989707Y-57678212D01*
X131989701Y-57678217D01*
X131878217Y-57789701D01*
X131878212Y-57789707D01*
X131878211Y-57789708D01*
X131790613Y-57920807D01*
X131790603Y-57920824D01*
X131790598Y-57920833D01*
X131730264Y-58066496D01*
X131730257Y-58066527D01*
X131699500Y-58221150D01*
X131699500Y-58221153D01*
X131699500Y-58378846D01*
X131699500Y-58378848D01*
X131699499Y-58378848D01*
X130178084Y-58378848D01*
X119699426Y-47900190D01*
X119678274Y-47871934D01*
X119665667Y-47848845D01*
X119650500Y-47789420D01*
X119650500Y-45447594D01*
X119655523Y-45412658D01*
X119664862Y-45380853D01*
X119680737Y-45346898D01*
X119683500Y-45342761D01*
X119759394Y-45229179D01*
X119819737Y-45083497D01*
X119850500Y-44928842D01*
X119850500Y-44771158D01*
X119850500Y-44771155D01*
X119850500Y-44770973D01*
X119850065Y-44768972D01*
X119820397Y-44619824D01*
X119819994Y-44617467D01*
X119819738Y-44616508D01*
X119819737Y-44616506D01*
X119819737Y-44616503D01*
X119819735Y-44616498D01*
X119759397Y-44470827D01*
X119759390Y-44470814D01*
X119671789Y-44339711D01*
X119671786Y-44339707D01*
X119671781Y-44339701D01*
X119560297Y-44228217D01*
X119560291Y-44228212D01*
X119560290Y-44228211D01*
X119429191Y-44140613D01*
X119429190Y-44140612D01*
X119429185Y-44140609D01*
X119429172Y-44140602D01*
X119429165Y-44140598D01*
X119283502Y-44080264D01*
X119283471Y-44080257D01*
X119128847Y-44049500D01*
X119128845Y-44049500D01*
X119128842Y-44049500D01*
X118971158Y-44049500D01*
X118971155Y-44049500D01*
X118971153Y-44049500D01*
X118816527Y-44080257D01*
X118816496Y-44080264D01*
X118670833Y-44140598D01*
X118670824Y-44140603D01*
X118670807Y-44140613D01*
X118539708Y-44228211D01*
X118539707Y-44228212D01*
X118539701Y-44228217D01*
X118428217Y-44339701D01*
X118428212Y-44339707D01*
X118428211Y-44339708D01*
X118340613Y-44470807D01*
X118340603Y-44470824D01*
X118340598Y-44470833D01*
X118280264Y-44616496D01*
X118280257Y-44616527D01*
X118249500Y-44771150D01*
X118249500Y-44771153D01*
X118249500Y-44928846D01*
X118249500Y-44928848D01*
X118249499Y-44928848D01*
X110500500Y-44928848D01*
X110500500Y-43078848D01*
X111149499Y-43078848D01*
X111180257Y-43233471D01*
X111180264Y-43233502D01*
X111240598Y-43379165D01*
X111240603Y-43379174D01*
X111240613Y-43379191D01*
X111328211Y-43510290D01*
X111328212Y-43510291D01*
X111328217Y-43510297D01*
X111439701Y-43621781D01*
X111439707Y-43621786D01*
X111439711Y-43621789D01*
X111570814Y-43709390D01*
X111570827Y-43709397D01*
X111716498Y-43769735D01*
X111716503Y-43769737D01*
X111871153Y-43800499D01*
X111871156Y-43800500D01*
X111871158Y-43800500D01*
X112028844Y-43800500D01*
X112028845Y-43800499D01*
X112183497Y-43769737D01*
X112329179Y-43709394D01*
X112460289Y-43621789D01*
X112571789Y-43510289D01*
X112659394Y-43379179D01*
X112719737Y-43233497D01*
X112750500Y-43078842D01*
X112750500Y-42921158D01*
X112750500Y-42921155D01*
X112750500Y-42920973D01*
X112750065Y-42918972D01*
X112746715Y-42902129D01*
X112720395Y-42769815D01*
X112719983Y-42767403D01*
X112719738Y-42766508D01*
X112719737Y-42766506D01*
X112719737Y-42766503D01*
X112695368Y-42707671D01*
X112659397Y-42620827D01*
X112659390Y-42620814D01*
X112571789Y-42489711D01*
X112571786Y-42489707D01*
X112571781Y-42489701D01*
X112460297Y-42378217D01*
X112460291Y-42378212D01*
X112460290Y-42378211D01*
X112329191Y-42290613D01*
X112329190Y-42290612D01*
X112329185Y-42290609D01*
X112329172Y-42290602D01*
X112329165Y-42290598D01*
X112183502Y-42230264D01*
X112183471Y-42230257D01*
X112028847Y-42199500D01*
X112028845Y-42199500D01*
X112028842Y-42199500D01*
X111871158Y-42199500D01*
X111871155Y-42199500D01*
X111871153Y-42199500D01*
X111716527Y-42230257D01*
X111716496Y-42230264D01*
X111570833Y-42290598D01*
X111570824Y-42290603D01*
X111570807Y-42290613D01*
X111439708Y-42378211D01*
X111439707Y-42378212D01*
X111439701Y-42378217D01*
X111328217Y-42489701D01*
X111328212Y-42489707D01*
X111328211Y-42489708D01*
X111240613Y-42620807D01*
X111240603Y-42620824D01*
X111240598Y-42620833D01*
X111180264Y-42766496D01*
X111180264Y-42766498D01*
X111180261Y-42766510D01*
X111179601Y-42769830D01*
X111149500Y-42921150D01*
X111149500Y-42921153D01*
X111149500Y-43078846D01*
X111149500Y-43078848D01*
X111149499Y-43078848D01*
X110500500Y-43078848D01*
X110500500Y-39378848D01*
X116261999Y-39378848D01*
X116292757Y-39533471D01*
X116292764Y-39533502D01*
X116353098Y-39679165D01*
X116353103Y-39679174D01*
X116353113Y-39679191D01*
X116440711Y-39810290D01*
X116440712Y-39810291D01*
X116440717Y-39810297D01*
X116552201Y-39921781D01*
X116552207Y-39921786D01*
X116552211Y-39921789D01*
X116683314Y-40009390D01*
X116683327Y-40009397D01*
X116828998Y-40069735D01*
X116829003Y-40069737D01*
X116983653Y-40100499D01*
X116983656Y-40100500D01*
X116983658Y-40100500D01*
X117141344Y-40100500D01*
X117141345Y-40100499D01*
X117295997Y-40069737D01*
X117441679Y-40009394D01*
X117572789Y-39921789D01*
X117684289Y-39810289D01*
X117771894Y-39679179D01*
X117832237Y-39533497D01*
X117863000Y-39378842D01*
X117863000Y-39221158D01*
X117863000Y-39221155D01*
X117863000Y-39220973D01*
X117862565Y-39218972D01*
X117832897Y-39069824D01*
X117832494Y-39067467D01*
X117832238Y-39066508D01*
X117832237Y-39066506D01*
X117832237Y-39066503D01*
X117832235Y-39066498D01*
X117771897Y-38920827D01*
X117771890Y-38920814D01*
X117684289Y-38789711D01*
X117684286Y-38789707D01*
X117684281Y-38789701D01*
X117572797Y-38678217D01*
X117572791Y-38678212D01*
X117572790Y-38678211D01*
X117441691Y-38590613D01*
X117441690Y-38590612D01*
X117441685Y-38590609D01*
X117441672Y-38590602D01*
X117441665Y-38590598D01*
X117296002Y-38530264D01*
X117295971Y-38530257D01*
X117141347Y-38499500D01*
X117141345Y-38499500D01*
X117141342Y-38499500D01*
X116983658Y-38499500D01*
X116983655Y-38499500D01*
X116983653Y-38499500D01*
X116829027Y-38530257D01*
X116828996Y-38530264D01*
X116683333Y-38590598D01*
X116683324Y-38590603D01*
X116683307Y-38590613D01*
X116552208Y-38678211D01*
X116552207Y-38678212D01*
X116552201Y-38678217D01*
X116440717Y-38789701D01*
X116440712Y-38789707D01*
X116440711Y-38789708D01*
X116353113Y-38920807D01*
X116353103Y-38920824D01*
X116353098Y-38920833D01*
X116292764Y-39066496D01*
X116292757Y-39066527D01*
X116262000Y-39221150D01*
X116262000Y-39221153D01*
X116262000Y-39378846D01*
X116262000Y-39378848D01*
X116261999Y-39378848D01*
X110500500Y-39378848D01*
X110500500Y-35815837D01*
X110511733Y-35777581D01*
X110516980Y-35749227D01*
X110527563Y-35737961D01*
X110527690Y-35737777D01*
X110527718Y-35737796D01*
X110564819Y-35698303D01*
X110632595Y-35681326D01*
X110698789Y-35703687D01*
X110724513Y-35727852D01*
X110726760Y-35730666D01*
X110739220Y-35749587D01*
X110822140Y-35904720D01*
X110822151Y-35904738D01*
X111024140Y-36207035D01*
X111024146Y-36207044D01*
X111024157Y-36207058D01*
X111024159Y-36207061D01*
X111254811Y-36488111D01*
X111511886Y-36745186D01*
X111511963Y-36745255D01*
X111512496Y-36745687D01*
X111792956Y-36975854D01*
X111947157Y-37078888D01*
X112095269Y-37177854D01*
X112095942Y-37178227D01*
X112096742Y-37178641D01*
X112261704Y-37266815D01*
X112410615Y-37346410D01*
X112410617Y-37346411D01*
X112414688Y-37348587D01*
X112414789Y-37348641D01*
X112414843Y-37348670D01*
X112419387Y-37351099D01*
X112424364Y-37352743D01*
X112751836Y-37488386D01*
X113099767Y-37593930D01*
X113099773Y-37593931D01*
X113099776Y-37593932D01*
X113099787Y-37593935D01*
X113099812Y-37593939D01*
X113100350Y-37594067D01*
X113101622Y-37594300D01*
X113456369Y-37664862D01*
X113818206Y-37700500D01*
X113818209Y-37700500D01*
X114181791Y-37700500D01*
X114181794Y-37700500D01*
X114358205Y-37683124D01*
X114543624Y-37664863D01*
X114543627Y-37664862D01*
X114543631Y-37664862D01*
X114613045Y-37651054D01*
X114613046Y-37651054D01*
X114894360Y-37595099D01*
X114894360Y-37595098D01*
X114900212Y-37593935D01*
X114900218Y-37593933D01*
X114900501Y-37593877D01*
X114901926Y-37593467D01*
X114930505Y-37585672D01*
X114932231Y-37584406D01*
X114938438Y-37582340D01*
X115248164Y-37488386D01*
X115584076Y-37349247D01*
X115904732Y-37177853D01*
X116207044Y-36975854D01*
X116488101Y-36745197D01*
X116745197Y-36488101D01*
X116975854Y-36207044D01*
X117177853Y-35904732D01*
X117349247Y-35584076D01*
X117488386Y-35248164D01*
X117593930Y-34900233D01*
X117593932Y-34900223D01*
X117593935Y-34900212D01*
X117664862Y-34543630D01*
X117700500Y-34181790D01*
X117700500Y-33818209D01*
X117692197Y-33733910D01*
X117664862Y-33456369D01*
X117593935Y-33099787D01*
X117593932Y-33099776D01*
X117593931Y-33099773D01*
X117593930Y-33099767D01*
X117488386Y-32751836D01*
X117349247Y-32415924D01*
X117326500Y-32373368D01*
X117178641Y-32096742D01*
X117178227Y-32095942D01*
X117177854Y-32095269D01*
X116975859Y-31792964D01*
X116975854Y-31792956D01*
X116745687Y-31512496D01*
X116745687Y-31512495D01*
X116745187Y-31511887D01*
X116488111Y-31254811D01*
X116433244Y-31209783D01*
X116208354Y-31025221D01*
X116207356Y-31024379D01*
X116207065Y-31024161D01*
X116207055Y-31024154D01*
X116207048Y-31024149D01*
X116207044Y-31024146D01*
X116011438Y-30893446D01*
X115904746Y-30822156D01*
X115904738Y-30822151D01*
X115904732Y-30822147D01*
X115904727Y-30822144D01*
X115904720Y-30822140D01*
X115904711Y-30822135D01*
X115904704Y-30822131D01*
X115755277Y-30742261D01*
X115726825Y-30714312D01*
X115704299Y-30696323D01*
X115699354Y-30681682D01*
X115699247Y-30681475D01*
X115699278Y-30681458D01*
X115681942Y-30630127D01*
X115698922Y-30562352D01*
X115749849Y-30514517D01*
X115783282Y-30503224D01*
X115786834Y-30502567D01*
X115809383Y-30500500D01*
X154184162Y-30500500D01*
X154219090Y-30505521D01*
G37*
%TD.AperFunction*%
%TD*%
M02*
